<svg width="24" height="24" viewBox="0 0 24 24" fill="none"
                                        xmlns="http://www.w3.org/2000/svg">
                                        <path
                                            d="M20.7166 13.0602C20.9975 12.7789 21.1553 12.3977 21.1553 12.0002C21.1553 11.6027 20.9975 11.2214 20.7166 10.9402L15.0606 5.28116C14.7792 4.99976 14.3975 4.84167 13.9996 4.84167C13.6016 4.84167 13.22 4.99976 12.9386 5.28116C12.6572 5.56255 12.4991 5.9442 12.4991 6.34216C12.4991 6.74011 12.6572 7.12176 12.9386 7.40315L16.0346 10.5002L4.49959 10.5002C4.10177 10.5002 3.72024 10.6582 3.43893 10.9395C3.15763 11.2208 2.99959 11.6023 2.99959 12.0002C2.99959 12.398 3.15763 12.7795 3.43893 13.0608C3.72024 13.3421 4.10177 13.5002 4.49959 13.5002L16.0346 13.5002L12.9386 16.5962C12.7993 16.7355 12.6887 16.9009 12.6133 17.0829C12.5379 17.265 12.4991 17.4601 12.4991 17.6572C12.4991 17.8542 12.5379 18.0493 12.6133 18.2314C12.6887 18.4134 12.7993 18.5788 12.9386 18.7182C13.0779 18.8575 13.2433 18.968 13.4254 19.0434C13.6074 19.1188 13.8025 19.1576 13.9996 19.1576C14.1966 19.1576 14.3918 19.1188 14.5738 19.0434C14.7558 18.968 14.9213 18.8575 15.0606 18.7182L20.7166 13.0602Z"
                                            fill="#01ABFE" />
                                    </svg>
