<svg class="item3" style="backdrop-filter: blur(20px);border-radius: 7px;" width="132" height="76" viewBox="0 0 204 117" fill="none" xmlns="http://www.w3.org/2000/svg">
                    <g filter="url(#filter0_bd_427_152)">
                    <g clip-path="url(#clip0_427_152)">
                    <rect x="2" y="1" width="200" height="113" rx="8" fill="#AFAFAF" fill-opacity="0.1" shape-rendering="crispEdges"/>
                    <g clip-path="url(#clip1_427_152)">
                    <path fill-rule="evenodd" clip-rule="evenodd" d="M343 30L334.767 43.4722C326.533 56.9444 310.067 83.8889 293.6 89.2778C277.133 94.6667 260.667 78.5 244.2 75.8056C227.733 73.1111 211.267 83.8889 194.8 73.1111C178.333 62.3333 161.867 30 145.4 30C128.933 30 112.467 62.3333 96 70.4167C79.5333 78.5 63.0667 62.3333 46.6 51.5556C30.1334 40.7778 13.6667 35.3889 -2.79996 48.8611C-19.2666 62.3333 -35.7333 94.6667 -52.2 110.833C-68.6667 127 -85.1333 127 -101.6 118.917C-118.067 110.833 -134.533 94.6667 -142.767 86.5833L-151 78.5V127H-142.767C-134.533 127 -118.067 127 -101.6 127C-85.1333 127 -68.6667 127 -52.2 127C-35.7333 127 -19.2666 127 -2.79996 127C13.6667 127 30.1334 127 46.6 127C63.0667 127 79.5333 127 96 127C112.467 127 128.933 127 145.4 127C161.867 127 178.333 127 194.8 127C211.267 127 227.733 127 244.2 127C260.667 127 277.133 127 293.6 127C310.067 127 326.533 127 334.767 127H343V30Z" fill="url(#paint0_linear_427_152)" fill-opacity="0.25"/>
                    <path d="M343 30.0007L334.767 43.4405C326.533 56.8802 310.067 83.7598 293.6 89.1357C277.133 94.5116 260.667 78.3839 244.2 75.6959C227.733 73.008 211.267 83.7598 194.8 73.008C178.518 62.0876 162.059 29.828 145.4 30.0007C128.933 30.0007 112.467 62.2562 96 70.32C79.5333 78.3839 63.0667 62.2562 46.6 51.5043C30.1334 40.7525 13.6667 35.3766 -2.79997 48.8164C-19.2666 62.2562 -35.7333 94.5116 -52.2 110.639C-68.6667 126.767 -85.1333 126.767 -101.6 118.703C-118.067 110.639 -134.533 94.5116 -142.767 86.4477L-151 78.3839" stroke="#006AFF" stroke-width="3"/>
                    <rect x="87" y="30" width="27" height="70" rx="2" fill="url(#paint1_linear_427_152)" fill-opacity="0.25"/>
                    <g filter="url(#filter1_d_427_152)">
                    <g clip-path="url(#clip2_427_152)">
                    <rect x="76" y="14" width="74" height="27" rx="2" fill="white"/>
                    <path d="M80.2898 19.1051V18.6364H83.5625V19.1051H82.1903V23H81.6619V19.1051H80.2898ZM85.1648 23.0682C84.8693 23.0682 84.6101 22.9979 84.3871 22.8572C84.1655 22.7166 83.9922 22.5199 83.8672 22.267C83.7436 22.0142 83.6818 21.7187 83.6818 21.3807C83.6818 21.0398 83.7436 20.7422 83.8672 20.4879C83.9922 20.2337 84.1655 20.0362 84.3871 19.8956C84.6101 19.755 84.8693 19.6847 85.1648 19.6847C85.4602 19.6847 85.7188 19.755 85.9403 19.8956C86.1634 20.0362 86.3366 20.2337 86.4602 20.4879C86.5852 20.7422 86.6477 21.0398 86.6477 21.3807C86.6477 21.7187 86.5852 22.0142 86.4602 22.267C86.3366 22.5199 86.1634 22.7166 85.9403 22.8572C85.7188 22.9979 85.4602 23.0682 85.1648 23.0682ZM85.1648 22.6165C85.3892 22.6165 85.5739 22.5589 85.7188 22.4439C85.8636 22.3288 85.9709 22.1776 86.0405 21.9901C86.1101 21.8026 86.1449 21.5994 86.1449 21.3807C86.1449 21.1619 86.1101 20.9581 86.0405 20.7692C85.9709 20.5803 85.8636 20.4276 85.7188 20.3111C85.5739 20.1946 85.3892 20.1364 85.1648 20.1364C84.9403 20.1364 84.7557 20.1946 84.6108 20.3111C84.4659 20.4276 84.3587 20.5803 84.2891 20.7692C84.2195 20.9581 84.1847 21.1619 84.1847 21.3807C84.1847 21.5994 84.2195 21.8026 84.2891 21.9901C84.3587 22.1776 84.4659 22.3288 84.6108 22.4439C84.7557 22.5589 84.9403 22.6165 85.1648 22.6165ZM88.8386 19.7273V20.1534H87.1426V19.7273H88.8386ZM87.6369 18.9432H88.1397V22.0625C88.1397 22.2045 88.1603 22.3111 88.2015 22.3821C88.2441 22.4517 88.2981 22.4986 88.3635 22.5227C88.4302 22.5455 88.5005 22.5568 88.5744 22.5568C88.6298 22.5568 88.6752 22.554 88.7108 22.5483C88.7463 22.5412 88.7747 22.5355 88.796 22.5312L88.8983 22.983C88.8642 22.9957 88.8166 23.0085 88.7555 23.0213C88.6944 23.0355 88.617 23.0426 88.5233 23.0426C88.3812 23.0426 88.242 23.0121 88.1056 22.951C87.9707 22.8899 87.8585 22.7969 87.769 22.6719C87.6809 22.5469 87.6369 22.3892 87.6369 22.1989V18.9432ZM90.5581 23.0767C90.3507 23.0767 90.1625 23.0376 89.9934 22.9595C89.8244 22.88 89.6902 22.7656 89.5907 22.6165C89.4913 22.4659 89.4416 22.2841 89.4416 22.071C89.4416 21.8835 89.4785 21.7315 89.5524 21.6151C89.6262 21.4972 89.725 21.4048 89.8485 21.3381C89.9721 21.2713 90.1085 21.2216 90.2576 21.1889C90.4082 21.1548 90.5595 21.1278 90.7115 21.108C90.9103 21.0824 91.0716 21.0632 91.1951 21.0504C91.3201 21.0362 91.411 21.0128 91.4679 20.9801C91.5261 20.9474 91.5552 20.8906 91.5552 20.8097V20.7926C91.5552 20.5824 91.4977 20.419 91.3826 20.3026C91.269 20.1861 91.0964 20.1278 90.8649 20.1278C90.6248 20.1278 90.4366 20.1804 90.3002 20.2855C90.1639 20.3906 90.068 20.5028 90.0126 20.6222L89.5353 20.4517C89.6206 20.2528 89.7342 20.098 89.8762 19.9872C90.0197 19.875 90.176 19.7969 90.345 19.7528C90.5154 19.7074 90.6831 19.6847 90.8478 19.6847C90.9529 19.6847 91.0737 19.6974 91.21 19.723C91.3478 19.7472 91.4806 19.7976 91.6085 19.8743C91.7377 19.951 91.845 20.0668 91.9302 20.2216C92.0154 20.3764 92.0581 20.5838 92.0581 20.8438V23H91.5552V22.5568H91.5297C91.4956 22.6278 91.4387 22.7038 91.3592 22.7848C91.2797 22.8658 91.1738 22.9347 91.0417 22.9915C90.9096 23.0483 90.7484 23.0767 90.5581 23.0767ZM90.6348 22.625C90.8336 22.625 91.0012 22.5859 91.1376 22.5078C91.2754 22.4297 91.3791 22.3288 91.4487 22.2053C91.5197 22.0817 91.5552 21.9517 91.5552 21.8153V21.3551C91.5339 21.3807 91.487 21.4041 91.4146 21.4254C91.3436 21.4453 91.2612 21.4631 91.1674 21.4787C91.0751 21.4929 90.9849 21.5057 90.8968 21.517C90.8102 21.527 90.7399 21.5355 90.6859 21.5426C90.5552 21.5597 90.4331 21.5874 90.3194 21.6257C90.2072 21.6626 90.1163 21.7187 90.0467 21.794C89.9785 21.8679 89.9444 21.9687 89.9444 22.0966C89.9444 22.2713 90.0091 22.4034 90.1383 22.4929C90.269 22.581 90.4345 22.625 90.6348 22.625ZM93.4787 18.6364V23H92.9759V18.6364H93.4787ZM99.6667 20H99.1383C99.1071 19.848 99.0524 19.7145 98.9743 19.5994C98.8975 19.4844 98.8038 19.3878 98.693 19.3097C98.5836 19.2301 98.4622 19.1705 98.3287 19.1307C98.1951 19.0909 98.0559 19.071 97.911 19.071C97.6468 19.071 97.4075 19.1378 97.193 19.2713C96.9799 19.4048 96.8102 19.6016 96.6838 19.8615C96.5588 20.1214 96.4963 20.4403 96.4963 20.8182C96.4963 21.196 96.5588 21.5149 96.6838 21.7749C96.8102 22.0348 96.9799 22.2315 97.193 22.3651C97.4075 22.4986 97.6468 22.5653 97.911 22.5653C98.0559 22.5653 98.1951 22.5455 98.3287 22.5057C98.4622 22.4659 98.5836 22.407 98.693 22.3288C98.8038 22.2493 98.8975 22.152 98.9743 22.0369C99.0524 21.9205 99.1071 21.7869 99.1383 21.6364H99.6667C99.627 21.8594 99.5545 22.0589 99.4494 22.2351C99.3443 22.4112 99.2136 22.5611 99.0574 22.6847C98.9011 22.8068 98.7257 22.8999 98.5311 22.9638C98.3379 23.0277 98.1312 23.0597 97.911 23.0597C97.5389 23.0597 97.2079 22.9688 96.9181 22.7869C96.6284 22.6051 96.4004 22.3466 96.2342 22.0114C96.068 21.6761 95.9849 21.2784 95.9849 20.8182C95.9849 20.358 96.068 19.9602 96.2342 19.625C96.4004 19.2898 96.6284 19.0312 96.9181 18.8494C97.2079 18.6676 97.5389 18.5767 97.911 18.5767C98.1312 18.5767 98.3379 18.6087 98.5311 18.6726C98.7257 18.7365 98.9011 18.8303 99.0574 18.9538C99.2136 19.076 99.3443 19.2251 99.4494 19.4013C99.5545 19.576 99.627 19.7756 99.6667 20ZM100.955 18.6364V23H100.452V18.6364H100.955ZM101.876 23V19.7273H102.379V23H101.876ZM102.132 19.1818C102.034 19.1818 101.949 19.1484 101.878 19.0817C101.809 19.0149 101.774 18.9347 101.774 18.8409C101.774 18.7472 101.809 18.6669 101.878 18.6001C101.949 18.5334 102.034 18.5 102.132 18.5C102.23 18.5 102.314 18.5334 102.383 18.6001C102.454 18.6669 102.49 18.7472 102.49 18.8409C102.49 18.9347 102.454 19.0149 102.383 19.0817C102.314 19.1484 102.23 19.1818 102.132 19.1818ZM104.672 23.0682C104.357 23.0682 104.085 22.9986 103.856 22.8594C103.629 22.7188 103.453 22.5227 103.33 22.2713C103.208 22.0185 103.147 21.7244 103.147 21.3892C103.147 21.054 103.208 20.7585 103.33 20.5028C103.453 20.2457 103.625 20.0455 103.846 19.902C104.067 19.7571 104.326 19.6847 104.621 19.6847C104.792 19.6847 104.96 19.7131 105.126 19.7699C105.292 19.8267 105.444 19.919 105.58 20.0469C105.716 20.1733 105.825 20.3409 105.906 20.5497C105.987 20.7585 106.027 21.0156 106.027 21.321V21.5341H103.505V21.0994H105.516C105.516 20.9148 105.479 20.75 105.405 20.6051C105.333 20.4602 105.229 20.3459 105.094 20.2621C104.961 20.1783 104.803 20.1364 104.621 20.1364C104.421 20.1364 104.248 20.1861 104.101 20.2855C103.956 20.3835 103.845 20.5114 103.767 20.669C103.689 20.8267 103.65 20.9957 103.65 21.1761V21.4659C103.65 21.7131 103.692 21.9226 103.777 22.0945C103.864 22.2649 103.984 22.3949 104.137 22.4844C104.291 22.5724 104.469 22.6165 104.672 22.6165C104.804 22.6165 104.924 22.598 105.03 22.5611C105.138 22.5227 105.231 22.4659 105.309 22.3906C105.387 22.3139 105.448 22.2187 105.49 22.1051L105.976 22.2415C105.925 22.4062 105.839 22.5511 105.718 22.6761C105.598 22.7997 105.449 22.8963 105.271 22.9659C105.093 23.0341 104.894 23.0682 104.672 23.0682ZM107.295 21.0312V23H106.792V19.7273H107.278V20.2386H107.321C107.397 20.0724 107.514 19.9389 107.67 19.8381C107.826 19.7358 108.028 19.6847 108.275 19.6847C108.497 19.6847 108.691 19.7301 108.857 19.821C109.023 19.9105 109.152 20.0469 109.245 20.2301C109.337 20.4119 109.383 20.642 109.383 20.9205V23H108.88V20.9545C108.88 20.6974 108.814 20.4972 108.68 20.3537C108.547 20.2088 108.363 20.1364 108.13 20.1364C107.97 20.1364 107.826 20.1712 107.7 20.2408C107.575 20.3104 107.476 20.4119 107.404 20.5455C107.331 20.679 107.295 20.8409 107.295 21.0312ZM111.725 19.7273V20.1534H110.029V19.7273H111.725ZM110.524 18.9432H111.026V22.0625C111.026 22.2045 111.047 22.3111 111.088 22.3821C111.131 22.4517 111.185 22.4986 111.25 22.5227C111.317 22.5455 111.387 22.5568 111.461 22.5568C111.517 22.5568 111.562 22.554 111.597 22.5483C111.633 22.5412 111.661 22.5355 111.683 22.5312L111.785 22.983C111.751 22.9957 111.703 23.0085 111.642 23.0213C111.581 23.0355 111.504 23.0426 111.41 23.0426C111.268 23.0426 111.129 23.0121 110.992 22.951C110.857 22.8899 110.745 22.7969 110.656 22.6719C110.568 22.5469 110.524 22.3892 110.524 22.1989V18.9432ZM113.999 19.1051V18.6364H117.271V19.1051H115.899V23H115.371V19.1051H113.999ZM118.522 21.0312V23H118.019V18.6364H118.522V20.2386H118.564C118.641 20.0696 118.756 19.9354 118.909 19.8359C119.064 19.7351 119.27 19.6847 119.527 19.6847C119.75 19.6847 119.946 19.7294 120.113 19.8189C120.281 19.907 120.411 20.0426 120.503 20.2259C120.597 20.4077 120.644 20.6392 120.644 20.9205V23H120.141V20.9545C120.141 20.6946 120.074 20.4936 119.939 20.3516C119.805 20.2081 119.62 20.1364 119.382 20.1364C119.218 20.1364 119.07 20.1712 118.939 20.2408C118.81 20.3104 118.708 20.4119 118.632 20.5455C118.559 20.679 118.522 20.8409 118.522 21.0312ZM121.564 23V19.7273H122.067V23H121.564ZM121.819 19.1818C121.721 19.1818 121.637 19.1484 121.566 19.0817C121.496 19.0149 121.461 18.9347 121.461 18.8409C121.461 18.7472 121.496 18.6669 121.566 18.6001C121.637 18.5334 121.721 18.5 121.819 18.5C121.917 18.5 122.001 18.5334 122.071 18.6001C122.142 18.6669 122.177 18.7472 122.177 18.8409C122.177 18.9347 122.142 19.0149 122.071 19.0817C122.001 19.1484 121.917 19.1818 121.819 19.1818ZM125.306 20.4602L124.854 20.5881C124.826 20.5128 124.784 20.4396 124.728 20.3686C124.674 20.2962 124.6 20.2365 124.507 20.1896C124.413 20.1428 124.293 20.1193 124.147 20.1193C123.946 20.1193 123.779 20.1655 123.646 20.2578C123.514 20.3487 123.448 20.4645 123.448 20.6051C123.448 20.7301 123.493 20.8288 123.584 20.9013C123.675 20.9737 123.817 21.0341 124.01 21.0824L124.496 21.2017C124.789 21.2727 125.007 21.3814 125.15 21.5277C125.294 21.6726 125.365 21.8594 125.365 22.0881C125.365 22.2756 125.311 22.4432 125.203 22.5909C125.097 22.7386 124.948 22.8551 124.756 22.9403C124.564 23.0256 124.341 23.0682 124.087 23.0682C123.753 23.0682 123.477 22.9957 123.258 22.8509C123.039 22.706 122.901 22.4943 122.843 22.2159L123.32 22.0966C123.365 22.2727 123.451 22.4048 123.578 22.4929C123.706 22.581 123.873 22.625 124.078 22.625C124.313 22.625 124.499 22.5753 124.637 22.4759C124.776 22.375 124.846 22.2543 124.846 22.1136C124.846 22 124.806 21.9048 124.726 21.8281C124.647 21.75 124.525 21.6918 124.36 21.6534L123.814 21.5256C123.515 21.4545 123.294 21.3445 123.154 21.1953C123.015 21.0447 122.945 20.8565 122.945 20.6307C122.945 20.446 122.997 20.2827 123.1 20.1406C123.206 19.9986 123.348 19.8871 123.529 19.8061C123.711 19.7251 123.917 19.6847 124.147 19.6847C124.471 19.6847 124.725 19.7557 124.909 19.8977C125.096 20.0398 125.228 20.2273 125.306 20.4602ZM127.878 18.6364H128.509L129.992 22.2585H130.043L131.526 18.6364H132.156V23H131.662V19.6847H131.619L130.256 23H129.779L128.415 19.6847H128.372V23H127.878V18.6364ZM134.477 23.0682C134.182 23.0682 133.923 22.9979 133.7 22.8572C133.478 22.7166 133.305 22.5199 133.18 22.267C133.056 22.0142 132.994 21.7187 132.994 21.3807C132.994 21.0398 133.056 20.7422 133.18 20.4879C133.305 20.2337 133.478 20.0362 133.7 19.8956C133.923 19.755 134.182 19.6847 134.477 19.6847C134.773 19.6847 135.031 19.755 135.253 19.8956C135.476 20.0362 135.649 20.2337 135.773 20.4879C135.898 20.7422 135.96 21.0398 135.96 21.3807C135.96 21.7187 135.898 22.0142 135.773 22.267C135.649 22.5199 135.476 22.7166 135.253 22.8572C135.031 22.9979 134.773 23.0682 134.477 23.0682ZM134.477 22.6165C134.702 22.6165 134.886 22.5589 135.031 22.4439C135.176 22.3288 135.283 22.1776 135.353 21.9901C135.423 21.8026 135.457 21.5994 135.457 21.3807C135.457 21.1619 135.423 20.9581 135.353 20.7692C135.283 20.5803 135.176 20.4276 135.031 20.3111C134.886 20.1946 134.702 20.1364 134.477 20.1364C134.253 20.1364 134.068 20.1946 133.923 20.3111C133.778 20.4276 133.671 20.5803 133.602 20.7692C133.532 20.9581 133.497 21.1619 133.497 21.3807C133.497 21.5994 133.532 21.8026 133.602 21.9901C133.671 22.1776 133.778 22.3288 133.923 22.4439C134.068 22.5589 134.253 22.6165 134.477 22.6165ZM137.231 21.0312V23H136.728V19.7273H137.214V20.2386H137.256C137.333 20.0724 137.449 19.9389 137.606 19.8381C137.762 19.7358 137.964 19.6847 138.211 19.6847C138.432 19.6847 138.626 19.7301 138.792 19.821C138.959 19.9105 139.088 20.0469 139.18 20.2301C139.273 20.4119 139.319 20.642 139.319 20.9205V23H138.816V20.9545C138.816 20.6974 138.749 20.4972 138.616 20.3537C138.482 20.2088 138.299 20.1364 138.066 20.1364C137.905 20.1364 137.762 20.1712 137.635 20.2408C137.51 20.3104 137.412 20.4119 137.339 20.5455C137.267 20.679 137.231 20.8409 137.231 21.0312ZM141.661 19.7273V20.1534H139.965V19.7273H141.661ZM140.459 18.9432H140.962V22.0625C140.962 22.2045 140.983 22.3111 141.024 22.3821C141.066 22.4517 141.12 22.4986 141.186 22.5227C141.252 22.5455 141.323 22.5568 141.397 22.5568C141.452 22.5568 141.498 22.554 141.533 22.5483C141.569 22.5412 141.597 22.5355 141.618 22.5312L141.721 22.983C141.686 22.9957 141.639 23.0085 141.578 23.0213C141.517 23.0355 141.439 23.0426 141.346 23.0426C141.203 23.0426 141.064 23.0121 140.928 22.951C140.793 22.8899 140.681 22.7969 140.591 22.6719C140.503 22.5469 140.459 22.3892 140.459 22.1989V18.9432ZM142.99 21.0312V23H142.488V18.6364H142.99V20.2386H143.033C143.11 20.0696 143.225 19.9354 143.378 19.8359C143.533 19.7351 143.739 19.6847 143.996 19.6847C144.219 19.6847 144.414 19.7294 144.582 19.8189C144.75 19.907 144.88 20.0426 144.972 20.2259C145.066 20.4077 145.113 20.6392 145.113 20.9205V23H144.61V20.9545C144.61 20.6946 144.542 20.4936 144.407 20.3516C144.274 20.2081 144.088 20.1364 143.851 20.1364C143.686 20.1364 143.539 20.1712 143.408 20.2408C143.279 20.3104 143.176 20.4119 143.101 20.5455C143.027 20.679 142.99 20.8409 142.99 21.0312Z" fill="#1B1F26" fill-opacity="0.72"/>
                    <path d="M83.0256 36.0994C82.6089 36.0994 82.2337 36.0166 81.8999 35.8509C81.5661 35.6851 81.2985 35.4579 81.0973 35.169C80.8961 34.8802 80.786 34.5511 80.767 34.1818H81.6193C81.6525 34.5109 81.8016 34.7831 82.0668 34.9986C82.3343 35.2116 82.6539 35.3182 83.0256 35.3182C83.3239 35.3182 83.589 35.2483 83.821 35.1087C84.0554 34.969 84.2389 34.7772 84.3714 34.5334C84.5064 34.2872 84.5739 34.009 84.5739 33.6989C84.5739 33.3816 84.504 33.0987 84.3643 32.8501C84.227 32.5992 84.0376 32.4015 83.7962 32.2571C83.5547 32.1127 83.2789 32.0393 82.9688 32.0369C82.7462 32.0346 82.5178 32.0689 82.2834 32.1399C82.049 32.2086 81.8561 32.2973 81.7045 32.4062L80.8807 32.3068L81.321 28.7273H85.0994V29.5085H82.0597L81.804 31.6534H81.8466C81.9957 31.535 82.1828 31.4368 82.4077 31.3587C82.6326 31.2805 82.867 31.2415 83.1108 31.2415C83.5559 31.2415 83.9524 31.348 84.3004 31.5611C84.6508 31.7718 84.9254 32.0606 85.1243 32.4276C85.3255 32.7945 85.4261 33.2135 85.4261 33.6847C85.4261 34.1487 85.322 34.563 85.1136 34.9276C84.9077 35.2898 84.6236 35.5762 84.2614 35.7869C83.8991 35.9953 83.4872 36.0994 83.0256 36.0994ZM86.6664 34.5085V33.7841L89.8624 28.7273H90.388V29.8494H90.0328L87.6181 33.6705V33.7273H91.9221V34.5085H86.6664ZM90.0897 36V34.2884V33.951V28.7273H90.9277V36H90.0897Z" fill="#060020"/>
                    </g>
                    </g>
                    <g filter="url(#filter2_d_427_152)">
                    <circle cx="101.5" cy="57.5" r="3.5" fill="#006AFF"/>
                    <circle cx="101.5" cy="57.5" r="5.5" stroke="white" stroke-width="4"/>
                    </g>
                    </g>
                    <path d="M11.8594 105.34V101.312H12.6094V105.34C12.6094 105.715 12.5326 106.031 12.3789 106.289C12.2253 106.547 12.013 106.743 11.7422 106.879C11.474 107.012 11.1654 107.078 10.8164 107.078C10.4674 107.078 10.1576 107.018 9.88672 106.898C9.61589 106.779 9.40365 106.596 9.25 106.352C9.09635 106.107 9.01953 105.798 9.01953 105.426H9.77344C9.77344 105.665 9.81771 105.862 9.90625 106.016C9.99479 106.169 10.1172 106.283 10.2734 106.355C10.4323 106.428 10.6133 106.465 10.8164 106.465C11.0143 106.465 11.1914 106.423 11.3477 106.34C11.5065 106.254 11.6315 106.128 11.7227 105.961C11.8138 105.792 11.8594 105.585 11.8594 105.34ZM16.2695 106.277V104.102C16.2695 103.935 16.2357 103.79 16.168 103.668C16.1029 103.543 16.0039 103.447 15.8711 103.379C15.7383 103.311 15.5742 103.277 15.3789 103.277C15.1966 103.277 15.0365 103.309 14.8984 103.371C14.763 103.434 14.6562 103.516 14.5781 103.617C14.5026 103.719 14.4648 103.828 14.4648 103.945H13.7422C13.7422 103.794 13.7812 103.645 13.8594 103.496C13.9375 103.348 14.0495 103.214 14.1953 103.094C14.3438 102.971 14.5208 102.875 14.7266 102.805C14.9349 102.732 15.1667 102.695 15.4219 102.695C15.7292 102.695 16 102.747 16.2344 102.852C16.4714 102.956 16.6562 103.113 16.7891 103.324C16.9245 103.533 16.9922 103.794 16.9922 104.109V106.078C16.9922 106.219 17.0039 106.368 17.0273 106.527C17.0534 106.686 17.0911 106.823 17.1406 106.938V107H16.3867C16.3503 106.917 16.3216 106.806 16.3008 106.668C16.2799 106.527 16.2695 106.397 16.2695 106.277ZM16.3945 104.438L16.4023 104.945H15.6719C15.4661 104.945 15.2826 104.962 15.1211 104.996C14.9596 105.027 14.8242 105.076 14.7148 105.141C14.6055 105.206 14.5221 105.288 14.4648 105.387C14.4076 105.483 14.3789 105.596 14.3789 105.727C14.3789 105.859 14.4089 105.98 14.4688 106.09C14.5286 106.199 14.6185 106.286 14.7383 106.352C14.8607 106.414 15.0104 106.445 15.1875 106.445C15.4089 106.445 15.6042 106.398 15.7734 106.305C15.9427 106.211 16.0768 106.096 16.1758 105.961C16.2773 105.826 16.332 105.694 16.3398 105.566L16.6484 105.914C16.6302 106.023 16.5807 106.145 16.5 106.277C16.4193 106.41 16.3112 106.538 16.1758 106.66C16.043 106.78 15.8841 106.88 15.6992 106.961C15.5169 107.039 15.3112 107.078 15.082 107.078C14.7956 107.078 14.5443 107.022 14.3281 106.91C14.1146 106.798 13.9479 106.648 13.8281 106.461C13.7109 106.271 13.6523 106.059 13.6523 105.824C13.6523 105.598 13.6966 105.398 13.7852 105.227C13.8737 105.052 14.0013 104.908 14.168 104.793C14.3346 104.676 14.5352 104.587 14.7695 104.527C15.0039 104.467 15.2656 104.438 15.5547 104.438H16.3945ZM18.8516 103.676V107H18.1289V102.773H18.8125L18.8516 103.676ZM18.6797 104.727L18.3789 104.715C18.3815 104.426 18.4245 104.159 18.5078 103.914C18.5911 103.667 18.7083 103.452 18.8594 103.27C19.0104 103.087 19.1901 102.947 19.3984 102.848C19.6094 102.746 19.8424 102.695 20.0977 102.695C20.306 102.695 20.4935 102.724 20.6602 102.781C20.8268 102.836 20.9688 102.924 21.0859 103.047C21.2057 103.169 21.2969 103.328 21.3594 103.523C21.4219 103.716 21.4531 103.952 21.4531 104.23V107H20.7266V104.223C20.7266 104.001 20.694 103.824 20.6289 103.691C20.5638 103.556 20.4688 103.458 20.3438 103.398C20.2188 103.336 20.0651 103.305 19.8828 103.305C19.7031 103.305 19.5391 103.342 19.3906 103.418C19.2448 103.493 19.1185 103.598 19.0117 103.73C18.9076 103.863 18.8255 104.016 18.7656 104.188C18.7083 104.357 18.6797 104.536 18.6797 104.727Z" fill="#8B8BA7"/>
                    <path d="M31.8711 101.312V107H31.1523V101.312H31.8711ZM33.7891 103.871V104.488H31.7344V103.871H33.7891ZM34.1133 101.312V101.93H31.7344V101.312H34.1133ZM36.3359 107.078C36.0833 107.078 35.8555 107.04 35.6523 106.965C35.4492 106.889 35.276 106.775 35.1328 106.621C34.9896 106.465 34.8802 106.268 34.8047 106.031C34.7292 105.794 34.6914 105.514 34.6914 105.191V104.715C34.6914 104.342 34.7344 104.027 34.8203 103.77C34.9089 103.512 35.0273 103.305 35.1758 103.148C35.3242 102.99 35.4922 102.875 35.6797 102.805C35.8672 102.732 36.0599 102.695 36.2578 102.695C36.5234 102.695 36.75 102.738 36.9375 102.824C37.125 102.91 37.2773 103.038 37.3945 103.207C37.5117 103.376 37.5977 103.585 37.6523 103.832C37.7096 104.079 37.7383 104.365 37.7383 104.688V105.09H35.0977V104.5H37.0469V104.402C37.0365 104.184 37.0065 103.991 36.957 103.824C36.9102 103.658 36.832 103.527 36.7227 103.434C36.6133 103.337 36.4583 103.289 36.2578 103.289C36.1302 103.289 36.0117 103.311 35.9023 103.355C35.7956 103.397 35.7031 103.471 35.625 103.578C35.5495 103.682 35.4896 103.827 35.4453 104.012C35.4036 104.197 35.3828 104.431 35.3828 104.715V105.191C35.3828 105.418 35.4036 105.613 35.4453 105.777C35.4896 105.939 35.5534 106.073 35.6367 106.18C35.7227 106.284 35.8268 106.362 35.9492 106.414C36.0742 106.464 36.2161 106.488 36.375 106.488C36.6068 106.488 36.7982 106.444 36.9492 106.355C37.1003 106.264 37.2318 106.148 37.3438 106.008L37.707 106.441C37.6315 106.548 37.5326 106.651 37.4102 106.75C37.2904 106.846 37.1419 106.926 36.9648 106.988C36.7904 107.048 36.5807 107.078 36.3359 107.078ZM38.5742 101H39.2656V106.18L39.207 107H38.5742V101ZM41.6367 104.695V105.09C41.6367 105.423 41.6055 105.715 41.543 105.965C41.4831 106.212 41.3932 106.419 41.2734 106.586C41.1536 106.75 41.0078 106.874 40.8359 106.957C40.6641 107.038 40.4674 107.078 40.2461 107.078C40.0273 107.078 39.8385 107.034 39.6797 106.945C39.5208 106.857 39.388 106.729 39.2812 106.562C39.1745 106.396 39.0898 106.194 39.0273 105.957C38.9674 105.72 38.9258 105.453 38.9023 105.156V104.629C38.9258 104.329 38.9674 104.061 39.0273 103.824C39.0872 103.585 39.1706 103.382 39.2773 103.215C39.3841 103.046 39.5169 102.917 39.6758 102.828C39.8346 102.74 40.0234 102.695 40.2422 102.695C40.4661 102.695 40.6641 102.734 40.8359 102.812C41.0104 102.891 41.1562 103.012 41.2734 103.176C41.3932 103.337 41.4831 103.544 41.543 103.797C41.6055 104.047 41.6367 104.346 41.6367 104.695ZM40.9453 105.09V104.695C40.9453 104.461 40.9297 104.257 40.8984 104.082C40.8698 103.908 40.8216 103.763 40.7539 103.648C40.6862 103.534 40.5951 103.448 40.4805 103.391C40.3685 103.333 40.2292 103.305 40.0625 103.305C39.9219 103.305 39.7982 103.333 39.6914 103.391C39.5872 103.448 39.4974 103.526 39.4219 103.625C39.3464 103.721 39.2839 103.832 39.2344 103.957C39.1849 104.079 39.1484 104.207 39.125 104.34V105.449C39.1589 105.618 39.2122 105.781 39.2852 105.938C39.3607 106.091 39.4622 106.217 39.5898 106.316C39.7174 106.415 39.8763 106.465 40.0664 106.465C40.2253 106.465 40.3594 106.438 40.4688 106.383C40.5807 106.328 40.6719 106.245 40.7422 106.133C40.8125 106.018 40.8633 105.875 40.8945 105.703C40.9284 105.529 40.9453 105.324 40.9453 105.09Z" fill="#8B8BA7"/>
                    <path d="M51.5195 101.312H52.2148L53.7031 105.949L55.1875 101.312H55.8828L53.9727 107H53.4258L51.5195 101.312ZM51.293 101.312H51.9023L52.0078 104.781V107H51.293V101.312ZM55.4961 101.312H56.1055V107H55.3906V104.781L55.4961 101.312ZM59.3164 106.277V103.984C59.3164 103.818 59.2904 103.684 59.2383 103.582C59.1888 103.48 59.1133 103.406 59.0117 103.359C58.9128 103.312 58.7878 103.289 58.6367 103.289C58.4909 103.289 58.3646 103.319 58.2578 103.379C58.1536 103.439 58.0729 103.518 58.0156 103.617C57.9609 103.716 57.9336 103.826 57.9336 103.945H57.2422C57.2422 103.794 57.2747 103.645 57.3398 103.496C57.4076 103.348 57.5039 103.214 57.6289 103.094C57.7539 102.971 57.9036 102.875 58.0781 102.805C58.2552 102.732 58.4531 102.695 58.6719 102.695C58.9323 102.695 59.1628 102.738 59.3633 102.824C59.5638 102.908 59.7214 103.044 59.8359 103.234C59.9505 103.424 60.0078 103.677 60.0078 103.992V106.078C60.0078 106.219 60.0182 106.368 60.0391 106.527C60.0625 106.686 60.0951 106.823 60.1367 106.938V107H59.4219C59.388 106.917 59.362 106.806 59.3438 106.668C59.3255 106.527 59.3164 106.397 59.3164 106.277ZM59.4258 104.438L59.4336 104.945H58.9531C58.7891 104.945 58.6393 104.964 58.5039 105C58.3711 105.036 58.2565 105.09 58.1602 105.16C58.0638 105.228 57.9896 105.312 57.9375 105.414C57.888 105.516 57.8633 105.632 57.8633 105.762C57.8633 105.931 57.8867 106.066 57.9336 106.168C57.9805 106.267 58.0508 106.339 58.1445 106.383C58.2383 106.427 58.3568 106.449 58.5 106.449C58.6745 106.449 58.8281 106.409 58.9609 106.328C59.0938 106.247 59.1966 106.15 59.2695 106.035C59.3451 105.921 59.3802 105.814 59.375 105.715L59.5273 106.039C59.5169 106.141 59.4831 106.251 59.4258 106.371C59.3711 106.488 59.2943 106.602 59.1953 106.711C59.0964 106.818 58.9792 106.906 58.8438 106.977C58.7109 107.044 58.5612 107.078 58.3945 107.078C58.1497 107.078 57.9349 107.031 57.75 106.938C57.5677 106.844 57.4258 106.706 57.3242 106.523C57.2227 106.341 57.1719 106.116 57.1719 105.848C57.1719 105.645 57.207 105.457 57.2773 105.285C57.3477 105.113 57.4518 104.965 57.5898 104.84C57.7279 104.712 57.901 104.613 58.1094 104.543C58.3203 104.473 58.5638 104.438 58.8398 104.438H59.4258ZM61.7734 103.438V107H61.082V102.773H61.75L61.7734 103.438ZM62.8242 102.75L62.8281 103.422C62.7708 103.409 62.7188 103.401 62.6719 103.398C62.6276 103.393 62.5755 103.391 62.5156 103.391C62.3854 103.391 62.2708 103.417 62.1719 103.469C62.0755 103.521 61.9922 103.594 61.9219 103.688C61.8516 103.781 61.7956 103.893 61.7539 104.023C61.7122 104.151 61.6836 104.292 61.668 104.445L61.4883 104.562C61.4883 104.307 61.5078 104.068 61.5469 103.844C61.5885 103.62 61.6523 103.422 61.7383 103.25C61.8242 103.076 61.9336 102.94 62.0664 102.844C62.2018 102.745 62.3633 102.695 62.5508 102.695C62.5924 102.695 62.6432 102.702 62.7031 102.715C62.7656 102.725 62.806 102.737 62.8242 102.75Z" fill="#8B8BA7"/>
                    <path d="M74.3438 101.816L72.4609 107H71.6914L73.8594 101.312H74.3555L74.3438 101.816ZM75.9219 107L74.0352 101.816L74.0234 101.312H74.5195L76.6953 107H75.9219ZM75.8242 104.895V105.512H72.6289V104.895H75.8242ZM78.0703 103.586V108.625H77.3438V102.773H78.0078L78.0703 103.586ZM80.918 104.852V104.934C80.918 105.241 80.8815 105.526 80.8086 105.789C80.7357 106.049 80.6289 106.276 80.4883 106.469C80.3503 106.661 80.1797 106.811 79.9766 106.918C79.7734 107.025 79.5404 107.078 79.2773 107.078C79.0091 107.078 78.7721 107.034 78.5664 106.945C78.3607 106.857 78.1862 106.728 78.043 106.559C77.8997 106.389 77.7852 106.186 77.6992 105.949C77.6159 105.712 77.5586 105.445 77.5273 105.148V104.711C77.5586 104.398 77.6172 104.118 77.7031 103.871C77.7891 103.624 77.9023 103.413 78.043 103.238C78.1862 103.061 78.3594 102.927 78.5625 102.836C78.7656 102.742 79 102.695 79.2656 102.695C79.5312 102.695 79.7669 102.747 79.9727 102.852C80.1784 102.953 80.3516 103.099 80.4922 103.289C80.6328 103.479 80.7383 103.707 80.8086 103.973C80.8815 104.236 80.918 104.529 80.918 104.852ZM80.1914 104.934V104.852C80.1914 104.641 80.1693 104.443 80.125 104.258C80.0807 104.07 80.0117 103.906 79.918 103.766C79.8268 103.622 79.7096 103.51 79.5664 103.43C79.4232 103.346 79.2526 103.305 79.0547 103.305C78.8724 103.305 78.7135 103.336 78.5781 103.398C78.4453 103.461 78.332 103.546 78.2383 103.652C78.1445 103.757 78.0677 103.876 78.0078 104.012C77.9505 104.145 77.9076 104.283 77.8789 104.426V105.438C77.931 105.62 78.0039 105.792 78.0977 105.953C78.1914 106.112 78.3164 106.241 78.4727 106.34C78.6289 106.436 78.8255 106.484 79.0625 106.484C79.2578 106.484 79.4258 106.444 79.5664 106.363C79.7096 106.28 79.8268 106.167 79.918 106.023C80.0117 105.88 80.0807 105.716 80.125 105.531C80.1693 105.344 80.1914 105.145 80.1914 104.934ZM82.5625 103.438V107H81.8398V102.773H82.543L82.5625 103.438ZM83.8828 102.75L83.8789 103.422C83.819 103.409 83.7617 103.401 83.707 103.398C83.6549 103.393 83.5951 103.391 83.5273 103.391C83.3607 103.391 83.2135 103.417 83.0859 103.469C82.9583 103.521 82.8503 103.594 82.7617 103.688C82.6732 103.781 82.6029 103.893 82.5508 104.023C82.5013 104.151 82.4688 104.292 82.4531 104.445L82.25 104.562C82.25 104.307 82.2747 104.068 82.3242 103.844C82.3763 103.62 82.4557 103.422 82.5625 103.25C82.6693 103.076 82.8047 102.94 82.9688 102.844C83.1354 102.745 83.3333 102.695 83.5625 102.695C83.6146 102.695 83.6745 102.702 83.7422 102.715C83.8099 102.725 83.8568 102.737 83.8828 102.75Z" fill="#8B8BA7"/>
                    <path d="M93.8359 101.312H94.5664L96.4297 105.949L98.2891 101.312H99.0234L96.7109 107H96.1406L93.8359 101.312ZM93.5977 101.312H94.2422L94.3477 104.781V107H93.5977V101.312ZM98.6133 101.312H99.2578V107H98.5078V104.781L98.6133 101.312ZM102.965 106.277V104.102C102.965 103.935 102.931 103.79 102.863 103.668C102.798 103.543 102.699 103.447 102.566 103.379C102.434 103.311 102.27 103.277 102.074 103.277C101.892 103.277 101.732 103.309 101.594 103.371C101.458 103.434 101.352 103.516 101.273 103.617C101.198 103.719 101.16 103.828 101.16 103.945H100.438C100.438 103.794 100.477 103.645 100.555 103.496C100.633 103.348 100.745 103.214 100.891 103.094C101.039 102.971 101.216 102.875 101.422 102.805C101.63 102.732 101.862 102.695 102.117 102.695C102.424 102.695 102.695 102.747 102.93 102.852C103.167 102.956 103.352 103.113 103.484 103.324C103.62 103.533 103.688 103.794 103.688 104.109V106.078C103.688 106.219 103.699 106.368 103.723 106.527C103.749 106.686 103.786 106.823 103.836 106.938V107H103.082C103.046 106.917 103.017 106.806 102.996 106.668C102.975 106.527 102.965 106.397 102.965 106.277ZM103.09 104.438L103.098 104.945H102.367C102.161 104.945 101.978 104.962 101.816 104.996C101.655 105.027 101.52 105.076 101.41 105.141C101.301 105.206 101.217 105.288 101.16 105.387C101.103 105.483 101.074 105.596 101.074 105.727C101.074 105.859 101.104 105.98 101.164 106.09C101.224 106.199 101.314 106.286 101.434 106.352C101.556 106.414 101.706 106.445 101.883 106.445C102.104 106.445 102.299 106.398 102.469 106.305C102.638 106.211 102.772 106.096 102.871 105.961C102.973 105.826 103.027 105.694 103.035 105.566L103.344 105.914C103.326 106.023 103.276 106.145 103.195 106.277C103.115 106.41 103.007 106.538 102.871 106.66C102.738 106.78 102.579 106.88 102.395 106.961C102.212 107.039 102.007 107.078 101.777 107.078C101.491 107.078 101.24 107.022 101.023 106.91C100.81 106.798 100.643 106.648 100.523 106.461C100.406 106.271 100.348 106.059 100.348 105.824C100.348 105.598 100.392 105.398 100.48 105.227C100.569 105.052 100.697 104.908 100.863 104.793C101.03 104.676 101.23 104.587 101.465 104.527C101.699 104.467 101.961 104.438 102.25 104.438H103.09ZM105.949 106.562L107.125 102.773H107.898L106.203 107.652C106.164 107.757 106.112 107.868 106.047 107.988C105.984 108.111 105.904 108.227 105.805 108.336C105.706 108.445 105.586 108.534 105.445 108.602C105.307 108.672 105.142 108.707 104.949 108.707C104.892 108.707 104.819 108.699 104.73 108.684C104.642 108.668 104.579 108.655 104.543 108.645L104.539 108.059C104.56 108.061 104.592 108.064 104.637 108.066C104.684 108.072 104.716 108.074 104.734 108.074C104.898 108.074 105.038 108.052 105.152 108.008C105.267 107.966 105.363 107.895 105.441 107.793C105.522 107.694 105.591 107.557 105.648 107.383L105.949 106.562ZM105.086 102.773L106.184 106.055L106.371 106.816L105.852 107.082L104.297 102.773H105.086Z" fill="#8B8BA7"/>
                    <path d="M119.797 105.34V101.312H120.547V105.34C120.547 105.715 120.47 106.031 120.316 106.289C120.163 106.547 119.951 106.743 119.68 106.879C119.411 107.012 119.103 107.078 118.754 107.078C118.405 107.078 118.095 107.018 117.824 106.898C117.553 106.779 117.341 106.596 117.188 106.352C117.034 106.107 116.957 105.798 116.957 105.426H117.711C117.711 105.665 117.755 105.862 117.844 106.016C117.932 106.169 118.055 106.283 118.211 106.355C118.37 106.428 118.551 106.465 118.754 106.465C118.952 106.465 119.129 106.423 119.285 106.34C119.444 106.254 119.569 106.128 119.66 105.961C119.751 105.792 119.797 105.585 119.797 105.34ZM124.301 106.023V102.773H125.027V107H124.336L124.301 106.023ZM124.438 105.133L124.738 105.125C124.738 105.406 124.708 105.667 124.648 105.906C124.591 106.143 124.497 106.349 124.367 106.523C124.237 106.698 124.066 106.835 123.855 106.934C123.645 107.03 123.388 107.078 123.086 107.078C122.88 107.078 122.691 107.048 122.52 106.988C122.35 106.928 122.204 106.836 122.082 106.711C121.96 106.586 121.865 106.423 121.797 106.223C121.732 106.022 121.699 105.781 121.699 105.5V102.773H122.422V105.508C122.422 105.698 122.443 105.855 122.484 105.98C122.529 106.103 122.587 106.201 122.66 106.273C122.736 106.344 122.819 106.393 122.91 106.422C123.004 106.451 123.1 106.465 123.199 106.465C123.507 106.465 123.75 106.406 123.93 106.289C124.109 106.169 124.238 106.009 124.316 105.809C124.397 105.605 124.438 105.38 124.438 105.133ZM126.852 103.676V107H126.129V102.773H126.812L126.852 103.676ZM126.68 104.727L126.379 104.715C126.382 104.426 126.424 104.159 126.508 103.914C126.591 103.667 126.708 103.452 126.859 103.27C127.01 103.087 127.19 102.947 127.398 102.848C127.609 102.746 127.842 102.695 128.098 102.695C128.306 102.695 128.493 102.724 128.66 102.781C128.827 102.836 128.969 102.924 129.086 103.047C129.206 103.169 129.297 103.328 129.359 103.523C129.422 103.716 129.453 103.952 129.453 104.23V107H128.727V104.223C128.727 104.001 128.694 103.824 128.629 103.691C128.564 103.556 128.469 103.458 128.344 103.398C128.219 103.336 128.065 103.305 127.883 103.305C127.703 103.305 127.539 103.342 127.391 103.418C127.245 103.493 127.118 103.598 127.012 103.73C126.908 103.863 126.826 104.016 126.766 104.188C126.708 104.357 126.68 104.536 126.68 104.727Z" fill="#8B8BA7"/>
                    <path d="M141.273 105.34V101.312H142.023V105.34C142.023 105.715 141.947 106.031 141.793 106.289C141.639 106.547 141.427 106.743 141.156 106.879C140.888 107.012 140.579 107.078 140.23 107.078C139.882 107.078 139.572 107.018 139.301 106.898C139.03 106.779 138.818 106.596 138.664 106.352C138.51 106.107 138.434 105.798 138.434 105.426H139.188C139.188 105.665 139.232 105.862 139.32 106.016C139.409 106.169 139.531 106.283 139.688 106.355C139.846 106.428 140.027 106.465 140.23 106.465C140.428 106.465 140.605 106.423 140.762 106.34C140.921 106.254 141.046 106.128 141.137 105.961C141.228 105.792 141.273 105.585 141.273 105.34ZM145.777 106.023V102.773H146.504V107H145.812L145.777 106.023ZM145.914 105.133L146.215 105.125C146.215 105.406 146.185 105.667 146.125 105.906C146.068 106.143 145.974 106.349 145.844 106.523C145.714 106.698 145.543 106.835 145.332 106.934C145.121 107.03 144.865 107.078 144.562 107.078C144.357 107.078 144.168 107.048 143.996 106.988C143.827 106.928 143.681 106.836 143.559 106.711C143.436 106.586 143.341 106.423 143.273 106.223C143.208 106.022 143.176 105.781 143.176 105.5V102.773H143.898V105.508C143.898 105.698 143.919 105.855 143.961 105.98C144.005 106.103 144.064 106.201 144.137 106.273C144.212 106.344 144.296 106.393 144.387 106.422C144.48 106.451 144.577 106.465 144.676 106.465C144.983 106.465 145.227 106.406 145.406 106.289C145.586 106.169 145.715 106.009 145.793 105.809C145.874 105.605 145.914 105.38 145.914 105.133ZM148.391 101V107H147.664V101H148.391Z" fill="#8B8BA7"/>
                    <path d="M160.688 101.816L158.805 107H158.035L160.203 101.312H160.699L160.688 101.816ZM162.266 107L160.379 101.816L160.367 101.312H160.863L163.039 107H162.266ZM162.168 104.895V105.512H158.973V104.895H162.168ZM166.23 106.023V102.773H166.957V107H166.266L166.23 106.023ZM166.367 105.133L166.668 105.125C166.668 105.406 166.638 105.667 166.578 105.906C166.521 106.143 166.427 106.349 166.297 106.523C166.167 106.698 165.996 106.835 165.785 106.934C165.574 107.03 165.318 107.078 165.016 107.078C164.81 107.078 164.621 107.048 164.449 106.988C164.28 106.928 164.134 106.836 164.012 106.711C163.889 106.586 163.794 106.423 163.727 106.223C163.661 106.022 163.629 105.781 163.629 105.5V102.773H164.352V105.508C164.352 105.698 164.372 105.855 164.414 105.98C164.458 106.103 164.517 106.201 164.59 106.273C164.665 106.344 164.749 106.393 164.84 106.422C164.934 106.451 165.03 106.465 165.129 106.465C165.436 106.465 165.68 106.406 165.859 106.289C166.039 106.169 166.168 106.009 166.246 105.809C166.327 105.605 166.367 105.38 166.367 105.133ZM170.797 102.773H171.453V106.91C171.453 107.283 171.378 107.6 171.227 107.863C171.076 108.126 170.865 108.326 170.594 108.461C170.326 108.599 170.016 108.668 169.664 108.668C169.518 108.668 169.346 108.645 169.148 108.598C168.953 108.553 168.76 108.477 168.57 108.367C168.383 108.26 168.225 108.116 168.098 107.934L168.477 107.504C168.654 107.717 168.839 107.866 169.031 107.949C169.227 108.033 169.419 108.074 169.609 108.074C169.839 108.074 170.036 108.031 170.203 107.945C170.37 107.859 170.499 107.732 170.59 107.562C170.684 107.396 170.73 107.19 170.73 106.945V103.703L170.797 102.773ZM167.887 104.934V104.852C167.887 104.529 167.924 104.236 168 103.973C168.078 103.707 168.189 103.479 168.332 103.289C168.478 103.099 168.654 102.953 168.859 102.852C169.065 102.747 169.297 102.695 169.555 102.695C169.82 102.695 170.052 102.742 170.25 102.836C170.451 102.927 170.62 103.061 170.758 103.238C170.898 103.413 171.009 103.624 171.09 103.871C171.171 104.118 171.227 104.398 171.258 104.711V105.07C171.229 105.38 171.173 105.659 171.09 105.906C171.009 106.154 170.898 106.365 170.758 106.539C170.62 106.714 170.451 106.848 170.25 106.941C170.049 107.033 169.815 107.078 169.547 107.078C169.294 107.078 169.065 107.025 168.859 106.918C168.656 106.811 168.482 106.661 168.336 106.469C168.19 106.276 168.078 106.049 168 105.789C167.924 105.526 167.887 105.241 167.887 104.934ZM168.609 104.852V104.934C168.609 105.145 168.63 105.342 168.672 105.527C168.716 105.712 168.783 105.875 168.871 106.016C168.962 106.156 169.078 106.267 169.219 106.348C169.359 106.426 169.527 106.465 169.723 106.465C169.962 106.465 170.16 106.414 170.316 106.312C170.473 106.211 170.596 106.077 170.688 105.91C170.781 105.743 170.854 105.562 170.906 105.367V104.426C170.878 104.283 170.833 104.145 170.773 104.012C170.716 103.876 170.641 103.757 170.547 103.652C170.456 103.546 170.342 103.461 170.207 103.398C170.072 103.336 169.913 103.305 169.73 103.305C169.533 103.305 169.362 103.346 169.219 103.43C169.078 103.51 168.962 103.622 168.871 103.766C168.783 103.906 168.716 104.07 168.672 104.258C168.63 104.443 168.609 104.641 168.609 104.852Z" fill="#8B8BA7"/>
                    <path d="M184.207 105.562C184.207 105.43 184.186 105.312 184.145 105.211C184.105 105.107 184.035 105.013 183.934 104.93C183.835 104.846 183.697 104.767 183.52 104.691C183.345 104.616 183.124 104.539 182.855 104.461C182.574 104.378 182.32 104.285 182.094 104.184C181.867 104.079 181.673 103.961 181.512 103.828C181.35 103.695 181.227 103.543 181.141 103.371C181.055 103.199 181.012 103.003 181.012 102.781C181.012 102.56 181.057 102.355 181.148 102.168C181.24 101.98 181.37 101.818 181.539 101.68C181.711 101.539 181.915 101.43 182.152 101.352C182.389 101.273 182.654 101.234 182.945 101.234C183.372 101.234 183.734 101.316 184.031 101.48C184.331 101.642 184.559 101.854 184.715 102.117C184.871 102.378 184.949 102.656 184.949 102.953H184.199C184.199 102.74 184.154 102.551 184.062 102.387C183.971 102.22 183.833 102.09 183.648 101.996C183.464 101.9 183.229 101.852 182.945 101.852C182.677 101.852 182.456 101.892 182.281 101.973C182.107 102.053 181.977 102.163 181.891 102.301C181.807 102.439 181.766 102.596 181.766 102.773C181.766 102.893 181.79 103.003 181.84 103.102C181.892 103.198 181.971 103.288 182.078 103.371C182.188 103.454 182.326 103.531 182.492 103.602C182.661 103.672 182.863 103.74 183.098 103.805C183.421 103.896 183.699 103.997 183.934 104.109C184.168 104.221 184.361 104.348 184.512 104.488C184.665 104.626 184.779 104.784 184.852 104.961C184.927 105.135 184.965 105.333 184.965 105.555C184.965 105.786 184.918 105.996 184.824 106.184C184.73 106.371 184.596 106.531 184.422 106.664C184.247 106.797 184.038 106.9 183.793 106.973C183.551 107.043 183.28 107.078 182.98 107.078C182.717 107.078 182.458 107.042 182.203 106.969C181.951 106.896 181.72 106.786 181.512 106.641C181.306 106.495 181.141 106.315 181.016 106.102C180.893 105.885 180.832 105.635 180.832 105.352H181.582C181.582 105.547 181.62 105.715 181.695 105.855C181.771 105.993 181.874 106.108 182.004 106.199C182.137 106.29 182.286 106.358 182.453 106.402C182.622 106.444 182.798 106.465 182.98 106.465C183.243 106.465 183.466 106.428 183.648 106.355C183.831 106.283 183.969 106.178 184.062 106.043C184.159 105.908 184.207 105.747 184.207 105.562ZM187.57 107.078C187.276 107.078 187.009 107.029 186.77 106.93C186.533 106.828 186.328 106.686 186.156 106.504C185.987 106.322 185.857 106.105 185.766 105.855C185.674 105.605 185.629 105.332 185.629 105.035V104.871C185.629 104.527 185.68 104.221 185.781 103.953C185.883 103.682 186.021 103.453 186.195 103.266C186.37 103.078 186.568 102.936 186.789 102.84C187.01 102.743 187.24 102.695 187.477 102.695C187.779 102.695 188.039 102.747 188.258 102.852C188.479 102.956 188.66 103.102 188.801 103.289C188.941 103.474 189.046 103.693 189.113 103.945C189.181 104.195 189.215 104.469 189.215 104.766V105.09H186.059V104.5H188.492V104.445C188.482 104.258 188.443 104.076 188.375 103.898C188.31 103.721 188.206 103.576 188.062 103.461C187.919 103.346 187.724 103.289 187.477 103.289C187.312 103.289 187.161 103.324 187.023 103.395C186.885 103.462 186.767 103.564 186.668 103.699C186.569 103.835 186.492 104 186.438 104.195C186.383 104.391 186.355 104.616 186.355 104.871V105.035C186.355 105.236 186.383 105.424 186.438 105.602C186.495 105.776 186.577 105.93 186.684 106.062C186.793 106.195 186.924 106.299 187.078 106.375C187.234 106.451 187.411 106.488 187.609 106.488C187.865 106.488 188.081 106.436 188.258 106.332C188.435 106.228 188.59 106.089 188.723 105.914L189.16 106.262C189.069 106.4 188.953 106.531 188.812 106.656C188.672 106.781 188.499 106.883 188.293 106.961C188.09 107.039 187.849 107.078 187.57 107.078ZM190.781 103.586V108.625H190.055V102.773H190.719L190.781 103.586ZM193.629 104.852V104.934C193.629 105.241 193.592 105.526 193.52 105.789C193.447 106.049 193.34 106.276 193.199 106.469C193.061 106.661 192.891 106.811 192.688 106.918C192.484 107.025 192.251 107.078 191.988 107.078C191.72 107.078 191.483 107.034 191.277 106.945C191.072 106.857 190.897 106.728 190.754 106.559C190.611 106.389 190.496 106.186 190.41 105.949C190.327 105.712 190.27 105.445 190.238 105.148V104.711C190.27 104.398 190.328 104.118 190.414 103.871C190.5 103.624 190.613 103.413 190.754 103.238C190.897 103.061 191.07 102.927 191.273 102.836C191.477 102.742 191.711 102.695 191.977 102.695C192.242 102.695 192.478 102.747 192.684 102.852C192.889 102.953 193.062 103.099 193.203 103.289C193.344 103.479 193.449 103.707 193.52 103.973C193.592 104.236 193.629 104.529 193.629 104.852ZM192.902 104.934V104.852C192.902 104.641 192.88 104.443 192.836 104.258C192.792 104.07 192.723 103.906 192.629 103.766C192.538 103.622 192.421 103.51 192.277 103.43C192.134 103.346 191.964 103.305 191.766 103.305C191.583 103.305 191.424 103.336 191.289 103.398C191.156 103.461 191.043 103.546 190.949 103.652C190.855 103.757 190.779 103.876 190.719 104.012C190.661 104.145 190.618 104.283 190.59 104.426V105.438C190.642 105.62 190.715 105.792 190.809 105.953C190.902 106.112 191.027 106.241 191.184 106.34C191.34 106.436 191.536 106.484 191.773 106.484C191.969 106.484 192.137 106.444 192.277 106.363C192.421 106.28 192.538 106.167 192.629 106.023C192.723 105.88 192.792 105.716 192.836 105.531C192.88 105.344 192.902 105.145 192.902 104.934Z" fill="#8B8BA7"/>
                    </g>
                    </g>
                    <defs>
                    <filter id="filter0_bd_427_152" x="-98" y="-99" width="400" height="313" filterUnits="userSpaceOnUse" color-interpolation-filters="sRGB">
                    <feFlood flood-opacity="0" result="BackgroundImageFix"/>
                    <feGaussianBlur in="BackgroundImageFix" stdDeviation="50"/>
                    <feComposite in2="SourceAlpha" operator="in" result="effect1_backgroundBlur_427_152"/>
                    <feColorMatrix in="SourceAlpha" type="matrix" values="0 0 0 0 0 0 0 0 0 0 0 0 0 0 0 0 0 0 127 0" result="hardAlpha"/>
                    <feOffset dy="1"/>
                    <feGaussianBlur stdDeviation="1"/>
                    <feComposite in2="hardAlpha" operator="out"/>
                    <feColorMatrix type="matrix" values="0 0 0 0 0 0 0 0 0 0 0 0 0 0 0 0 0 0 0.2 0"/>
                    <feBlend mode="normal" in2="effect1_backgroundBlur_427_152" result="effect2_dropShadow_427_152"/>
                    <feBlend mode="normal" in="SourceGraphic" in2="effect2_dropShadow_427_152" result="shape"/>
                    </filter>
                    <filter id="filter1_d_427_152" x="36" y="-16" width="154" height="107" filterUnits="userSpaceOnUse" color-interpolation-filters="sRGB">
                    <feFlood flood-opacity="0" result="BackgroundImageFix"/>
                    <feColorMatrix in="SourceAlpha" type="matrix" values="0 0 0 0 0 0 0 0 0 0 0 0 0 0 0 0 0 0 127 0" result="hardAlpha"/>
                    <feOffset dy="10"/>
                    <feGaussianBlur stdDeviation="20"/>
                    <feComposite in2="hardAlpha" operator="out"/>
                    <feColorMatrix type="matrix" values="0 0 0 0 0.6 0 0 0 0 0.6 0 0 0 0 0.6 0 0 0 0.25 0"/>
                    <feBlend mode="normal" in2="BackgroundImageFix" result="effect1_dropShadow_427_152"/>
                    <feBlend mode="normal" in="SourceGraphic" in2="effect1_dropShadow_427_152" result="shape"/>
                    </filter>
                    <filter id="filter2_d_427_152" x="74" y="40" width="55" height="55" filterUnits="userSpaceOnUse" color-interpolation-filters="sRGB">
                    <feFlood flood-opacity="0" result="BackgroundImageFix"/>
                    <feColorMatrix in="SourceAlpha" type="matrix" values="0 0 0 0 0 0 0 0 0 0 0 0 0 0 0 0 0 0 127 0" result="hardAlpha"/>
                    <feOffset dy="10"/>
                    <feGaussianBlur stdDeviation="10"/>
                    <feComposite in2="hardAlpha" operator="out"/>
                    <feColorMatrix type="matrix" values="0 0 0 0 0.207843 0 0 0 0 0.521569 0 0 0 0 0.545098 0 0 0 0.25 0"/>
                    <feBlend mode="normal" in2="BackgroundImageFix" result="effect1_dropShadow_427_152"/>
                    <feBlend mode="normal" in="SourceGraphic" in2="effect1_dropShadow_427_152" result="shape"/>
                    </filter>
                    <linearGradient id="paint0_linear_427_152" x1="96" y1="30" x2="96" y2="127" gradientUnits="userSpaceOnUse">
                    <stop stop-color="#006AFF"/>
                    <stop offset="1" stop-color="#1F7DFF" stop-opacity="0"/>
                    </linearGradient>
                    <linearGradient id="paint1_linear_427_152" x1="100.5" y1="30" x2="100.5" y2="100" gradientUnits="userSpaceOnUse">
                    <stop stop-color="#1F7DFF" stop-opacity="0"/>
                    <stop offset="1" stop-color="#006AFF"/>
                    </linearGradient>
                    <clipPath id="clip0_427_152">
                    <rect x="2" y="1" width="200" height="113" rx="8" fill="white"/>
                    </clipPath>
                    <clipPath id="clip1_427_152">
                    <rect width="200" height="114" fill="white" transform="translate(2 1)"/>
                    </clipPath>
                    <clipPath id="clip2_427_152">
                    <rect x="76" y="14" width="74" height="27" rx="2" fill="white"/>
                    </clipPath>
                    </defs>
                </svg>
