<svg width="27" height="25" style="margin-left: -50px; margin-top: 20px;" viewBox="0 0 33 32" fill="none" xmlns="http://www.w3.org/2000/svg">
<path d="M13.25 0.25H19.75C20.612 0.25 21.4386 0.59241 22.0481 1.2019C22.6576 1.8114 23 2.63805 23 3.5V6.75H29.5C30.362 6.75 31.1886 7.09241 31.7981 7.7019C32.4076 8.3114 32.75 9.13805 32.75 10V27.875C32.75 28.737 32.4076 29.5636 31.7981 30.1731C31.1886 30.7826 30.362 31.125 29.5 31.125H3.5C2.63805 31.125 1.8114 30.7826 1.2019 30.1731C0.59241 29.5636 0.25 28.737 0.25 27.875V10C0.25 9.13805 0.59241 8.3114 1.2019 7.7019C1.8114 7.09241 2.63805 6.75 3.5 6.75H10V3.5C10 2.63805 10.3424 1.8114 10.9519 1.2019C11.5614 0.59241 12.388 0.25 13.25 0.25ZM19.75 6.75V3.5H13.25V6.75H19.75ZM14.0625 25.4375L24.7712 14.7288L22.48 12.4375L14.0625 20.8388L10.6663 17.4587L8.375 19.75L14.0625 25.4375Z" fill="#00AAFF"/>
</svg>
