 <svg class="item2" style="backdrop-filter: blur(20px);border-radius: 7px;" width="235" height="153" viewBox="0 0 325 210" fill="none" xmlns="http://www.w3.org/2000/svg">
    <g filter="url(#filter0_bd_428_237)">
    <rect x="2" y="1" width="321" height="206" rx="8" fill="#AFAFAF" fill-opacity="0.1" shape-rendering="crispEdges"/>
    <path d="M23.8828 39.7441L26.7148 27.7812H28.2969L28.6582 29.7734L25.6406 42H23.9414L23.8828 39.7441ZM22.4277 27.7812L24.7715 39.7441L24.5762 42H22.6816L19.5273 27.7812H22.4277ZM31.1484 39.6953L33.4629 27.7812H36.3633L33.2188 42H31.3242L31.1484 39.6953ZM29.1855 27.7812L32.0371 39.793L31.959 42H30.2598L27.2227 29.7637L27.6133 27.7812H29.1855ZM37.0176 36.8242V36.6191C37.0176 35.8444 37.1283 35.1315 37.3496 34.4805C37.571 33.8229 37.8932 33.2533 38.3164 32.7715C38.7396 32.2897 39.2604 31.9154 39.8789 31.6484C40.4974 31.375 41.207 31.2383 42.0078 31.2383C42.8086 31.2383 43.5215 31.375 44.1465 31.6484C44.7715 31.9154 45.2956 32.2897 45.7188 32.7715C46.1484 33.2533 46.474 33.8229 46.6953 34.4805C46.9167 35.1315 47.0273 35.8444 47.0273 36.6191V36.8242C47.0273 37.5924 46.9167 38.3053 46.6953 38.9629C46.474 39.6139 46.1484 40.1836 45.7188 40.6719C45.2956 41.1536 44.7747 41.528 44.1562 41.7949C43.5378 42.0618 42.8281 42.1953 42.0273 42.1953C41.2266 42.1953 40.5137 42.0618 39.8887 41.7949C39.2702 41.528 38.7461 41.1536 38.3164 40.6719C37.8932 40.1836 37.571 39.6139 37.3496 38.9629C37.1283 38.3053 37.0176 37.5924 37.0176 36.8242ZM39.8301 36.6191V36.8242C39.8301 37.2669 39.8691 37.6803 39.9473 38.0645C40.0254 38.4486 40.1491 38.7871 40.3184 39.0801C40.4941 39.3665 40.722 39.5911 41.002 39.7539C41.2819 39.9167 41.6237 39.998 42.0273 39.998C42.418 39.998 42.7533 39.9167 43.0332 39.7539C43.3132 39.5911 43.5378 39.3665 43.707 39.0801C43.8763 38.7871 44 38.4486 44.0781 38.0645C44.1628 37.6803 44.2051 37.2669 44.2051 36.8242V36.6191C44.2051 36.1895 44.1628 35.7858 44.0781 35.4082C44 35.0241 43.873 34.6855 43.6973 34.3926C43.528 34.0931 43.3034 33.8587 43.0234 33.6895C42.7435 33.5202 42.4049 33.4355 42.0078 33.4355C41.6107 33.4355 41.2721 33.5202 40.9922 33.6895C40.7188 33.8587 40.4941 34.0931 40.3184 34.3926C40.1491 34.6855 40.0254 35.0241 39.9473 35.4082C39.8691 35.7858 39.8301 36.1895 39.8301 36.6191ZM51.5684 33.7383V42H48.7559V31.4336H51.4023L51.5684 33.7383ZM54.752 31.3652L54.7031 33.9727C54.5664 33.9531 54.4004 33.9368 54.2051 33.9238C54.0163 33.9043 53.8438 33.8945 53.6875 33.8945C53.2904 33.8945 52.9453 33.9466 52.6523 34.0508C52.3659 34.1484 52.125 34.2949 51.9297 34.4902C51.7409 34.6855 51.5977 34.9232 51.5 35.2031C51.4089 35.4831 51.3568 35.8021 51.3438 36.1602L50.7773 35.9844C50.7773 35.3008 50.8457 34.6725 50.9824 34.0996C51.1191 33.5202 51.3177 33.0156 51.5781 32.5859C51.8451 32.1562 52.1706 31.8242 52.5547 31.5898C52.9388 31.3555 53.3783 31.2383 53.873 31.2383C54.0293 31.2383 54.1888 31.2513 54.3516 31.2773C54.5143 31.2969 54.6478 31.3262 54.752 31.3652ZM58.8926 26.9902V42H56.0801V26.9902H58.8926ZM65.5527 31.4336L60.9629 36.668L58.502 39.1582L57.4766 37.127L59.4297 34.6465L62.1738 31.4336H65.5527ZM62.6328 42L59.5078 37.1172L61.4512 35.418L65.875 42H62.6328ZM75.0352 27.7812V42H72.1152V27.7812H75.0352ZM80.3574 33.6895V42H77.5449V31.4336H80.1816L80.3574 33.6895ZM79.9473 36.3457H79.1855C79.1855 35.5645 79.2865 34.8613 79.4883 34.2363C79.6901 33.6048 79.9733 33.0677 80.3379 32.625C80.7025 32.1758 81.1354 31.834 81.6367 31.5996C82.1445 31.3587 82.7109 31.2383 83.3359 31.2383C83.8307 31.2383 84.2832 31.3099 84.6934 31.4531C85.1035 31.5964 85.4551 31.8242 85.748 32.1367C86.0475 32.4492 86.2754 32.8626 86.4316 33.377C86.5944 33.8913 86.6758 34.5195 86.6758 35.2617V42H83.8438V35.252C83.8438 34.7832 83.7786 34.4186 83.6484 34.1582C83.5182 33.8978 83.3262 33.7155 83.0723 33.6113C82.8249 33.5007 82.5189 33.4453 82.1543 33.4453C81.7767 33.4453 81.4479 33.5202 81.168 33.6699C80.8945 33.8197 80.6667 34.028 80.4844 34.2949C80.3086 34.5553 80.1751 34.8613 80.084 35.2129C79.9928 35.5645 79.9473 35.9421 79.9473 36.3457ZM99.5078 36.9316H95.8848V34.6465H99.5078C100.068 34.6465 100.523 34.5553 100.875 34.373C101.227 34.1842 101.484 33.9238 101.646 33.5918C101.809 33.2598 101.891 32.8854 101.891 32.4688C101.891 32.0456 101.809 31.6517 101.646 31.2871C101.484 30.9225 101.227 30.6296 100.875 30.4082C100.523 30.1868 100.068 30.0762 99.5078 30.0762H96.9004V42H93.9707V27.7812H99.5078C100.621 27.7812 101.575 27.9831 102.369 28.3867C103.17 28.7839 103.782 29.334 104.205 30.0371C104.628 30.7402 104.84 31.5443 104.84 32.4492C104.84 33.3672 104.628 34.1615 104.205 34.832C103.782 35.5026 103.17 36.0202 102.369 36.3848C101.575 36.7493 100.621 36.9316 99.5078 36.9316ZM109.498 33.7383V42H106.686V31.4336H109.332L109.498 33.7383ZM112.682 31.3652L112.633 33.9727C112.496 33.9531 112.33 33.9368 112.135 33.9238C111.946 33.9043 111.773 33.8945 111.617 33.8945C111.22 33.8945 110.875 33.9466 110.582 34.0508C110.296 34.1484 110.055 34.2949 109.859 34.4902C109.671 34.6855 109.527 34.9232 109.43 35.2031C109.339 35.4831 109.286 35.8021 109.273 36.1602L108.707 35.9844C108.707 35.3008 108.775 34.6725 108.912 34.0996C109.049 33.5202 109.247 33.0156 109.508 32.5859C109.775 32.1562 110.1 31.8242 110.484 31.5898C110.868 31.3555 111.308 31.2383 111.803 31.2383C111.959 31.2383 112.118 31.2513 112.281 31.2773C112.444 31.2969 112.577 31.3262 112.682 31.3652ZM113.268 36.8242V36.6191C113.268 35.8444 113.378 35.1315 113.6 34.4805C113.821 33.8229 114.143 33.2533 114.566 32.7715C114.99 32.2897 115.51 31.9154 116.129 31.6484C116.747 31.375 117.457 31.2383 118.258 31.2383C119.059 31.2383 119.771 31.375 120.396 31.6484C121.021 31.9154 121.546 32.2897 121.969 32.7715C122.398 33.2533 122.724 33.8229 122.945 34.4805C123.167 35.1315 123.277 35.8444 123.277 36.6191V36.8242C123.277 37.5924 123.167 38.3053 122.945 38.9629C122.724 39.6139 122.398 40.1836 121.969 40.6719C121.546 41.1536 121.025 41.528 120.406 41.7949C119.788 42.0618 119.078 42.1953 118.277 42.1953C117.477 42.1953 116.764 42.0618 116.139 41.7949C115.52 41.528 114.996 41.1536 114.566 40.6719C114.143 40.1836 113.821 39.6139 113.6 38.9629C113.378 38.3053 113.268 37.5924 113.268 36.8242ZM116.08 36.6191V36.8242C116.08 37.2669 116.119 37.6803 116.197 38.0645C116.275 38.4486 116.399 38.7871 116.568 39.0801C116.744 39.3665 116.972 39.5911 117.252 39.7539C117.532 39.9167 117.874 39.998 118.277 39.998C118.668 39.998 119.003 39.9167 119.283 39.7539C119.563 39.5911 119.788 39.3665 119.957 39.0801C120.126 38.7871 120.25 38.4486 120.328 38.0645C120.413 37.6803 120.455 37.2669 120.455 36.8242V36.6191C120.455 36.1895 120.413 35.7858 120.328 35.4082C120.25 35.0241 120.123 34.6855 119.947 34.3926C119.778 34.0931 119.553 33.8587 119.273 33.6895C118.993 33.5202 118.655 33.4355 118.258 33.4355C117.861 33.4355 117.522 33.5202 117.242 33.6895C116.969 33.8587 116.744 34.0931 116.568 34.3926C116.399 34.6855 116.275 35.0241 116.197 35.4082C116.119 35.7858 116.08 36.1895 116.08 36.6191ZM131.695 31.4336H134.244V41.6484C134.244 42.612 134.029 43.429 133.6 44.0996C133.176 44.7767 132.584 45.2878 131.822 45.6328C131.061 45.9844 130.175 46.1602 129.166 46.1602C128.723 46.1602 128.255 46.1016 127.76 45.9844C127.271 45.8672 126.803 45.6849 126.354 45.4375C125.911 45.1901 125.54 44.8776 125.24 44.5L126.48 42.8398C126.806 43.2174 127.184 43.5104 127.613 43.7188C128.043 43.9336 128.518 44.041 129.039 44.041C129.547 44.041 129.977 43.9466 130.328 43.7578C130.68 43.5755 130.95 43.3053 131.139 42.9473C131.327 42.5957 131.422 42.1693 131.422 41.668V33.875L131.695 31.4336ZM124.586 36.8438V36.6387C124.586 35.8314 124.684 35.099 124.879 34.4414C125.081 33.7773 125.364 33.2077 125.729 32.7324C126.1 32.2572 126.549 31.8893 127.076 31.6289C127.604 31.3685 128.199 31.2383 128.863 31.2383C129.566 31.2383 130.156 31.3685 130.631 31.6289C131.106 31.8893 131.497 32.2604 131.803 32.7422C132.109 33.2174 132.346 33.7806 132.516 34.4316C132.691 35.0762 132.828 35.7826 132.926 36.5508V37C132.828 37.7357 132.682 38.4193 132.486 39.0508C132.291 39.6823 132.034 40.2357 131.715 40.7109C131.396 41.1797 130.999 41.5443 130.523 41.8047C130.055 42.0651 129.495 42.1953 128.844 42.1953C128.193 42.1953 127.604 42.0618 127.076 41.7949C126.555 41.528 126.109 41.1536 125.738 40.6719C125.367 40.1901 125.081 39.6237 124.879 38.9727C124.684 38.3216 124.586 37.612 124.586 36.8438ZM127.398 36.6387V36.8438C127.398 37.2799 127.441 37.6868 127.525 38.0645C127.61 38.4421 127.74 38.7773 127.916 39.0703C128.098 39.3568 128.323 39.5814 128.59 39.7441C128.863 39.9004 129.186 39.9785 129.557 39.9785C130.071 39.9785 130.491 39.8711 130.816 39.6562C131.142 39.4349 131.386 39.1322 131.549 38.748C131.712 38.3639 131.806 37.9212 131.832 37.4199V36.1406C131.819 35.7305 131.764 35.3626 131.666 35.0371C131.568 34.7051 131.432 34.4219 131.256 34.1875C131.08 33.9531 130.852 33.7708 130.572 33.6406C130.292 33.5104 129.96 33.4453 129.576 33.4453C129.205 33.4453 128.883 33.5299 128.609 33.6992C128.342 33.862 128.118 34.0866 127.936 34.373C127.76 34.6595 127.626 34.998 127.535 35.3887C127.444 35.7728 127.398 36.1895 127.398 36.6387ZM139.244 33.7383V42H136.432V31.4336H139.078L139.244 33.7383ZM142.428 31.3652L142.379 33.9727C142.242 33.9531 142.076 33.9368 141.881 33.9238C141.692 33.9043 141.52 33.8945 141.363 33.8945C140.966 33.8945 140.621 33.9466 140.328 34.0508C140.042 34.1484 139.801 34.2949 139.605 34.4902C139.417 34.6855 139.273 34.9232 139.176 35.2031C139.085 35.4831 139.033 35.8021 139.02 36.1602L138.453 35.9844C138.453 35.3008 138.521 34.6725 138.658 34.0996C138.795 33.5202 138.993 33.0156 139.254 32.5859C139.521 32.1562 139.846 31.8242 140.23 31.5898C140.615 31.3555 141.054 31.2383 141.549 31.2383C141.705 31.2383 141.865 31.2513 142.027 31.2773C142.19 31.2969 142.324 31.3262 142.428 31.3652ZM148.424 42.1953C147.604 42.1953 146.868 42.0651 146.217 41.8047C145.566 41.5378 145.012 41.1699 144.557 40.7012C144.107 40.2324 143.762 39.6888 143.521 39.0703C143.281 38.4453 143.16 37.7812 143.16 37.0781V36.6875C143.16 35.8867 143.274 35.1543 143.502 34.4902C143.73 33.8262 144.055 33.25 144.479 32.7617C144.908 32.2734 145.429 31.8991 146.041 31.6387C146.653 31.3717 147.343 31.2383 148.111 31.2383C148.86 31.2383 149.524 31.362 150.104 31.6094C150.683 31.8568 151.168 32.2083 151.559 32.6641C151.956 33.1198 152.255 33.6667 152.457 34.3047C152.659 34.9362 152.76 35.6393 152.76 36.4141V37.5859H144.361V35.7109H149.996V35.4961C149.996 35.1055 149.924 34.7572 149.781 34.4512C149.645 34.1387 149.436 33.8913 149.156 33.709C148.876 33.5267 148.518 33.4355 148.082 33.4355C147.711 33.4355 147.392 33.5169 147.125 33.6797C146.858 33.8424 146.64 34.0703 146.471 34.3633C146.308 34.6562 146.184 35.0013 146.1 35.3984C146.021 35.7891 145.982 36.2188 145.982 36.6875V37.0781C145.982 37.5013 146.041 37.8919 146.158 38.25C146.282 38.6081 146.454 38.9173 146.676 39.1777C146.904 39.4382 147.177 39.64 147.496 39.7832C147.822 39.9264 148.189 39.998 148.6 39.998C149.107 39.998 149.579 39.9004 150.016 39.7051C150.458 39.5033 150.839 39.2005 151.158 38.7969L152.525 40.2812C152.304 40.6003 152.001 40.9062 151.617 41.1992C151.24 41.4922 150.784 41.7331 150.25 41.9219C149.716 42.1042 149.107 42.1953 148.424 42.1953ZM160.074 39.0801C160.074 38.8783 160.016 38.696 159.898 38.5332C159.781 38.3704 159.563 38.2207 159.244 38.084C158.932 37.9408 158.479 37.8105 157.887 37.6934C157.353 37.5762 156.855 37.4297 156.393 37.2539C155.937 37.0716 155.54 36.8535 155.201 36.5996C154.869 36.3457 154.609 36.0462 154.42 35.7012C154.231 35.3496 154.137 34.9492 154.137 34.5C154.137 34.0573 154.231 33.6406 154.42 33.25C154.615 32.8594 154.892 32.5143 155.25 32.2148C155.615 31.9089 156.057 31.6712 156.578 31.502C157.105 31.3262 157.698 31.2383 158.355 31.2383C159.273 31.2383 160.061 31.3848 160.719 31.6777C161.383 31.9707 161.891 32.3743 162.242 32.8887C162.6 33.3965 162.779 33.9759 162.779 34.627H159.967C159.967 34.3535 159.908 34.1094 159.791 33.8945C159.68 33.6732 159.505 33.5007 159.264 33.377C159.029 33.2467 158.723 33.1816 158.346 33.1816C158.033 33.1816 157.763 33.237 157.535 33.3477C157.307 33.4518 157.132 33.5951 157.008 33.7773C156.891 33.9531 156.832 34.1484 156.832 34.3633C156.832 34.526 156.865 34.6725 156.93 34.8027C157.001 34.9264 157.115 35.0404 157.271 35.1445C157.428 35.2487 157.63 35.3464 157.877 35.4375C158.131 35.5221 158.443 35.6003 158.814 35.6719C159.576 35.8281 160.257 36.0332 160.855 36.2871C161.454 36.5345 161.93 36.873 162.281 37.3027C162.633 37.7259 162.809 38.2826 162.809 38.9727C162.809 39.4414 162.704 39.8711 162.496 40.2617C162.288 40.6523 161.988 40.9941 161.598 41.2871C161.207 41.5736 160.738 41.7982 160.191 41.9609C159.651 42.1172 159.042 42.1953 158.365 42.1953C157.382 42.1953 156.549 42.0195 155.865 41.668C155.188 41.3164 154.674 40.8704 154.322 40.3301C153.977 39.7832 153.805 39.2233 153.805 38.6504H156.471C156.484 39.0345 156.581 39.3438 156.764 39.5781C156.952 39.8125 157.19 39.9818 157.477 40.0859C157.77 40.1901 158.085 40.2422 158.424 40.2422C158.788 40.2422 159.091 40.1934 159.332 40.0957C159.573 39.9915 159.755 39.8548 159.879 39.6855C160.009 39.5098 160.074 39.3079 160.074 39.0801ZM170.348 39.0801C170.348 38.8783 170.289 38.696 170.172 38.5332C170.055 38.3704 169.837 38.2207 169.518 38.084C169.205 37.9408 168.753 37.8105 168.16 37.6934C167.626 37.5762 167.128 37.4297 166.666 37.2539C166.21 37.0716 165.813 36.8535 165.475 36.5996C165.143 36.3457 164.882 36.0462 164.693 35.7012C164.505 35.3496 164.41 34.9492 164.41 34.5C164.41 34.0573 164.505 33.6406 164.693 33.25C164.889 32.8594 165.165 32.5143 165.523 32.2148C165.888 31.9089 166.331 31.6712 166.852 31.502C167.379 31.3262 167.971 31.2383 168.629 31.2383C169.547 31.2383 170.335 31.3848 170.992 31.6777C171.656 31.9707 172.164 32.3743 172.516 32.8887C172.874 33.3965 173.053 33.9759 173.053 34.627H170.24C170.24 34.3535 170.182 34.1094 170.064 33.8945C169.954 33.6732 169.778 33.5007 169.537 33.377C169.303 33.2467 168.997 33.1816 168.619 33.1816C168.307 33.1816 168.036 33.237 167.809 33.3477C167.581 33.4518 167.405 33.5951 167.281 33.7773C167.164 33.9531 167.105 34.1484 167.105 34.3633C167.105 34.526 167.138 34.6725 167.203 34.8027C167.275 34.9264 167.389 35.0404 167.545 35.1445C167.701 35.2487 167.903 35.3464 168.15 35.4375C168.404 35.5221 168.717 35.6003 169.088 35.6719C169.85 35.8281 170.53 36.0332 171.129 36.2871C171.728 36.5345 172.203 36.873 172.555 37.3027C172.906 37.7259 173.082 38.2826 173.082 38.9727C173.082 39.4414 172.978 39.8711 172.77 40.2617C172.561 40.6523 172.262 40.9941 171.871 41.2871C171.48 41.5736 171.012 41.7982 170.465 41.9609C169.924 42.1172 169.316 42.1953 168.639 42.1953C167.656 42.1953 166.822 42.0195 166.139 41.668C165.462 41.3164 164.947 40.8704 164.596 40.3301C164.251 39.7832 164.078 39.2233 164.078 38.6504H166.744C166.757 39.0345 166.855 39.3438 167.037 39.5781C167.226 39.8125 167.464 39.9818 167.75 40.0859C168.043 40.1901 168.359 40.2422 168.697 40.2422C169.062 40.2422 169.365 40.1934 169.605 40.0957C169.846 39.9915 170.029 39.8548 170.152 39.6855C170.283 39.5098 170.348 39.3079 170.348 39.0801Z" fill="#060020"/>
    <g filter="url(#filter1_d_428_237)">
    <rect x="19" y="63" width="170" height="56" rx="8" fill="white"/>
    <path d="M34.9248 80.7979V84.7422C34.7699 84.929 34.5306 85.1318 34.207 85.3506C33.8835 85.5648 33.4665 85.7493 32.9561 85.9043C32.4456 86.0592 31.8281 86.1367 31.1035 86.1367C30.4609 86.1367 29.8753 86.0319 29.3467 85.8223C28.818 85.6081 28.3623 85.2959 27.9795 84.8857C27.6012 84.4756 27.3096 83.9743 27.1045 83.3818C26.8994 82.7848 26.7969 82.1035 26.7969 81.3379V80.7158C26.7969 79.9502 26.8949 79.2689 27.0908 78.6719C27.2913 78.0749 27.5762 77.5713 27.9453 77.1611C28.3145 76.751 28.7542 76.4388 29.2646 76.2246C29.7751 76.0104 30.3424 75.9033 30.9668 75.9033C31.8327 75.9033 32.5436 76.0446 33.0996 76.3271C33.6556 76.6051 34.0794 76.9925 34.3711 77.4893C34.6673 77.9814 34.8496 78.5465 34.918 79.1846H32.9287C32.8786 78.8473 32.7829 78.5534 32.6416 78.3027C32.5003 78.0521 32.2975 77.8561 32.0332 77.7148C31.7734 77.5736 31.4362 77.5029 31.0215 77.5029C30.6797 77.5029 30.3743 77.5736 30.1055 77.7148C29.8411 77.8516 29.6178 78.0544 29.4355 78.3232C29.2533 78.5921 29.1143 78.9248 29.0186 79.3213C28.9229 79.7178 28.875 80.1781 28.875 80.7021V81.3379C28.875 81.8574 28.9251 82.3177 29.0254 82.7188C29.1257 83.1152 29.2738 83.4502 29.4697 83.7236C29.6702 83.9925 29.9163 84.1953 30.208 84.332C30.4997 84.4688 30.8392 84.5371 31.2266 84.5371C31.5501 84.5371 31.819 84.5098 32.0332 84.4551C32.252 84.4004 32.4274 84.3343 32.5596 84.2568C32.6963 84.1748 32.8011 84.0973 32.874 84.0244V82.2607H31.001V80.7979H34.9248ZM38.4248 80.2168V86H36.4561V78.6035H38.3086L38.4248 80.2168ZM40.6533 78.5557L40.6191 80.3809C40.5234 80.3672 40.4072 80.3558 40.2705 80.3467C40.1383 80.333 40.0176 80.3262 39.9082 80.3262C39.6302 80.3262 39.3887 80.3626 39.1836 80.4355C38.9831 80.5039 38.8145 80.6064 38.6777 80.7432C38.5456 80.8799 38.4453 81.0462 38.377 81.2422C38.3132 81.4382 38.2767 81.6615 38.2676 81.9121L37.8711 81.7891C37.8711 81.3105 37.9189 80.8708 38.0146 80.4697C38.1104 80.0641 38.2493 79.7109 38.4316 79.4102C38.6185 79.1094 38.8464 78.877 39.1152 78.7129C39.3841 78.5488 39.6917 78.4668 40.0381 78.4668C40.1475 78.4668 40.2591 78.4759 40.373 78.4941C40.487 78.5078 40.5804 78.5283 40.6533 78.5557ZM45.3428 84.332V81.0371C45.3428 80.8001 45.304 80.5973 45.2266 80.4287C45.1491 80.2555 45.0283 80.1211 44.8643 80.0254C44.7048 79.9297 44.4974 79.8818 44.2422 79.8818C44.0234 79.8818 43.8343 79.9206 43.6748 79.998C43.5153 80.071 43.3923 80.1781 43.3057 80.3193C43.2191 80.4561 43.1758 80.6178 43.1758 80.8047H41.207C41.207 80.4902 41.2799 80.1917 41.4258 79.9092C41.5716 79.6266 41.7835 79.3783 42.0615 79.1641C42.3395 78.9453 42.6699 78.7744 43.0527 78.6514C43.4401 78.5283 43.873 78.4668 44.3516 78.4668C44.9258 78.4668 45.4362 78.5625 45.8828 78.7539C46.3294 78.9453 46.6803 79.2324 46.9355 79.6152C47.1953 79.998 47.3252 80.4766 47.3252 81.0508V84.2158C47.3252 84.6214 47.3503 84.9541 47.4004 85.2139C47.4505 85.4691 47.5234 85.6924 47.6191 85.8838V86H45.6299C45.5342 85.7995 45.4613 85.5488 45.4111 85.248C45.3656 84.9427 45.3428 84.6374 45.3428 84.332ZM45.6025 81.4951L45.6162 82.6094H44.5156C44.2559 82.6094 44.0303 82.639 43.8389 82.6982C43.6475 82.7575 43.4902 82.8418 43.3672 82.9512C43.2441 83.056 43.153 83.179 43.0938 83.3203C43.0391 83.4616 43.0117 83.6165 43.0117 83.7852C43.0117 83.9538 43.0505 84.1064 43.1279 84.2432C43.2054 84.3753 43.3171 84.4801 43.4629 84.5576C43.6087 84.6305 43.7796 84.667 43.9756 84.667C44.2718 84.667 44.5293 84.6077 44.748 84.4893C44.9668 84.3708 45.1354 84.2249 45.2539 84.0518C45.377 83.8786 45.4408 83.7145 45.4453 83.5596L45.9648 84.3936C45.8919 84.5804 45.7917 84.7741 45.6641 84.9746C45.541 85.1751 45.3838 85.3643 45.1924 85.542C45.001 85.7152 44.7708 85.8587 44.502 85.9727C44.2331 86.082 43.9141 86.1367 43.5449 86.1367C43.0755 86.1367 42.6494 86.0433 42.2666 85.8564C41.8883 85.665 41.5876 85.403 41.3643 85.0703C41.1455 84.7331 41.0361 84.3503 41.0361 83.9219C41.0361 83.5345 41.109 83.1904 41.2549 82.8896C41.4007 82.5889 41.6149 82.3359 41.8975 82.1309C42.1846 81.9212 42.5423 81.764 42.9707 81.6592C43.3991 81.5498 43.8958 81.4951 44.4609 81.4951H45.6025ZM50.8115 80.0254V88.8438H48.8428V78.6035H50.668L50.8115 80.0254ZM55.4941 82.2197V82.3633C55.4941 82.901 55.4303 83.4001 55.3027 83.8604C55.1797 84.3206 54.9974 84.7217 54.7559 85.0635C54.5143 85.4007 54.2135 85.665 53.8535 85.8564C53.498 86.0433 53.0879 86.1367 52.623 86.1367C52.1719 86.1367 51.7799 86.0456 51.4473 85.8633C51.1146 85.681 50.8343 85.4258 50.6064 85.0977C50.3831 84.765 50.2031 84.3799 50.0664 83.9424C49.9297 83.5049 49.8249 83.0355 49.752 82.5342V82.1582C49.8249 81.6204 49.9297 81.1283 50.0664 80.6816C50.2031 80.2305 50.3831 79.8408 50.6064 79.5127C50.8343 79.18 51.1123 78.9225 51.4404 78.7402C51.7731 78.5579 52.1628 78.4668 52.6094 78.4668C53.0788 78.4668 53.4912 78.5557 53.8467 78.7334C54.2067 78.9111 54.5075 79.1663 54.749 79.499C54.9951 79.8317 55.1797 80.2282 55.3027 80.6885C55.4303 81.1488 55.4941 81.6592 55.4941 82.2197ZM53.5186 82.3633V82.2197C53.5186 81.9053 53.4912 81.6159 53.4365 81.3516C53.3864 81.0827 53.3044 80.848 53.1904 80.6475C53.0811 80.4469 52.9352 80.292 52.7529 80.1826C52.5752 80.0687 52.3587 80.0117 52.1035 80.0117C51.8346 80.0117 51.6045 80.055 51.4131 80.1416C51.2262 80.2282 51.0736 80.3535 50.9551 80.5176C50.8366 80.6816 50.7477 80.8776 50.6885 81.1055C50.6292 81.3333 50.5928 81.5908 50.5791 81.8779V82.8281C50.6019 83.1654 50.6657 83.4684 50.7705 83.7373C50.8753 84.0016 51.0371 84.2113 51.2559 84.3662C51.4746 84.5212 51.7617 84.5986 52.1172 84.5986C52.377 84.5986 52.5957 84.5417 52.7734 84.4277C52.9512 84.3092 53.0947 84.1475 53.2041 83.9424C53.318 83.7373 53.3978 83.5003 53.4434 83.2314C53.4935 82.9626 53.5186 82.6732 53.5186 82.3633ZM58.7959 78.6035V86H56.8203V78.6035H58.7959ZM56.6973 76.6758C56.6973 76.3887 56.7975 76.1517 56.998 75.9648C57.1986 75.778 57.4674 75.6846 57.8047 75.6846C58.1374 75.6846 58.404 75.778 58.6045 75.9648C58.8096 76.1517 58.9121 76.3887 58.9121 76.6758C58.9121 76.9629 58.8096 77.1999 58.6045 77.3867C58.404 77.5736 58.1374 77.667 57.8047 77.667C57.4674 77.667 57.1986 77.5736 56.998 77.3867C56.7975 77.1999 56.6973 76.9629 56.6973 76.6758ZM63.4785 84.5986C63.7201 84.5986 63.9342 84.5531 64.1211 84.4619C64.3079 84.3662 64.4538 84.234 64.5586 84.0654C64.668 83.8923 64.7249 83.6895 64.7295 83.457H66.582C66.5775 83.9766 66.4385 84.4391 66.165 84.8447C65.8916 85.2458 65.5247 85.5625 65.0645 85.7949C64.6042 86.0228 64.0892 86.1367 63.5195 86.1367C62.9453 86.1367 62.444 86.041 62.0156 85.8496C61.5918 85.6582 61.2386 85.3939 60.9561 85.0566C60.6735 84.7148 60.4616 84.3184 60.3203 83.8672C60.179 83.4115 60.1084 82.9238 60.1084 82.4043V82.2061C60.1084 81.682 60.179 81.1943 60.3203 80.7432C60.4616 80.2874 60.6735 79.891 60.9561 79.5537C61.2386 79.2119 61.5918 78.9453 62.0156 78.7539C62.4395 78.5625 62.9362 78.4668 63.5059 78.4668C64.112 78.4668 64.6429 78.583 65.0986 78.8154C65.5589 79.0479 65.9189 79.3805 66.1787 79.8135C66.443 80.2419 66.5775 80.75 66.582 81.3379H64.7295C64.7249 81.0918 64.6725 80.8685 64.5723 80.668C64.4766 80.4674 64.3353 80.3079 64.1484 80.1895C63.9661 80.0664 63.7406 80.0049 63.4717 80.0049C63.1846 80.0049 62.9499 80.0664 62.7676 80.1895C62.5853 80.3079 62.444 80.472 62.3438 80.6816C62.2435 80.8867 62.1729 81.1214 62.1318 81.3857C62.0954 81.6455 62.0771 81.9189 62.0771 82.2061V82.4043C62.0771 82.6914 62.0954 82.9671 62.1318 83.2314C62.1683 83.4958 62.2367 83.7305 62.3369 83.9355C62.4417 84.1406 62.5853 84.3024 62.7676 84.4209C62.9499 84.5394 63.1868 84.5986 63.4785 84.5986ZM74.3887 86H72.2217L72.2354 84.4004H74.3887C74.9264 84.4004 75.3799 84.2796 75.749 84.0381C76.1182 83.792 76.3962 83.4342 76.583 82.9648C76.7744 82.4954 76.8701 81.9281 76.8701 81.2627V80.7773C76.8701 80.2669 76.8154 79.818 76.7061 79.4307C76.6012 79.0433 76.444 78.7174 76.2344 78.4531C76.0247 78.1888 75.7673 77.9906 75.4619 77.8584C75.1566 77.7217 74.8057 77.6533 74.4092 77.6533H72.1807V76.0469H74.4092C75.0745 76.0469 75.6829 76.1608 76.2344 76.3887C76.7904 76.612 77.2712 76.9333 77.6768 77.3525C78.0824 77.7718 78.3945 78.2731 78.6133 78.8564C78.8366 79.4352 78.9482 80.0801 78.9482 80.791V81.2627C78.9482 81.9691 78.8366 82.6139 78.6133 83.1973C78.3945 83.7806 78.0824 84.2819 77.6768 84.7012C77.2757 85.1159 76.7949 85.4372 76.2344 85.665C75.6784 85.8883 75.0632 86 74.3887 86ZM73.3838 76.0469V86H71.333V76.0469H73.3838ZM83.7197 86.1367C83.1455 86.1367 82.6305 86.0456 82.1748 85.8633C81.7191 85.6764 81.3317 85.4189 81.0127 85.0908C80.6982 84.7627 80.4567 84.3822 80.2881 83.9492C80.1195 83.5117 80.0352 83.0469 80.0352 82.5547V82.2812C80.0352 81.7207 80.1149 81.208 80.2744 80.7432C80.4339 80.2783 80.6618 79.875 80.958 79.5332C81.2588 79.1914 81.6234 78.9294 82.0518 78.7471C82.4801 78.5602 82.9632 78.4668 83.501 78.4668C84.0251 78.4668 84.4899 78.5534 84.8955 78.7266C85.3011 78.8997 85.6406 79.1458 85.9141 79.4648C86.1921 79.7839 86.4017 80.1667 86.543 80.6133C86.6842 81.0553 86.7549 81.5475 86.7549 82.0898V82.9102H80.876V81.5977H84.8203V81.4473C84.8203 81.1738 84.7702 80.93 84.6699 80.7158C84.5742 80.4971 84.4284 80.3239 84.2324 80.1963C84.0365 80.0687 83.7858 80.0049 83.4805 80.0049C83.2207 80.0049 82.9974 80.0618 82.8105 80.1758C82.6237 80.2897 82.471 80.4492 82.3525 80.6543C82.2386 80.8594 82.152 81.1009 82.0928 81.3789C82.0381 81.6523 82.0107 81.9531 82.0107 82.2812V82.5547C82.0107 82.8509 82.0518 83.1243 82.1338 83.375C82.2204 83.6257 82.3411 83.8421 82.4961 84.0244C82.6556 84.2067 82.847 84.348 83.0703 84.4482C83.2982 84.5485 83.5557 84.5986 83.8428 84.5986C84.1982 84.5986 84.5286 84.5303 84.834 84.3936C85.1439 84.2523 85.4105 84.0404 85.6338 83.7578L86.5908 84.7969C86.4359 85.0202 86.224 85.2344 85.9551 85.4395C85.6908 85.6445 85.3717 85.8132 84.998 85.9453C84.6243 86.0729 84.1982 86.1367 83.7197 86.1367ZM91.875 83.9561C91.875 83.8148 91.834 83.6872 91.752 83.5732C91.6699 83.4593 91.5173 83.3545 91.2939 83.2588C91.0752 83.1585 90.7585 83.0674 90.3438 82.9854C89.9701 82.9033 89.6214 82.8008 89.2979 82.6777C88.9788 82.5501 88.7008 82.3975 88.4639 82.2197C88.2314 82.042 88.0492 81.8324 87.917 81.5908C87.7848 81.3447 87.7188 81.0645 87.7188 80.75C87.7188 80.4401 87.7848 80.1484 87.917 79.875C88.0537 79.6016 88.2474 79.36 88.498 79.1504C88.7533 78.9362 89.0632 78.7699 89.4277 78.6514C89.7969 78.5283 90.2116 78.4668 90.6719 78.4668C91.3145 78.4668 91.8659 78.5693 92.3262 78.7744C92.791 78.9795 93.1465 79.262 93.3926 79.6221C93.6432 79.9775 93.7686 80.3831 93.7686 80.8389H91.7998C91.7998 80.6475 91.7588 80.4766 91.6768 80.3262C91.5993 80.1712 91.4762 80.0505 91.3076 79.9639C91.1436 79.8727 90.9294 79.8271 90.665 79.8271C90.4463 79.8271 90.2572 79.8659 90.0977 79.9434C89.9382 80.0163 89.8151 80.1165 89.7285 80.2441C89.6465 80.3672 89.6055 80.5039 89.6055 80.6543C89.6055 80.7682 89.6283 80.8708 89.6738 80.9619C89.724 81.0485 89.8037 81.1283 89.9131 81.2012C90.0225 81.2741 90.1637 81.3424 90.3369 81.4062C90.5146 81.4655 90.7334 81.5202 90.9932 81.5703C91.5264 81.6797 92.0026 81.8232 92.4219 82.001C92.8411 82.1742 93.1738 82.4111 93.4199 82.7119C93.666 83.0081 93.7891 83.3978 93.7891 83.8809C93.7891 84.209 93.7161 84.5098 93.5703 84.7832C93.4245 85.0566 93.2148 85.2959 92.9414 85.501C92.668 85.7015 92.3398 85.8587 91.957 85.9727C91.5788 86.082 91.1527 86.1367 90.6787 86.1367C89.9906 86.1367 89.4072 86.0137 88.9287 85.7676C88.4548 85.5215 88.0947 85.2093 87.8486 84.8311C87.6071 84.4482 87.4863 84.0563 87.4863 83.6553H89.3525C89.3617 83.9242 89.43 84.1406 89.5576 84.3047C89.6898 84.4688 89.8561 84.5872 90.0566 84.6602C90.2617 84.7331 90.4827 84.7695 90.7197 84.7695C90.9749 84.7695 91.1868 84.7354 91.3555 84.667C91.5241 84.5941 91.6517 84.4984 91.7383 84.3799C91.8294 84.2568 91.875 84.1156 91.875 83.9561ZM97.1455 78.6035V86H95.1699V78.6035H97.1455ZM95.0469 76.6758C95.0469 76.3887 95.1471 76.1517 95.3477 75.9648C95.5482 75.778 95.8171 75.6846 96.1543 75.6846C96.487 75.6846 96.7536 75.778 96.9541 75.9648C97.1592 76.1517 97.2617 76.3887 97.2617 76.6758C97.2617 76.9629 97.1592 77.1999 96.9541 77.3867C96.7536 77.5736 96.487 77.667 96.1543 77.667C95.8171 77.667 95.5482 77.5736 95.3477 77.3867C95.1471 77.1999 95.0469 76.9629 95.0469 76.6758ZM103.455 78.6035H105.239V85.7539C105.239 86.4284 105.089 87.0003 104.788 87.4697C104.492 87.9437 104.077 88.3014 103.544 88.543C103.011 88.7891 102.391 88.9121 101.685 88.9121C101.375 88.9121 101.047 88.8711 100.7 88.7891C100.358 88.707 100.03 88.5794 99.7158 88.4062C99.4059 88.2331 99.1462 88.0143 98.9365 87.75L99.8047 86.5879C100.033 86.8522 100.297 87.0573 100.598 87.2031C100.898 87.3535 101.231 87.4287 101.596 87.4287C101.951 87.4287 102.252 87.3626 102.498 87.2305C102.744 87.1029 102.933 86.9137 103.065 86.6631C103.198 86.417 103.264 86.1185 103.264 85.7676V80.3125L103.455 78.6035ZM98.4785 82.3906V82.2471C98.4785 81.682 98.5469 81.1693 98.6836 80.709C98.8249 80.2441 99.0231 79.8454 99.2783 79.5127C99.5381 79.18 99.8525 78.9225 100.222 78.7402C100.591 78.5579 101.008 78.4668 101.473 78.4668C101.965 78.4668 102.377 78.5579 102.71 78.7402C103.043 78.9225 103.316 79.1823 103.53 79.5195C103.744 79.8522 103.911 80.2464 104.029 80.7021C104.152 81.1533 104.248 81.6478 104.316 82.1855V82.5C104.248 83.015 104.146 83.4935 104.009 83.9355C103.872 84.3776 103.692 84.765 103.469 85.0977C103.245 85.4258 102.967 85.681 102.635 85.8633C102.307 86.0456 101.915 86.1367 101.459 86.1367C101.003 86.1367 100.591 86.0433 100.222 85.8564C99.8571 85.6696 99.5449 85.4076 99.2852 85.0703C99.0254 84.7331 98.8249 84.3366 98.6836 83.8809C98.5469 83.4251 98.4785 82.9284 98.4785 82.3906ZM100.447 82.2471V82.3906C100.447 82.696 100.477 82.9808 100.536 83.2451C100.595 83.5094 100.687 83.7441 100.81 83.9492C100.937 84.1497 101.094 84.307 101.281 84.4209C101.473 84.5303 101.698 84.585 101.958 84.585C102.318 84.585 102.612 84.5098 102.84 84.3594C103.068 84.2044 103.239 83.9925 103.353 83.7236C103.466 83.4548 103.533 83.1449 103.551 82.7939V81.8984C103.542 81.6113 103.503 81.3538 103.435 81.126C103.366 80.8936 103.271 80.6953 103.147 80.5312C103.024 80.3672 102.865 80.2396 102.669 80.1484C102.473 80.0573 102.241 80.0117 101.972 80.0117C101.712 80.0117 101.486 80.071 101.295 80.1895C101.108 80.3034 100.951 80.4606 100.823 80.6611C100.7 80.8617 100.607 81.0986 100.543 81.3721C100.479 81.641 100.447 81.9326 100.447 82.2471ZM108.698 80.1826V86H106.729V78.6035H108.575L108.698 80.1826ZM108.411 82.042H107.878C107.878 81.4951 107.949 81.0029 108.09 80.5654C108.231 80.1234 108.429 79.7474 108.685 79.4375C108.94 79.123 109.243 78.8838 109.594 78.7197C109.949 78.5511 110.346 78.4668 110.783 78.4668C111.13 78.4668 111.446 78.5169 111.733 78.6172C112.021 78.7174 112.267 78.877 112.472 79.0957C112.681 79.3145 112.841 79.6038 112.95 79.9639C113.064 80.3239 113.121 80.7637 113.121 81.2832V86H111.139V81.2764C111.139 80.9482 111.093 80.693 111.002 80.5107C110.911 80.3285 110.776 80.2008 110.599 80.1279C110.425 80.0505 110.211 80.0117 109.956 80.0117C109.692 80.0117 109.462 80.0641 109.266 80.1689C109.074 80.2738 108.915 80.4196 108.787 80.6064C108.664 80.7887 108.571 81.0029 108.507 81.249C108.443 81.4951 108.411 81.7594 108.411 82.042Z" fill="#060020"/>
    <path d="M168.286 96.0762C168.286 96.5091 168.185 96.877 167.983 97.1797C167.785 97.4792 167.515 97.707 167.173 97.8633C166.834 98.0195 166.452 98.0977 166.025 98.0977C165.599 98.0977 165.215 98.0195 164.873 97.8633C164.531 97.707 164.261 97.4792 164.062 97.1797C163.864 96.877 163.765 96.5091 163.765 96.0762C163.765 95.793 163.818 95.5342 163.926 95.2998C164.036 95.0622 164.191 94.8555 164.39 94.6797C164.591 94.5039 164.829 94.3688 165.103 94.2744C165.379 94.1768 165.684 94.1279 166.016 94.1279C166.452 94.1279 166.841 94.2126 167.183 94.3818C167.524 94.5479 167.793 94.7773 167.988 95.0703C168.187 95.3633 168.286 95.6986 168.286 96.0762ZM167.378 96.0566C167.378 95.793 167.321 95.5602 167.207 95.3584C167.093 95.1533 166.934 94.9938 166.729 94.8799C166.523 94.766 166.286 94.709 166.016 94.709C165.739 94.709 165.5 94.766 165.298 94.8799C165.099 94.9938 164.945 95.1533 164.834 95.3584C164.723 95.5602 164.668 95.793 164.668 96.0566C164.668 96.3301 164.722 96.5645 164.829 96.7598C164.94 96.9518 165.096 97.0999 165.298 97.2041C165.503 97.305 165.745 97.3555 166.025 97.3555C166.305 97.3555 166.546 97.305 166.748 97.2041C166.95 97.0999 167.104 96.9518 167.212 96.7598C167.323 96.5645 167.378 96.3301 167.378 96.0566ZM168.12 92.7412C168.12 93.0863 168.029 93.3971 167.847 93.6738C167.664 93.9505 167.415 94.1686 167.1 94.3281C166.784 94.4876 166.426 94.5674 166.025 94.5674C165.618 94.5674 165.256 94.4876 164.937 94.3281C164.621 94.1686 164.373 93.9505 164.194 93.6738C164.015 93.3971 163.926 93.0863 163.926 92.7412C163.926 92.3278 164.015 91.9762 164.194 91.6865C164.377 91.3968 164.626 91.1755 164.941 91.0225C165.257 90.8695 165.617 90.793 166.021 90.793C166.427 90.793 166.789 90.8695 167.104 91.0225C167.42 91.1755 167.668 91.3968 167.847 91.6865C168.029 91.9762 168.12 92.3278 168.12 92.7412ZM167.217 92.7559C167.217 92.5182 167.166 92.3083 167.065 92.126C166.965 91.9437 166.825 91.8005 166.646 91.6963C166.466 91.5889 166.258 91.5352 166.021 91.5352C165.783 91.5352 165.575 91.5856 165.396 91.6865C165.22 91.7842 165.081 91.9242 164.98 92.1064C164.883 92.2887 164.834 92.5052 164.834 92.7559C164.834 93 164.883 93.2132 164.98 93.3955C165.081 93.5778 165.221 93.7194 165.4 93.8203C165.579 93.9212 165.788 93.9717 166.025 93.9717C166.263 93.9717 166.47 93.9212 166.646 93.8203C166.825 93.7194 166.965 93.5778 167.065 93.3955C167.166 93.2132 167.217 93 167.217 92.7559ZM174.023 90.8906V91.3984L171.079 98H170.127L173.066 91.6328H169.219V90.8906H174.023ZM174.976 92.6338V92.2578C174.976 91.9876 175.034 91.7419 175.151 91.5205C175.269 91.2992 175.436 91.1217 175.654 90.9883C175.872 90.8548 176.131 90.7881 176.431 90.7881C176.737 90.7881 176.997 90.8548 177.212 90.9883C177.43 91.1217 177.598 91.2992 177.715 91.5205C177.832 91.7419 177.891 91.9876 177.891 92.2578V92.6338C177.891 92.8975 177.832 93.14 177.715 93.3613C177.601 93.5827 177.435 93.7601 177.217 93.8936C177.002 94.027 176.743 94.0938 176.44 94.0938C176.138 94.0938 175.876 94.027 175.654 93.8936C175.436 93.7601 175.269 93.5827 175.151 93.3613C175.034 93.14 174.976 92.8975 174.976 92.6338ZM175.654 92.2578V92.6338C175.654 92.7835 175.682 92.9251 175.737 93.0586C175.796 93.1921 175.884 93.3011 176.001 93.3857C176.118 93.4671 176.265 93.5078 176.44 93.5078C176.616 93.5078 176.761 93.4671 176.875 93.3857C176.989 93.3011 177.074 93.1921 177.129 93.0586C177.184 92.9251 177.212 92.7835 177.212 92.6338V92.2578C177.212 92.1048 177.183 91.9616 177.124 91.8281C177.069 91.6914 176.982 91.5824 176.865 91.501C176.751 91.4163 176.606 91.374 176.431 91.374C176.258 91.374 176.113 91.4163 175.996 91.501C175.882 91.5824 175.796 91.6914 175.737 91.8281C175.682 91.9616 175.654 92.1048 175.654 92.2578ZM178.438 96.6377V96.2568C178.438 95.9899 178.496 95.7458 178.613 95.5244C178.73 95.3031 178.898 95.1257 179.116 94.9922C179.334 94.8587 179.593 94.792 179.893 94.792C180.199 94.792 180.459 94.8587 180.674 94.9922C180.892 95.1257 181.06 95.3031 181.177 95.5244C181.294 95.7458 181.353 95.9899 181.353 96.2568V96.6377C181.353 96.9046 181.294 97.1488 181.177 97.3701C181.063 97.5915 180.897 97.7689 180.679 97.9023C180.464 98.0358 180.205 98.1025 179.902 98.1025C179.6 98.1025 179.339 98.0358 179.121 97.9023C178.903 97.7689 178.734 97.5915 178.613 97.3701C178.496 97.1488 178.438 96.9046 178.438 96.6377ZM179.116 96.2568V96.6377C179.116 96.7874 179.144 96.9307 179.199 97.0674C179.258 97.2008 179.346 97.3099 179.463 97.3945C179.58 97.4759 179.727 97.5166 179.902 97.5166C180.078 97.5166 180.223 97.4759 180.337 97.3945C180.454 97.3099 180.54 97.2008 180.596 97.0674C180.651 96.9339 180.679 96.7907 180.679 96.6377V96.2568C180.679 96.1038 180.649 95.9606 180.591 95.8271C180.535 95.6937 180.449 95.5863 180.332 95.5049C180.218 95.4202 180.072 95.3779 179.893 95.3779C179.72 95.3779 179.575 95.4202 179.458 95.5049C179.344 95.5863 179.258 95.6937 179.199 95.8271C179.144 95.9606 179.116 96.1038 179.116 96.2568ZM180.117 91.9014L176.646 97.458L176.138 97.1357L179.609 91.5791L180.117 91.9014Z" fill="#00AAFF"/>
    <rect width="156" height="6" rx="3" transform="matrix(-1 0 0 1 182 101)" fill="#D5D5D5"/>
    <rect width="118" height="6" rx="3" transform="matrix(-1 0 0 1 144 101)" fill="#01ABFE"/>
    </g>
    <g filter="url(#filter2_d_428_237)">
    <rect x="19" y="133" width="170" height="56" rx="8" fill="white"/>
    <path d="M34.9248 150.798V154.742C34.7699 154.929 34.5306 155.132 34.207 155.351C33.8835 155.565 33.4665 155.749 32.9561 155.904C32.4456 156.059 31.8281 156.137 31.1035 156.137C30.4609 156.137 29.8753 156.032 29.3467 155.822C28.818 155.608 28.3623 155.296 27.9795 154.886C27.6012 154.476 27.3096 153.974 27.1045 153.382C26.8994 152.785 26.7969 152.104 26.7969 151.338V150.716C26.7969 149.95 26.8949 149.269 27.0908 148.672C27.2913 148.075 27.5762 147.571 27.9453 147.161C28.3145 146.751 28.7542 146.439 29.2646 146.225C29.7751 146.01 30.3424 145.903 30.9668 145.903C31.8327 145.903 32.5436 146.045 33.0996 146.327C33.6556 146.605 34.0794 146.993 34.3711 147.489C34.6673 147.981 34.8496 148.547 34.918 149.185H32.9287C32.8786 148.847 32.7829 148.553 32.6416 148.303C32.5003 148.052 32.2975 147.856 32.0332 147.715C31.7734 147.574 31.4362 147.503 31.0215 147.503C30.6797 147.503 30.3743 147.574 30.1055 147.715C29.8411 147.852 29.6178 148.054 29.4355 148.323C29.2533 148.592 29.1143 148.925 29.0186 149.321C28.9229 149.718 28.875 150.178 28.875 150.702V151.338C28.875 151.857 28.9251 152.318 29.0254 152.719C29.1257 153.115 29.2738 153.45 29.4697 153.724C29.6702 153.993 29.9163 154.195 30.208 154.332C30.4997 154.469 30.8392 154.537 31.2266 154.537C31.5501 154.537 31.819 154.51 32.0332 154.455C32.252 154.4 32.4274 154.334 32.5596 154.257C32.6963 154.175 32.8011 154.097 32.874 154.024V152.261H31.001V150.798H34.9248ZM38.4248 150.217V156H36.4561V148.604H38.3086L38.4248 150.217ZM40.6533 148.556L40.6191 150.381C40.5234 150.367 40.4072 150.356 40.2705 150.347C40.1383 150.333 40.0176 150.326 39.9082 150.326C39.6302 150.326 39.3887 150.363 39.1836 150.436C38.9831 150.504 38.8145 150.606 38.6777 150.743C38.5456 150.88 38.4453 151.046 38.377 151.242C38.3132 151.438 38.2767 151.661 38.2676 151.912L37.8711 151.789C37.8711 151.311 37.9189 150.871 38.0146 150.47C38.1104 150.064 38.2493 149.711 38.4316 149.41C38.6185 149.109 38.8464 148.877 39.1152 148.713C39.3841 148.549 39.6917 148.467 40.0381 148.467C40.1475 148.467 40.2591 148.476 40.373 148.494C40.487 148.508 40.5804 148.528 40.6533 148.556ZM45.3428 154.332V151.037C45.3428 150.8 45.304 150.597 45.2266 150.429C45.1491 150.256 45.0283 150.121 44.8643 150.025C44.7048 149.93 44.4974 149.882 44.2422 149.882C44.0234 149.882 43.8343 149.921 43.6748 149.998C43.5153 150.071 43.3923 150.178 43.3057 150.319C43.2191 150.456 43.1758 150.618 43.1758 150.805H41.207C41.207 150.49 41.2799 150.192 41.4258 149.909C41.5716 149.627 41.7835 149.378 42.0615 149.164C42.3395 148.945 42.6699 148.774 43.0527 148.651C43.4401 148.528 43.873 148.467 44.3516 148.467C44.9258 148.467 45.4362 148.562 45.8828 148.754C46.3294 148.945 46.6803 149.232 46.9355 149.615C47.1953 149.998 47.3252 150.477 47.3252 151.051V154.216C47.3252 154.621 47.3503 154.954 47.4004 155.214C47.4505 155.469 47.5234 155.692 47.6191 155.884V156H45.6299C45.5342 155.799 45.4613 155.549 45.4111 155.248C45.3656 154.943 45.3428 154.637 45.3428 154.332ZM45.6025 151.495L45.6162 152.609H44.5156C44.2559 152.609 44.0303 152.639 43.8389 152.698C43.6475 152.757 43.4902 152.842 43.3672 152.951C43.2441 153.056 43.153 153.179 43.0938 153.32C43.0391 153.462 43.0117 153.617 43.0117 153.785C43.0117 153.954 43.0505 154.106 43.1279 154.243C43.2054 154.375 43.3171 154.48 43.4629 154.558C43.6087 154.631 43.7796 154.667 43.9756 154.667C44.2718 154.667 44.5293 154.608 44.748 154.489C44.9668 154.371 45.1354 154.225 45.2539 154.052C45.377 153.879 45.4408 153.715 45.4453 153.56L45.9648 154.394C45.8919 154.58 45.7917 154.774 45.6641 154.975C45.541 155.175 45.3838 155.364 45.1924 155.542C45.001 155.715 44.7708 155.859 44.502 155.973C44.2331 156.082 43.9141 156.137 43.5449 156.137C43.0755 156.137 42.6494 156.043 42.2666 155.856C41.8883 155.665 41.5876 155.403 41.3643 155.07C41.1455 154.733 41.0361 154.35 41.0361 153.922C41.0361 153.535 41.109 153.19 41.2549 152.89C41.4007 152.589 41.6149 152.336 41.8975 152.131C42.1846 151.921 42.5423 151.764 42.9707 151.659C43.3991 151.55 43.8958 151.495 44.4609 151.495H45.6025ZM50.8115 150.025V158.844H48.8428V148.604H50.668L50.8115 150.025ZM55.4941 152.22V152.363C55.4941 152.901 55.4303 153.4 55.3027 153.86C55.1797 154.321 54.9974 154.722 54.7559 155.063C54.5143 155.401 54.2135 155.665 53.8535 155.856C53.498 156.043 53.0879 156.137 52.623 156.137C52.1719 156.137 51.7799 156.046 51.4473 155.863C51.1146 155.681 50.8343 155.426 50.6064 155.098C50.3831 154.765 50.2031 154.38 50.0664 153.942C49.9297 153.505 49.8249 153.035 49.752 152.534V152.158C49.8249 151.62 49.9297 151.128 50.0664 150.682C50.2031 150.23 50.3831 149.841 50.6064 149.513C50.8343 149.18 51.1123 148.923 51.4404 148.74C51.7731 148.558 52.1628 148.467 52.6094 148.467C53.0788 148.467 53.4912 148.556 53.8467 148.733C54.2067 148.911 54.5075 149.166 54.749 149.499C54.9951 149.832 55.1797 150.228 55.3027 150.688C55.4303 151.149 55.4941 151.659 55.4941 152.22ZM53.5186 152.363V152.22C53.5186 151.905 53.4912 151.616 53.4365 151.352C53.3864 151.083 53.3044 150.848 53.1904 150.647C53.0811 150.447 52.9352 150.292 52.7529 150.183C52.5752 150.069 52.3587 150.012 52.1035 150.012C51.8346 150.012 51.6045 150.055 51.4131 150.142C51.2262 150.228 51.0736 150.354 50.9551 150.518C50.8366 150.682 50.7477 150.878 50.6885 151.105C50.6292 151.333 50.5928 151.591 50.5791 151.878V152.828C50.6019 153.165 50.6657 153.468 50.7705 153.737C50.8753 154.002 51.0371 154.211 51.2559 154.366C51.4746 154.521 51.7617 154.599 52.1172 154.599C52.377 154.599 52.5957 154.542 52.7734 154.428C52.9512 154.309 53.0947 154.147 53.2041 153.942C53.318 153.737 53.3978 153.5 53.4434 153.231C53.4935 152.963 53.5186 152.673 53.5186 152.363ZM58.7959 148.604V156H56.8203V148.604H58.7959ZM56.6973 146.676C56.6973 146.389 56.7975 146.152 56.998 145.965C57.1986 145.778 57.4674 145.685 57.8047 145.685C58.1374 145.685 58.404 145.778 58.6045 145.965C58.8096 146.152 58.9121 146.389 58.9121 146.676C58.9121 146.963 58.8096 147.2 58.6045 147.387C58.404 147.574 58.1374 147.667 57.8047 147.667C57.4674 147.667 57.1986 147.574 56.998 147.387C56.7975 147.2 56.6973 146.963 56.6973 146.676ZM63.4785 154.599C63.7201 154.599 63.9342 154.553 64.1211 154.462C64.3079 154.366 64.4538 154.234 64.5586 154.065C64.668 153.892 64.7249 153.689 64.7295 153.457H66.582C66.5775 153.977 66.4385 154.439 66.165 154.845C65.8916 155.246 65.5247 155.562 65.0645 155.795C64.6042 156.023 64.0892 156.137 63.5195 156.137C62.9453 156.137 62.444 156.041 62.0156 155.85C61.5918 155.658 61.2386 155.394 60.9561 155.057C60.6735 154.715 60.4616 154.318 60.3203 153.867C60.179 153.411 60.1084 152.924 60.1084 152.404V152.206C60.1084 151.682 60.179 151.194 60.3203 150.743C60.4616 150.287 60.6735 149.891 60.9561 149.554C61.2386 149.212 61.5918 148.945 62.0156 148.754C62.4395 148.562 62.9362 148.467 63.5059 148.467C64.112 148.467 64.6429 148.583 65.0986 148.815C65.5589 149.048 65.9189 149.381 66.1787 149.813C66.443 150.242 66.5775 150.75 66.582 151.338H64.7295C64.7249 151.092 64.6725 150.868 64.5723 150.668C64.4766 150.467 64.3353 150.308 64.1484 150.189C63.9661 150.066 63.7406 150.005 63.4717 150.005C63.1846 150.005 62.9499 150.066 62.7676 150.189C62.5853 150.308 62.444 150.472 62.3438 150.682C62.2435 150.887 62.1729 151.121 62.1318 151.386C62.0954 151.646 62.0771 151.919 62.0771 152.206V152.404C62.0771 152.691 62.0954 152.967 62.1318 153.231C62.1683 153.496 62.2367 153.73 62.3369 153.936C62.4417 154.141 62.5853 154.302 62.7676 154.421C62.9499 154.539 63.1868 154.599 63.4785 154.599ZM74.3887 156H72.2217L72.2354 154.4H74.3887C74.9264 154.4 75.3799 154.28 75.749 154.038C76.1182 153.792 76.3962 153.434 76.583 152.965C76.7744 152.495 76.8701 151.928 76.8701 151.263V150.777C76.8701 150.267 76.8154 149.818 76.7061 149.431C76.6012 149.043 76.444 148.717 76.2344 148.453C76.0247 148.189 75.7673 147.991 75.4619 147.858C75.1566 147.722 74.8057 147.653 74.4092 147.653H72.1807V146.047H74.4092C75.0745 146.047 75.6829 146.161 76.2344 146.389C76.7904 146.612 77.2712 146.933 77.6768 147.353C78.0824 147.772 78.3945 148.273 78.6133 148.856C78.8366 149.435 78.9482 150.08 78.9482 150.791V151.263C78.9482 151.969 78.8366 152.614 78.6133 153.197C78.3945 153.781 78.0824 154.282 77.6768 154.701C77.2757 155.116 76.7949 155.437 76.2344 155.665C75.6784 155.888 75.0632 156 74.3887 156ZM73.3838 146.047V156H71.333V146.047H73.3838ZM83.7197 156.137C83.1455 156.137 82.6305 156.046 82.1748 155.863C81.7191 155.676 81.3317 155.419 81.0127 155.091C80.6982 154.763 80.4567 154.382 80.2881 153.949C80.1195 153.512 80.0352 153.047 80.0352 152.555V152.281C80.0352 151.721 80.1149 151.208 80.2744 150.743C80.4339 150.278 80.6618 149.875 80.958 149.533C81.2588 149.191 81.6234 148.929 82.0518 148.747C82.4801 148.56 82.9632 148.467 83.501 148.467C84.0251 148.467 84.4899 148.553 84.8955 148.727C85.3011 148.9 85.6406 149.146 85.9141 149.465C86.1921 149.784 86.4017 150.167 86.543 150.613C86.6842 151.055 86.7549 151.548 86.7549 152.09V152.91H80.876V151.598H84.8203V151.447C84.8203 151.174 84.7702 150.93 84.6699 150.716C84.5742 150.497 84.4284 150.324 84.2324 150.196C84.0365 150.069 83.7858 150.005 83.4805 150.005C83.2207 150.005 82.9974 150.062 82.8105 150.176C82.6237 150.29 82.471 150.449 82.3525 150.654C82.2386 150.859 82.152 151.101 82.0928 151.379C82.0381 151.652 82.0107 151.953 82.0107 152.281V152.555C82.0107 152.851 82.0518 153.124 82.1338 153.375C82.2204 153.626 82.3411 153.842 82.4961 154.024C82.6556 154.207 82.847 154.348 83.0703 154.448C83.2982 154.549 83.5557 154.599 83.8428 154.599C84.1982 154.599 84.5286 154.53 84.834 154.394C85.1439 154.252 85.4105 154.04 85.6338 153.758L86.5908 154.797C86.4359 155.02 86.224 155.234 85.9551 155.439C85.6908 155.645 85.3717 155.813 84.998 155.945C84.6243 156.073 84.1982 156.137 83.7197 156.137ZM91.875 153.956C91.875 153.815 91.834 153.687 91.752 153.573C91.6699 153.459 91.5173 153.354 91.2939 153.259C91.0752 153.159 90.7585 153.067 90.3438 152.985C89.9701 152.903 89.6214 152.801 89.2979 152.678C88.9788 152.55 88.7008 152.397 88.4639 152.22C88.2314 152.042 88.0492 151.832 87.917 151.591C87.7848 151.345 87.7188 151.064 87.7188 150.75C87.7188 150.44 87.7848 150.148 87.917 149.875C88.0537 149.602 88.2474 149.36 88.498 149.15C88.7533 148.936 89.0632 148.77 89.4277 148.651C89.7969 148.528 90.2116 148.467 90.6719 148.467C91.3145 148.467 91.8659 148.569 92.3262 148.774C92.791 148.979 93.1465 149.262 93.3926 149.622C93.6432 149.978 93.7686 150.383 93.7686 150.839H91.7998C91.7998 150.647 91.7588 150.477 91.6768 150.326C91.5993 150.171 91.4762 150.05 91.3076 149.964C91.1436 149.873 90.9294 149.827 90.665 149.827C90.4463 149.827 90.2572 149.866 90.0977 149.943C89.9382 150.016 89.8151 150.117 89.7285 150.244C89.6465 150.367 89.6055 150.504 89.6055 150.654C89.6055 150.768 89.6283 150.871 89.6738 150.962C89.724 151.049 89.8037 151.128 89.9131 151.201C90.0225 151.274 90.1637 151.342 90.3369 151.406C90.5146 151.465 90.7334 151.52 90.9932 151.57C91.5264 151.68 92.0026 151.823 92.4219 152.001C92.8411 152.174 93.1738 152.411 93.4199 152.712C93.666 153.008 93.7891 153.398 93.7891 153.881C93.7891 154.209 93.7161 154.51 93.5703 154.783C93.4245 155.057 93.2148 155.296 92.9414 155.501C92.668 155.701 92.3398 155.859 91.957 155.973C91.5788 156.082 91.1527 156.137 90.6787 156.137C89.9906 156.137 89.4072 156.014 88.9287 155.768C88.4548 155.521 88.0947 155.209 87.8486 154.831C87.6071 154.448 87.4863 154.056 87.4863 153.655H89.3525C89.3617 153.924 89.43 154.141 89.5576 154.305C89.6898 154.469 89.8561 154.587 90.0566 154.66C90.2617 154.733 90.4827 154.77 90.7197 154.77C90.9749 154.77 91.1868 154.735 91.3555 154.667C91.5241 154.594 91.6517 154.498 91.7383 154.38C91.8294 154.257 91.875 154.116 91.875 153.956ZM97.1455 148.604V156H95.1699V148.604H97.1455ZM95.0469 146.676C95.0469 146.389 95.1471 146.152 95.3477 145.965C95.5482 145.778 95.8171 145.685 96.1543 145.685C96.487 145.685 96.7536 145.778 96.9541 145.965C97.1592 146.152 97.2617 146.389 97.2617 146.676C97.2617 146.963 97.1592 147.2 96.9541 147.387C96.7536 147.574 96.487 147.667 96.1543 147.667C95.8171 147.667 95.5482 147.574 95.3477 147.387C95.1471 147.2 95.0469 146.963 95.0469 146.676ZM103.455 148.604H105.239V155.754C105.239 156.428 105.089 157 104.788 157.47C104.492 157.944 104.077 158.301 103.544 158.543C103.011 158.789 102.391 158.912 101.685 158.912C101.375 158.912 101.047 158.871 100.7 158.789C100.358 158.707 100.03 158.579 99.7158 158.406C99.4059 158.233 99.1462 158.014 98.9365 157.75L99.8047 156.588C100.033 156.852 100.297 157.057 100.598 157.203C100.898 157.354 101.231 157.429 101.596 157.429C101.951 157.429 102.252 157.363 102.498 157.23C102.744 157.103 102.933 156.914 103.065 156.663C103.198 156.417 103.264 156.118 103.264 155.768V150.312L103.455 148.604ZM98.4785 152.391V152.247C98.4785 151.682 98.5469 151.169 98.6836 150.709C98.8249 150.244 99.0231 149.845 99.2783 149.513C99.5381 149.18 99.8525 148.923 100.222 148.74C100.591 148.558 101.008 148.467 101.473 148.467C101.965 148.467 102.377 148.558 102.71 148.74C103.043 148.923 103.316 149.182 103.53 149.52C103.744 149.852 103.911 150.246 104.029 150.702C104.152 151.153 104.248 151.648 104.316 152.186V152.5C104.248 153.015 104.146 153.493 104.009 153.936C103.872 154.378 103.692 154.765 103.469 155.098C103.245 155.426 102.967 155.681 102.635 155.863C102.307 156.046 101.915 156.137 101.459 156.137C101.003 156.137 100.591 156.043 100.222 155.856C99.8571 155.67 99.5449 155.408 99.2852 155.07C99.0254 154.733 98.8249 154.337 98.6836 153.881C98.5469 153.425 98.4785 152.928 98.4785 152.391ZM100.447 152.247V152.391C100.447 152.696 100.477 152.981 100.536 153.245C100.595 153.509 100.687 153.744 100.81 153.949C100.937 154.15 101.094 154.307 101.281 154.421C101.473 154.53 101.698 154.585 101.958 154.585C102.318 154.585 102.612 154.51 102.84 154.359C103.068 154.204 103.239 153.993 103.353 153.724C103.466 153.455 103.533 153.145 103.551 152.794V151.898C103.542 151.611 103.503 151.354 103.435 151.126C103.366 150.894 103.271 150.695 103.147 150.531C103.024 150.367 102.865 150.24 102.669 150.148C102.473 150.057 102.241 150.012 101.972 150.012C101.712 150.012 101.486 150.071 101.295 150.189C101.108 150.303 100.951 150.461 100.823 150.661C100.7 150.862 100.607 151.099 100.543 151.372C100.479 151.641 100.447 151.933 100.447 152.247ZM108.698 150.183V156H106.729V148.604H108.575L108.698 150.183ZM108.411 152.042H107.878C107.878 151.495 107.949 151.003 108.09 150.565C108.231 150.123 108.429 149.747 108.685 149.438C108.94 149.123 109.243 148.884 109.594 148.72C109.949 148.551 110.346 148.467 110.783 148.467C111.13 148.467 111.446 148.517 111.733 148.617C112.021 148.717 112.267 148.877 112.472 149.096C112.681 149.314 112.841 149.604 112.95 149.964C113.064 150.324 113.121 150.764 113.121 151.283V156H111.139V151.276C111.139 150.948 111.093 150.693 111.002 150.511C110.911 150.328 110.776 150.201 110.599 150.128C110.425 150.05 110.211 150.012 109.956 150.012C109.692 150.012 109.462 150.064 109.266 150.169C109.074 150.274 108.915 150.42 108.787 150.606C108.664 150.789 108.571 151.003 108.507 151.249C108.443 151.495 108.411 151.759 108.411 152.042Z" fill="#060020"/>
    <path d="M168.286 166.076C168.286 166.509 168.185 166.877 167.983 167.18C167.785 167.479 167.515 167.707 167.173 167.863C166.834 168.02 166.452 168.098 166.025 168.098C165.599 168.098 165.215 168.02 164.873 167.863C164.531 167.707 164.261 167.479 164.062 167.18C163.864 166.877 163.765 166.509 163.765 166.076C163.765 165.793 163.818 165.534 163.926 165.3C164.036 165.062 164.191 164.855 164.39 164.68C164.591 164.504 164.829 164.369 165.103 164.274C165.379 164.177 165.684 164.128 166.016 164.128C166.452 164.128 166.841 164.213 167.183 164.382C167.524 164.548 167.793 164.777 167.988 165.07C168.187 165.363 168.286 165.699 168.286 166.076ZM167.378 166.057C167.378 165.793 167.321 165.56 167.207 165.358C167.093 165.153 166.934 164.994 166.729 164.88C166.523 164.766 166.286 164.709 166.016 164.709C165.739 164.709 165.5 164.766 165.298 164.88C165.099 164.994 164.945 165.153 164.834 165.358C164.723 165.56 164.668 165.793 164.668 166.057C164.668 166.33 164.722 166.564 164.829 166.76C164.94 166.952 165.096 167.1 165.298 167.204C165.503 167.305 165.745 167.355 166.025 167.355C166.305 167.355 166.546 167.305 166.748 167.204C166.95 167.1 167.104 166.952 167.212 166.76C167.323 166.564 167.378 166.33 167.378 166.057ZM168.12 162.741C168.12 163.086 168.029 163.397 167.847 163.674C167.664 163.951 167.415 164.169 167.1 164.328C166.784 164.488 166.426 164.567 166.025 164.567C165.618 164.567 165.256 164.488 164.937 164.328C164.621 164.169 164.373 163.951 164.194 163.674C164.015 163.397 163.926 163.086 163.926 162.741C163.926 162.328 164.015 161.976 164.194 161.687C164.377 161.397 164.626 161.175 164.941 161.022C165.257 160.869 165.617 160.793 166.021 160.793C166.427 160.793 166.789 160.869 167.104 161.022C167.42 161.175 167.668 161.397 167.847 161.687C168.029 161.976 168.12 162.328 168.12 162.741ZM167.217 162.756C167.217 162.518 167.166 162.308 167.065 162.126C166.965 161.944 166.825 161.8 166.646 161.696C166.466 161.589 166.258 161.535 166.021 161.535C165.783 161.535 165.575 161.586 165.396 161.687C165.22 161.784 165.081 161.924 164.98 162.106C164.883 162.289 164.834 162.505 164.834 162.756C164.834 163 164.883 163.213 164.98 163.396C165.081 163.578 165.221 163.719 165.4 163.82C165.579 163.921 165.788 163.972 166.025 163.972C166.263 163.972 166.47 163.921 166.646 163.82C166.825 163.719 166.965 163.578 167.065 163.396C167.166 163.213 167.217 163 167.217 162.756ZM174.023 160.891V161.398L171.079 168H170.127L173.066 161.633H169.219V160.891H174.023ZM174.976 162.634V162.258C174.976 161.988 175.034 161.742 175.151 161.521C175.269 161.299 175.436 161.122 175.654 160.988C175.872 160.855 176.131 160.788 176.431 160.788C176.737 160.788 176.997 160.855 177.212 160.988C177.43 161.122 177.598 161.299 177.715 161.521C177.832 161.742 177.891 161.988 177.891 162.258V162.634C177.891 162.897 177.832 163.14 177.715 163.361C177.601 163.583 177.435 163.76 177.217 163.894C177.002 164.027 176.743 164.094 176.44 164.094C176.138 164.094 175.876 164.027 175.654 163.894C175.436 163.76 175.269 163.583 175.151 163.361C175.034 163.14 174.976 162.897 174.976 162.634ZM175.654 162.258V162.634C175.654 162.784 175.682 162.925 175.737 163.059C175.796 163.192 175.884 163.301 176.001 163.386C176.118 163.467 176.265 163.508 176.44 163.508C176.616 163.508 176.761 163.467 176.875 163.386C176.989 163.301 177.074 163.192 177.129 163.059C177.184 162.925 177.212 162.784 177.212 162.634V162.258C177.212 162.105 177.183 161.962 177.124 161.828C177.069 161.691 176.982 161.582 176.865 161.501C176.751 161.416 176.606 161.374 176.431 161.374C176.258 161.374 176.113 161.416 175.996 161.501C175.882 161.582 175.796 161.691 175.737 161.828C175.682 161.962 175.654 162.105 175.654 162.258ZM178.438 166.638V166.257C178.438 165.99 178.496 165.746 178.613 165.524C178.73 165.303 178.898 165.126 179.116 164.992C179.334 164.859 179.593 164.792 179.893 164.792C180.199 164.792 180.459 164.859 180.674 164.992C180.892 165.126 181.06 165.303 181.177 165.524C181.294 165.746 181.353 165.99 181.353 166.257V166.638C181.353 166.905 181.294 167.149 181.177 167.37C181.063 167.591 180.897 167.769 180.679 167.902C180.464 168.036 180.205 168.103 179.902 168.103C179.6 168.103 179.339 168.036 179.121 167.902C178.903 167.769 178.734 167.591 178.613 167.37C178.496 167.149 178.438 166.905 178.438 166.638ZM179.116 166.257V166.638C179.116 166.787 179.144 166.931 179.199 167.067C179.258 167.201 179.346 167.31 179.463 167.395C179.58 167.476 179.727 167.517 179.902 167.517C180.078 167.517 180.223 167.476 180.337 167.395C180.454 167.31 180.54 167.201 180.596 167.067C180.651 166.934 180.679 166.791 180.679 166.638V166.257C180.679 166.104 180.649 165.961 180.591 165.827C180.535 165.694 180.449 165.586 180.332 165.505C180.218 165.42 180.072 165.378 179.893 165.378C179.72 165.378 179.575 165.42 179.458 165.505C179.344 165.586 179.258 165.694 179.199 165.827C179.144 165.961 179.116 166.104 179.116 166.257ZM180.117 161.901L176.646 167.458L176.138 167.136L179.609 161.579L180.117 161.901Z" fill="#00AAFF"/>
    <rect width="156" height="6" rx="3" transform="matrix(-1 0 0 1 182 171)" fill="#D5D5D5"/>
    <rect width="118" height="6" rx="3" transform="matrix(-1 0 0 1 144 171)" fill="#01ABFE"/>
    </g>
    <g filter="url(#filter3_d_428_237)">
    <rect x="198" y="63" width="110" height="126" rx="8" fill="white"/>
    <path d="M284 109C284 126.121 270.121 140 253 140C235.879 140 222 126.121 222 109C222 91.8792 235.879 78 253 78C270.121 78 284 91.8792 284 109ZM231.3 109C231.3 120.985 241.015 130.7 253 130.7C264.985 130.7 274.7 120.985 274.7 109C274.7 97.0154 264.985 87.3 253 87.3C241.015 87.3 231.3 97.0154 231.3 109Z" fill="#5D87FF"/>
    <path d="M284 109C284 126.121 270.121 140 253 140C235.879 140 222 126.121 222 109C222 91.8792 235.879 78 253 78C270.121 78 284 91.8792 284 109ZM231.3 109C231.3 120.985 241.015 130.7 253 130.7C264.985 130.7 274.7 120.985 274.7 109C274.7 97.0154 264.985 87.3 253 87.3C241.015 87.3 231.3 97.0154 231.3 109Z" fill="#42BD53"/>
    <path d="M277.046 89.435C281.615 95.0502 284.074 102.087 283.998 109.326C283.922 116.564 281.315 123.548 276.629 129.066C271.944 134.584 265.475 138.288 258.344 139.536C251.213 140.784 243.871 139.497 237.59 135.898C231.308 132.3 226.485 126.616 223.955 119.834C221.425 113.051 221.348 105.597 223.739 98.7642C226.129 91.9311 230.835 86.1501 237.041 82.4234C243.247 78.6967 250.562 77.2595 257.717 78.3609L256.302 87.5526C251.293 86.7817 246.173 87.7877 241.829 90.3964C237.485 93.005 234.19 97.0518 232.517 101.835C230.844 106.618 230.897 111.836 232.668 116.584C234.439 121.331 237.816 125.31 242.213 127.829C246.61 130.348 251.749 131.249 256.741 130.375C261.732 129.502 266.261 126.909 269.541 123.046C272.821 119.184 274.646 114.295 274.699 109.228C274.752 104.161 273.03 99.2351 269.832 95.3045L277.046 89.435Z" fill="#5D87FF"/>
    <path d="M277.046 89.435C281.615 95.0502 284.074 102.087 283.998 109.326C283.922 116.564 281.315 123.548 276.629 129.066C271.944 134.584 265.475 138.288 258.344 139.536C251.213 140.784 243.871 139.497 237.59 135.898C231.308 132.3 226.485 126.616 223.955 119.834C221.425 113.051 221.348 105.597 223.739 98.7642C226.129 91.9311 230.835 86.1501 237.041 82.4234C243.247 78.6967 250.562 77.2595 257.717 78.3609L256.302 87.5526C251.293 86.7817 246.173 87.7877 241.829 90.3964C237.485 93.005 234.19 97.0518 232.517 101.835C230.844 106.618 230.897 111.836 232.668 116.584C234.439 121.331 237.816 125.31 242.213 127.829C246.61 130.348 251.749 131.249 256.741 130.375C261.732 129.502 266.261 126.909 269.541 123.046C272.821 119.184 274.646 114.295 274.699 109.228C274.752 104.161 273.03 99.2351 269.832 95.3045L277.046 89.435Z" fill="#01ABFE"/>
    <path d="M277.046 89.435C281.615 95.0502 284.074 102.087 283.998 109.326C283.922 116.564 281.315 123.548 276.629 129.066C271.944 134.584 265.475 138.288 258.344 139.536C251.213 140.784 243.871 139.497 237.59 135.898C231.308 132.3 226.485 126.616 223.955 119.834C221.425 113.051 221.348 105.597 223.739 98.7642C226.129 91.9311 230.835 86.1501 237.041 82.4234C243.247 78.6967 250.562 77.2595 257.717 78.3609L256.302 87.5526C251.293 86.7817 246.173 87.7877 241.829 90.3964C237.485 93.005 234.19 97.0518 232.517 101.835C230.844 106.618 230.897 111.836 232.668 116.584C234.439 121.331 237.816 125.31 242.213 127.829C246.61 130.348 251.749 131.249 256.741 130.375C261.732 129.502 266.261 126.909 269.541 123.046C272.821 119.184 274.646 114.295 274.699 109.228C274.752 104.161 273.03 99.2351 269.832 95.3045L277.046 89.435Z" fill="#01ABFE"/>
    <path d="M277.062 89.4551C279.629 92.615 281.548 96.2495 282.71 100.151C283.872 104.053 284.255 108.145 283.835 112.194C283.416 116.244 282.203 120.171 280.266 123.751C278.328 127.332 275.705 130.496 272.545 133.062L266.682 125.844C268.894 124.047 270.73 121.832 272.086 119.326C273.442 116.819 274.291 114.071 274.585 111.236C274.878 108.402 274.611 105.537 273.797 102.806C272.984 100.075 271.64 97.5305 269.844 95.3186L277.062 89.4551Z" fill="#5D87FF"/>
    <path d="M277.062 89.4551C279.629 92.615 281.548 96.2495 282.71 100.151C283.872 104.053 284.255 108.145 283.835 112.194C283.416 116.244 282.203 120.171 280.266 123.751C278.328 127.332 275.705 130.496 272.545 133.062L266.682 125.844C268.894 124.047 270.73 121.832 272.086 119.326C273.442 116.819 274.291 114.071 274.585 111.236C274.878 108.402 274.611 105.537 273.797 102.806C272.984 100.075 271.64 97.5305 269.844 95.3186L277.062 89.4551Z" fill="#006AFF"/>
    <path d="M277.062 89.4551C279.629 92.615 281.548 96.2495 282.71 100.151C283.872 104.053 284.255 108.145 283.835 112.194C283.416 116.244 282.203 120.171 280.266 123.751C278.328 127.332 275.705 130.496 272.545 133.062L266.682 125.844C268.894 124.047 270.73 121.832 272.086 119.326C273.442 116.819 274.291 114.071 274.585 111.236C274.878 108.402 274.611 105.537 273.797 102.806C272.984 100.075 271.64 97.5305 269.844 95.3186L277.062 89.4551Z" fill="#FFCC00"/>
    <rect width="30" height="4" rx="2" transform="matrix(-1 0 0 1 234 172)" fill="#01ABFE"/>
    <rect width="30" height="4" rx="2" transform="matrix(-1 0 0 1 269 172)" fill="#FFCC00"/>
    <rect width="30" height="4" rx="2" transform="matrix(-1 0 0 1 304 172)" fill="#42BD53"/>
    <path d="M206.054 164.409H204.943V163.826H206.054C206.247 163.826 206.403 163.795 206.522 163.732C206.642 163.67 206.729 163.584 206.783 163.475C206.84 163.363 206.868 163.236 206.868 163.094C206.868 162.959 206.84 162.833 206.783 162.716C206.729 162.597 206.642 162.501 206.522 162.429C206.403 162.356 206.247 162.32 206.054 162.32H205.169V166H204.434V161.734H206.054C206.384 161.734 206.664 161.793 206.895 161.91C207.127 162.025 207.304 162.186 207.425 162.391C207.546 162.594 207.606 162.826 207.606 163.088C207.606 163.363 207.546 163.6 207.425 163.797C207.304 163.994 207.127 164.146 206.895 164.251C206.664 164.356 206.384 164.409 206.054 164.409ZM208.904 163.434V166H208.198V162.83H208.872L208.904 163.434ZM209.874 162.81L209.868 163.466C209.825 163.458 209.778 163.452 209.728 163.448C209.679 163.444 209.63 163.442 209.581 163.442C209.46 163.442 209.354 163.46 209.262 163.495C209.17 163.528 209.093 163.577 209.03 163.642C208.97 163.704 208.923 163.78 208.89 163.87C208.856 163.96 208.837 164.061 208.831 164.172L208.67 164.184C208.67 163.984 208.689 163.8 208.729 163.63C208.768 163.46 208.826 163.311 208.904 163.182C208.984 163.053 209.084 162.952 209.203 162.88C209.324 162.808 209.464 162.771 209.622 162.771C209.665 162.771 209.711 162.775 209.76 162.783C209.811 162.791 209.849 162.8 209.874 162.81ZM210.105 164.45V164.383C210.105 164.154 210.139 163.942 210.205 163.747C210.271 163.55 210.367 163.379 210.492 163.234C210.619 163.088 210.773 162.975 210.955 162.895C211.139 162.812 211.346 162.771 211.576 162.771C211.809 162.771 212.016 162.812 212.197 162.895C212.381 162.975 212.536 163.088 212.663 163.234C212.79 163.379 212.887 163.55 212.953 163.747C213.02 163.942 213.053 164.154 213.053 164.383V164.45C213.053 164.679 213.02 164.891 212.953 165.086C212.887 165.281 212.79 165.452 212.663 165.599C212.536 165.743 212.382 165.856 212.2 165.938C212.019 166.019 211.812 166.059 211.582 166.059C211.35 166.059 211.142 166.019 210.958 165.938C210.776 165.856 210.622 165.743 210.495 165.599C210.368 165.452 210.271 165.281 210.205 165.086C210.139 164.891 210.105 164.679 210.105 164.45ZM210.812 164.383V164.45C210.812 164.593 210.826 164.728 210.855 164.854C210.885 164.981 210.931 165.093 210.993 165.188C211.056 165.284 211.136 165.359 211.233 165.414C211.331 165.469 211.447 165.496 211.582 165.496C211.713 165.496 211.826 165.469 211.922 165.414C212.02 165.359 212.1 165.284 212.162 165.188C212.225 165.093 212.271 164.981 212.3 164.854C212.331 164.728 212.347 164.593 212.347 164.45V164.383C212.347 164.242 212.331 164.109 212.3 163.984C212.271 163.857 212.224 163.745 212.159 163.647C212.097 163.55 212.017 163.474 211.919 163.419C211.823 163.362 211.709 163.334 211.576 163.334C211.443 163.334 211.328 163.362 211.23 163.419C211.135 163.474 211.056 163.55 210.993 163.647C210.931 163.745 210.885 163.857 210.855 163.984C210.826 164.109 210.812 164.242 210.812 164.383ZM215.675 162.83H216.316V165.912C216.316 166.197 216.256 166.439 216.135 166.639C216.014 166.838 215.845 166.989 215.628 167.093C215.411 167.198 215.16 167.251 214.875 167.251C214.754 167.251 214.619 167.233 214.471 167.198C214.324 167.163 214.182 167.106 214.043 167.028C213.906 166.952 213.792 166.852 213.7 166.727L214.031 166.311C214.145 166.445 214.27 166.544 214.406 166.606C214.543 166.669 214.687 166.7 214.837 166.7C214.999 166.7 215.137 166.67 215.25 166.609C215.365 166.551 215.454 166.464 215.517 166.349C215.579 166.233 215.61 166.093 215.61 165.927V163.548L215.675 162.83ZM213.521 164.45V164.389C213.521 164.148 213.551 163.93 213.609 163.732C213.668 163.533 213.752 163.362 213.861 163.22C213.971 163.075 214.104 162.965 214.26 162.889C214.416 162.811 214.593 162.771 214.79 162.771C214.995 162.771 215.17 162.809 215.314 162.883C215.461 162.957 215.583 163.063 215.681 163.202C215.778 163.339 215.854 163.503 215.909 163.694C215.966 163.884 216.008 164.095 216.035 164.327V164.523C216.01 164.75 215.967 164.957 215.906 165.145C215.846 165.332 215.766 165.494 215.666 165.631C215.566 165.768 215.443 165.873 215.297 165.947C215.152 166.021 214.981 166.059 214.784 166.059C214.591 166.059 214.416 166.019 214.26 165.938C214.105 165.858 213.973 165.746 213.861 165.602C213.752 165.457 213.668 165.287 213.609 165.092C213.551 164.895 213.521 164.681 213.521 164.45ZM214.228 164.389V164.45C214.228 164.595 214.241 164.729 214.269 164.854C214.298 164.979 214.342 165.09 214.4 165.186C214.461 165.279 214.537 165.354 214.629 165.408C214.723 165.461 214.833 165.487 214.96 165.487C215.126 165.487 215.262 165.452 215.367 165.382C215.475 165.312 215.557 165.217 215.613 165.098C215.672 164.977 215.713 164.842 215.736 164.693V164.163C215.725 164.048 215.7 163.94 215.663 163.841C215.628 163.741 215.58 163.654 215.52 163.58C215.459 163.504 215.383 163.445 215.291 163.404C215.199 163.361 215.091 163.34 214.966 163.34C214.839 163.34 214.729 163.367 214.635 163.422C214.541 163.477 214.464 163.552 214.403 163.647C214.345 163.743 214.301 163.854 214.271 163.981C214.242 164.108 214.228 164.244 214.228 164.389ZM217.758 163.434V166H217.052V162.83H217.726L217.758 163.434ZM218.728 162.81L218.722 163.466C218.679 163.458 218.632 163.452 218.581 163.448C218.532 163.444 218.483 163.442 218.435 163.442C218.313 163.442 218.207 163.46 218.115 163.495C218.023 163.528 217.946 163.577 217.884 163.642C217.823 163.704 217.776 163.78 217.743 163.87C217.71 163.96 217.69 164.061 217.685 164.172L217.523 164.184C217.523 163.984 217.543 163.8 217.582 163.63C217.621 163.46 217.68 163.311 217.758 163.182C217.838 163.053 217.938 162.952 218.057 162.88C218.178 162.808 218.317 162.771 218.476 162.771C218.519 162.771 218.564 162.775 218.613 162.783C218.664 162.791 218.702 162.8 218.728 162.81ZM220.509 166.059C220.274 166.059 220.062 166.021 219.873 165.944C219.686 165.866 219.525 165.758 219.393 165.619C219.262 165.48 219.161 165.317 219.091 165.13C219.021 164.942 218.985 164.74 218.985 164.523V164.406C218.985 164.158 219.021 163.934 219.094 163.732C219.166 163.531 219.267 163.359 219.396 163.217C219.524 163.072 219.677 162.962 219.853 162.886C220.028 162.81 220.219 162.771 220.424 162.771C220.65 162.771 220.849 162.81 221.019 162.886C221.188 162.962 221.329 163.069 221.44 163.208C221.554 163.345 221.638 163.508 221.692 163.697C221.749 163.887 221.777 164.096 221.777 164.324V164.626H219.328V164.119H221.08V164.063C221.076 163.937 221.051 163.817 221.004 163.706C220.959 163.595 220.89 163.505 220.796 163.437C220.702 163.368 220.577 163.334 220.421 163.334C220.304 163.334 220.199 163.359 220.107 163.41C220.018 163.459 219.942 163.53 219.882 163.624C219.821 163.718 219.774 163.831 219.741 163.964C219.71 164.095 219.694 164.242 219.694 164.406V164.523C219.694 164.662 219.713 164.791 219.75 164.91C219.789 165.027 219.846 165.13 219.92 165.218C219.994 165.306 220.084 165.375 220.189 165.426C220.295 165.475 220.415 165.499 220.55 165.499C220.72 165.499 220.871 165.465 221.004 165.396C221.137 165.328 221.252 165.231 221.35 165.106L221.722 165.467C221.653 165.566 221.564 165.662 221.455 165.754C221.346 165.844 221.212 165.917 221.054 165.974C220.897 166.03 220.716 166.059 220.509 166.059ZM224.106 165.142C224.106 165.071 224.089 165.008 224.054 164.951C224.019 164.893 223.951 164.84 223.852 164.793C223.754 164.746 223.609 164.703 223.418 164.664C223.25 164.627 223.096 164.583 222.955 164.532C222.816 164.479 222.697 164.416 222.598 164.342C222.498 164.268 222.421 164.18 222.366 164.078C222.312 163.977 222.284 163.859 222.284 163.727C222.284 163.598 222.312 163.476 222.369 163.36C222.426 163.245 222.507 163.144 222.612 163.056C222.718 162.968 222.846 162.898 222.996 162.848C223.148 162.797 223.318 162.771 223.506 162.771C223.771 162.771 223.999 162.816 224.188 162.906C224.38 162.994 224.526 163.114 224.628 163.267C224.729 163.417 224.78 163.587 224.78 163.776H224.074C224.074 163.692 224.053 163.614 224.01 163.542C223.969 163.468 223.906 163.408 223.822 163.363C223.738 163.316 223.633 163.293 223.506 163.293C223.385 163.293 223.284 163.312 223.204 163.352C223.126 163.389 223.067 163.438 223.028 163.498C222.991 163.559 222.973 163.625 222.973 163.697C222.973 163.75 222.982 163.798 223.002 163.841C223.023 163.882 223.059 163.92 223.107 163.955C223.156 163.988 223.223 164.02 223.307 164.049C223.393 164.078 223.5 164.106 223.629 164.134C223.871 164.185 224.079 164.25 224.253 164.33C224.429 164.408 224.563 164.51 224.657 164.635C224.751 164.758 224.798 164.914 224.798 165.104C224.798 165.244 224.768 165.373 224.707 165.49C224.648 165.605 224.562 165.706 224.449 165.792C224.336 165.876 224.2 165.941 224.042 165.988C223.886 166.035 223.71 166.059 223.515 166.059C223.228 166.059 222.984 166.008 222.785 165.906C222.586 165.803 222.435 165.671 222.331 165.511C222.229 165.349 222.179 165.181 222.179 165.007H222.861C222.869 165.138 222.905 165.242 222.97 165.32C223.036 165.396 223.118 165.452 223.216 165.487C223.315 165.521 223.418 165.537 223.523 165.537C223.65 165.537 223.757 165.521 223.843 165.487C223.929 165.452 223.994 165.405 224.039 165.347C224.084 165.286 224.106 165.218 224.106 165.142ZM227.194 165.142C227.194 165.071 227.177 165.008 227.142 164.951C227.106 164.893 227.039 164.84 226.939 164.793C226.842 164.746 226.697 164.703 226.506 164.664C226.338 164.627 226.184 164.583 226.043 164.532C225.904 164.479 225.785 164.416 225.686 164.342C225.586 164.268 225.509 164.18 225.454 164.078C225.399 163.977 225.372 163.859 225.372 163.727C225.372 163.598 225.4 163.476 225.457 163.36C225.514 163.245 225.595 163.144 225.7 163.056C225.806 162.968 225.934 162.898 226.084 162.848C226.236 162.797 226.406 162.771 226.594 162.771C226.859 162.771 227.087 162.816 227.276 162.906C227.468 162.994 227.614 163.114 227.716 163.267C227.817 163.417 227.868 163.587 227.868 163.776H227.162C227.162 163.692 227.141 163.614 227.098 163.542C227.057 163.468 226.994 163.408 226.91 163.363C226.826 163.316 226.721 163.293 226.594 163.293C226.473 163.293 226.372 163.312 226.292 163.352C226.214 163.389 226.155 163.438 226.116 163.498C226.079 163.559 226.061 163.625 226.061 163.697C226.061 163.75 226.07 163.798 226.09 163.841C226.111 163.882 226.146 163.92 226.195 163.955C226.244 163.988 226.311 164.02 226.395 164.049C226.48 164.078 226.588 164.106 226.717 164.134C226.959 164.185 227.167 164.25 227.341 164.33C227.517 164.408 227.651 164.51 227.745 164.635C227.839 164.758 227.886 164.914 227.886 165.104C227.886 165.244 227.855 165.373 227.795 165.49C227.736 165.605 227.65 165.706 227.537 165.792C227.424 165.876 227.288 165.941 227.13 165.988C226.974 166.035 226.798 166.059 226.603 166.059C226.315 166.059 226.072 166.008 225.873 165.906C225.674 165.803 225.522 165.671 225.419 165.511C225.317 165.349 225.267 165.181 225.267 165.007H225.949C225.957 165.138 225.993 165.242 226.058 165.32C226.124 165.396 226.206 165.452 226.304 165.487C226.403 165.521 226.506 165.537 226.611 165.537C226.738 165.537 226.845 165.521 226.931 165.487C227.017 165.452 227.082 165.405 227.127 165.347C227.172 165.286 227.194 165.218 227.194 165.142Z" fill="#060020"/>
    <path d="M239.434 161.734H240.942C241.267 161.734 241.543 161.783 241.771 161.881C242 161.979 242.175 162.123 242.296 162.314C242.419 162.504 242.48 162.738 242.48 163.018C242.48 163.23 242.441 163.418 242.363 163.58C242.285 163.742 242.175 163.879 242.032 163.99C241.89 164.1 241.72 164.185 241.522 164.245L241.3 164.354H239.943L239.938 163.771H240.954C241.13 163.771 241.276 163.739 241.394 163.677C241.511 163.614 241.599 163.529 241.657 163.422C241.718 163.312 241.748 163.189 241.748 163.053C241.748 162.904 241.719 162.775 241.66 162.666C241.604 162.555 241.516 162.47 241.396 162.411C241.277 162.351 241.126 162.32 240.942 162.32H240.169V166H239.434V161.734ZM241.868 166L240.866 164.084L241.637 164.081L242.653 165.962V166H241.868ZM244.54 166.059C244.306 166.059 244.094 166.021 243.904 165.944C243.717 165.866 243.557 165.758 243.424 165.619C243.293 165.48 243.192 165.317 243.122 165.13C243.052 164.942 243.017 164.74 243.017 164.523V164.406C243.017 164.158 243.053 163.934 243.125 163.732C243.197 163.531 243.298 163.359 243.427 163.217C243.556 163.072 243.708 162.962 243.884 162.886C244.06 162.81 244.25 162.771 244.455 162.771C244.682 162.771 244.88 162.81 245.05 162.886C245.22 162.962 245.36 163.069 245.472 163.208C245.585 163.345 245.669 163.508 245.724 163.697C245.78 163.887 245.809 164.096 245.809 164.324V164.626H243.359V164.119H245.111V164.063C245.107 163.937 245.082 163.817 245.035 163.706C244.99 163.595 244.921 163.505 244.827 163.437C244.733 163.368 244.608 163.334 244.452 163.334C244.335 163.334 244.23 163.359 244.139 163.41C244.049 163.459 243.974 163.53 243.913 163.624C243.853 163.718 243.806 163.831 243.772 163.964C243.741 164.095 243.726 164.242 243.726 164.406V164.523C243.726 164.662 243.744 164.791 243.781 164.91C243.82 165.027 243.877 165.13 243.951 165.218C244.025 165.306 244.115 165.375 244.221 165.426C244.326 165.475 244.446 165.499 244.581 165.499C244.751 165.499 244.902 165.465 245.035 165.396C245.168 165.328 245.283 165.231 245.381 165.106L245.753 165.467C245.685 165.566 245.596 165.662 245.486 165.754C245.377 165.844 245.243 165.917 245.085 165.974C244.929 166.03 244.747 166.059 244.54 166.059ZM247.35 165.44L248.126 162.83H248.858L247.757 166H247.3L247.35 165.44ZM246.755 162.83L247.546 165.452L247.584 166H247.127L246.02 162.83H246.755ZM250.051 162.83V166H249.342V162.83H250.051ZM249.295 161.998C249.295 161.891 249.33 161.802 249.4 161.731C249.473 161.659 249.572 161.623 249.699 161.623C249.824 161.623 249.923 161.659 249.995 161.731C250.067 161.802 250.104 161.891 250.104 161.998C250.104 162.104 250.067 162.191 249.995 162.262C249.923 162.332 249.824 162.367 249.699 162.367C249.572 162.367 249.473 162.332 249.4 162.262C249.33 162.191 249.295 162.104 249.295 161.998ZM252.603 165.142C252.603 165.071 252.585 165.008 252.55 164.951C252.515 164.893 252.447 164.84 252.348 164.793C252.25 164.746 252.105 164.703 251.914 164.664C251.746 164.627 251.592 164.583 251.451 164.532C251.312 164.479 251.193 164.416 251.094 164.342C250.994 164.268 250.917 164.18 250.862 164.078C250.808 163.977 250.78 163.859 250.78 163.727C250.78 163.598 250.809 163.476 250.865 163.36C250.922 163.245 251.003 163.144 251.108 163.056C251.214 162.968 251.342 162.898 251.492 162.848C251.645 162.797 251.814 162.771 252.002 162.771C252.268 162.771 252.495 162.816 252.685 162.906C252.876 162.994 253.022 163.114 253.124 163.267C253.226 163.417 253.276 163.587 253.276 163.776H252.57C252.57 163.692 252.549 163.614 252.506 163.542C252.465 163.468 252.402 163.408 252.318 163.363C252.234 163.316 252.129 163.293 252.002 163.293C251.881 163.293 251.78 163.312 251.7 163.352C251.622 163.389 251.563 163.438 251.524 163.498C251.487 163.559 251.469 163.625 251.469 163.697C251.469 163.75 251.479 163.798 251.498 163.841C251.52 163.882 251.555 163.92 251.604 163.955C251.652 163.988 251.719 164.02 251.803 164.049C251.889 164.078 251.996 164.106 252.125 164.134C252.367 164.185 252.575 164.25 252.749 164.33C252.925 164.408 253.06 164.51 253.153 164.635C253.247 164.758 253.294 164.914 253.294 165.104C253.294 165.244 253.264 165.373 253.203 165.49C253.145 165.605 253.059 165.706 252.945 165.792C252.832 165.876 252.696 165.941 252.538 165.988C252.382 166.035 252.206 166.059 252.011 166.059C251.724 166.059 251.48 166.008 251.281 165.906C251.082 165.803 250.931 165.671 250.827 165.511C250.726 165.349 250.675 165.181 250.675 165.007H251.357C251.365 165.138 251.401 165.242 251.466 165.32C251.532 165.396 251.614 165.452 251.712 165.487C251.812 165.521 251.914 165.537 252.02 165.537C252.146 165.537 252.253 165.521 252.339 165.487C252.425 165.452 252.49 165.405 252.535 165.347C252.58 165.286 252.603 165.218 252.603 165.142ZM254.668 162.83V166H253.959V162.83H254.668ZM253.912 161.998C253.912 161.891 253.947 161.802 254.018 161.731C254.09 161.659 254.189 161.623 254.316 161.623C254.441 161.623 254.54 161.659 254.612 161.731C254.685 161.802 254.721 161.891 254.721 161.998C254.721 162.104 254.685 162.191 254.612 162.262C254.54 162.332 254.441 162.367 254.316 162.367C254.189 162.367 254.09 162.332 254.018 162.262C253.947 162.191 253.912 162.104 253.912 161.998ZM255.307 164.45V164.383C255.307 164.154 255.34 163.942 255.406 163.747C255.473 163.55 255.568 163.379 255.693 163.234C255.82 163.088 255.975 162.975 256.156 162.895C256.34 162.812 256.547 162.771 256.777 162.771C257.01 162.771 257.217 162.812 257.398 162.895C257.582 162.975 257.737 163.088 257.864 163.234C257.991 163.379 258.088 163.55 258.154 163.747C258.221 163.942 258.254 164.154 258.254 164.383V164.45C258.254 164.679 258.221 164.891 258.154 165.086C258.088 165.281 257.991 165.452 257.864 165.599C257.737 165.743 257.583 165.856 257.401 165.938C257.22 166.019 257.014 166.059 256.783 166.059C256.551 166.059 256.343 166.019 256.159 165.938C255.978 165.856 255.823 165.743 255.696 165.599C255.569 165.452 255.473 165.281 255.406 165.086C255.34 164.891 255.307 164.679 255.307 164.45ZM256.013 164.383V164.45C256.013 164.593 256.027 164.728 256.057 164.854C256.086 164.981 256.132 165.093 256.194 165.188C256.257 165.284 256.337 165.359 256.435 165.414C256.532 165.469 256.648 165.496 256.783 165.496C256.914 165.496 257.027 165.469 257.123 165.414C257.221 165.359 257.301 165.284 257.363 165.188C257.426 165.093 257.472 164.981 257.501 164.854C257.532 164.728 257.548 164.593 257.548 164.45V164.383C257.548 164.242 257.532 164.109 257.501 163.984C257.472 163.857 257.425 163.745 257.36 163.647C257.298 163.55 257.218 163.474 257.12 163.419C257.024 163.362 256.91 163.334 256.777 163.334C256.645 163.334 256.529 163.362 256.432 163.419C256.336 163.474 256.257 163.55 256.194 163.647C256.132 163.745 256.086 163.857 256.057 163.984C256.027 164.109 256.013 164.242 256.013 164.383ZM259.546 163.507V166H258.84V162.83H259.505L259.546 163.507ZM259.42 164.298L259.191 164.295C259.193 164.07 259.225 163.864 259.285 163.677C259.348 163.489 259.434 163.328 259.543 163.193C259.654 163.059 259.787 162.955 259.941 162.883C260.096 162.809 260.268 162.771 260.457 162.771C260.609 162.771 260.747 162.793 260.87 162.836C260.995 162.877 261.102 162.944 261.189 163.038C261.279 163.132 261.348 163.254 261.395 163.404C261.441 163.553 261.465 163.735 261.465 163.952V166H260.756V163.949C260.756 163.797 260.733 163.677 260.688 163.589C260.646 163.499 260.582 163.436 260.498 163.398C260.416 163.359 260.313 163.34 260.19 163.34C260.069 163.34 259.961 163.365 259.865 163.416C259.77 163.467 259.688 163.536 259.622 163.624C259.558 163.712 259.508 163.813 259.473 163.929C259.438 164.044 259.42 164.167 259.42 164.298Z" fill="#060020"/>
    <path d="M275.673 166H274.762L274.768 165.417H275.673C275.937 165.417 276.157 165.359 276.335 165.244C276.515 165.129 276.649 164.964 276.739 164.749C276.831 164.534 276.877 164.278 276.877 163.981V163.75C276.877 163.52 276.851 163.315 276.798 163.138C276.747 162.96 276.671 162.811 276.569 162.689C276.47 162.568 276.347 162.477 276.2 162.414C276.056 162.352 275.889 162.32 275.699 162.32H274.744V161.734H275.699C275.982 161.734 276.241 161.782 276.476 161.878C276.71 161.972 276.912 162.107 277.082 162.285C277.254 162.463 277.386 162.676 277.478 162.924C277.569 163.172 277.615 163.449 277.615 163.756V163.981C277.615 164.288 277.569 164.565 277.478 164.813C277.386 165.062 277.254 165.274 277.082 165.452C276.91 165.628 276.705 165.764 276.467 165.859C276.23 165.953 275.966 166 275.673 166ZM275.169 161.734V166H274.434V161.734H275.169ZM278.148 164.45V164.383C278.148 164.154 278.182 163.942 278.248 163.747C278.314 163.55 278.41 163.379 278.535 163.234C278.662 163.088 278.816 162.975 278.998 162.895C279.182 162.812 279.389 162.771 279.619 162.771C279.852 162.771 280.059 162.812 280.24 162.895C280.424 162.975 280.579 163.088 280.706 163.234C280.833 163.379 280.93 163.55 280.996 163.747C281.062 163.942 281.096 164.154 281.096 164.383V164.45C281.096 164.679 281.062 164.891 280.996 165.086C280.93 165.281 280.833 165.452 280.706 165.599C280.579 165.743 280.425 165.856 280.243 165.938C280.062 166.019 279.855 166.059 279.625 166.059C279.393 166.059 279.185 166.019 279.001 165.938C278.819 165.856 278.665 165.743 278.538 165.599C278.411 165.452 278.314 165.281 278.248 165.086C278.182 164.891 278.148 164.679 278.148 164.45ZM278.854 164.383V164.45C278.854 164.593 278.869 164.728 278.898 164.854C278.928 164.981 278.974 165.093 279.036 165.188C279.099 165.284 279.179 165.359 279.276 165.414C279.374 165.469 279.49 165.496 279.625 165.496C279.756 165.496 279.869 165.469 279.965 165.414C280.062 165.359 280.143 165.284 280.205 165.188C280.268 165.093 280.313 164.981 280.343 164.854C280.374 164.728 280.39 164.593 280.39 164.45V164.383C280.39 164.242 280.374 164.109 280.343 163.984C280.313 163.857 280.267 163.745 280.202 163.647C280.14 163.55 280.06 163.474 279.962 163.419C279.866 163.362 279.752 163.334 279.619 163.334C279.486 163.334 279.371 163.362 279.273 163.419C279.178 163.474 279.099 163.55 279.036 163.647C278.974 163.745 278.928 163.857 278.898 163.984C278.869 164.109 278.854 164.242 278.854 164.383ZM282.388 163.507V166H281.682V162.83H282.347L282.388 163.507ZM282.262 164.298L282.033 164.295C282.035 164.07 282.066 163.864 282.127 163.677C282.189 163.489 282.275 163.328 282.385 163.193C282.496 163.059 282.629 162.955 282.783 162.883C282.938 162.809 283.109 162.771 283.299 162.771C283.451 162.771 283.589 162.793 283.712 162.836C283.837 162.877 283.943 162.944 284.031 163.038C284.121 163.132 284.189 163.254 284.236 163.404C284.283 163.553 284.307 163.735 284.307 163.952V166H283.598V163.949C283.598 163.797 283.575 163.677 283.53 163.589C283.487 163.499 283.424 163.436 283.34 163.398C283.258 163.359 283.155 163.34 283.032 163.34C282.911 163.34 282.803 163.365 282.707 163.416C282.611 163.467 282.53 163.536 282.464 163.624C282.399 163.712 282.35 163.813 282.314 163.929C282.279 164.044 282.262 164.167 282.262 164.298ZM286.425 166.059C286.19 166.059 285.979 166.021 285.789 165.944C285.602 165.866 285.441 165.758 285.309 165.619C285.178 165.48 285.077 165.317 285.007 165.13C284.937 164.942 284.901 164.74 284.901 164.523V164.406C284.901 164.158 284.938 163.934 285.01 163.732C285.082 163.531 285.183 163.359 285.312 163.217C285.44 163.072 285.593 162.962 285.769 162.886C285.944 162.81 286.135 162.771 286.34 162.771C286.566 162.771 286.765 162.81 286.935 162.886C287.104 162.962 287.245 163.069 287.356 163.208C287.47 163.345 287.554 163.508 287.608 163.697C287.665 163.887 287.693 164.096 287.693 164.324V164.626H285.244V164.119H286.996V164.063C286.992 163.937 286.967 163.817 286.92 163.706C286.875 163.595 286.806 163.505 286.712 163.437C286.618 163.368 286.493 163.334 286.337 163.334C286.22 163.334 286.115 163.359 286.023 163.41C285.934 163.459 285.858 163.53 285.798 163.624C285.737 163.718 285.69 163.831 285.657 163.964C285.626 164.095 285.61 164.242 285.61 164.406V164.523C285.61 164.662 285.629 164.791 285.666 164.91C285.705 165.027 285.762 165.13 285.836 165.218C285.91 165.306 286 165.375 286.105 165.426C286.211 165.475 286.331 165.499 286.466 165.499C286.636 165.499 286.787 165.465 286.92 165.396C287.053 165.328 287.168 165.231 287.266 165.106L287.638 165.467C287.569 165.566 287.48 165.662 287.371 165.754C287.262 165.844 287.128 165.917 286.97 165.974C286.813 166.03 286.632 166.059 286.425 166.059Z" fill="#060020"/>
    </g>
    </g>
    <defs>
    <filter id="filter0_bd_428_237" x="-98" y="-99" width="521" height="406" filterUnits="userSpaceOnUse" color-interpolation-filters="sRGB">
    <feFlood flood-opacity="0" result="BackgroundImageFix"/>
    <feGaussianBlur in="BackgroundImageFix" stdDeviation="50"/>
    <feComposite in2="SourceAlpha" operator="in" result="effect1_backgroundBlur_428_237"/>
    <feColorMatrix in="SourceAlpha" type="matrix" values="0 0 0 0 0 0 0 0 0 0 0 0 0 0 0 0 0 0 127 0" result="hardAlpha"/>
    <feOffset dy="1"/>
    <feGaussianBlur stdDeviation="1"/>
    <feComposite in2="hardAlpha" operator="out"/>
    <feColorMatrix type="matrix" values="0 0 0 0 0 0 0 0 0 0 0 0 0 0 0 0 0 0 0.2 0"/>
    <feBlend mode="normal" in2="effect1_backgroundBlur_428_237" result="effect2_dropShadow_428_237"/>
    <feBlend mode="normal" in="SourceGraphic" in2="effect2_dropShadow_428_237" result="shape"/>
    </filter>
    <filter id="filter1_d_428_237" x="17" y="62" width="174" height="60" filterUnits="userSpaceOnUse" color-interpolation-filters="sRGB">
    <feFlood flood-opacity="0" result="BackgroundImageFix"/>
    <feColorMatrix in="SourceAlpha" type="matrix" values="0 0 0 0 0 0 0 0 0 0 0 0 0 0 0 0 0 0 127 0" result="hardAlpha"/>
    <feOffset dy="1"/>
    <feGaussianBlur stdDeviation="1"/>
    <feComposite in2="hardAlpha" operator="out"/>
    <feColorMatrix type="matrix" values="0 0 0 0 0 0 0 0 0 0 0 0 0 0 0 0 0 0 0.2 0"/>
    <feBlend mode="normal" in2="BackgroundImageFix" result="effect1_dropShadow_428_237"/>
    <feBlend mode="normal" in="SourceGraphic" in2="effect1_dropShadow_428_237" result="shape"/>
    </filter>
    <filter id="filter2_d_428_237" x="17" y="132" width="174" height="60" filterUnits="userSpaceOnUse" color-interpolation-filters="sRGB">
    <feFlood flood-opacity="0" result="BackgroundImageFix"/>
    <feColorMatrix in="SourceAlpha" type="matrix" values="0 0 0 0 0 0 0 0 0 0 0 0 0 0 0 0 0 0 127 0" result="hardAlpha"/>
    <feOffset dy="1"/>
    <feGaussianBlur stdDeviation="1"/>
    <feComposite in2="hardAlpha" operator="out"/>
    <feColorMatrix type="matrix" values="0 0 0 0 0 0 0 0 0 0 0 0 0 0 0 0 0 0 0.2 0"/>
    <feBlend mode="normal" in2="BackgroundImageFix" result="effect1_dropShadow_428_237"/>
    <feBlend mode="normal" in="SourceGraphic" in2="effect1_dropShadow_428_237" result="shape"/>
    </filter>
    <filter id="filter3_d_428_237" x="196" y="62" width="114" height="130" filterUnits="userSpaceOnUse" color-interpolation-filters="sRGB">
    <feFlood flood-opacity="0" result="BackgroundImageFix"/>
    <feColorMatrix in="SourceAlpha" type="matrix" values="0 0 0 0 0 0 0 0 0 0 0 0 0 0 0 0 0 0 127 0" result="hardAlpha"/>
    <feOffset dy="1"/>
    <feGaussianBlur stdDeviation="1"/>
    <feComposite in2="hardAlpha" operator="out"/>
    <feColorMatrix type="matrix" values="0 0 0 0 0 0 0 0 0 0 0 0 0 0 0 0 0 0 0.2 0"/>
    <feBlend mode="normal" in2="BackgroundImageFix" result="effect1_dropShadow_428_237"/>
    <feBlend mode="normal" in="SourceGraphic" in2="effect1_dropShadow_428_237" result="shape"/>
    </filter>
    </defs>
    </svg>
