<svg width="32" height="35" viewBox="0 0 32 35" fill="none" xmlns="http://www.w3.org/2000/svg">
<g clip-path="url(#clip0_2259_1732)">
<path d="M13.967 0.700195H12.6117C5.88606 0.700195 0.414062 6.3527 0.414062 13.3002V34.3002H13.967V30.1002H26.1646V22.4002H31.4103L26.1633 13.1091C26.0637 6.24909 20.631 0.700195 13.967 0.700195ZM24.8094 21.0002V28.7002H12.6117V32.9002H1.76936V13.3002C1.76936 7.1248 6.63351 2.1002 12.6117 2.1002H13.967C19.9452 2.1002 24.8094 7.1248 24.8094 13.3002V13.4899L29.0507 21.0002H24.8094Z" fill="#00AAFF"/>
<path d="M16.1983 14.4945L17.1565 13.5047L13.2892 9.50977L9.42188 13.5047L10.3801 14.4945L12.6116 12.1894V25.1996H13.9669V12.1894L16.1983 14.4945Z" fill="#00AAFF"/>
<path d="M13.2899 3.5C8.43251 3.5 4.48047 7.5824 4.48047 12.6C4.48047 16.4416 6.84071 19.887 10.353 21.1715L10.8056 19.852C7.83279 18.7649 5.83576 15.8508 5.83576 12.6C5.83576 8.3545 9.17995 4.9 13.2899 4.9C17.3998 4.9 20.744 8.3545 20.744 12.6C20.744 15.8508 18.747 18.7649 15.7741 19.852L16.2268 21.1715C19.739 19.887 22.0993 16.4416 22.0993 12.6C22.0993 7.5824 18.1473 3.5 13.2899 3.5Z" fill="#00AAFF"/>
</g>
<defs>
<clipPath id="clip0_2259_1732">
<rect width="32" height="35" fill="white"/>
</clipPath>
</defs>
</svg>
