<svg width="49" height="52" viewBox="0 0 49 52" fill="none"
                            xmlns="http://www.w3.org/2000/svg">
                            <g filter="url(#filter0_d_271_93)">
                                <path
                                    d="M5.33984 43.2421H10.0812C10.1722 43.2454 10.263 43.2304 10.3482 43.1981C10.4334 43.1658 10.5112 43.1167 10.5772 43.0539C10.6431 42.991 10.6959 42.9156 10.7322 42.8321C10.7686 42.7486 10.7879 42.6586 10.7891 42.5675V40.7812H38.2109V42.5675C38.2121 42.6586 38.2314 42.7486 38.2678 42.8321C38.3041 42.9156 38.3569 42.991 38.4228 43.0539C38.4888 43.1167 38.5666 43.1658 38.6518 43.1981C38.737 43.2304 38.8278 43.2454 38.9188 43.2421H43.6602C43.751 43.2453 43.8415 43.2302 43.9263 43.1978C44.0112 43.1654 44.0887 43.1163 44.1543 43.0534C44.2198 42.9905 44.2721 42.9151 44.308 42.8316C44.3439 42.7482 44.3627 42.6583 44.3633 42.5675V37.5319C44.3634 37.3451 44.2894 37.1659 44.1576 37.0336C44.0258 36.9013 43.8469 36.8267 43.6602 36.8261H41.9902V8.17378H43.6602C43.8469 8.1732 44.0258 8.09857 44.1576 7.96626C44.2894 7.83396 44.3634 7.65478 44.3633 7.46802V2.43241C44.3627 2.34156 44.3439 2.25175 44.308 2.16829C44.2721 2.08483 44.2198 2.00942 44.1543 1.94651C44.0887 1.88361 44.0112 1.8345 43.9263 1.80208C43.8415 1.76966 43.751 1.75459 43.6602 1.75776H38.9188C38.8278 1.7545 38.737 1.76947 38.6518 1.8018C38.5666 1.83414 38.4888 1.88317 38.4228 1.94603C38.3569 2.00889 38.3041 2.08429 38.2678 2.16782C38.2314 2.25135 38.2121 2.34131 38.2109 2.43241V4.2187H10.7891V2.43241C10.7879 2.34131 10.7686 2.25135 10.7322 2.16782C10.6959 2.08429 10.6431 2.00889 10.5772 1.94603C10.5112 1.88317 10.4334 1.83414 10.3482 1.8018C10.263 1.76947 10.1722 1.7545 10.0812 1.75776H5.33984C5.24905 1.75459 5.15853 1.76966 5.07366 1.80208C4.98879 1.8345 4.91128 1.88361 4.84572 1.94651C4.78017 2.00942 4.72789 2.08483 4.69199 2.16829C4.65609 2.25175 4.6373 2.34156 4.63672 2.43241V7.46802C4.6366 7.65478 4.71056 7.83396 4.84237 7.96626C4.97418 8.09857 5.15309 8.1732 5.33984 8.17378H7.00977V36.8261H5.33984C5.15309 36.8267 4.97418 36.9013 4.84237 37.0336C4.71056 37.1659 4.6366 37.3451 4.63672 37.5319V42.5675C4.6373 42.6583 4.65609 42.7482 4.69199 42.8316C4.72789 42.9151 4.78017 42.9905 4.84572 43.0534C4.91128 43.1163 4.98879 43.1654 5.07366 43.1978C5.15853 43.2302 5.24905 43.2453 5.33984 43.2421ZM42.957 41.8359H39.6172V38.2324H42.957V41.8359ZM39.6172 3.16401H42.957V6.76753H39.6172V3.16401ZM6.04297 3.16401H9.38281V6.76753H6.04297V3.16401ZM8.41602 8.17378H10.0812C10.2684 8.17336 10.4479 8.09894 10.5805 7.96673C10.7131 7.83453 10.7881 7.65526 10.7891 7.46802V5.62495H38.2109V7.46802C38.2119 7.65526 38.2869 7.83453 38.4195 7.96673C38.5521 8.09894 38.7316 8.17336 38.9188 8.17378H40.584V36.8261H38.9188C38.7316 36.8265 38.5521 36.901 38.4195 37.0332C38.2869 37.1654 38.2119 37.3446 38.2109 37.5319V39.375H10.7891V37.5319C10.7881 37.3446 10.7131 37.1654 10.5805 37.0332C10.4479 36.901 10.2684 36.8265 10.0812 36.8261H8.41602V8.17378ZM6.04297 38.2324H9.38281V41.8359H6.04297V38.2324Z"
                                    fill="white" />
                                <path
                                    d="M24.5001 9.5L24.5002 17.7357C23.8825 17.9059 22.6443 18.2943 22.2911 18.8289C21.938 19.3635 21.7906 20.0081 21.8765 20.643C21.9624 21.278 22.2756 21.8603 22.758 22.2819C23.2405 22.7035 23.8595 22.9359 24.5002 22.9359C25.141 22.9359 25.76 22.7035 26.2425 22.2819C26.7249 21.8603 27.0381 21.278 27.124 20.643C27.2098 20.0081 27.0625 19.3635 26.7093 18.8289C26.3562 18.2943 25.118 17.9059 24.5002 17.7357L24.5001 9.5L31.9459 22.2936L29.7989 30.6407H19.3721L17.0581 22.287L24.5001 9.5Z"
                                    fill="white" />
                                <path d="M28.5383 35.5626H20.7297L19.7613 32.0469H29.438L28.5383 35.5626Z"
                                    fill="white" />
                                <path fill-rule="evenodd" clip-rule="evenodd"
                                    d="M25.1899 19.2556C24.9858 19.1192 24.7458 19.0464 24.5002 19.0464C24.1711 19.0468 23.8556 19.1777 23.6229 19.4104C23.3902 19.6432 23.2593 19.9587 23.2589 20.2878C23.2589 20.5333 23.3317 20.7733 23.4681 20.9775C23.6045 21.1816 23.7984 21.3407 24.0252 21.4347C24.252 21.5286 24.5016 21.5532 24.7424 21.5053C24.9832 21.4574 25.2044 21.3392 25.378 21.1656C25.5516 20.992 25.6699 20.7708 25.7178 20.53C25.7657 20.2892 25.7411 20.0396 25.6471 19.8127C25.5532 19.5859 25.3941 19.392 25.1899 19.2556ZM22.2911 18.8289C22.6443 18.2943 23.8825 17.9059 24.5002 17.7357C25.118 17.9059 26.3562 18.2943 26.7093 18.8289C27.0625 19.3635 27.2098 20.0081 27.124 20.643C27.0381 21.278 26.7249 21.8603 26.2425 22.2819C25.76 22.7035 25.141 22.9359 24.5002 22.9359C23.8595 22.9359 23.2405 22.7035 22.758 22.2819C22.2756 21.8603 21.9624 21.278 21.8765 20.643C21.7906 20.0081 21.938 19.3635 22.2911 18.8289Z"
                                    fill="white" />
                            </g>
                            <defs>
                                <filter id="filter0_d_271_93" x="-2" y="0" width="53" height="53"
                                    filterUnits="userSpaceOnUse" color-interpolation-filters="sRGB">
                                    <feFlood flood-opacity="0" result="BackgroundImageFix" />
                                    <feColorMatrix in="SourceAlpha" type="matrix"
                                        values="0 0 0 0 0 0 0 0 0 0 0 0 0 0 0 0 0 0 127 0" result="hardAlpha" />
                                    <feOffset dy="4" />
                                    <feGaussianBlur stdDeviation="2" />
                                    <feComposite in2="hardAlpha" operator="out" />
                                    <feColorMatrix type="matrix" values="0 0 0 0 0 0 0 0 0 0 0 0 0 0 0 0 0 0 0.25 0" />
                                    <feBlend mode="normal" in2="BackgroundImageFix"
                                        result="effect1_dropShadow_271_93" />
                                    <feBlend mode="normal" in="SourceGraphic" in2="effect1_dropShadow_271_93"
                                        result="shape" />
                                </filter>
                            </defs>
                        </svg>