<svg width="31" height="34" viewBox="0 0 31 34" fill="none" xmlns="http://www.w3.org/2000/svg">
<path fill-rule="evenodd" clip-rule="evenodd" d="M19.7746 17.0975C19.5276 16.3987 19.07 15.7937 18.4648 15.3658C17.8596 14.9379 17.1367 14.7082 16.3955 14.7083V13.8125H14.6038V14.7083C13.6535 14.7083 12.742 15.0859 12.07 15.7579C11.398 16.4299 11.0205 17.3413 11.0205 18.2917C11.0205 19.242 11.398 20.1535 12.07 20.8255C12.742 21.4975 13.6535 21.875 14.6038 21.875V25.4583C13.8245 25.4583 13.1607 24.9611 12.9134 24.2642C12.8767 24.1502 12.8175 24.0446 12.7394 23.9539C12.6612 23.8631 12.5656 23.789 12.4583 23.7358C12.351 23.6826 12.234 23.6515 12.1145 23.6443C11.9949 23.6371 11.8751 23.654 11.7622 23.6939C11.6492 23.7338 11.5455 23.7959 11.457 23.8766C11.3684 23.9574 11.297 24.055 11.2469 24.1638C11.1968 24.2726 11.169 24.3903 11.1652 24.5101C11.1614 24.6298 11.1817 24.7491 11.2248 24.8608C11.4718 25.5596 11.9294 26.1646 12.5345 26.5925C13.1397 27.0204 13.8627 27.2501 14.6038 27.25V28.1458H16.3955V27.25C17.3459 27.25 18.2573 26.8725 18.9293 26.2005C19.6013 25.5285 19.9788 24.617 19.9788 23.6667C19.9788 22.7163 19.6013 21.8049 18.9293 21.1329C18.2573 20.4609 17.3459 20.0833 16.3955 20.0833V16.5C16.766 16.4999 17.1275 16.6147 17.4301 16.8286C17.7326 17.0424 17.9615 17.3448 18.085 17.6941C18.1642 17.9182 18.329 18.1016 18.5434 18.2041C18.6496 18.2549 18.7647 18.2842 18.8821 18.2905C18.9996 18.2967 19.1172 18.2798 19.2281 18.2406C19.3391 18.2014 19.4412 18.1408 19.5287 18.0621C19.6162 17.9835 19.6874 17.8884 19.7381 17.7822C19.7888 17.6761 19.8182 17.561 19.8244 17.4435C19.8307 17.326 19.8138 17.2085 19.7746 17.0975ZM14.6038 16.5C14.1287 16.5 13.6729 16.6888 13.3369 17.0248C13.0009 17.3608 12.8122 17.8165 12.8122 18.2917C12.8122 18.7668 13.0009 19.2226 13.3369 19.5586C13.6729 19.8946 14.1287 20.0833 14.6038 20.0833V16.5ZM16.3955 25.4583C16.8707 25.4583 17.3264 25.2696 17.6624 24.9336C17.9984 24.5976 18.1872 24.1418 18.1872 23.6667C18.1872 23.1915 17.9984 22.7358 17.6624 22.3998C17.3264 22.0638 16.8707 21.875 16.3955 21.875V25.4583Z" fill="#00AAFF"/>
<path fill-rule="evenodd" clip-rule="evenodd" d="M5.78255 3.72298C7.98093 2.64708 11.5876 1.375 15.5346 1.375C19.3992 1.375 22.9109 2.59423 25.0976 3.65579L25.2212 3.71581C25.8806 4.0419 26.4127 4.35006 26.7872 4.6L23.4779 9.4375C31.1069 17.2366 36.9997 33.6223 15.5346 33.6223C-5.93047 33.6223 -0.196239 17.534 7.49897 9.4375L4.21126 4.6C4.46478 4.43427 4.78639 4.24167 5.1698 4.03742C5.35972 3.93529 5.56397 3.82988 5.78255 3.72298ZM21.3512 9.3739L24.0002 5.50121C21.5367 5.67858 18.6055 6.25729 15.7836 7.07429C13.768 7.65658 11.5284 7.5679 9.45457 7.18538C8.93195 7.08861 8.41293 6.97328 7.89851 6.83958L9.61851 9.3721C13.3049 10.6845 17.664 10.6845 21.3512 9.3739ZM8.58382 10.8977C12.8973 12.564 18.0814 12.564 22.3949 10.8959C24.1949 12.7943 25.701 14.9511 26.8633 17.2949C28.0745 19.7656 28.7338 22.2354 28.6263 24.3639C28.5224 26.418 27.7143 28.173 25.8689 29.4773C23.9456 30.8363 20.7107 31.8306 15.5337 31.8306C10.3513 31.8306 7.10122 30.8533 5.15995 29.5095C3.30109 28.2222 2.48499 26.4906 2.36943 24.4642C2.24849 22.359 2.89349 19.9017 4.10018 17.414C5.25132 15.0418 6.85755 12.7584 8.58382 10.8977ZM7.55362 4.88308C8.27028 5.09629 9.0192 5.28173 9.77887 5.42237C11.7049 5.77712 13.6363 5.82908 15.2847 5.3516C17.2055 4.7918 19.1591 4.3517 21.1345 4.03383C19.4861 3.53754 17.5583 3.16667 15.5337 3.16667C12.4476 3.16667 9.56924 4.02756 7.55362 4.88308Z" fill="#00AAFF"/>
</svg>
