<svg width="31" height="31" viewBox="0 0 31 31" fill="none" xmlns="http://www.w3.org/2000/svg">
<g clip-path="url(#clip0_2259_1716)">
<path d="M13.4346 13.4336C12.8846 13.9807 12.5742 14.7237 12.5713 15.4994C12.5713 16.2763 12.8799 17.0213 13.4292 17.5707C13.9785 18.12 14.7236 18.4286 15.5005 18.4286C16.2762 18.4257 17.0192 18.1152 17.5663 17.5653" stroke="#00AAFF" stroke-width="2" stroke-linecap="round" stroke-linejoin="round"/>
<path d="M15.5004 6.71191C13.7624 6.71191 12.0634 7.22729 10.6183 8.19287C9.17322 9.15846 8.04691 10.5309 7.3818 12.1366C6.7167 13.7423 6.54268 15.5092 6.88174 17.2138C7.22081 18.9184 8.05774 20.4842 9.28669 21.7131C10.5156 22.9421 12.0814 23.779 13.786 24.1181C15.4906 24.4571 17.2575 24.2831 18.8632 23.618C20.4689 22.9529 21.8414 21.8266 22.8069 20.3815C23.7725 18.9364 24.2879 17.2374 24.2879 15.4994" stroke="#00AAFF" stroke-width="2" stroke-linecap="round" stroke-linejoin="round"/>
<path d="M15.5003 0.853516C12.6037 0.853516 9.77204 1.71248 7.36354 3.32178C4.95505 4.93109 3.07786 7.21846 1.96935 9.89463C0.860838 12.5708 0.570802 15.5156 1.13591 18.3566C1.70103 21.1976 3.09591 23.8073 5.14416 25.8555C7.19242 27.9038 9.80206 29.2987 12.6431 29.8638C15.4841 30.4289 18.4289 30.1388 21.105 29.0303C23.7812 27.9218 26.0686 26.0446 27.6779 23.6361C29.2872 21.2276 30.1462 18.396 30.1462 15.4993M20.9347 10.0665L16.9649 14.0348" stroke="#00AAFF" stroke-width="2" stroke-linecap="round" stroke-linejoin="round"/>
<path d="M29.2832 6.00929L24.2882 6.71229L24.9912 1.71729C24.9964 1.65927 24.9841 1.60103 24.956 1.55002C24.9279 1.499 24.8852 1.45752 24.8334 1.43088C24.7816 1.40423 24.7231 1.39364 24.6652 1.40044C24.6074 1.40725 24.5529 1.43115 24.5087 1.46908L21.1972 4.76362C20.857 5.10621 20.6068 5.52756 20.4689 5.99018C20.3309 6.4528 20.3094 6.94236 20.4063 7.41529L20.9335 10.067L23.5852 10.5927C24.0581 10.6896 24.5477 10.6681 25.0103 10.5301C25.4729 10.3921 25.8943 10.1419 26.2369 9.80179L29.5299 6.49183C29.5679 6.44754 29.5919 6.39287 29.5987 6.33486C29.6054 6.27685 29.5947 6.21813 29.5679 6.16626C29.541 6.11439 29.4993 6.07173 29.448 6.04376C29.3967 6.01579 29.3383 6.00378 29.2801 6.00929" stroke="#00AAFF" stroke-width="2" stroke-linecap="round" stroke-linejoin="round"/>
</g>
<defs>
<clipPath id="clip0_2259_1716">
<rect width="31" height="31" fill="white"/>
</clipPath>
</defs>
</svg>
