<svg width="32" height="34" viewBox="0 0 32 34" fill="none" xmlns="http://www.w3.org/2000/svg">
<g clip-path="url(#clip0_1507_4877)">
<path d="M8.60293 21.3877C8.22324 21.3877 7.91387 21.6971 7.91387 22.0768V32.5674H2.7248V22.1049C2.7248 21.7252 2.41543 21.4158 2.03574 21.4158C1.65605 21.4158 1.34668 21.7252 1.34668 22.1049V33.2705C1.34668 33.6502 1.65605 33.9596 2.03574 33.9596H8.60293C8.98262 33.9596 9.29199 33.6502 9.29199 33.2705V22.0908C9.29199 21.6971 8.98262 21.3877 8.60293 21.3877Z" fill="#423D55"/>
<path d="M19.2764 18.7158C18.8967 18.7158 18.5873 19.0252 18.5873 19.4049V32.5674H13.4123V21.4721C13.4123 21.0924 13.1029 20.783 12.7232 20.783C12.3436 20.783 12.0342 21.0924 12.0342 21.4721V33.2564C12.0342 33.6361 12.3436 33.9455 12.7232 33.9455H19.2904C19.6701 33.9455 19.9795 33.6361 19.9795 33.2564V19.4049C19.9795 19.0252 19.6701 18.7158 19.2764 18.7158Z" fill="#423D55"/>
<path d="M29.9779 12.3457C29.5982 12.3457 29.2889 12.6551 29.2889 13.0348V32.5676H24.0998V17.127C24.0998 16.7473 23.7904 16.4379 23.4107 16.4379C23.0311 16.4379 22.7217 16.7473 22.7217 17.127V33.2566C22.7217 33.6363 23.0311 33.9457 23.4107 33.9457H29.9779C30.3576 33.9457 30.667 33.6363 30.667 33.2566V13.0488C30.667 12.6551 30.3576 12.3457 29.9779 12.3457Z" fill="#423D55"/>
<path d="M31.0327 0.687695C31.0186 0.43457 30.8639 0.223633 30.653 0.111133C30.428 -0.00136717 30.1608 0.0126953 29.9639 0.15332L22.3983 5.1877C22.1874 5.32832 22.0749 5.56738 22.0889 5.80645C22.103 6.05957 22.2577 6.27051 22.4686 6.38301L25.8436 8.05645C22.2577 16.0158 10.5858 19.0955 1.14989 17.9283C0.770199 17.8721 0.418637 18.1533 0.376449 18.533C0.334262 18.9127 0.60145 19.2643 0.981137 19.3064C2.37332 19.4752 3.79364 19.5596 5.24207 19.5596C14.2983 19.5596 23.7343 16.1002 27.0952 8.66113L30.6249 10.4189C30.7233 10.4611 30.8218 10.4893 30.9343 10.4893C31.0749 10.4893 31.2014 10.4471 31.3139 10.3768C31.5249 10.2361 31.6374 9.99707 31.6233 9.75801L31.0327 0.687695ZM27.0108 7.08613C26.9968 7.07207 26.9968 7.08613 27.0108 7.08613C26.9968 7.07207 26.9968 7.07207 26.9968 7.07207L24.1843 5.67988L29.7389 1.98145L30.1749 8.64707L27.0108 7.08613Z" fill="#423D55"/>
</g>
<defs>
<clipPath id="clip0_1507_4877">
<rect width="32" height="34" fill="white"/>
</clipPath>
</defs>
</svg>
