<svg width="144" height="124" viewBox="0 0 144 155" fill="none" xmlns="http://www.w3.org/2000/svg">
<g clip-path="url(#clip0_1507_3907)" filter="url(#filter0_d_1507_3907)">
<path d="M88.6405 111.224H55.3768C54.9076 111.224 54.5273 111.604 54.5273 112.073V125.947C54.5273 126.416 54.9076 126.796 55.3768 126.796H88.6405C89.1096 126.796 89.4899 126.416 89.4899 125.947V112.073C89.4899 111.604 89.1096 111.224 88.6405 111.224Z" fill="#00AAFF"/>
<path opacity="0.6" d="M88.6405 111.224H55.3768C54.9076 111.224 54.5273 111.604 54.5273 112.073V125.947C54.5273 126.416 54.9076 126.796 55.3768 126.796H88.6405C89.1096 126.796 89.4899 126.416 89.4899 125.947V112.073C89.4899 111.604 89.1096 111.224 88.6405 111.224Z" fill="white"/>
<path opacity="0.1" d="M88.6358 111.224H55.3611C55.1359 111.224 54.9198 111.313 54.7605 111.472C54.6012 111.632 54.5117 111.848 54.5117 112.073V116.522L71.8269 119.93C71.9329 119.952 72.0422 119.952 72.1482 119.93L89.4688 116.522V112.073C89.4689 111.851 89.3816 111.637 89.2259 111.478C89.0701 111.319 88.8582 111.228 88.6358 111.224Z" fill="black"/>
<path d="M89.3665 105.528H79.206V103.824C79.2046 103.12 78.9242 102.445 78.4262 101.947C77.9282 101.449 77.2532 101.168 76.5489 101.167H67.472C66.7677 101.168 66.0927 101.449 65.5947 101.947C65.0967 102.445 64.8163 103.12 64.8148 103.824V105.528H54.6598C54.4374 105.528 54.2241 105.617 54.0669 105.774C53.9096 105.931 53.8213 106.145 53.8213 106.367V114.758C53.8224 114.952 53.8901 115.139 54.013 115.289C54.136 115.438 54.3067 115.541 54.4965 115.58L71.8498 118.994C71.9563 119.01 72.0646 119.01 72.1711 118.994L89.5244 115.58C89.7147 115.541 89.8861 115.439 90.01 115.289C90.1338 115.14 90.2027 114.952 90.205 114.758V106.367C90.205 106.145 90.1167 105.931 89.9594 105.774C89.8022 105.617 89.5889 105.528 89.3665 105.528ZM66.8349 103.824C66.8363 103.655 66.9037 103.493 67.0227 103.373C67.1418 103.253 67.303 103.184 67.472 103.182H76.5489C76.7179 103.184 76.8791 103.253 76.9981 103.373C77.1171 103.493 77.1845 103.655 77.1859 103.824V105.528H66.8404L66.8349 103.824Z" fill="#00AAFF"/>
<path opacity="0.6" d="M89.3665 105.528H79.206V103.824C79.2046 103.12 78.9242 102.445 78.4262 101.947C77.9282 101.449 77.2532 101.168 76.5489 101.167H67.472C66.7677 101.168 66.0927 101.449 65.5947 101.947C65.0967 102.445 64.8163 103.12 64.8148 103.824V105.528H54.6598C54.4374 105.528 54.2241 105.617 54.0669 105.774C53.9096 105.931 53.8213 106.145 53.8213 106.367V114.758C53.8224 114.952 53.8901 115.139 54.013 115.289C54.136 115.438 54.3067 115.541 54.4965 115.58L71.8498 118.994C71.9563 119.01 72.0646 119.01 72.1711 118.994L89.5244 115.58C89.7147 115.541 89.8861 115.439 90.01 115.289C90.1338 115.14 90.2027 114.952 90.205 114.758V106.367C90.205 106.145 90.1167 105.931 89.9594 105.774C89.8022 105.617 89.5889 105.528 89.3665 105.528ZM66.8349 103.824C66.8363 103.655 66.9037 103.493 67.0227 103.373C67.1418 103.253 67.303 103.184 67.472 103.182H76.5489C76.7179 103.184 76.8791 103.253 76.9981 103.373C77.1171 103.493 77.1845 103.655 77.1859 103.824V105.528H66.8404L66.8349 103.824Z" fill="white"/>
<path d="M73.8028 116.701H70.2199C69.7749 116.701 69.4141 117.062 69.4141 117.507V119.772C69.4141 120.217 69.7749 120.578 70.2199 120.578H73.8028C74.2478 120.578 74.6086 120.217 74.6086 119.772V117.507C74.6086 117.062 74.2478 116.701 73.8028 116.701Z" fill="#00AAFF"/>
<path opacity="0.3" d="M73.8028 116.701H70.2199C69.7749 116.701 69.4141 117.062 69.4141 117.507V119.772C69.4141 120.217 69.7749 120.578 70.2199 120.578H73.8028C74.2478 120.578 74.6086 120.217 74.6086 119.772V117.507C74.6086 117.062 74.2478 116.701 73.8028 116.701Z" fill="white"/>
<path d="M88.6405 11.0566H55.3768C54.9076 11.0566 54.5273 11.4369 54.5273 11.9061V25.78C54.5273 26.2491 54.9076 26.6294 55.3768 26.6294H88.6405C89.1096 26.6294 89.4899 26.2491 89.4899 25.78V11.9061C89.4899 11.4369 89.1096 11.0566 88.6405 11.0566Z" fill="#00AAFF"/>
<path opacity="0.6" d="M88.6405 11.0566H55.3768C54.9076 11.0566 54.5273 11.4369 54.5273 11.9061V25.78C54.5273 26.2491 54.9076 26.6294 55.3768 26.6294H88.6405C89.1096 26.6294 89.4899 26.2491 89.4899 25.78V11.9061C89.4899 11.4369 89.1096 11.0566 88.6405 11.0566Z" fill="white"/>
<path opacity="0.1" d="M88.6358 11.0566H55.3611C55.1359 11.0566 54.9198 11.1461 54.7605 11.3054C54.6012 11.4647 54.5117 11.6808 54.5117 11.9061V16.3547L71.8269 19.7633C71.9329 19.785 72.0422 19.785 72.1482 19.7633L89.4688 16.3547V11.9061C89.4689 11.6836 89.3816 11.47 89.2259 11.3111C89.0701 11.1523 88.8582 11.0609 88.6358 11.0566Z" fill="black"/>
<path d="M89.3665 5.36147H79.206V3.65718C79.2046 2.95289 78.9242 2.27787 78.4262 1.77986C77.9282 1.28185 77.2532 1.00144 76.5489 1H67.472C66.7677 1.00144 66.0927 1.28185 65.5947 1.77986C65.0967 2.27787 64.8163 2.95289 64.8148 3.65718V5.36147H54.6598C54.4374 5.36147 54.2241 5.44982 54.0669 5.60708C53.9096 5.76433 53.8213 5.97762 53.8213 6.20001V14.5908C53.8214 14.7848 53.8887 14.9728 54.0118 15.1227C54.1349 15.2726 54.3062 15.3752 54.4965 15.413L71.8498 18.8053C71.9558 18.827 72.0651 18.827 72.1711 18.8053L89.5244 15.3912C89.7126 15.3555 89.8831 15.2568 90.0078 15.1113C90.1325 14.9658 90.2039 14.7823 90.2105 14.5908V6.20001C90.2105 6.08943 90.1886 5.97994 90.1461 5.87785C90.1036 5.77576 90.0414 5.68308 89.9629 5.60514C89.8845 5.52721 89.7914 5.46555 89.689 5.42373C89.5867 5.38191 89.4771 5.36075 89.3665 5.36147ZM66.8349 3.65718C66.8349 3.48771 66.9019 3.3251 67.0212 3.20477C67.1405 3.08443 67.3025 3.0161 67.472 3.01466H76.5489C76.7174 3.01609 76.8786 3.08366 76.9978 3.20283C77.1169 3.322 77.1845 3.48321 77.1859 3.65173V5.35603H66.8404L66.8349 3.65718Z" fill="#00AAFF"/>
<path opacity="0.6" d="M89.3665 5.36147H79.206V3.65718C79.2046 2.95289 78.9242 2.27787 78.4262 1.77986C77.9282 1.28185 77.2532 1.00144 76.5489 1H67.472C66.7677 1.00144 66.0927 1.28185 65.5947 1.77986C65.0967 2.27787 64.8163 2.95289 64.8148 3.65718V5.36147H54.6598C54.4374 5.36147 54.2241 5.44982 54.0669 5.60708C53.9096 5.76433 53.8213 5.97762 53.8213 6.20001V14.5908C53.8214 14.7848 53.8887 14.9728 54.0118 15.1227C54.1349 15.2726 54.3062 15.3752 54.4965 15.413L71.8498 18.8053C71.9558 18.827 72.0651 18.827 72.1711 18.8053L89.5244 15.3912C89.7126 15.3555 89.8831 15.2568 90.0078 15.1113C90.1325 14.9658 90.2039 14.7823 90.2105 14.5908V6.20001C90.2105 6.08943 90.1886 5.97994 90.1461 5.87785C90.1036 5.77576 90.0414 5.68308 89.9629 5.60514C89.8845 5.52721 89.7914 5.46555 89.689 5.42373C89.5867 5.38191 89.4771 5.36075 89.3665 5.36147ZM66.8349 3.65718C66.8349 3.48771 66.9019 3.3251 67.0212 3.20477C67.1405 3.08443 67.3025 3.0161 67.472 3.01466H76.5489C76.7174 3.01609 76.8786 3.08366 76.9978 3.20283C77.1169 3.322 77.1845 3.48321 77.1859 3.65173V5.35603H66.8404L66.8349 3.65718Z" fill="white"/>
<path d="M73.8028 16.54H70.2199C69.7749 16.54 69.4141 16.9008 69.4141 17.3459V19.611C69.4141 20.0561 69.7749 20.4169 70.2199 20.4169H73.8028C74.2478 20.4169 74.6086 20.0561 74.6086 19.611V17.3459C74.6086 16.9008 74.2478 16.54 73.8028 16.54Z" fill="#00AAFF"/>
<path opacity="0.3" d="M73.8028 16.54H70.2199C69.7749 16.54 69.4141 16.9008 69.4141 17.3459V19.611C69.4141 20.0561 69.7749 20.4169 70.2199 20.4169H73.8028C74.2478 20.4169 74.6086 20.0561 74.6086 19.611V17.3459C74.6086 16.9008 74.2478 16.54 73.8028 16.54Z" fill="white"/>
<path d="M36.826 111.224H3.56232C3.09319 111.224 2.71289 111.604 2.71289 112.073V125.947C2.71289 126.416 3.09319 126.796 3.56232 126.796H36.826C37.2952 126.796 37.6755 126.416 37.6755 125.947V112.073C37.6755 111.604 37.2952 111.224 36.826 111.224Z" fill="#00AAFF"/>
<path opacity="0.6" d="M36.826 111.224H3.56232C3.09319 111.224 2.71289 111.604 2.71289 112.073V125.947C2.71289 126.416 3.09319 126.796 3.56232 126.796H36.826C37.2952 126.796 37.6755 126.416 37.6755 125.947V112.073C37.6755 111.604 37.2952 111.224 36.826 111.224Z" fill="white"/>
<path opacity="0.1" d="M36.8478 111.224H3.56232C3.33704 111.224 3.12098 111.313 2.96168 111.472C2.80239 111.632 2.71289 111.848 2.71289 112.073V116.522L20.0281 119.93C20.1359 119.952 20.247 119.952 20.3548 119.93L37.6755 116.522V112.073C37.6755 111.851 37.589 111.639 37.4344 111.48C37.2798 111.321 37.0693 111.229 36.8478 111.224Z" fill="black"/>
<path d="M37.5452 105.528H27.3848V103.824C27.3833 103.12 27.1029 102.445 26.6049 101.947C26.1069 101.449 25.4319 101.168 24.7276 101.167H15.6561C14.9519 101.168 14.2768 101.449 13.7788 101.947C13.2808 102.445 13.0004 103.12 12.999 103.824V105.528H2.83854C2.61614 105.528 2.40286 105.617 2.2456 105.774C2.08835 105.931 2 106.145 2 106.367V114.758C2.00109 114.952 2.06878 115.139 2.19173 115.289C2.31467 115.438 2.48537 115.541 2.67518 115.58L20.0285 118.994C20.1368 119.01 20.2469 119.01 20.3552 118.994L37.7085 115.58C37.8984 115.541 38.0691 115.438 38.192 115.289C38.3149 115.139 38.3826 114.952 38.3837 114.758V106.367C38.3837 106.145 38.2954 105.931 38.1381 105.774C37.9809 105.617 37.7676 105.528 37.5452 105.528ZM15.0136 103.824C15.0164 103.655 15.085 103.493 15.2049 103.373C15.3248 103.253 15.4866 103.184 15.6561 103.182H24.7276C24.8971 103.184 25.0589 103.253 25.1788 103.373C25.2987 103.493 25.3673 103.655 25.3701 103.824V105.528H15.0245L15.0136 103.824Z" fill="#00AAFF"/>
<path opacity="0.6" d="M37.5452 105.528H27.3848V103.824C27.3833 103.12 27.1029 102.445 26.6049 101.947C26.1069 101.449 25.4319 101.168 24.7276 101.167H15.6561C14.9519 101.168 14.2768 101.449 13.7788 101.947C13.2808 102.445 13.0004 103.12 12.999 103.824V105.528H2.83854C2.61614 105.528 2.40286 105.617 2.2456 105.774C2.08835 105.931 2 106.145 2 106.367V114.758C2.00109 114.952 2.06878 115.139 2.19173 115.289C2.31467 115.438 2.48537 115.541 2.67518 115.58L20.0285 118.994C20.1368 119.01 20.2469 119.01 20.3552 118.994L37.7085 115.58C37.8984 115.541 38.0691 115.438 38.192 115.289C38.3149 115.139 38.3826 114.952 38.3837 114.758V106.367C38.3837 106.145 38.2954 105.931 38.1381 105.774C37.9809 105.617 37.7676 105.528 37.5452 105.528ZM15.0136 103.824C15.0164 103.655 15.085 103.493 15.2049 103.373C15.3248 103.253 15.4866 103.184 15.6561 103.182H24.7276C24.8971 103.184 25.0589 103.253 25.1788 103.373C25.2987 103.493 25.3673 103.655 25.3701 103.824V105.528H15.0245L15.0136 103.824Z" fill="white"/>
<path d="M21.9834 116.701H18.4006C17.9555 116.701 17.5947 117.062 17.5947 117.507V119.772C17.5947 120.217 17.9555 120.578 18.4006 120.578H21.9834C22.4285 120.578 22.7893 120.217 22.7893 119.772V117.507C22.7893 117.062 22.4285 116.701 21.9834 116.701Z" fill="#00AAFF"/>
<path opacity="0.3" d="M21.9834 116.701H18.4006C17.9555 116.701 17.5947 117.062 17.5947 117.507V119.772C17.5947 120.217 17.9555 120.578 18.4006 120.578H21.9834C22.4285 120.578 22.7893 120.217 22.7893 119.772V117.507C22.7893 117.062 22.4285 116.701 21.9834 116.701Z" fill="white"/>
<path d="M36.826 11.0566H3.56232C3.09319 11.0566 2.71289 11.4369 2.71289 11.9061V25.78C2.71289 26.2491 3.09319 26.6294 3.56232 26.6294H36.826C37.2952 26.6294 37.6755 26.2491 37.6755 25.78V11.9061C37.6755 11.4369 37.2952 11.0566 36.826 11.0566Z" fill="#00AAFF"/>
<path opacity="0.6" d="M36.826 11.0566H3.56232C3.09319 11.0566 2.71289 11.4369 2.71289 11.9061V25.78C2.71289 26.2491 3.09319 26.6294 3.56232 26.6294H36.826C37.2952 26.6294 37.6755 26.2491 37.6755 25.78V11.9061C37.6755 11.4369 37.2952 11.0566 36.826 11.0566Z" fill="white"/>
<path opacity="0.1" d="M36.8478 11.0566H3.56232C3.33704 11.0566 3.12098 11.1461 2.96168 11.3054C2.80239 11.4647 2.71289 11.6808 2.71289 11.9061V16.3547L20.0281 19.7633C20.1359 19.7851 20.247 19.7851 20.3548 19.7633L37.6755 16.3547V11.9061C37.6755 11.6845 37.589 11.4717 37.4344 11.313C37.2798 11.1543 37.0693 11.0623 36.8478 11.0566Z" fill="black"/>
<path d="M37.5452 5.36147H27.3848V3.65718C27.3833 2.95289 27.1029 2.27787 26.6049 1.77986C26.1069 1.28185 25.4319 1.00144 24.7276 1H15.6561C14.9519 1.00144 14.2768 1.28185 13.7788 1.77986C13.2808 2.27787 13.0004 2.95289 12.999 3.65718V5.36147H2.83854C2.61614 5.36147 2.40286 5.44982 2.2456 5.60708C2.08835 5.76433 2 5.97762 2 6.20001V14.5908C2.00006 14.7848 2.06739 14.9728 2.1905 15.1227C2.31362 15.2726 2.4849 15.3752 2.67518 15.413L20.0285 18.8053C20.1363 18.8271 20.2474 18.8271 20.3552 18.8053L37.7085 15.3912C37.8988 15.3534 38.0701 15.2508 38.1932 15.1009C38.3163 14.951 38.3837 14.763 38.3837 14.569V6.20001C38.3837 5.97762 38.2954 5.76433 38.1381 5.60708C37.9809 5.44982 37.7676 5.36147 37.5452 5.36147ZM15.0136 3.65718C15.0151 3.48721 15.0832 3.32461 15.2034 3.20442C15.3236 3.08424 15.4862 3.01609 15.6561 3.01466H24.7276C24.8966 3.01606 25.0584 3.08346 25.1784 3.20248C25.2985 3.3215 25.3673 3.48272 25.3701 3.65173V5.35603H15.0245L15.0136 3.65718Z" fill="#00AAFF"/>
<path opacity="0.6" d="M37.5452 5.36147H27.3848V3.65718C27.3833 2.95289 27.1029 2.27787 26.6049 1.77986C26.1069 1.28185 25.4319 1.00144 24.7276 1H15.6561C14.9519 1.00144 14.2768 1.28185 13.7788 1.77986C13.2808 2.27787 13.0004 2.95289 12.999 3.65718V5.36147H2.83854C2.61614 5.36147 2.40286 5.44982 2.2456 5.60708C2.08835 5.76433 2 5.97762 2 6.20001V14.5908C2.00006 14.7848 2.06739 14.9728 2.1905 15.1227C2.31362 15.2726 2.4849 15.3752 2.67518 15.413L20.0285 18.8053C20.1363 18.8271 20.2474 18.8271 20.3552 18.8053L37.7085 15.3912C37.8988 15.3534 38.0701 15.2508 38.1932 15.1009C38.3163 14.951 38.3837 14.763 38.3837 14.569V6.20001C38.3837 5.97762 38.2954 5.76433 38.1381 5.60708C37.9809 5.44982 37.7676 5.36147 37.5452 5.36147ZM15.0136 3.65718C15.0151 3.48721 15.0832 3.32461 15.2034 3.20442C15.3236 3.08424 15.4862 3.01609 15.6561 3.01466H24.7276C24.8966 3.01606 25.0584 3.08346 25.1784 3.20248C25.2985 3.3215 25.3673 3.48272 25.3701 3.65173V5.35603H15.0245L15.0136 3.65718Z" fill="white"/>
<path d="M21.9834 16.54H18.4006C17.9555 16.54 17.5947 16.9008 17.5947 17.3459V19.611C17.5947 20.0561 17.9555 20.4169 18.4006 20.4169H21.9834C22.4285 20.4169 22.7893 20.0561 22.7893 19.611V17.3459C22.7893 16.9008 22.4285 16.54 21.9834 16.54Z" fill="#00AAFF"/>
<path opacity="0.3" d="M21.9834 16.54H18.4006C17.9555 16.54 17.5947 16.9008 17.5947 17.3459V19.611C17.5947 20.0561 17.9555 20.4169 18.4006 20.4169H21.9834C22.4285 20.4169 22.7893 20.0561 22.7893 19.611V17.3459C22.7893 16.9008 22.4285 16.54 21.9834 16.54Z" fill="white"/>
<path d="M32.4924 76.7134H3.56288C3.33615 76.7134 3.11871 76.6234 2.95839 76.463C2.79807 76.3027 2.70801 76.0853 2.70801 75.8586V61.99C2.70885 61.8757 2.73294 61.7627 2.77879 61.6579C2.80093 61.609 2.8264 61.5617 2.85502 61.5163C2.88533 61.4697 2.92199 61.4276 2.96392 61.3911C3.12253 61.2316 3.33794 61.1415 3.56288 61.1406H30.946C30.7182 63.0409 30.6435 64.9565 30.7227 66.8688C30.7227 67.1792 30.7227 67.4895 30.7717 67.7945C30.8098 68.3662 30.8534 68.9434 30.9187 69.5151C31.199 71.9615 31.7262 74.3732 32.4924 76.7134Z" fill="#00AAFF"/>
<path opacity="0.6" d="M32.4924 76.7134H3.56288C3.33615 76.7134 3.11871 76.6234 2.95839 76.463C2.79807 76.3027 2.70801 76.0853 2.70801 75.8586V61.99C2.70885 61.8757 2.73294 61.7627 2.77879 61.6579C2.80093 61.609 2.8264 61.5617 2.85502 61.5163C2.88533 61.4697 2.92199 61.4276 2.96392 61.3911C3.12253 61.2316 3.33794 61.1415 3.56288 61.1406H30.946C30.7182 63.0409 30.6435 64.9565 30.7227 66.8688C30.7227 67.1792 30.7227 67.4895 30.7717 67.7945C30.8098 68.3662 30.8534 68.9434 30.9187 69.5151C31.199 71.9615 31.7262 74.3732 32.4924 76.7134Z" fill="white"/>
<path opacity="0.1" d="M30.9454 61.1406C30.7176 63.0409 30.6429 64.9565 30.7222 66.8688C30.7222 67.1792 30.7222 67.4895 30.7712 67.7945L22.7887 69.3626L20.3494 69.8418C20.244 69.869 20.1335 69.869 20.0281 69.8418L17.5942 69.3681L2.71289 66.4386V61.9846C2.71461 61.8726 2.73676 61.7619 2.77823 61.6579C2.80037 61.609 2.82584 61.5617 2.85446 61.5163C2.88478 61.4697 2.92143 61.4276 2.96336 61.3911C3.12197 61.2316 3.33738 61.1415 3.56232 61.1406H30.9454Z" fill="black"/>
<path d="M32.0838 55.4455H27.3902V53.7412C27.3873 53.0364 27.1057 52.3614 26.6068 51.8635C26.108 51.3657 25.4324 51.0854 24.7276 51.084H15.6562C14.9514 51.084 14.2756 51.3639 13.7772 51.8623C13.2789 52.3606 12.999 53.0364 12.999 53.7412V55.4455H2.83854C2.72842 55.4455 2.61938 55.4671 2.51764 55.5093C2.41591 55.5514 2.32347 55.6132 2.2456 55.6911C2.16774 55.7689 2.10597 55.8614 2.06383 55.9631C2.02169 56.0648 2 56.1739 2 56.284V64.6693C2.00009 64.8648 2.06799 65.0541 2.19212 65.205C2.31624 65.356 2.4889 65.4592 2.68063 65.497H2.7133L17.5946 68.4319L20.0285 68.9056C20.1345 68.9273 20.2438 68.9273 20.3498 68.9056L22.7891 68.4264L30.7226 66.8637C30.6433 64.9514 30.718 63.0358 30.9458 61.1355C31.1719 59.2114 31.5525 57.3086 32.0838 55.4455ZM15.0136 53.7412C15.0165 53.5721 15.0852 53.4109 15.2053 53.2919C15.3253 53.1729 15.4871 53.1055 15.6562 53.1041H24.7276C24.8961 53.1055 25.0573 53.1731 25.1765 53.2923C25.2957 53.4114 25.3632 53.5726 25.3647 53.7412V55.4455H15.0191L15.0136 53.7412Z" fill="#00AAFF"/>
<path opacity="0.6" d="M32.0838 55.4455H27.3902V53.7412C27.3873 53.0364 27.1057 52.3614 26.6068 51.8635C26.108 51.3657 25.4324 51.0854 24.7276 51.084H15.6562C14.9514 51.084 14.2756 51.3639 13.7772 51.8623C13.2789 52.3606 12.999 53.0364 12.999 53.7412V55.4455H2.83854C2.72842 55.4455 2.61938 55.4671 2.51764 55.5093C2.41591 55.5514 2.32347 55.6132 2.2456 55.6911C2.16774 55.7689 2.10597 55.8614 2.06383 55.9631C2.02169 56.0648 2 56.1739 2 56.284V64.6693C2.00009 64.8648 2.06799 65.0541 2.19212 65.205C2.31624 65.356 2.4889 65.4592 2.68063 65.497H2.7133L17.5946 68.4319L20.0285 68.9056C20.1345 68.9273 20.2438 68.9273 20.3498 68.9056L22.7891 68.4264L30.7226 66.8637C30.6433 64.9514 30.718 63.0358 30.9458 61.1355C31.1719 59.2114 31.5525 57.3086 32.0838 55.4455ZM15.0136 53.7412C15.0165 53.5721 15.0852 53.4109 15.2053 53.2919C15.3253 53.1729 15.4871 53.1055 15.6562 53.1041H24.7276C24.8961 53.1055 25.0573 53.1731 25.1765 53.2923C25.2957 53.4114 25.3632 53.5726 25.3647 53.7412V55.4455H15.0191L15.0136 53.7412Z" fill="white"/>
<path d="M21.9834 66.6182H18.4006C17.9555 66.6182 17.5947 66.979 17.5947 67.424V69.6892C17.5947 70.1342 17.9555 70.495 18.4006 70.495H21.9834C22.4285 70.495 22.7893 70.1342 22.7893 69.6892V67.424C22.7893 66.979 22.4285 66.6182 21.9834 66.6182Z" fill="#00AAFF"/>
<path opacity="0.3" d="M21.9834 66.6182H18.4006C17.9555 66.6182 17.5947 66.979 17.5947 67.424V69.6892C17.5947 70.1342 17.9555 70.495 18.4006 70.495H21.9834C22.4285 70.495 22.7893 70.1342 22.7893 69.6892V67.424C22.7893 66.979 22.4285 66.6182 21.9834 66.6182Z" fill="white"/>
<path d="M107.193 126.792H140.456C140.925 126.792 141.306 126.412 141.306 125.943V112.069C141.306 111.6 140.925 111.219 140.456 111.219H107.193C106.723 111.219 106.343 111.6 106.343 112.069V125.943C106.343 126.412 106.723 126.792 107.193 126.792Z" fill="#00AAFF"/>
<path opacity="0.6" d="M107.193 126.792H140.456C140.925 126.792 141.306 126.412 141.306 125.943V112.069C141.306 111.6 140.925 111.219 140.456 111.219H107.193C106.723 111.219 106.343 111.6 106.343 112.069V125.943C106.343 126.412 106.723 126.792 107.193 126.792Z" fill="white"/>
<path opacity="0.1" d="M107.198 111.224H140.457C140.682 111.224 140.898 111.313 141.057 111.473C141.217 111.632 141.306 111.848 141.306 112.073V116.522L123.969 119.931C123.863 119.952 123.754 119.952 123.648 119.931L106.327 116.522V112.073C106.327 111.96 106.35 111.848 106.394 111.743C106.438 111.639 106.502 111.544 106.584 111.465C106.665 111.386 106.761 111.324 106.867 111.282C106.972 111.241 107.085 111.221 107.198 111.224Z" fill="black"/>
<path d="M106.473 105.528H116.633V103.824C116.634 103.12 116.915 102.445 117.413 101.947C117.911 101.449 118.586 101.168 119.29 101.167H128.367C129.071 101.168 129.746 101.449 130.244 101.947C130.742 102.445 131.023 103.12 131.024 103.824V105.528H141.179C141.289 105.528 141.398 105.55 141.5 105.592C141.602 105.634 141.694 105.696 141.772 105.774C141.85 105.852 141.912 105.944 141.954 106.046C141.996 106.148 142.018 106.257 142.018 106.367V114.758C142.017 114.952 141.949 115.139 141.826 115.289C141.703 115.438 141.532 115.541 141.343 115.58L123.968 118.994C123.859 119.01 123.749 119.01 123.641 118.994L106.287 115.58C106.098 115.541 105.927 115.438 105.804 115.289C105.681 115.139 105.613 114.952 105.612 114.758V106.367C105.612 106.255 105.635 106.144 105.678 106.041C105.722 105.938 105.785 105.844 105.866 105.766C105.946 105.688 106.041 105.627 106.145 105.586C106.249 105.545 106.361 105.526 106.473 105.528ZM129.004 103.824C129.003 103.655 128.935 103.493 128.816 103.373C128.697 103.253 128.536 103.184 128.367 103.182H119.29C119.121 103.184 118.959 103.253 118.839 103.373C118.719 103.493 118.651 103.655 118.648 103.824V105.528H128.993L129.004 103.824Z" fill="#00AAFF"/>
<path opacity="0.6" d="M106.473 105.528H116.633V103.824C116.634 103.12 116.915 102.445 117.413 101.947C117.911 101.449 118.586 101.168 119.29 101.167H128.367C129.071 101.168 129.746 101.449 130.244 101.947C130.742 102.445 131.023 103.12 131.024 103.824V105.528H141.179C141.289 105.528 141.398 105.55 141.5 105.592C141.602 105.634 141.694 105.696 141.772 105.774C141.85 105.852 141.912 105.944 141.954 106.046C141.996 106.148 142.018 106.257 142.018 106.367V114.758C142.017 114.952 141.949 115.139 141.826 115.289C141.703 115.438 141.532 115.541 141.343 115.58L123.968 118.994C123.859 119.01 123.749 119.01 123.641 118.994L106.287 115.58C106.098 115.541 105.927 115.438 105.804 115.289C105.681 115.139 105.613 114.952 105.612 114.758V106.367C105.612 106.255 105.635 106.144 105.678 106.041C105.722 105.938 105.785 105.844 105.866 105.766C105.946 105.688 106.041 105.627 106.145 105.586C106.249 105.545 106.361 105.526 106.473 105.528ZM129.004 103.824C129.003 103.655 128.935 103.493 128.816 103.373C128.697 103.253 128.536 103.184 128.367 103.182H119.29C119.121 103.184 118.959 103.253 118.839 103.373C118.719 103.493 118.651 103.655 118.648 103.824V105.528H128.993L129.004 103.824Z" fill="white"/>
<path d="M122.035 120.578H125.618C126.063 120.578 126.424 120.217 126.424 119.772V117.507C126.424 117.062 126.063 116.701 125.618 116.701H122.035C121.59 116.701 121.229 117.062 121.229 117.507V119.772C121.229 120.217 121.59 120.578 122.035 120.578Z" fill="#00AAFF"/>
<path opacity="0.3" d="M122.035 120.578H125.618C126.063 120.578 126.424 120.217 126.424 119.772V117.507C126.424 117.062 126.063 116.701 125.618 116.701H122.035C121.59 116.701 121.229 117.062 121.229 117.507V119.772C121.229 120.217 121.59 120.578 122.035 120.578Z" fill="white"/>
<path d="M107.193 26.625L140.456 26.625C140.925 26.625 141.306 26.2447 141.306 25.7756V11.9016C141.306 11.4325 140.925 11.0522 140.456 11.0522L107.193 11.0522C106.723 11.0522 106.343 11.4325 106.343 11.9016V25.7756C106.343 26.2447 106.723 26.625 107.193 26.625Z" fill="#00AAFF"/>
<path opacity="0.6" d="M107.193 26.625L140.456 26.625C140.925 26.625 141.306 26.2447 141.306 25.7756V11.9016C141.306 11.4325 140.925 11.0522 140.456 11.0522L107.193 11.0522C106.723 11.0522 106.343 11.4325 106.343 11.9016V25.7756C106.343 26.2447 106.723 26.625 107.193 26.625Z" fill="white"/>
<path opacity="0.1" d="M107.198 11.0566H140.456C140.682 11.0566 140.898 11.1461 141.057 11.3054C141.216 11.4647 141.306 11.6808 141.306 11.9061V16.3547L123.969 19.7633C123.863 19.785 123.753 19.785 123.648 19.7633L106.349 16.3547V11.9061C106.349 11.6808 106.438 11.4647 106.597 11.3054C106.757 11.1461 106.973 11.0566 107.198 11.0566Z" fill="black"/>
<path d="M106.473 5.36152H116.633V3.65723C116.634 2.95294 116.915 2.27792 117.413 1.77991C117.911 1.2819 118.586 1.00149 119.29 1.00005H128.367C128.718 0.997899 129.065 1.065 129.39 1.19751C129.714 1.33001 130.01 1.52531 130.259 1.7722C130.507 2.01908 130.705 2.31269 130.84 2.63617C130.975 2.95966 131.045 3.30665 131.046 3.65723V5.36152H141.201C141.423 5.36152 141.637 5.44987 141.794 5.60713C141.951 5.76438 142.04 5.97767 142.04 6.20006V14.5909C142.04 14.7849 141.972 14.9728 141.849 15.1227C141.726 15.2727 141.555 15.3753 141.364 15.4131L123.968 18.8053C123.86 18.8272 123.749 18.8272 123.641 18.8053L106.287 15.3913C106.097 15.3535 105.926 15.2509 105.803 15.101C105.68 14.951 105.612 14.7631 105.612 14.5691V6.20006C105.612 6.08808 105.635 5.97724 105.678 5.87406C105.722 5.77087 105.785 5.67745 105.866 5.59929C105.946 5.52113 106.041 5.45983 106.145 5.41899C106.249 5.37816 106.361 5.35861 106.473 5.36152ZM129.004 3.65723C129.004 3.48776 128.937 3.32516 128.818 3.20482C128.699 3.08448 128.537 3.01615 128.367 3.01471H119.29C119.121 3.01611 118.959 3.08351 118.839 3.20253C118.719 3.32155 118.651 3.48277 118.648 3.65178V5.35608H128.993L129.004 3.65723Z" fill="#00AAFF"/>
<path opacity="0.6" d="M106.473 5.36152H116.633V3.65723C116.634 2.95294 116.915 2.27792 117.413 1.77991C117.911 1.2819 118.586 1.00149 119.29 1.00005H128.367C128.718 0.997899 129.065 1.065 129.39 1.19751C129.714 1.33001 130.01 1.52531 130.259 1.7722C130.507 2.01908 130.705 2.31269 130.84 2.63617C130.975 2.95966 131.045 3.30665 131.046 3.65723V5.36152H141.201C141.423 5.36152 141.637 5.44987 141.794 5.60713C141.951 5.76438 142.04 5.97767 142.04 6.20006V14.5909C142.04 14.7849 141.972 14.9728 141.849 15.1227C141.726 15.2727 141.555 15.3753 141.364 15.4131L123.968 18.8053C123.86 18.8272 123.749 18.8272 123.641 18.8053L106.287 15.3913C106.097 15.3535 105.926 15.2509 105.803 15.101C105.68 14.951 105.612 14.7631 105.612 14.5691V6.20006C105.612 6.08808 105.635 5.97724 105.678 5.87406C105.722 5.77087 105.785 5.67745 105.866 5.59929C105.946 5.52113 106.041 5.45983 106.145 5.41899C106.249 5.37816 106.361 5.35861 106.473 5.36152ZM129.004 3.65723C129.004 3.48776 128.937 3.32516 128.818 3.20482C128.699 3.08448 128.537 3.01615 128.367 3.01471H119.29C119.121 3.01611 118.959 3.08351 118.839 3.20253C118.719 3.32155 118.651 3.48277 118.648 3.65178V5.35608H128.993L129.004 3.65723Z" fill="white"/>
<path d="M122.035 20.4121H125.618C126.063 20.4121 126.424 20.0513 126.424 19.6062V17.3411C126.424 16.896 126.063 16.5352 125.618 16.5352H122.035C121.59 16.5352 121.229 16.896 121.229 17.3411V19.6062C121.229 20.0513 121.59 20.4121 122.035 20.4121Z" fill="#00AAFF"/>
<path opacity="0.3" d="M122.035 20.4121H125.618C126.063 20.4121 126.424 20.0513 126.424 19.6062V17.3411C126.424 16.896 126.063 16.5352 125.618 16.5352H122.035C121.59 16.5352 121.229 16.896 121.229 17.3411V19.6062C121.229 20.0513 121.59 20.4121 122.035 20.4121Z" fill="white"/>
<path d="M111.549 76.7134H140.462C140.688 76.712 140.904 76.6213 141.063 76.4611C141.222 76.301 141.311 76.0843 141.311 75.8586V61.9901C141.311 61.8757 141.286 61.7627 141.241 61.6579C141.221 61.608 141.195 61.5605 141.164 61.5163C141.134 61.4697 141.097 61.4276 141.055 61.3911C140.977 61.3116 140.884 61.2486 140.781 61.2055C140.678 61.1625 140.568 61.1405 140.457 61.1406H113.079C113.307 63.0409 113.381 64.9565 113.302 66.8688C113.302 67.1792 113.302 67.4895 113.253 67.7945C113.22 68.3662 113.171 68.9434 113.106 69.5151C112.831 71.9609 112.309 74.3727 111.549 76.7134Z" fill="#00AAFF"/>
<path opacity="0.6" d="M111.549 76.7134H140.462C140.688 76.712 140.904 76.6213 141.063 76.4611C141.222 76.301 141.311 76.0843 141.311 75.8586V61.9901C141.311 61.8757 141.286 61.7627 141.241 61.6579C141.221 61.608 141.195 61.5605 141.164 61.5163C141.134 61.4697 141.097 61.4276 141.055 61.3911C140.977 61.3116 140.884 61.2486 140.781 61.2055C140.678 61.1625 140.568 61.1405 140.457 61.1406H113.079C113.307 63.0409 113.381 64.9565 113.302 66.8688C113.302 67.1792 113.302 67.4895 113.253 67.7945C113.22 68.3662 113.171 68.9434 113.106 69.5151C112.831 71.9609 112.309 74.3727 111.549 76.7134Z" fill="white"/>
<path opacity="0.1" d="M113.079 61.1406C113.307 63.041 113.382 64.9565 113.302 66.8688C113.302 67.1792 113.302 67.4895 113.253 67.7945L121.247 69.3626L123.686 69.8418C123.791 69.869 123.902 69.869 124.007 69.8418L126.441 69.3681L141.322 66.4386V61.9846C141.321 61.8726 141.299 61.7619 141.257 61.6579C141.237 61.608 141.212 61.5605 141.181 61.5163C141.151 61.4697 141.114 61.4276 141.072 61.3911C140.994 61.3116 140.901 61.2486 140.798 61.2055C140.695 61.1625 140.585 61.1405 140.473 61.1406H113.079Z" fill="black"/>
<path d="M111.935 55.4455H116.634V53.7412C116.635 53.0369 116.916 52.3618 117.414 51.8638C117.912 51.3658 118.587 51.0854 119.291 51.084H128.363C129.068 51.084 129.744 51.3638 130.243 51.8619C130.743 52.3601 131.024 53.0359 131.025 53.7412V55.4455H141.18C141.403 55.4455 141.616 55.5338 141.773 55.6911C141.93 55.8483 142.019 56.0616 142.019 56.284V64.6693C142.019 64.864 141.952 65.0527 141.829 65.2036C141.706 65.3544 141.534 65.4581 141.344 65.497H141.305L126.424 68.4319L123.968 68.9001C123.862 68.9219 123.753 68.9219 123.647 68.9001L121.208 68.421L113.274 66.8583C113.429 62.9987 112.969 59.1391 111.913 55.4237L111.935 55.4455ZM129.005 53.7412C129.002 53.5721 128.933 53.4109 128.813 53.2919C128.693 53.1729 128.532 53.1055 128.363 53.1041H119.291C119.123 53.1055 118.961 53.1731 118.842 53.2923C118.723 53.4114 118.655 53.5726 118.654 53.7412V55.4455H129L129.005 53.7412Z" fill="#00AAFF"/>
<path opacity="0.6" d="M111.935 55.4455H116.634V53.7412C116.635 53.0369 116.916 52.3618 117.414 51.8638C117.912 51.3658 118.587 51.0854 119.291 51.084H128.363C129.068 51.084 129.744 51.3638 130.243 51.8619C130.743 52.3601 131.024 53.0359 131.025 53.7412V55.4455H141.18C141.403 55.4455 141.616 55.5338 141.773 55.6911C141.93 55.8483 142.019 56.0616 142.019 56.284V64.6693C142.019 64.864 141.952 65.0527 141.829 65.2036C141.706 65.3544 141.534 65.4581 141.344 65.497H141.305L126.424 68.4319L123.968 68.9001C123.862 68.9219 123.753 68.9219 123.647 68.9001L121.208 68.421L113.274 66.8583C113.429 62.9987 112.969 59.1391 111.913 55.4237L111.935 55.4455ZM129.005 53.7412C129.002 53.5721 128.933 53.4109 128.813 53.2919C128.693 53.1729 128.532 53.1055 128.363 53.1041H119.291C119.123 53.1055 118.961 53.1731 118.842 53.2923C118.723 53.4114 118.655 53.5726 118.654 53.7412V55.4455H129L129.005 53.7412Z" fill="white"/>
<path d="M122.035 70.5H125.618C126.063 70.5 126.424 70.1392 126.424 69.6941V67.429C126.424 66.9839 126.063 66.6231 125.618 66.6231H122.035C121.59 66.6231 121.229 66.9839 121.229 67.429V69.6941C121.229 70.1392 121.59 70.5 122.035 70.5Z" fill="#00AAFF"/>
<path opacity="0.3" d="M122.035 70.5H125.618C126.063 70.5 126.424 70.1392 126.424 69.6941V67.429C126.424 66.9839 126.063 66.6231 125.618 66.6231H122.035C121.59 66.6231 121.229 66.9839 121.229 67.429V69.6941C121.229 70.1392 121.59 70.5 122.035 70.5Z" fill="white"/>
<path d="M97.6686 57.7588H49.872C49.1984 57.7588 48.6523 58.3049 48.6523 58.9785V78.9128C48.6523 79.5864 49.1984 80.1324 49.872 80.1324H97.6686C98.3422 80.1324 98.8883 79.5864 98.8883 78.9128V58.9785C98.8883 58.3049 98.3422 57.7588 97.6686 57.7588Z" fill="#00AAFF"/>
<path d="M80.2883 54.198H67.2474C66.2587 54.1966 65.3108 53.8032 64.6116 53.104C63.9124 52.4048 63.519 51.457 63.5176 50.4682V47.1195C63.519 46.1307 63.9124 45.1829 64.6116 44.4837C65.3108 43.7845 66.2587 43.3911 67.2474 43.3896H80.2883C81.2775 43.3896 82.2262 43.7826 82.9257 44.4821C83.6252 45.1816 84.0181 46.1303 84.0181 47.1195V50.4519C84.0203 50.943 83.9254 51.4298 83.7389 51.8842C83.5525 52.3386 83.2781 52.7518 82.9315 53.0998C82.5849 53.4479 82.173 53.7241 81.7194 53.9126C81.2658 54.101 80.7795 54.1981 80.2883 54.198ZM67.2474 46.1285C66.985 46.1313 66.734 46.2364 66.5479 46.4215C66.3617 46.6066 66.2552 46.8571 66.251 47.1195V50.4519C66.251 50.719 66.3571 50.9752 66.546 51.1642C66.7349 51.3531 66.9912 51.4592 67.2583 51.4592H80.2992C80.5663 51.4592 80.8226 51.3531 81.0115 51.1642C81.2004 50.9752 81.3065 50.719 81.3065 50.4519V47.1195C81.3065 46.8523 81.2004 46.5961 81.0115 46.4072C80.8226 46.2183 80.5663 46.1122 80.2992 46.1122L67.2474 46.1285Z" fill="#00AAFF"/>
<path opacity="0.2" d="M97.6631 57.7588H49.8775C49.7168 57.7581 49.5577 57.7891 49.4091 57.8501C49.2604 57.9111 49.1253 58.0008 49.0115 58.1141C48.8977 58.2274 48.8073 58.3621 48.7457 58.5105C48.6841 58.6588 48.6523 58.8179 48.6523 58.9785V65.3764L73.5362 70.2769C73.6887 70.3101 73.8465 70.3101 73.999 70.2769L98.8883 65.3764V58.9785C98.8883 58.8179 98.8565 58.6588 98.7949 58.5105C98.7332 58.3621 98.6429 58.2274 98.5291 58.1141C98.4153 58.0008 98.2802 57.9111 98.1316 57.8501C97.9829 57.7891 97.8237 57.7581 97.6631 57.7588Z" fill="black"/>
<path d="M98.9209 63.9985L73.9881 68.8991C73.8332 68.9263 73.6747 68.9263 73.5198 68.8991L48.587 63.9985C48.313 63.9445 48.0663 63.7972 47.8886 63.5818C47.7109 63.3664 47.6133 63.0962 47.6123 62.817V50.7834C47.6123 50.6254 47.6434 50.4689 47.7039 50.3229C47.7644 50.1769 47.853 50.0443 47.9648 49.9325C48.0765 49.8208 48.2092 49.7322 48.3551 49.6717C48.5011 49.6112 48.6576 49.5801 48.8157 49.5801H98.7031C98.8611 49.5801 99.0176 49.6112 99.1636 49.6717C99.3096 49.7322 99.4422 49.8208 99.554 49.9325C99.6657 50.0443 99.7544 50.1769 99.8148 50.3229C99.8753 50.4689 99.9064 50.6254 99.9064 50.7834V62.8387C99.901 63.116 99.7999 63.3829 99.6203 63.5942C99.4407 63.8056 99.1936 63.9484 98.9209 63.9985Z" fill="#00AAFF"/>
<path d="M76.3518 65.6377H71.1954C70.5578 65.6377 70.041 66.1545 70.041 66.792V70.0536C70.041 70.6911 70.5578 71.208 71.1954 71.208H76.3518C76.9893 71.208 77.5062 70.6911 77.5062 70.0536V66.792C77.5062 66.1545 76.9893 65.6377 76.3518 65.6377Z" fill="#00AAFF"/>
<path opacity="0.4" d="M76.3518 65.6377H71.1954C70.5578 65.6377 70.041 66.1545 70.041 66.792V70.0536C70.041 70.6911 70.5578 71.208 71.1954 71.208H76.3518C76.9893 71.208 77.5062 70.6911 77.5062 70.0536V66.792C77.5062 66.1545 76.9893 65.6377 76.3518 65.6377Z" fill="black"/>
<path d="M128.092 138.761L130.752 142.044L134.103 140.993L131.076 136.875L128.092 138.761Z" fill="#060020"/>
<path opacity="0.2" d="M59.6166 98.6897C66.7882 101.636 74.6723 102.389 82.2721 100.855C89.872 99.3208 96.8462 95.5675 102.313 90.0699C107.78 84.5722 111.494 77.5771 112.986 69.9688C114.477 62.3605 113.68 54.4807 110.693 47.3258C107.707 40.1708 102.666 34.062 96.2084 29.7716C89.7505 25.4812 82.1656 23.202 74.4124 23.222C66.6593 23.2421 59.0862 25.5605 52.6507 29.8843C46.2151 34.208 41.206 40.3428 38.2568 47.5131C36.2978 52.2758 35.2964 57.3778 35.3097 62.5276C35.323 67.6774 36.3508 72.7741 38.3344 77.5266C40.318 82.279 43.2184 86.5942 46.8701 90.2254C50.5218 93.8567 54.8531 96.7329 59.6166 98.6897Z" fill="#00AAFF"/>
<path opacity="0.1" d="M68.1658 23.7301L97.5657 94.1463C98.0519 93.7918 98.5236 93.4294 98.9906 93.0644C102.01 90.6648 104.653 87.8272 106.833 84.6459L81.4327 23.8354C77.0491 23.0403 72.5614 23.0047 68.1658 23.7301Z" fill="white"/>
<path opacity="0.1" d="M46.0742 35.4241L73.7051 101.636C79.7106 101.76 85.6641 100.502 91.1062 97.9591L60.9347 25.6424C55.297 27.7211 50.2127 31.0678 46.0742 35.4241Z" fill="white"/>
<path d="M138.051 147.453C138.464 146.55 138.639 145.556 138.559 144.565C138.504 143.839 138.254 143.142 137.833 142.547L135.449 139.16C133.87 136.898 132.261 134.656 130.651 132.415C129.042 130.173 127.408 127.943 125.789 125.708C124.17 123.473 122.516 121.257 120.847 119.057C117.531 114.64 114.156 110.261 110.723 105.921C109.011 103.741 107.274 101.597 105.507 99.4617C104.99 98.8407 104.729 98.0463 104.775 97.2395C104.822 96.4327 105.174 95.6738 105.759 95.1166C114.006 87.2416 118.974 76.5423 119.669 65.1606C120.364 53.7788 116.734 42.5546 109.507 33.7347C102.28 24.9148 91.9875 19.1501 80.6912 17.5947C69.3949 16.0392 57.9278 18.8078 48.5856 25.3461C39.2434 31.8844 32.7154 41.71 30.3085 52.856C27.9015 64.002 29.7931 75.6458 35.6047 85.4567C41.4163 95.2675 50.719 102.521 61.6505 105.766C72.5821 109.011 84.3358 108.007 94.5588 102.955C95.2837 102.595 96.1184 102.524 96.8937 102.757C97.6691 102.989 98.3271 103.507 98.7346 104.207C100.143 106.593 101.571 108.963 103.021 111.318C105.917 116.026 108.878 120.692 111.905 125.314C113.406 127.639 114.959 129.937 116.464 132.233C117.968 134.529 119.537 136.823 121.093 139.116C122.649 141.409 124.189 143.663 125.795 145.934L128.162 149.33C128.576 149.93 129.146 150.406 129.811 150.705C130.712 151.119 131.706 151.294 132.694 151.211C133.851 151.154 134.967 150.771 135.915 150.106C136.863 149.441 137.603 148.521 138.051 147.453ZM45.2969 82.8882C41.247 77.1071 39.0025 70.2549 38.8472 63.1981C38.6918 56.1413 40.6327 49.197 44.4242 43.2433C48.2157 37.2896 53.6876 32.594 60.1479 29.7503C66.6083 26.9066 73.7668 26.0425 80.7182 27.2674C87.6695 28.4923 94.1016 31.7511 99.2008 36.6317C104.3 41.5123 107.837 47.7954 109.366 54.6865C110.894 61.5775 110.344 68.767 107.786 75.3457C105.228 81.9243 100.777 87.5967 94.9948 91.6454C91.1566 94.3338 86.8265 96.2399 82.2517 97.2548C77.6769 98.2697 72.947 98.3735 68.332 97.5603C63.7171 96.7471 59.3075 95.0328 55.3551 92.5154C51.4027 89.9979 47.9849 86.7266 45.2969 82.8882Z" fill="#00AAFF"/>
</g>
<defs>
<filter id="filter0_d_1507_3907" x="0" y="0" width="144" height="155" filterUnits="userSpaceOnUse" color-interpolation-filters="sRGB">
<feFlood flood-opacity="0" result="BackgroundImageFix"/>
<feColorMatrix in="SourceAlpha" type="matrix" values="0 0 0 0 0 0 0 0 0 0 0 0 0 0 0 0 0 0 127 0" result="hardAlpha"/>
<feOffset dy="1"/>
<feGaussianBlur stdDeviation="1"/>
<feComposite in2="hardAlpha" operator="out"/>
<feColorMatrix type="matrix" values="0 0 0 0 0 0 0 0 0 0 0 0 0 0 0 0 0 0 0.2 0"/>
<feBlend mode="normal" in2="BackgroundImageFix" result="effect1_dropShadow_1507_3907"/>
<feBlend mode="normal" in="SourceGraphic" in2="effect1_dropShadow_1507_3907" result="shape"/>
</filter>
<clipPath id="clip0_1507_3907">
<rect width="140" height="151" fill="white" transform="translate(2 1)"/>
</clipPath>
</defs>
</svg>
