<svg width="119" height="124" viewBox="0 0 164 143" fill="none" xmlns="http://www.w3.org/2000/svg">
<path d="M44.7684 142.272L3.7793 118.607L81.5593 73.6973L122.548 97.3657L44.7684 142.272Z" fill="#E0E0E0"/>
<path d="M146.711 114.502L163.788 104.642L121.874 80.4414L104.797 90.302L146.711 114.502Z" fill="#E0E0E0"/>
<path d="M109.745 5.37305L109.749 90.5644L146.637 111.862L146.633 26.6709L109.745 5.37305Z" fill="#00AAFF"/>
<path opacity="0.2" d="M109.745 5.37305L109.749 90.5644L146.637 111.862L146.633 26.6709L109.745 5.37305Z" fill="black"/>
<path opacity="0.2" d="M144.697 108.499V27.7907L111.688 8.73242V89.426L144.697 108.499ZM143.723 106.818L112.658 88.883V10.4064L143.719 28.3413L143.723 106.818Z" fill="black"/>
<g opacity="0.2">
<path d="M137.053 51.9094C139.566 56.2648 141.143 61.3131 141.143 65.9044C141.143 70.3722 139.611 73.8214 136.941 75.3606C134.495 76.7762 131.323 76.5028 128.028 74.6116C120.976 70.5407 115.242 60.1034 115.242 51.3439C115.242 46.8761 116.774 43.4269 119.44 41.8877C121.89 40.4759 125.058 40.7455 128.357 42.6367C131.657 44.528 134.772 47.9546 137.053 51.9094ZM119.893 65.0169C122.118 68.8667 125.092 72.1586 128.357 74.0423C131.447 75.8249 134.379 76.0983 136.596 74.81C139.057 73.3869 140.465 70.1475 140.465 65.9231C140.465 57.3733 134.881 47.1981 128.013 43.2284C124.923 41.4458 121.991 41.1724 119.774 42.4794C117.313 43.8988 115.901 47.1382 115.901 51.3626C115.901 55.8154 117.44 60.7476 119.893 64.9981V65.0169Z" fill="black"/>
</g>
<g opacity="0.8">
<path d="M134.983 53.1013C137.373 57.2395 138.728 61.9058 138.728 65.9055C138.728 69.4969 137.631 72.1896 135.732 73.2944C134.058 74.2606 131.74 73.9909 129.209 72.5266C126.321 70.8601 123.539 67.8791 121.378 64.1341C118.989 59.9959 117.633 55.3296 117.633 51.3337C117.633 47.7385 118.726 45.0458 120.629 43.941C122.307 42.9748 124.625 43.2482 127.156 44.7088C130.051 46.3603 132.83 49.3563 134.983 53.1013Z" fill="#00AAFF"/>
</g>
<path opacity="0.8" d="M142.251 33.687L142.187 57.1419L141.558 55.6439C140.993 54.2949 140.344 52.9828 139.614 51.7154C136.959 47.124 132.544 43.203 129.342 41.353C125.754 39.282 120.728 37.9825 117.601 39.8063C116.516 40.442 115.581 41.3043 114.86 42.3342L114.261 43.1843L114.321 17.5048L116.759 18.9092C116.893 19.0429 117.069 19.1285 117.257 19.1529C117.445 19.1772 117.636 19.139 117.801 19.044C117.965 18.949 118.094 18.8026 118.166 18.6273C118.239 18.452 118.253 18.2576 118.204 18.0741V15.2578L138.352 26.9609V29.3915C138.386 30.0083 138.564 30.6087 138.873 31.144C139.181 31.6794 139.611 32.1348 140.127 32.4736L142.251 33.687Z" fill="#00AAFF"/>
<g opacity="0.4">
<path d="M130.656 30.0726C131.262 31.0856 131.599 32.2369 131.634 33.4169C131.634 34.5404 131.237 35.4129 130.54 35.8137C129.844 36.2144 129.076 36.1245 128.237 35.6376C126.544 34.6602 125.166 32.1585 125.166 30.0651C125.166 28.9416 125.563 28.069 126.26 27.6683C126.956 27.2676 127.724 27.3574 128.566 27.8443C129.442 28.3961 130.162 29.1633 130.656 30.0726Z" fill="white"/>
</g>
<path d="M142.075 74.0346L142.105 99.613L139.667 98.2049C139.533 98.0712 139.357 97.9856 139.169 97.9612C138.981 97.9369 138.79 97.9751 138.625 98.0701C138.461 98.1651 138.332 98.3115 138.26 98.4868C138.187 98.662 138.173 98.8565 138.222 99.04V101.856L118.164 90.1194V87.6889C118.125 87.0741 117.945 86.4765 117.637 85.943C117.329 85.4095 116.902 84.9547 116.388 84.6143L114.28 83.4009L114.25 60.0059L114.887 61.5338C115.453 62.8842 116.103 64.1975 116.834 65.4661C119.253 69.6268 123.373 73.8699 127.118 76.027C131.788 78.7234 135.477 79.3301 138.079 77.8246C139.386 77.053 140.543 76.0521 141.495 74.8698L142.075 74.0346Z" fill="#00AAFF"/>
<g opacity="0.4">
<path d="M130.749 83.6292C131.353 84.643 131.69 85.7939 131.726 86.9735C131.726 88.097 131.329 88.9696 130.633 89.3703C129.936 89.771 129.169 89.6811 128.326 89.1943C126.633 88.2168 125.259 85.7189 125.259 83.6217C125.259 82.4982 125.656 81.6256 126.352 81.2249C127.049 80.8242 127.817 80.9141 128.659 81.4009C129.534 81.9538 130.253 82.7207 130.749 83.6292Z" fill="white"/>
</g>
<path opacity="0.15" d="M146.633 63.3286C146.633 63.3286 146.847 35.8178 145.806 27.1856C134.507 20.3772 123.31 13.8608 110.636 7L109.745 42.0345L146.633 63.3286Z" fill="black"/>
<path d="M109.745 5.37408L119.055 0L155.943 21.2978L146.633 26.6719L109.745 5.37408Z" fill="#00AAFF"/>
<path opacity="0.4" d="M109.745 5.37408L119.055 0L155.943 21.2978L146.633 26.6719L109.745 5.37408Z" fill="white"/>
<g opacity="0.5">
<path d="M149.288 25.1369L137.854 18.291L149.76 24.8672L149.288 25.1369Z" fill="#00AAFF"/>
<path d="M114.358 2.71087L118.437 4.83803L114.752 2.48242L114.358 2.71087Z" fill="#00AAFF"/>
<path d="M116.212 1.64011L135.907 12.6841L116.781 1.31055L116.212 1.64011Z" fill="#00AAFF"/>
<path d="M151.138 24.0721L132.027 12.6836L151.749 23.7201L151.138 24.0721Z" fill="#00AAFF"/>
</g>
<path d="M155.943 21.2988V106.49L146.637 111.864L146.633 26.6729L155.943 21.2988Z" fill="#00AAFF"/>
<path opacity="0.2" d="M155.943 21.2988V106.49L146.637 111.864L146.633 26.6729L155.943 21.2988Z" fill="white"/>
<g opacity="0.8">
<path d="M149.288 25.1368L149.502 29.5035L149.76 24.8672L149.288 25.1368Z" fill="#00AAFF"/>
<path d="M151.138 24.0727L151.449 46.4341L151.748 23.7207L151.138 24.0727Z" fill="#00AAFF"/>
<path d="M151.217 109.219L151.445 93.3926L151.674 108.953L151.217 109.219Z" fill="#00AAFF"/>
<path d="M153.168 108.093L153.385 99L153.602 107.842L153.168 108.093Z" fill="#00AAFF"/>
</g>
<path d="M146.633 63.3282C146.633 63.3282 146.633 63.1484 146.599 58.381C146.506 51.6924 146.191 36.1806 144.948 27.642C132.269 19.6858 118.765 13.1262 104.674 8.07812C107.426 19.2794 109.471 30.5219 109.748 42.0453L146.633 63.3282Z" fill="#00AAFF"/>
<path opacity="0.1" d="M146.633 63.3282C146.633 63.3282 146.633 63.1484 146.599 58.381C146.506 51.6924 146.191 36.1806 144.948 27.642C132.269 19.6858 118.765 13.1262 104.674 8.07812C107.426 19.2794 109.471 30.5219 109.748 42.0453L146.633 63.3282Z" fill="black"/>
<path opacity="0.2" d="M144.686 62.2056C144.686 50.8695 144.592 39.6495 143.09 28.392C131.945 21.4712 119.414 15.1983 107.513 10.9141C110.509 21.4525 111.67 32.2306 111.688 43.1623L112.67 43.6978C112.604 33.1 111.321 22.5448 108.846 12.2398C120.002 16.775 131.754 22.3326 142.278 28.9163C143.731 39.818 143.746 50.6748 143.723 61.6514C144.049 61.8349 144.364 62.0259 144.686 62.2056Z" fill="black"/>
<g opacity="0.2">
<path d="M140.278 59.6617C139.821 57.5533 139.098 55.1452 136.746 51.0782C134.922 47.7993 132.317 45.0209 129.163 42.989C125.871 40.9367 123.658 40.3263 120.347 41.4273C118.377 42.0827 116.977 44.3147 116.228 45.7715L116.804 46.1011C117.388 44.9214 118.594 42.7043 120.583 42.049C123.714 41.0153 126.238 41.9666 129.013 43.8129C133.702 46.9324 137.439 52.4676 139.473 59.1674L140.278 59.6617Z" fill="black"/>
</g>
<g opacity="0.5">
<path d="M137.229 57.8985C136.668 56.3007 135.978 54.7514 135.166 53.2659C132.735 49.2063 130.488 46.9556 127.649 45.2366C125.077 43.6712 123.234 42.9372 120.766 43.8847C119.725 44.2854 118.62 45.877 118.306 47.0005L137.229 57.8985Z" fill="#00AAFF"/>
</g>
<path d="M142.207 57.1192C142.458 49.3932 142.667 41.701 141.649 34.0088C140.9 33.6898 140.198 33.273 139.559 32.7692C138.552 31.9728 137.809 30.8906 137.428 29.6646C137.206 28.9165 137.086 28.1417 137.072 27.3614C129.833 22.5303 122.654 19.9987 115.598 16.748C115.804 17.6206 115.906 18.1262 116.014 18.8452C116.089 19.3321 116.205 19.8939 115.909 20.1635C115.535 20.4968 115.059 20.2758 114.55 20.0586C113.721 19.6996 112.911 19.2984 112.123 18.8565C114.04 27.2715 114.314 34.5031 114.291 43.1054C114.291 43.1054 114.482 42.7983 114.98 42.1504C115.751 41.2221 116.711 40.4699 117.797 39.9446C121.875 37.9111 125.908 38.8211 130.155 41.3939C133.945 43.6746 136.81 47.3073 139.398 51.1796C140.239 52.4031 140.951 53.711 141.521 55.0819C141.796 55.7447 142.025 56.4254 142.207 57.1192Z" fill="#00AAFF"/>
<g opacity="0.4">
<path d="M130.17 35.6683C131.042 35.1927 131.353 34.5448 131.248 33.5337C131.127 32.388 130.742 31.2859 130.125 30.313C129.522 29.4704 128.938 28.6877 128.091 28.2458C127.245 27.8038 126.365 27.4967 125.579 28.066C124.792 28.6352 124.672 29.9048 124.83 30.9646C125.088 32.6611 125.676 33.8033 127.282 35.0841C128.065 35.7095 129.47 36.0466 130.17 35.6683Z" fill="white"/>
</g>
<path d="M108.456 41.293L146.633 63.3286L146.636 76.7769L108.456 54.7413V41.293Z" fill="#FAFAFA"/>
<path d="M146.637 76.7762L156.624 71.0089V57.5605L146.633 63.3278L146.637 76.7762Z" fill="#EBEBEB"/>
<path d="M156.624 57.5612L155.942 57.168V57.9544L156.624 57.5612Z" fill="#E0E0E0"/>
<path d="M108.456 41.2933L109.703 40.5742L109.744 42.0385L108.456 41.2933Z" fill="#E0E0E0"/>
<g opacity="0.3">
<path d="M155.939 57.1719L146.637 62.5422L146.633 63.3287L155.939 57.9583V57.1719Z" fill="black"/>
</g>
<g opacity="0.2">
<path d="M146.636 62.5415L109.726 41.2324L109.744 42.0376L146.633 63.3279L146.636 62.5415Z" fill="black"/>
</g>
<path d="M108.456 42.7422L146.633 64.7853V65.9013L108.46 43.8619L108.456 42.7422Z" fill="#21BEE8"/>
<path d="M108.46 52.1602L146.637 74.2032V75.323L108.464 53.2799L108.46 52.1602Z" fill="#21BEE8"/>
<path d="M146.633 64.7847L156.624 59.0137V60.1334L146.633 65.9007V64.7847Z" fill="#00AAFF"/>
<path d="M146.637 74.2028L156.625 68.4355V69.559L146.637 75.3226V74.2028Z" fill="#00AAFF"/>
<path d="M4.08691 105.137L77.8672 62.5449L114.755 83.8428L40.9752 126.435L4.08691 105.137Z" fill="#00AAFF"/>
<path opacity="0.4" d="M4.08691 105.137L77.8672 62.5449L114.755 83.8428L40.9752 126.435L4.08691 105.137Z" fill="white"/>
<path d="M77.8673 64.7852L7.9668 105.156L40.9827 124.196L110.872 83.8435L77.8673 64.7852ZM40.9827 123.072L9.89922 105.156L77.8673 65.9087L108.928 83.8435L40.9827 123.072Z" fill="#00AAFF"/>
<path d="M45.6634 102.624C42.3603 100.717 40.5439 98.1108 40.5439 95.2871C40.5439 92.205 42.7647 89.1528 46.6333 86.9208C54.2207 82.5391 66.1073 82.2882 73.1742 86.359C76.4773 88.2652 78.2973 90.8717 78.2973 93.6955C78.2973 96.7776 76.0765 99.8298 72.2042 102.062C68.2308 104.357 63.0776 105.53 58.0406 105.53C53.4754 105.53 49.0189 104.56 45.6634 102.624ZM46.9741 87.49C43.3115 89.6059 41.2106 92.4446 41.2106 95.2871C41.2106 97.8637 42.9145 100.268 46.0042 102.051C52.8688 106.017 64.4783 105.766 71.8821 101.493C75.5447 99.3766 77.6419 96.5342 77.6419 93.6955C77.6419 91.1189 75.9417 88.7146 72.8521 86.932C69.5864 85.0595 65.2497 84.112 60.8044 84.112C55.891 84.112 50.8502 85.2505 46.9741 87.49Z" fill="#00AAFF"/>
<g opacity="0.5">
<path d="M46.8584 100.554C44.3267 99.0936 42.9336 97.2248 42.9336 95.2886C42.9336 93.0828 44.7162 90.7946 47.8321 88.9896C51.2924 86.9897 56.0186 85.8438 60.7973 85.8438C65.1227 85.8438 69.0924 86.7613 71.9798 88.4278C74.5115 89.8921 75.9083 91.7609 75.9083 93.697C75.9083 95.9028 74.122 98.191 71.0099 99.9961C67.5495 101.996 62.8233 103.142 58.0447 103.142C53.7155 103.142 49.7458 102.221 46.8584 100.554Z" fill="#00AAFF"/>
</g>
<path opacity="0.5" d="M42.7546 117.912C42.2028 117.634 41.5936 117.489 40.9757 117.489C40.3579 117.489 39.7487 117.634 39.1968 117.912L37.0922 119.125L16.8691 107.515L19.3071 106.111C19.4907 106.062 19.6528 105.953 19.7683 105.802C19.8839 105.651 19.9465 105.466 19.9465 105.276C19.9465 105.086 19.8839 104.901 19.7683 104.75C19.6528 104.599 19.4907 104.49 19.3071 104.441L16.8691 103.033L39.0808 90.1387L38.6463 91.0862C38.1136 92.2249 37.8338 93.4654 37.8262 94.7226C37.8262 98.3365 41.4476 102.044 45.0353 104.115C48.2373 105.965 53.8436 107.83 59.1465 107.83C60.6091 107.83 62.0701 107.737 63.5206 107.549L65.146 107.343L44.863 119.121L42.7546 117.912Z" fill="#00AAFF"/>
<g opacity="0.4">
<path d="M32.9574 110.205C32.1148 109.718 31.6504 109.04 31.6504 108.295C31.6504 107.55 32.2084 106.711 33.1784 106.149C34.9947 105.101 37.8484 105.044 39.5449 106.022C40.3875 106.505 40.8519 107.183 40.8519 107.928C40.8519 108.733 40.2939 109.512 39.3202 110.074C38.2855 110.633 37.1253 110.917 35.9497 110.902C34.909 110.929 33.8787 110.69 32.9574 110.205Z" fill="white"/>
</g>
<path opacity="0.5" d="M80.1408 97.8726C80.6892 96.4578 80.9785 94.9558 80.9946 93.4385C80.9946 90.4425 78.624 87.5401 73.954 84.8437C70.209 82.6828 64.4791 81.2335 59.6743 81.2335C58.2106 81.2332 56.7484 81.3258 55.2964 81.5107L53.6523 81.7241L73.939 70.0547L76.0437 71.2718C76.5956 71.5451 77.203 71.6873 77.8188 71.6873C78.4347 71.6873 79.0421 71.5451 79.594 71.2718L81.6987 70.0547L101.884 81.5631L99.4425 82.9749C99.259 83.0245 99.0969 83.1332 98.9813 83.2842C98.8657 83.4351 98.8031 83.62 98.8031 83.8101C98.8031 84.0002 98.8657 84.185 98.9813 84.336C99.0969 84.4869 99.259 84.5956 99.4425 84.6452L101.88 86.0496L79.7138 98.8163L80.1408 97.8726Z" fill="#00AAFF"/>
<g opacity="0.4">
<path d="M79.3833 83.5064C78.5445 83.0195 78.0801 82.3417 78.0801 81.5964C78.0801 80.7912 78.6381 80.0123 79.608 79.4505C81.4244 78.4019 84.2781 78.3458 85.9746 79.3195C86.8172 79.8063 87.2778 80.4841 87.2778 81.2294C87.2778 82.0346 86.7235 82.8135 85.7498 83.3753C84.7149 83.933 83.5549 84.2178 82.3793 84.2029C81.3376 84.2303 80.3062 83.9905 79.3833 83.5064Z" fill="white"/>
</g>
<path d="M4.08691 105.137V115.885L40.9752 137.183V126.435L4.08691 105.137Z" fill="#00AAFF"/>
<path opacity="0.2" d="M4.08691 105.137V115.885L40.9752 137.183V126.435L4.08691 105.137Z" fill="black"/>
<g opacity="0.3">
<path d="M40.9751 129.5L29.3281 123.021L40.9751 130.043V129.5Z" fill="black"/>
<path d="M4.08691 110.465L7.97048 112.933L4.08691 110.918V110.465Z" fill="black"/>
<path d="M4.08691 112.6L23.501 124.138L4.08691 113.262V112.6Z" fill="black"/>
<path d="M40.9756 131.636L21.5615 120.779L40.9756 132.34V131.636Z" fill="black"/>
</g>
<path d="M40.9756 137.184L114.756 94.5919V83.8438L40.9756 126.436V137.184Z" fill="#00AAFF"/>
<path opacity="0.2" d="M40.9756 137.184L114.756 94.5919V83.8438L40.9756 126.436V137.184Z" fill="white"/>
<path d="M40.9756 129.502L44.8629 127.502L40.9756 130.045V129.502Z" fill="#00AAFF"/>
<path d="M40.9756 131.636L60.4983 120.727L40.9756 132.34V131.636Z" fill="#00AAFF"/>
<path d="M114.755 89.1309L101.161 97.2425L114.755 89.6589V89.1309Z" fill="#00AAFF"/>
<path d="M114.755 91.3848L106.988 96.1184L114.755 91.8866V91.3848Z" fill="#00AAFF"/>
<path d="M34.5488 86.0639L72.7216 108.107L84.3686 101.385L46.1995 79.3379L34.5488 86.0639Z" fill="#FAFAFA"/>
<path d="M84.3686 101.385V112.919L72.7217 119.645V108.107L84.3686 101.385Z" fill="#EBEBEB"/>
<path d="M72.7216 119.646L72.04 119.249L72.7216 118.855V119.646Z" fill="#E0E0E0"/>
<path d="M34.5488 86.0645V87.555L35.8371 86.8097L34.5488 86.0645Z" fill="#E0E0E0"/>
<g opacity="0.3">
<path d="M72.04 119.245V108.504L72.7216 108.107V118.852L72.04 119.245Z" fill="black"/>
</g>
<g opacity="0.2">
<path d="M72.0398 108.503L35.1553 87.2018L35.8369 86.8086L72.7214 108.106L72.0398 108.503Z" fill="black"/>
</g>
<path d="M35.8037 85.3412L73.984 107.381L74.9502 106.819L36.7774 84.7832L35.8037 85.3412Z" fill="#21BEE8"/>
<path d="M43.9639 80.6342L82.1404 102.674L83.1104 102.112L44.9376 80.0762L43.9639 80.6342Z" fill="#21BEE8"/>
<path d="M73.9834 107.38V118.915L74.9496 118.357V106.818L73.9834 107.38Z" fill="#00AAFF"/>
<path d="M82.1396 102.673V114.208L83.1134 113.646L83.1096 102.111L82.1396 102.673Z" fill="#00AAFF"/>
<path opacity="0.15" d="M114.755 83.8431V86.6331L44.0948 127.427V124.634L40.9752 126.435V137.183L4.08691 115.885V105.137L76.358 63.4141L114.755 83.8431Z" fill="black"/>
<path d="M8.13184 92.0703L81.9084 49.4746L118.797 70.7724L45.0201 113.364L8.13184 92.0703Z" fill="#00AAFF"/>
<path opacity="0.4" d="M8.13184 92.0703L81.9084 49.4746L118.797 70.7724L45.0201 113.364L8.13184 92.0703Z" fill="white"/>
<path d="M81.9085 51.7168L12.0117 92.0655L45.0202 111.124L114.917 70.7714L81.9085 51.7168ZM45.0164 110L13.9554 92.0655L81.9085 52.8366L112.992 70.7714L45.0164 110Z" fill="#00AAFF"/>
<path d="M49.7081 89.5532C46.405 87.647 44.585 85.0592 44.585 82.2168C44.585 79.1347 46.8057 76.0862 50.6781 73.8505C58.2617 69.4688 70.1708 69.2179 77.2189 73.2887C80.522 75.1949 82.3421 77.7827 82.3421 80.6252C82.3421 83.7073 80.1213 86.7595 76.249 88.9915C72.2718 91.2872 67.1112 92.4481 62.0854 92.4481C57.5202 92.4481 53.0637 91.4894 49.7081 89.5532ZM51.0076 74.4197C47.3488 76.5356 45.2478 79.3781 45.2478 82.2168C45.2478 84.7971 46.9481 87.1976 50.0377 88.984C56.906 92.9462 68.5155 92.6953 75.9194 88.4223C79.5783 86.3063 81.6792 83.4676 81.6792 80.6252C81.6792 78.0486 79.979 75.6443 76.8894 73.8617C73.6237 71.9892 69.287 71.0454 64.8417 71.0454C59.932 71.0454 54.8912 72.1989 51.0076 74.4197Z" fill="#00AAFF"/>
<g opacity="0.5">
<path d="M50.9033 87.4819C48.3717 86.0213 46.9785 84.1525 46.9785 82.2164C46.9785 80.0106 48.7611 77.7224 51.8732 75.9173C55.3374 73.9175 60.0636 72.7715 64.8422 72.7715C69.1639 72.7715 73.1374 73.689 76.0248 75.3593C78.5564 76.8198 79.9495 78.6923 79.9495 80.6248C79.9495 82.8306 78.1669 85.1188 75.0548 86.9239C71.5907 88.9237 66.8645 90.0697 62.0896 90.0697C57.7641 90.0697 53.7907 89.1521 50.9033 87.4819Z" fill="#00AAFF"/>
</g>
<path opacity="0.5" d="M46.7985 104.845C46.247 104.566 45.6377 104.421 45.0197 104.421C44.4017 104.421 43.7923 104.566 43.2408 104.845L41.1361 106.058L20.9131 94.4489L23.3511 93.0445C23.5223 92.973 23.6718 92.858 23.7848 92.7108C23.8978 92.5637 23.9704 92.3895 23.9952 92.2057C23.9952 91.9098 23.7668 91.614 23.3511 91.3743L20.9168 89.9661L43.121 77.0684L42.6865 78.0158C42.1505 79.1549 41.8694 80.3971 41.8626 81.656C41.8626 85.2699 45.4841 88.9737 49.0755 91.0447C52.2775 92.8947 57.88 94.7597 63.1829 94.7597C64.6454 94.7597 66.1063 94.6671 67.5571 94.4826L69.1824 94.2729L48.9032 106.051L46.7985 104.845Z" fill="#00AAFF"/>
<g opacity="0.4">
<path d="M37.0023 97.1328C36.1597 96.6459 35.6953 95.9681 35.6953 95.2228C35.6953 94.4214 36.2533 93.6387 37.2233 93.0769C39.0396 92.0283 41.8933 91.9722 43.5898 92.9496C44.4324 93.4365 44.893 94.1143 44.893 94.8558C44.893 95.661 44.3388 96.4437 43.3651 97.0017C42.3303 97.5599 41.1702 97.8447 39.9946 97.8294C38.954 97.8572 37.9236 97.6174 37.0023 97.1328Z" fill="white"/>
</g>
<path opacity="0.5" d="M84.1855 84.8006C84.7308 83.385 85.0187 81.8834 85.0356 80.3665C85.0356 77.3705 82.6688 74.4682 77.9988 71.7718C74.2538 69.6146 68.5239 68.1616 63.7191 68.1616C62.2525 68.1642 60.7876 68.2618 59.3337 68.4537L57.6934 68.6634L77.9688 56.994L80.0735 58.2111C80.6253 58.4844 81.2328 58.6266 81.8486 58.6266C82.4644 58.6266 83.0719 58.4844 83.6238 58.2111L85.7285 56.9902L105.922 68.4911L103.484 69.9068C103.314 69.9771 103.165 70.091 103.054 70.2369C102.942 70.3829 102.87 70.5558 102.847 70.7381C102.871 70.9207 102.943 71.0937 103.054 71.2401C103.166 71.3866 103.314 71.5014 103.484 71.5733L105.922 72.9776L83.7548 85.7444L84.1855 84.8006Z" fill="#00AAFF"/>
<g opacity="0.4">
<path d="M83.4283 70.4355C82.5856 69.9487 82.125 69.2708 82.125 68.5256C82.125 67.7803 82.6793 66.9414 83.653 66.3797C85.4693 65.3311 88.323 65.2749 90.0195 66.2523C90.8621 66.7355 91.3265 67.4133 91.3265 68.1586C91.3265 68.9637 90.7685 69.7464 89.7985 70.3044C88.7579 70.8651 87.5911 71.15 86.4093 71.1321C85.3726 71.157 84.3466 70.9173 83.4283 70.4355Z" fill="white"/>
</g>
<path d="M8.13184 92.0703V102.815L45.0201 124.113V113.364L8.13184 92.0703Z" fill="#00AAFF"/>
<path opacity="0.2" d="M8.13184 92.0703V102.815L45.0201 124.113V113.364L8.13184 92.0703Z" fill="black"/>
<g opacity="0.3">
<path d="M45.0198 116.432L33.3691 109.953L45.0198 116.979V116.432Z" fill="black"/>
<path d="M8.13184 97.3965L12.0154 99.8644L8.13184 97.8496V97.3965Z" fill="black"/>
<path d="M8.13184 99.5352L27.5422 111.074L8.13184 100.194V99.5352Z" fill="black"/>
<path d="M45.0205 118.568L25.6064 107.711L45.0205 119.272V118.568Z" fill="black"/>
</g>
<path d="M45.0195 124.114L118.796 81.5216V70.7734L45.0195 113.365V124.114Z" fill="#00AAFF"/>
<path opacity="0.2" d="M45.0195 124.114L118.796 81.5216V70.7734L45.0195 113.365V124.114Z" fill="white"/>
<path d="M45.0195 116.431L48.9068 114.432L45.0195 116.978V116.431Z" fill="#00AAFF"/>
<path d="M45.0195 118.565L64.5422 107.656L45.0195 119.27V118.565Z" fill="#00AAFF"/>
<path d="M118.797 76.0605L105.206 84.1722L118.797 76.5886V76.0605Z" fill="#00AAFF"/>
<path d="M118.8 78.3145L111.033 83.0481L118.797 78.8163L118.8 78.3145Z" fill="#00AAFF"/>
<path d="M38.5928 72.9936L76.7656 95.0367L88.4125 88.3144L50.2397 66.2676L38.5928 72.9936Z" fill="#FAFAFA"/>
<path d="M88.4136 88.3145V99.8528L76.7666 106.575V95.0367L88.4136 88.3145Z" fill="#EBEBEB"/>
<path d="M76.7666 106.575L76.085 106.182L76.7666 105.785V106.575Z" fill="#E0E0E0"/>
<path d="M38.5928 72.9941V74.4847L39.8811 73.7394L38.5928 72.9941Z" fill="#E0E0E0"/>
<g opacity="0.3">
<path d="M76.085 106.173V95.4321L76.7666 95.0352V105.78L76.085 106.173Z" fill="black"/>
</g>
<g opacity="0.2">
<path d="M76.0847 95.4331L39.2002 74.1315L39.8818 73.7383L76.7663 95.0361L76.0847 95.4331Z" fill="black"/>
</g>
<path d="M39.8477 72.2709L78.0242 94.3102L78.9942 93.7522L40.8176 71.7129L39.8477 72.2709Z" fill="#21BEE8"/>
<path d="M48.0049 67.5639L86.1852 89.6032L87.1551 89.0452L48.9786 67.0059L48.0049 67.5639Z" fill="#21BEE8"/>
<path d="M78.0244 94.31V105.848L78.9944 105.287V93.752L78.0244 94.31Z" fill="#00AAFF"/>
<path d="M86.1846 89.6029V101.138L87.1583 100.576L87.1545 89.0449L86.1846 89.6029Z" fill="#00AAFF"/>
<path opacity="0.15" d="M113.291 69.3366L41.0719 111.033V121.838L8.13086 102.817V92.0725L80.4019 50.3457L113.291 69.3366Z" fill="black"/>
<path d="M0.194336 79.8965V90.6446L37.0826 111.942V101.194L0.194336 79.8965Z" fill="#00AAFF"/>
<path opacity="0.2" d="M0.194336 79.8965V90.6446L37.0826 111.942V101.194L0.194336 79.8965Z" fill="black"/>
<g opacity="0.3">
<path d="M37.0833 104.262L25.4326 97.7832L37.0833 104.805V104.262Z" fill="black"/>
<path d="M0.195312 85.2266L4.07888 87.6945L0.195312 85.6797V85.2266Z" fill="black"/>
<path d="M0.195312 87.3652L19.6057 98.8998L0.195312 88.0244V87.3652Z" fill="black"/>
<path d="M37.084 106.398L17.6699 95.541L37.084 107.102V106.398Z" fill="black"/>
</g>
<path d="M37.083 111.944L110.86 69.3517V58.6035L37.083 101.195V111.944Z" fill="#00AAFF"/>
<path opacity="0.2" d="M37.083 111.944L110.86 69.3517V58.6035L37.083 101.195V111.944Z" fill="white"/>
<g opacity="0.8">
<path d="M37.083 104.262L40.9703 102.262L37.083 104.805V104.262Z" fill="#00AAFF"/>
<path d="M37.083 106.396L56.6057 95.4863L37.083 107.1V106.396Z" fill="#00AAFF"/>
<path d="M110.859 63.8906L97.2686 71.9986L110.859 64.4187V63.8906Z" fill="#00AAFF"/>
<path d="M110.86 66.1445L103.093 70.8782L110.86 66.6464V66.1445Z" fill="#00AAFF"/>
</g>
<path d="M0.194336 79.8966L73.9709 37.3047L110.859 58.6025L37.0826 101.194L0.194336 79.8966Z" fill="#00AAFF"/>
<path opacity="0.4" d="M0.194336 79.8966L73.9709 37.3047L110.859 58.6025L37.0826 101.194L0.194336 79.8966Z" fill="white"/>
<path d="M73.971 39.5449L4.07422 79.8973L37.0789 98.9557L106.979 58.6032L73.971 39.5449ZM37.0789 97.8321L6.01787 79.8973L73.971 40.6684L105.054 58.6032L37.0789 97.8321Z" fill="#00AAFF"/>
<path d="M41.7726 77.3833C38.4695 75.4771 36.6494 72.8893 36.6494 70.0469C36.6494 66.9647 38.8702 63.9126 42.7425 61.6805C50.3262 57.2989 62.2353 57.048 69.2834 61.1188C72.5865 63.025 74.4065 65.6128 74.4065 68.4552C74.4065 71.5374 72.1858 74.5896 68.3134 76.8216C64.3362 79.1173 59.1756 80.2782 54.1498 80.2782C49.5959 80.2782 45.1281 79.3157 41.7726 77.3833ZM43.0721 62.2498C39.4132 64.3657 37.3123 67.2044 37.3123 70.0469C37.3123 72.6234 39.0125 75.0277 42.1021 76.8103C48.9705 80.7763 60.58 80.5254 67.9839 76.2523C71.6427 74.1364 73.7437 71.2977 73.7437 68.4552C73.7437 65.8787 72.0434 63.4744 68.9538 61.6918C65.6882 59.8193 61.3515 58.8718 56.9061 58.8718C51.9964 58.8718 46.9744 60.0103 43.0721 62.2498Z" fill="#00AAFF"/>
<g opacity="0.5">
<path d="M42.9656 75.3139C40.434 73.8533 39.0371 71.9846 39.0371 70.0484C39.0371 67.8426 40.8235 65.5544 43.9356 63.7493C47.3997 61.7495 52.1259 60.6035 56.9045 60.6035C61.2263 60.6035 65.1997 61.521 68.0871 63.1876C70.6187 64.6519 72.0119 66.5206 72.0119 68.4568C72.0119 70.6626 70.2292 72.9508 67.1171 74.7559C63.653 76.7557 58.9268 77.9017 54.1519 77.9017C49.8227 77.9017 45.8493 76.9804 42.9656 75.3139Z" fill="#00AAFF"/>
</g>
<path opacity="0.5" d="M38.8619 92.6706C38.3101 92.3926 37.7008 92.2479 37.083 92.2479C36.4652 92.2479 35.8559 92.3926 35.3041 92.6706L33.1994 93.8839L12.9764 82.2744L15.4144 80.87C15.5979 80.8204 15.76 80.7118 15.8756 80.5608C15.9912 80.4099 16.0538 80.225 16.0538 80.0349C16.0538 79.8448 15.9912 79.66 15.8756 79.509C15.76 79.3581 15.5979 79.2494 15.4144 79.1998L12.9727 77.8179L35.1805 64.9238L34.7461 65.8713C34.2134 67.01 33.9336 68.2506 33.926 69.5077C33.926 73.1216 37.5474 76.8292 41.1388 78.9002C44.3408 80.7502 49.9433 82.6152 55.2463 82.6152C56.7088 82.6158 58.1699 82.5219 59.6204 82.3343L61.2457 82.1284L40.9815 93.8914L38.8619 92.6706Z" fill="#00AAFF"/>
<g opacity="0.4">
<path d="M29.0658 84.9629C28.2232 84.476 27.7588 83.7982 27.7588 83.0529C27.7588 82.2515 28.3168 81.4688 29.2867 80.907C31.1031 79.8584 33.9568 79.8022 35.6533 80.7797C36.4959 81.2628 36.9565 81.9406 36.9565 82.6859C36.9565 83.4911 36.4023 84.27 35.4286 84.8318C34.3938 85.3899 33.2337 85.6748 32.0581 85.6594C31.0174 85.6873 29.9871 85.4475 29.0658 84.9629Z" fill="white"/>
</g>
<path opacity="0.5" d="M76.2482 72.6323C76.7934 71.2167 77.0813 69.7151 77.0983 68.1983C77.0983 65.2022 74.7314 62.2999 70.0614 59.6035C66.3164 57.4426 60.5866 55.9933 55.778 55.9933C54.3143 55.9931 52.8521 56.0857 51.4001 56.2704L49.7598 56.4839L70.0352 44.8145L72.1399 46.0316C72.6917 46.3049 73.2992 46.4471 73.915 46.4471C74.5308 46.4471 75.1383 46.3049 75.6902 46.0316L77.7949 44.8145L97.9879 56.3154L95.5499 57.7272C95.3664 57.7768 95.2043 57.8855 95.0887 58.0365C94.9732 58.1874 94.9105 58.3722 94.9105 58.5624C94.9105 58.7525 94.9732 58.9373 95.0887 59.0883C95.2043 59.2392 95.3664 59.3479 95.5499 59.3975L97.9879 60.8019L75.81 73.5686L76.2482 72.6323Z" fill="#00AAFF"/>
<g opacity="0.4">
<path d="M75.4916 58.2657C74.6489 57.7788 74.1846 57.101 74.1846 56.3557C74.1846 55.5505 74.7426 54.7716 75.7163 54.2098C77.5289 53.1612 80.3825 53.0863 82.0828 54.0787C82.9254 54.5656 83.3898 55.2434 83.3898 55.9887C83.3898 56.7939 82.8318 57.5728 81.8618 58.1346C80.8268 58.6921 79.6669 58.9769 78.4913 58.9622C77.4483 58.9904 76.4155 58.7506 75.4916 58.2657Z" fill="white"/>
</g>
<path opacity="0.15" d="M31.9454 61.5684L2.73438 80.1174C13.0182 86.7011 24.6089 93.487 37.3157 100.441L68.8337 82.8662L31.9454 61.5684Z" fill="black"/>
<path d="M31.9561 61.5645C21.8446 67.0883 11.0777 70.927 0 74.1552C11.4156 83.8341 23.8467 92.2471 37.0755 99.2467C45.0898 96.0559 58.6842 88.5734 64.5227 85.3078C68.6646 82.9447 68.8257 82.8623 68.8257 82.8623L31.9561 61.5645Z" fill="#00AAFF"/>
<path opacity="0.4" d="M31.9561 61.5645C21.8446 67.0883 11.0777 70.927 0 74.1552C11.4156 83.8341 23.8467 92.2471 37.0755 99.2467C45.0898 96.0559 58.6842 88.5734 64.5227 85.3078C68.6646 82.9447 68.8257 82.8623 68.8257 82.8623L31.9561 61.5645Z" fill="white"/>
<path d="M65.9421 81.1637C56.4448 86.6689 47.0148 92.1104 36.8471 96.301C25.8855 90.4775 15.2048 83.0624 5.70744 75.6848C15.8638 72.6786 25.6412 68.5156 34.8473 63.2776L33.8923 62.6934C24.4175 68.1461 14.497 72.5128 3.87988 75.1979C13.5345 83.3545 25.2264 91.0693 36.7985 97.2635C47.2845 92.9305 57.0889 87.4029 66.9045 81.7255L65.9421 81.1637Z" fill="#00AAFF"/>
<path d="M61.6651 78.7286C54.8305 80.3239 48.1831 79.8521 43.1236 77.3542C40.1276 75.8749 38.0491 74.1634 37.3788 70.9352C36.9518 68.883 38.2701 66.7333 39.0003 65.636L38.4273 65.3027C37.5398 66.6809 36.3077 69.014 36.7271 71.0476C37.4312 74.4668 39.064 76.0734 42.4869 77.9009C45.8199 79.6216 49.5258 80.4938 53.2763 80.44C57.9725 80.44 60.418 79.8633 62.474 79.2042L61.6651 78.7286Z" fill="#00AAFF"/>
<g opacity="0.5">
<path d="M40.5097 66.5078C39.697 67.3392 38.8694 69.0919 39.0454 70.1966C39.4536 72.8181 41.0152 74.0353 43.6555 75.4808C46.5841 77.08 49.6475 77.9001 54.3774 77.9638C56.069 77.9267 57.7547 77.7526 59.4182 77.4432L40.5097 66.5078Z" fill="#00AAFF"/>
</g>
<path opacity="0.5" d="M59.1298 82.559C57.6572 82.7509 56.1687 82.7885 54.6883 82.6714C50.2111 82.4105 45.849 81.1514 41.9215 78.9863C37.5886 76.5857 34.4315 74.1178 34.1581 69.5826C34.0719 68.3807 34.243 67.1741 34.66 66.0436C34.9708 65.2946 35.1431 64.9688 35.1431 64.9688C27.7055 69.2905 21.3053 72.6685 13.0476 75.2188C13.8224 75.6783 14.5724 76.1783 15.2946 76.7168C15.7365 77.0464 16.1709 77.3535 16.066 77.8403C15.9799 78.2148 15.4331 78.4133 14.9762 78.5893C14.2984 78.8515 13.8115 79.0163 12.9502 79.2747C19.3167 83.7687 25.0765 88.7121 32.8811 92.5657C33.5643 92.1891 34.2948 91.9057 35.0532 91.7231C36.3025 91.4416 37.6077 91.5434 38.7982 92.0152C39.5554 92.3167 40.2694 92.7172 40.9216 93.2061C48.0896 90.24 54.6471 86.2142 61.2121 82.1358C60.5283 82.3236 59.8326 82.4649 59.1298 82.559Z" fill="#00AAFF"/>
<g opacity="0.4">
<path d="M35.4702 80.8147C33.5231 80.0964 31.3974 80.019 29.4033 80.5938C28.3696 80.8784 27.8678 81.2716 27.7517 82.2491C27.6356 83.2265 28.2348 83.601 29.04 84.1216C29.935 84.6512 30.9367 84.9749 31.9723 85.0691C33.0714 85.1921 34.1839 85.0482 35.2155 84.6496C36.1443 84.2339 36.7622 83.6984 36.7959 82.706C36.8296 81.7135 36.4139 81.1892 35.4702 80.8147Z" fill="white"/>
</g>
<path d="M30.6562 60.8237L68.8291 82.8668L80.476 76.1445L42.3032 54.0977L30.6562 60.8237Z" fill="#FAFAFA"/>
<path d="M80.4761 76.1445V87.6791L68.8291 94.4052V82.8668L80.4761 76.1445Z" fill="#EBEBEB"/>
<path d="M68.83 94.4054L68.1484 94.0085L68.83 93.6152V94.4054Z" fill="#E0E0E0"/>
<path d="M30.6562 60.8242V62.2623L31.9445 61.5695L30.6562 60.8242Z" fill="#E0E0E0"/>
<g opacity="0.3">
<path d="M68.1475 94.0048V83.2642L68.8291 82.8672V93.6116L68.1475 94.0048Z" fill="black"/>
</g>
<g opacity="0.2">
<path d="M68.1481 83.2632L31.2373 61.9466L31.9451 61.5684L68.8296 82.8662L68.1481 83.2632Z" fill="black"/>
</g>
<path d="M31.9111 60.101L70.0877 82.1403L71.0576 81.5786L32.8811 59.543L31.9111 60.101Z" fill="#21BEE8"/>
<path d="M40.0684 55.3939L78.2487 77.4333L79.2149 76.8715L41.0421 54.8359L40.0684 55.3939Z" fill="#21BEE8"/>
<path d="M70.0879 82.1399V93.6782L71.0578 93.1165V81.5781L70.0879 82.1399Z" fill="#00AAFF"/>
<path d="M78.248 77.4328V88.9674L79.218 88.4057L79.2143 76.8711L78.248 77.4328Z" fill="#00AAFF"/>
</svg>
