<svg width="155" height="124" viewBox="0 0 218 128" fill="none" xmlns="http://www.w3.org/2000/svg">
<path d="M217.237 127.628C217.237 127.673 168.603 127.712 108.623 127.712C48.6434 127.712 0 127.673 0 127.628C0 127.582 48.624 127.543 108.623 127.543C168.623 127.543 217.237 127.579 217.237 127.628Z" fill="#00AAFF"/>
<path d="M26.7164 14.5303H191.318C191.896 14.5303 192.451 14.76 192.86 15.169C193.269 15.5779 193.498 16.1326 193.498 16.7109V121.763C193.498 123.012 193.001 124.209 192.118 125.093C191.234 125.976 190.037 126.472 188.788 126.473H28.9229C27.6727 126.473 26.4737 125.977 25.5897 125.093C24.7056 124.208 24.209 123.009 24.209 121.759V17.0344C24.2098 16.37 24.4744 15.7331 24.9445 15.2635C25.4147 14.794 26.0519 14.5303 26.7164 14.5303Z" fill="#00AAFF"/>
<path d="M17.1309 118.197H200.543V123.561C200.543 124.739 200.075 125.868 199.242 126.7C198.41 127.533 197.281 128 196.104 128H21.5697C20.3925 128 19.2634 127.533 18.431 126.7C17.5985 125.868 17.1309 124.739 17.1309 123.561V118.197Z" fill="#00AAFF"/>
<path d="M188.481 18.9722H28.752V113.512H188.481V18.9722Z" fill="white"/>
<path d="M92.1641 118.197L94.4417 121.818H126.468L128.581 118.197H92.1641Z" fill="#00AAFF"/>
<path d="M193.529 118.162H24.2363V118.702H193.529V118.162Z" fill="#00AAFF"/>
<path d="M73.9799 14.5306H56.3926V8.33164C56.3926 3.96069 59.9353 0.262695 64.3062 0.262695L73.9799 0.414756V14.5306Z" fill="#E0E0E0"/>
<path d="M63.9277 0.253031C63.9277 0.253031 73.9379 -0.656099 73.9379 12.3985V113.94H152.492V8.70699C152.492 7.57276 152.268 6.44975 151.833 5.40219C151.398 4.35463 150.761 3.40308 149.958 2.60197C149.155 1.80085 148.202 1.16589 147.153 0.733418C146.105 0.300942 144.981 0.0794317 143.847 0.0815581L63.9277 0.253031Z" fill="white"/>
<path d="M63.9275 0.252414L122.044 0.0647643L136.118 0.0259393L143.601 0.003292C144.912 -0.0327067 146.214 0.226926 147.411 0.762926C148.608 1.29893 149.669 2.09754 150.515 3.09952C151.381 4.13098 151.995 5.3492 152.311 6.6584C152.394 6.98732 152.455 7.32126 152.495 7.65812C152.54 7.98165 152.537 8.3343 152.56 8.67402C152.56 9.34912 152.56 10.0285 152.56 10.7123C152.56 13.4364 152.56 16.2048 152.56 19.0174C152.56 24.6361 152.56 30.4155 152.56 36.3556C152.56 60.0836 152.56 86.1799 152.56 113.551V114.023H152.476H73.9215H73.8438V113.946C73.8438 78.7904 73.8665 48.9379 73.8762 27.8855C73.8762 22.6183 73.8762 17.9012 73.8762 13.7891C73.8762 12.7603 73.8762 11.7702 73.8179 10.8223C73.7613 9.91252 73.6359 9.00835 73.4426 8.11754C73.2568 7.30577 72.9991 6.51214 72.6726 5.74603C72.3654 5.0618 71.9881 4.41125 71.5467 3.80482C70.7909 2.79628 69.8222 1.96669 68.7093 1.37508C67.8963 0.945047 67.0241 0.6376 66.1211 0.462712C65.5733 0.351375 65.0169 0.288581 64.4581 0.275061C64.0828 0.275061 63.8887 0.275061 63.8887 0.275061C64.0783 0.26375 64.2685 0.26375 64.4581 0.275061C65.0186 0.284389 65.5772 0.342849 66.1275 0.44977C67.0302 0.622433 67.9024 0.927703 68.7158 1.35567C69.8363 1.94532 70.8121 2.77628 71.5726 3.78865C72.0179 4.39489 72.3995 5.04539 72.7115 5.72985C73.0412 6.499 73.3021 7.29585 73.4912 8.11107C73.6868 9.00495 73.8144 9.91236 73.8729 10.8255C73.9441 11.7767 73.9344 12.7667 73.9344 13.7956C73.9344 17.9077 73.9344 22.6248 73.9344 27.892C73.9344 48.9573 73.9506 78.8098 73.9635 113.952L73.8859 113.878H152.44L152.356 113.962V113.574C152.356 86.1929 152.356 60.1063 152.356 36.3783C152.356 30.4446 152.356 24.6652 152.356 19.0401V10.7123C152.337 9.3502 152.456 7.98489 152.113 6.69075C151.818 5.4144 151.235 4.2225 150.408 3.20628C149.578 2.21991 148.536 1.43339 147.359 0.905192C146.183 0.376993 144.903 0.120696 143.614 0.155354H136.114L122.018 0.178001L63.9275 0.252414Z" fill="#00AAFF"/>
<path d="M107.562 31.069C107.562 31.1143 102.784 31.1531 96.8856 31.1531C90.9876 31.1531 86.209 31.1143 86.209 31.069C86.209 31.0237 90.9844 30.9849 96.8856 30.9849C102.787 30.9849 107.562 31.0302 107.562 31.069Z" fill="#00AAFF"/>
<path d="M112.345 33.6183C112.345 33.6668 106.499 33.7024 99.2844 33.7024C92.0696 33.7024 86.2266 33.6668 86.2266 33.6183C86.2266 33.5698 92.0728 33.5342 99.2844 33.5342C106.496 33.5342 112.345 33.573 112.345 33.6183Z" fill="#00AAFF"/>
<path d="M114.06 43.6637C114.06 43.709 108.023 43.7478 100.575 43.7478C93.127 43.7478 87.0898 43.709 87.0898 43.6637C87.0898 43.6184 93.127 43.5796 100.575 43.5796C108.023 43.5796 114.06 43.6152 114.06 43.6637Z" fill="#00AAFF"/>
<path d="M131.676 53.4547C131.676 53.5 121.581 53.5388 109.132 53.5388C96.6822 53.5388 86.5879 53.5 86.5879 53.4547C86.5879 53.4094 96.6789 53.3706 109.132 53.3706C121.585 53.3706 131.676 53.4062 131.676 53.4547Z" fill="#00AAFF"/>
<path d="M131.676 56.3732C131.676 56.4217 121.581 56.4573 109.132 56.4573C96.6822 56.4573 86.5879 56.4217 86.5879 56.3732C86.5879 56.3246 96.6789 56.2891 109.132 56.2891C121.585 56.2891 131.676 56.3279 131.676 56.3732Z" fill="#00AAFF"/>
<path d="M131.676 59.2941C131.676 59.3426 121.581 59.3782 109.132 59.3782C96.6822 59.3782 86.5879 59.3426 86.5879 59.2941C86.5879 59.2455 96.6789 59.21 109.132 59.21C121.585 59.21 131.676 59.2488 131.676 59.2941Z" fill="#00AAFF"/>
<path d="M131.676 62.216C131.676 62.2612 121.581 62.3001 109.132 62.3001C96.6822 62.3001 86.5879 62.2612 86.5879 62.216C86.5879 62.1707 96.6789 62.1318 109.132 62.1318C121.585 62.1318 131.676 62.1707 131.676 62.216Z" fill="#00AAFF"/>
<path d="M131.676 65.1373C131.676 65.1826 121.581 65.2215 109.132 65.2215C96.6822 65.2215 86.5879 65.1826 86.5879 65.1373C86.5879 65.092 96.6789 65.0532 109.132 65.0532C121.585 65.0532 131.676 65.0888 131.676 65.1373Z" fill="#00AAFF"/>
<path d="M103.687 68.0587C103.687 68.104 99.856 68.1428 95.1357 68.1428C90.4153 68.1428 86.5879 68.104 86.5879 68.0587C86.5879 68.0134 90.4153 67.9746 95.1357 67.9746C99.856 67.9746 103.687 68.0102 103.687 68.0587Z" fill="#00AAFF"/>
<path d="M93.6993 15.9793C93.6969 15.7289 93.7464 15.4807 93.8446 15.2503C93.9428 15.0199 94.0876 14.8123 94.2699 14.6406C94.4523 14.4689 94.6682 14.3368 94.904 14.2526C95.1399 14.1684 95.3907 14.1339 95.6405 14.1514C95.9251 14.136 96.2094 14.1864 96.4715 14.2987C96.7335 14.4109 96.9661 14.5819 97.1514 14.7984L96.5205 15.3711C96.4234 15.2435 96.2981 15.14 96.1545 15.0687C96.0108 14.9975 95.8526 14.9603 95.6923 14.9602C95.4263 14.9602 95.1712 15.0659 94.9831 15.254C94.795 15.4421 94.6893 15.6972 94.6893 15.9632C94.6893 16.2292 94.795 16.4843 94.9831 16.6724C95.1712 16.8605 95.4263 16.9661 95.6923 16.9661C95.8526 16.966 96.0108 16.9289 96.1545 16.8576C96.2981 16.7863 96.4234 16.6828 96.5205 16.5552L97.1514 17.1246C96.9677 17.3442 96.7358 17.5182 96.4737 17.6333C96.2116 17.7483 95.9264 17.8013 95.6405 17.7879C95.3923 17.8052 95.1432 17.7713 94.9086 17.6882C94.6741 17.6052 94.4591 17.4749 94.2771 17.3052C94.095 17.1356 93.9498 16.9304 93.8504 16.7023C93.751 16.4742 93.6996 16.2281 93.6993 15.9793Z" fill="#00AAFF"/>
<path d="M100.4 16.9662V17.733H97.582V14.2227H100.335V14.9894H98.5623V15.5815H100.125V16.3256H98.5623V16.9727L100.4 16.9662Z" fill="#00AAFF"/>
<path d="M102.487 16.7948H101.946V17.7265H100.953V14.2227H102.571C103.541 14.2227 104.13 14.7177 104.13 15.5168C104.139 15.7489 104.078 15.9783 103.955 16.1755C103.832 16.3726 103.653 16.5286 103.441 16.6233L104.201 17.7265H103.137L102.487 16.7948ZM102.487 14.9991H101.937V16.028H102.487C102.898 16.028 103.105 15.8371 103.105 15.5168C103.105 15.1965 102.907 15.0056 102.496 15.0056L102.487 14.9991Z" fill="#00AAFF"/>
<path d="M105.361 15.0088H104.283V14.2227H107.428V15.0088H106.354V17.733H105.361V15.0088Z" fill="#00AAFF"/>
<path d="M107.799 14.2227H108.792V17.733H107.799V14.2227Z" fill="#00AAFF"/>
<path d="M110.495 14.9894V15.7627H112.045V16.5295H110.495V17.733H109.502V14.2227H112.255V14.9894H110.495Z" fill="#00AAFF"/>
<path d="M112.721 14.2227H113.714V17.733H112.721V14.2227Z" fill="#00AAFF"/>
<path d="M114.24 15.9796C114.238 15.7293 114.288 15.4813 114.387 15.2511C114.485 15.021 114.63 14.8136 114.812 14.642C114.994 14.4704 115.21 14.3383 115.446 14.2539C115.681 14.1695 115.932 14.1347 116.181 14.1516C116.466 14.1363 116.749 14.1867 117.011 14.299C117.272 14.4112 117.505 14.5822 117.689 14.7987L117.058 15.3713C116.961 15.2435 116.836 15.1399 116.692 15.0687C116.549 14.9974 116.39 14.9603 116.23 14.9605C115.964 14.9605 115.709 15.0661 115.521 15.2542C115.333 15.4423 115.227 15.6974 115.227 15.9634C115.227 16.2294 115.333 16.4845 115.521 16.6726C115.709 16.8607 115.964 16.9664 116.23 16.9664C116.39 16.9665 116.549 16.9295 116.692 16.8582C116.836 16.7869 116.961 16.6833 117.058 16.5555L117.689 17.1249C117.506 17.3444 117.275 17.5184 117.013 17.6335C116.752 17.7486 116.467 17.8015 116.181 17.7882C115.059 17.8043 114.24 17.0473 114.24 15.9796Z" fill="#00AAFF"/>
<path d="M120.413 17.0503H118.932L118.653 17.733H117.641L119.19 14.2227H120.161L121.714 17.733H120.682L120.413 17.0503ZM120.125 16.3192L119.672 15.1965L119.219 16.3192H120.125Z" fill="#00AAFF"/>
<path d="M122.577 15.0088H121.5V14.2227H124.645V15.0088H123.571V17.733H122.577V15.0088Z" fill="#00AAFF"/>
<path d="M125.014 14.2227H126.007V17.733H125.014V14.2227Z" fill="#00AAFF"/>
<path d="M126.535 15.9793C126.535 14.9246 127.363 14.1514 128.476 14.1514C129.589 14.1514 130.418 14.9246 130.418 15.9793C130.418 17.0341 129.589 17.8041 128.476 17.8041C127.363 17.8041 126.535 17.0308 126.535 15.9793ZM129.447 15.9793C129.436 15.7946 129.372 15.617 129.261 15.4685C129.151 15.32 128.999 15.2071 128.825 15.1437C128.651 15.0803 128.463 15.0692 128.283 15.1118C128.103 15.1543 127.939 15.2487 127.812 15.3832C127.685 15.5177 127.6 15.6865 127.567 15.8687C127.535 16.0509 127.557 16.2386 127.63 16.4087C127.703 16.5787 127.824 16.7236 127.979 16.8256C128.133 16.9275 128.314 16.982 128.499 16.9823C128.628 16.9822 128.755 16.9556 128.873 16.9042C128.991 16.8529 129.097 16.7779 129.184 16.6838C129.272 16.5898 129.339 16.4787 129.382 16.3575C129.425 16.2363 129.443 16.1076 129.434 15.9793H129.447Z" fill="#00AAFF"/>
<path d="M134.3 14.2227V17.733H133.481L131.932 15.863V17.733H130.961V14.2227H131.776L133.326 16.0927V14.2227H134.3Z" fill="#00AAFF"/>
<path d="M138.279 80.3888C138.279 80.4341 133.801 80.4729 128.282 80.4729C122.762 80.4729 118.281 80.4341 118.281 80.3888C118.281 80.3435 122.759 80.3047 128.282 80.3047C133.804 80.3047 138.279 80.3435 138.279 80.3888Z" fill="#00AAFF"/>
<path d="M138.279 83.2097C138.279 83.255 133.801 83.2939 128.282 83.2939C122.762 83.2939 118.281 83.255 118.281 83.2097C118.281 83.1644 122.749 83.1191 128.285 83.1191C133.821 83.1191 138.279 83.1644 138.279 83.2097Z" fill="#00AAFF"/>
<path d="M136.954 95.4689C136.949 95.4215 136.949 95.3738 136.954 95.3265C136.954 95.2262 136.937 95.0903 136.925 94.9156C136.925 94.825 136.918 94.7247 136.905 94.6147C136.905 94.5015 136.87 94.3818 136.85 94.2524C136.81 93.9507 136.748 93.6523 136.666 93.3594C136.462 92.5496 136.134 91.7759 135.695 91.0656C134.668 89.3482 133.075 88.0426 131.19 87.3735C129.304 86.7044 127.244 86.7137 125.365 87.3999C124.981 87.5382 124.607 87.7025 124.245 87.8917C123.879 88.0933 123.527 88.3192 123.19 88.5679C122.849 88.8225 122.525 89.0992 122.22 89.3961C121.918 89.7096 121.637 90.0425 121.379 90.3926C120.845 91.1094 120.431 91.9081 120.152 92.7576C119.561 94.5157 119.561 96.4188 120.152 98.1768C120.431 99.0264 120.845 99.8251 121.379 100.542C121.637 100.892 121.918 101.225 122.22 101.538C122.525 101.835 122.849 102.112 123.19 102.367C123.851 102.866 124.584 103.261 125.365 103.538C126.806 104.061 128.36 104.191 129.868 103.916C131.07 103.692 132.21 103.215 133.214 102.517C134.218 101.819 135.062 100.917 135.692 99.8689C136.131 99.1586 136.458 98.3849 136.662 97.5751C136.745 97.2823 136.807 96.9838 136.847 96.6821C136.866 96.5527 136.889 96.433 136.902 96.323C136.915 96.213 136.902 96.1095 136.921 96.0189C136.921 95.8442 136.944 95.6953 136.95 95.608C136.945 95.5617 136.945 95.5151 136.95 95.4689C136.955 95.5151 136.955 95.5617 136.95 95.608V96.0221C136.95 96.1127 136.95 96.2162 136.95 96.3262C136.95 96.4362 136.921 96.5592 136.902 96.6918C136.869 96.9955 136.813 97.2963 136.734 97.5912C136.54 98.4106 136.222 99.1952 135.789 99.9175C134.759 101.668 133.149 103.003 131.238 103.691C129.327 104.379 127.235 104.376 125.326 103.683C124.934 103.544 124.553 103.377 124.184 103.185C123.809 102.982 123.45 102.752 123.11 102.496C122.759 102.238 122.426 101.957 122.113 101.655C121.805 101.336 121.519 100.996 121.256 100.639C120.711 99.9086 120.288 99.0946 120.004 98.2286C119.4 96.4372 119.4 94.4973 120.004 92.7059C120.288 91.8402 120.711 91.0262 121.256 90.2955C121.519 89.9385 121.806 89.6002 122.116 89.2829C122.428 88.9796 122.76 88.6975 123.11 88.4385C124.091 87.7137 125.214 87.2033 126.405 86.9402C127.596 86.6772 128.83 86.6673 130.025 86.9113C131.221 87.1554 132.351 87.6478 133.344 88.3567C134.337 89.0657 135.17 89.9753 135.789 91.0267C136.221 91.7492 136.54 92.5338 136.734 93.3529C136.813 93.649 136.87 93.9508 136.902 94.2556C136.921 94.3883 136.941 94.508 136.95 94.618C136.96 94.728 136.95 94.8315 136.95 94.9253V95.3362C136.955 95.3803 136.956 95.4246 136.954 95.4689Z" fill="#00AAFF"/>
<path d="M133.698 96.7527C134.41 93.7593 132.56 90.7554 129.567 90.0434C126.573 89.3314 123.57 91.1808 122.858 94.1742C122.146 97.1676 123.995 100.171 126.988 100.883C129.982 101.596 132.986 99.7461 133.698 96.7527Z" fill="#00AAFF"/>
<path d="M140.674 90.6709L140.441 90.8003L139.745 91.1691L137.069 92.5636L132.841 94.7668C132.411 94.9907 131.946 95.1395 131.466 95.2068C131.204 95.2397 130.939 95.2168 130.687 95.1399C130.435 95.063 130.202 94.9336 130.003 94.7604C129.792 94.5778 129.642 94.3351 129.573 94.0648C129.534 93.9237 129.53 93.7751 129.562 93.6322C129.594 93.4893 129.661 93.3567 129.758 93.2462C129.959 93.0254 130.239 92.8909 130.537 92.8709C130.694 92.8498 130.853 92.8799 130.99 92.957C131.128 93.034 131.237 93.1537 131.301 93.298V93.3206C131.309 94.2548 130.977 95.16 130.366 95.8669C130.047 96.249 129.652 96.5611 129.207 96.7838C128.761 97.0065 128.275 97.1349 127.778 97.161C127.253 97.1892 126.728 97.1118 126.234 96.9334C125.74 96.755 125.287 96.4792 124.901 96.1225C124.484 95.7572 124.194 95.2689 124.073 94.728C124.017 94.4431 124.056 94.1478 124.183 93.8868C124.312 93.6197 124.536 93.4099 124.811 93.298C124.953 93.2434 125.107 93.2257 125.258 93.2466C125.409 93.2675 125.552 93.3264 125.675 93.4177C125.908 93.6037 126.078 93.8566 126.163 94.1424C126.255 94.4187 126.3 94.7086 126.296 94.9998C126.309 95.144 126.309 95.2891 126.296 95.4333C126.289 95.5791 126.27 95.724 126.241 95.8669C126.013 97.0434 125.373 98.1001 124.435 98.8466C123.963 99.2381 123.414 99.5267 122.823 99.6938C122.233 99.861 121.614 99.903 121.006 99.8172C119.754 99.6073 118.63 98.9238 117.868 97.9084C117.423 97.339 117.115 96.6748 116.968 95.9672C116.81 95.2639 116.865 94.5293 117.127 93.8577C117.269 93.5217 117.511 93.2372 117.819 93.0424C118.132 92.8491 118.506 92.7787 118.867 92.8451C119.045 92.8854 119.211 92.9643 119.354 93.0761C119.497 93.188 119.614 93.33 119.696 93.4921C119.853 93.7986 119.969 94.1251 120.039 94.4627C120.342 95.7706 120.259 97.1387 119.799 98.4001C119.364 99.6147 118.524 100.643 117.421 101.312C116.372 101.952 115.138 102.222 113.917 102.079C113.335 102.008 112.771 101.826 112.258 101.542C111.761 101.261 111.321 100.889 110.963 100.445C110.272 99.6094 109.894 98.5592 109.893 97.4748C109.903 96.9646 110.013 96.4613 110.216 95.993C110.303 95.7612 110.437 95.5499 110.61 95.3723C110.782 95.1947 110.99 95.0547 111.219 94.961C111.452 94.8884 111.701 94.8817 111.937 94.9416C112.159 95.0146 112.362 95.1374 112.529 95.3007C112.841 95.6153 113.075 95.9987 113.212 96.4201C113.352 96.8093 113.426 97.2196 113.429 97.6334C113.429 97.8339 113.429 98.0281 113.429 98.2222C113.429 98.4163 113.413 98.604 113.393 98.7884C113.272 100.059 112.901 101.294 112.303 102.422C111.927 103.133 111.461 103.793 110.918 104.386C110.734 104.589 110.578 104.732 110.475 104.829C110.371 104.926 110.316 104.971 110.316 104.971C110.316 104.971 110.365 104.916 110.465 104.816C110.566 104.716 110.711 104.57 110.892 104.363C111.421 103.763 111.875 103.101 112.245 102.393C112.827 101.269 113.185 100.042 113.299 98.7819C113.319 98.5975 113.329 98.4098 113.332 98.219C113.335 98.0281 113.332 97.834 113.332 97.6366C113.326 97.2336 113.253 96.8344 113.115 96.4557C112.985 96.0534 112.764 95.6867 112.468 95.3848C112.313 95.2363 112.126 95.1256 111.921 95.0613C111.708 95.0078 111.484 95.0146 111.274 95.0807C111.061 95.1702 110.869 95.3025 110.709 95.4695C110.549 95.6365 110.426 95.8345 110.346 96.0513C110.157 96.5047 110.057 96.9902 110.051 97.4813C110.058 98.5343 110.428 99.5528 111.099 100.364C111.449 100.801 111.881 101.165 112.371 101.435C112.861 101.705 113.4 101.875 113.956 101.936C115.144 102.073 116.343 101.809 117.363 101.186C118.436 100.531 119.251 99.5269 119.67 98.3419C120.118 97.1103 120.198 95.7746 119.899 94.4983C119.835 94.1754 119.726 93.863 119.576 93.5698C119.506 93.4269 119.404 93.3015 119.28 93.2025C119.155 93.1034 119.01 93.0333 118.854 92.9971C118.534 92.939 118.204 93.0037 117.929 93.1783C117.648 93.3527 117.429 93.6122 117.305 93.9192C117.055 94.5577 117.003 95.2567 117.156 95.9251C117.298 96.6082 117.596 97.2493 118.026 97.7984C118.763 98.7774 119.847 99.4373 121.055 99.6425C121.64 99.7222 122.236 99.6791 122.804 99.5159C123.372 99.3527 123.9 99.073 124.355 98.6946C125.262 97.9741 125.882 96.9527 126.102 95.8151C126.153 95.54 126.175 95.2601 126.166 94.9804C126.172 94.7057 126.13 94.4322 126.043 94.1715C125.967 93.9182 125.817 93.693 125.613 93.5245C125.512 93.4493 125.393 93.4009 125.268 93.3839C125.143 93.367 125.016 93.3819 124.898 93.4274C124.661 93.5261 124.468 93.7078 124.355 93.9386C124.242 94.1694 124.208 94.4307 124.258 94.6827C124.376 95.1857 124.65 95.6386 125.04 95.9769C125.41 96.3209 125.844 96.5873 126.318 96.7601C126.792 96.933 127.296 97.0088 127.8 96.9831C128.277 96.9582 128.744 96.8349 129.171 96.6211C129.598 96.4074 129.976 96.1076 130.282 95.7407C130.874 95.06 131.198 94.1872 131.194 93.2851V93.3077C131.141 93.1856 131.048 93.0851 130.931 93.0223C130.813 92.9595 130.678 92.9381 130.547 92.9615C130.283 92.9761 130.035 93.092 129.855 93.2851C129.771 93.3809 129.712 93.4962 129.684 93.6205C129.655 93.7447 129.659 93.8741 129.693 93.9968C129.754 94.2483 129.892 94.4745 130.088 94.6439C130.273 94.8076 130.49 94.9298 130.726 95.0023C130.962 95.0749 131.211 95.0961 131.456 95.0645C131.925 95.0028 132.379 94.8605 132.799 94.6439L137.037 92.4859L139.732 91.1238L140.434 90.7712L140.674 90.6709Z" fill="#00AAFF"/>
<path d="M111.692 10.8576C111.692 10.9061 104.849 10.9449 96.4081 10.9449C87.9671 10.9449 81.1211 10.9061 81.1211 10.8576C81.1211 10.809 87.9638 10.7734 96.4081 10.7734C104.852 10.7734 111.692 10.8123 111.692 10.8576Z" fill="#E0E0E0"/>
<path d="M116.786 10.8576C116.084 10.974 115.367 10.974 114.664 10.8576C115.367 10.7454 116.083 10.7454 116.786 10.8576Z" fill="#E0E0E0"/>
<path d="M147.218 10.8576C147.218 10.9061 140.974 10.9449 133.277 10.9449C125.58 10.9449 119.336 10.9061 119.336 10.8576C119.336 10.809 125.574 10.7734 133.277 10.7734C140.98 10.7734 147.218 10.8123 147.218 10.8576Z" fill="#E0E0E0"/>
<path d="M111.692 19.3634C111.692 19.4119 104.849 19.4475 96.4081 19.4475C87.9671 19.4475 81.1211 19.4119 81.1211 19.3634C81.1211 19.3149 87.9638 19.2793 96.4081 19.2793C104.852 19.2793 111.692 19.3181 111.692 19.3634Z" fill="#E0E0E0"/>
<path d="M116.786 19.3634C116.083 19.4756 115.367 19.4756 114.664 19.3634C115.367 19.2513 116.083 19.2513 116.786 19.3634Z" fill="#E0E0E0"/>
<path d="M147.218 19.3634C147.218 19.4119 140.974 19.4475 133.277 19.4475C125.58 19.4475 119.336 19.4119 119.336 19.3634C119.336 19.3149 125.574 19.2793 133.277 19.2793C140.98 19.2793 147.218 19.3181 147.218 19.3634Z" fill="#E0E0E0"/>
<path d="M139.738 53.0303L131.718 71.6691C131.679 71.7559 131.668 71.8523 131.686 71.9456C131.703 72.039 131.749 72.1248 131.816 72.1917C131.883 72.2587 131.969 72.3036 132.063 72.3207C132.156 72.3377 132.253 72.326 132.339 72.287L138.522 69.5564C138.583 69.5285 138.649 69.5138 138.715 69.5132C138.782 69.5127 138.848 69.5263 138.909 69.5532C138.971 69.5801 139.025 69.6197 139.07 69.6693C139.115 69.719 139.149 69.7775 139.169 69.8411L141.256 76.1015C141.288 76.1936 141.348 76.2735 141.427 76.3301C141.506 76.3866 141.601 76.417 141.699 76.417C141.796 76.417 141.892 76.3866 141.971 76.3301C142.05 76.2735 142.11 76.1936 142.142 76.1015L149.684 55.9971L139.738 53.0303Z" fill="#00AAFF"/>
<path d="M150.191 56.1459L154.032 76.0692C154.05 76.1622 154.095 76.2478 154.162 76.3146C154.23 76.3815 154.315 76.4266 154.409 76.444C154.502 76.4615 154.598 76.4505 154.685 76.4125C154.772 76.3745 154.845 76.3112 154.896 76.2309L158.474 70.5011C158.509 70.4455 158.555 70.3977 158.609 70.3608C158.663 70.3239 158.724 70.2987 158.789 70.2869C158.854 70.275 158.92 70.2767 158.984 70.2919C159.048 70.307 159.107 70.3353 159.16 70.3749L164.404 74.3835C164.482 74.442 164.575 74.4751 164.673 74.4784C164.77 74.4817 164.865 74.455 164.947 74.402C165.028 74.3489 165.091 74.2721 165.127 74.182C165.163 74.0918 165.171 73.9928 165.148 73.8982L160.082 53.0303L150.191 56.1459Z" fill="#00AAFF"/>
<g opacity="0.3">
<path d="M139.736 53.0308L131.716 71.6696C131.678 71.7564 131.666 71.8528 131.684 71.9461C131.701 72.0394 131.747 72.1252 131.814 72.1922C131.881 72.2592 131.967 72.3041 132.061 72.3211C132.154 72.3382 132.251 72.3264 132.337 72.2875L138.52 69.5569C138.581 69.529 138.647 69.5143 138.713 69.5137C138.78 69.5132 138.846 69.5268 138.907 69.5537C138.969 69.5806 139.023 69.6202 139.068 69.6698C139.113 69.7194 139.147 69.778 139.167 69.8416L141.254 76.102C141.286 76.1941 141.346 76.274 141.425 76.3305C141.504 76.3871 141.6 76.4175 141.697 76.4175C141.795 76.4175 141.89 76.3871 141.969 76.3305C142.048 76.274 142.108 76.1941 142.14 76.102L149.682 55.9976L139.736 53.0308Z" fill="black"/>
</g>
<g opacity="0.3">
<path d="M150.191 56.1464L154.032 76.0696C154.05 76.1627 154.095 76.2483 154.162 76.3151C154.23 76.382 154.315 76.427 154.409 76.4445C154.502 76.4619 154.598 76.4509 154.685 76.4129C154.772 76.3749 154.845 76.3117 154.896 76.2314L158.474 70.5016C158.509 70.446 158.555 70.3982 158.609 70.3613C158.663 70.3244 158.724 70.2992 158.789 70.2873C158.854 70.2755 158.92 70.2772 158.984 70.2924C159.048 70.3075 159.107 70.3358 159.16 70.3754L164.404 74.384C164.482 74.4425 164.575 74.4756 164.673 74.4789C164.77 74.4822 164.865 74.4555 164.947 74.4025C165.028 74.3494 165.091 74.2726 165.127 74.1825C165.163 74.0923 165.171 73.9933 165.148 73.8987L160.082 53.0308L150.191 56.1464Z" fill="black"/>
</g>
<path d="M150.58 20.3727L153.213 18.438L155.284 20.9648L158.315 19.7483L159.69 22.7119L162.932 22.2848L163.524 25.4975L166.769 25.889L166.546 29.1502L169.59 30.3344L168.565 33.437L171.218 35.3459L169.455 38.0959L171.551 40.6001L169.154 42.826L170.564 45.7734L167.691 47.3328L168.322 50.5391L165.152 51.335L164.964 54.5962L161.696 54.58L160.703 57.6924L157.542 56.8642L155.805 59.6304L152.951 58.0418L150.58 60.2904L148.211 58.0418L145.358 59.6304L143.62 56.8642L140.459 57.6924L139.466 54.58L136.198 54.5962L136.011 51.335L132.84 50.5391L133.471 47.3328L130.598 45.7734L132.005 42.826L129.611 40.6001L131.708 38.0959L129.945 35.3459L132.598 33.437L131.569 30.3344L134.616 29.1502L134.393 25.889L137.638 25.4975L138.23 22.2848L141.472 22.7119L142.847 19.7483L145.879 20.9648L147.946 18.438L150.58 20.3727Z" fill="#00AAFF"/>
<path d="M161.046 49.8316C166.826 44.0512 166.826 34.6793 161.046 28.8988C155.265 23.1184 145.893 23.1184 140.113 28.8989C134.332 34.6793 134.332 44.0512 140.113 49.8316C145.893 55.612 155.265 55.612 161.046 49.8316Z" fill="white"/>
<path d="M153.808 35.8576L157.778 36.4399C157.925 36.4613 158.063 36.5234 158.177 36.6193C158.291 36.7151 158.375 36.8409 158.421 36.9824C158.467 37.1238 158.472 37.2753 158.436 37.4196C158.4 37.5639 158.325 37.6952 158.218 37.7988L155.342 40.5973C155.249 40.6873 155.179 40.7985 155.139 40.9215C155.099 41.0444 155.09 41.1753 155.112 41.3026L155.788 45.2659C155.813 45.4123 155.797 45.5626 155.741 45.7001C155.685 45.8375 155.591 45.9565 155.471 46.0437C155.351 46.1308 155.209 46.1826 155.061 46.1933C154.913 46.2039 154.765 46.173 154.633 46.1039L151.074 44.2306C150.96 44.17 150.833 44.1383 150.704 44.1383C150.575 44.1383 150.448 44.17 150.334 44.2306L146.775 46.0942C146.643 46.1627 146.495 46.193 146.347 46.1818C146.199 46.1706 146.058 46.1184 145.938 46.0309C145.818 45.9435 145.725 45.8243 145.669 45.6868C145.614 45.5494 145.598 45.3991 145.623 45.253L146.306 41.2994C146.328 41.1723 146.318 41.0418 146.279 40.9189C146.24 40.7961 146.171 40.6847 146.079 40.5941L143.206 37.7891C143.099 37.6853 143.024 37.5537 142.988 37.4092C142.952 37.2646 142.958 37.113 143.004 36.9715C143.05 36.8299 143.135 36.7042 143.249 36.6085C143.363 36.5128 143.502 36.4511 143.649 36.4302L147.622 35.8576C147.75 35.8399 147.871 35.7911 147.976 35.7155C148.08 35.6399 148.164 35.5398 148.221 35.424L150.004 31.8263C150.069 31.6933 150.171 31.5813 150.297 31.5031C150.423 31.4248 150.569 31.3833 150.717 31.3833C150.865 31.3833 151.011 31.4248 151.137 31.5031C151.263 31.5813 151.365 31.6933 151.43 31.8263L153.2 35.4305C153.259 35.546 153.345 35.6453 153.451 35.7197C153.557 35.7942 153.68 35.8415 153.808 35.8576Z" fill="#00AAFF"/>
<path d="M208.085 51.1219C208.085 51.1219 204.228 66.9201 186.961 63.2997C186.961 63.2997 191.966 47.3009 208.085 51.1219Z" fill="#00AAFF"/>
<path d="M199.75 75.0468C199.75 75.0468 191.824 86.8656 178.721 78.6931C178.721 78.6931 187.65 67.0555 199.75 75.0468Z" fill="#00AAFF"/>
<path d="M187.114 93.078C187.114 93.078 175.551 102.91 164.467 90.7227C164.486 90.7227 177.017 81.3661 187.114 93.078Z" fill="#00AAFF"/>
<path d="M174.868 54.8521C174.868 54.8521 187.693 61.0154 181.468 75.1409C181.468 75.1409 168.692 67.9584 174.868 54.8521Z" fill="#00AAFF"/>
<path d="M172.085 71.8833C172.085 71.8833 178.481 80.5184 168.946 87.9371C168.946 87.9371 162.958 78.6225 172.085 71.8833Z" fill="#00AAFF"/>
<path d="M201.75 32.6484C201.75 32.6484 203.222 45.4539 189.391 47.5051C189.398 47.5051 188.715 34.2338 201.75 32.6484Z" fill="#00AAFF"/>
<path d="M181.913 19.7065C181.913 19.7065 193.098 24.3784 188.241 37.5009C188.241 37.4751 177.031 31.8779 181.913 19.7065Z" fill="#00AAFF"/>
<path d="M175.162 38.4009C175.162 38.4009 189.974 40.0897 188.67 56.2115C188.67 56.2115 173.544 53.5002 175.162 38.4009Z" fill="#00AAFF"/>
<path d="M154.084 94.6727C154.084 94.6727 154.145 94.65 154.272 94.6144L154.825 94.4689C155.313 94.3394 156.035 94.168 156.947 93.8703C159.525 93.0724 162.018 92.0212 164.389 90.732C167.908 88.809 171.156 86.4275 174.049 83.6499C175.76 82.0159 177.355 80.2646 178.821 78.4086L179.934 76.9139L180.494 76.16C180.675 75.9012 180.84 75.6327 181.018 75.3674L182.063 73.7497L183.034 72.0609C183.192 71.7762 183.357 71.4947 183.513 71.2132C183.668 70.9317 183.801 70.6308 183.943 70.3429C184.228 69.7638 184.516 69.1943 184.791 68.6185C185.066 68.0426 185.282 67.4537 185.528 66.8778C185.648 66.5899 185.777 66.3052 185.887 66.0172L186.211 65.1437L186.829 63.4225C187 62.8434 187.152 62.2675 187.337 61.7013C187.421 61.4166 187.505 61.1351 187.586 60.8536C187.667 60.5722 187.725 60.2874 187.796 60.006L188.188 58.3365C189.033 54.4157 189.403 50.4074 189.291 46.3981C189.202 43.6966 188.902 41.0062 188.392 38.3518C188.188 37.4136 188.01 36.6921 187.903 36.2003C187.848 35.9577 187.806 35.7732 187.777 35.6406C187.748 35.5079 187.741 35.4497 187.741 35.4497C187.741 35.4497 187.761 35.5112 187.793 35.6374L187.935 36.1938C188.055 36.6824 188.259 37.4039 188.456 38.3389C189.806 44.9515 189.766 51.7724 188.34 58.3689C188.21 58.9189 188.08 59.4775 187.948 60.0448C187.88 60.3263 187.825 60.6142 187.741 60.8957C187.657 61.1772 187.576 61.4619 187.492 61.7466L186.984 63.471L186.366 65.1987C186.263 65.4899 186.159 65.7811 186.043 66.0755C185.926 66.3699 185.803 66.6514 185.68 66.9425L184.943 68.6896C184.668 69.2655 184.377 69.8382 184.095 70.4173L183.662 71.2909C183.503 71.5756 183.338 71.857 183.179 72.1417L182.209 73.8371L181.157 75.4547C180.979 75.72 180.814 75.9886 180.63 76.2474L180.067 77.0077L178.951 78.5057C177.484 80.3694 175.887 82.1274 174.172 83.7663C171.267 86.5474 168.003 88.9271 164.466 90.842C162.079 92.1245 159.569 93.1619 156.973 93.9383C156.058 94.2262 155.33 94.388 154.838 94.5044L154.281 94.6371L154.084 94.6727Z" fill="#00AAFF"/>
<path d="M170.698 78.8452C170.715 78.9654 170.715 79.0874 170.698 79.2076C170.679 79.4373 170.643 79.7738 170.595 80.1782C170.494 81.0032 170.323 82.1388 170.08 83.3844C169.838 84.63 169.566 85.7494 169.349 86.5486C169.239 86.9498 169.149 87.2733 169.077 87.4965C169.049 87.6145 169.007 87.7286 168.951 87.8362C168.959 87.7158 168.98 87.5965 169.013 87.4803C169.074 87.2183 169.149 86.898 169.233 86.5097C169.42 85.7041 169.673 84.5847 169.915 83.3423C170.158 82.1 170.346 80.9708 170.475 80.1523C170.536 79.7705 170.591 79.447 170.634 79.1817C170.644 79.0676 170.665 78.9549 170.698 78.8452Z" fill="#00AAFF"/>
<path d="M173.849 91.6704C173.727 91.6757 173.605 91.6648 173.486 91.6381L172.516 91.4925C171.687 91.3695 170.539 91.2078 169.28 91.0589C168.022 90.9101 166.857 90.8034 166.022 90.7354L165.032 90.6481C164.91 90.6437 164.789 90.6264 164.67 90.5963C164.791 90.5805 164.914 90.5805 165.036 90.5963C165.272 90.5963 165.611 90.5963 166.029 90.6286C166.87 90.6707 168.025 90.7581 169.3 90.9069C170.574 91.0557 171.72 91.2304 172.535 91.3922C172.949 91.4698 173.279 91.5378 173.506 91.5895C173.623 91.6021 173.738 91.6292 173.849 91.6704Z" fill="#00AAFF"/>
<path d="M189.437 76.0016C189.298 76.0502 189.155 76.0848 189.01 76.1051L187.839 76.3348C186.849 76.5322 185.486 76.8169 183.992 77.176C182.497 77.5351 181.154 77.9104 180.184 78.1887L179.035 78.5122C178.898 78.5604 178.756 78.5951 178.611 78.6157C178.739 78.5437 178.875 78.4872 179.016 78.4475C179.281 78.3504 179.663 78.221 180.151 78.0657C181.122 77.7584 182.452 77.3669 183.95 77.0045C185.448 76.6422 186.819 76.3736 187.832 76.2086C188.33 76.1245 188.735 76.0663 189.016 76.0307C189.155 76.0068 189.296 75.997 189.437 76.0016Z" fill="#00AAFF"/>
<path d="M178.115 63.8853C178.215 64.0068 178.303 64.1379 178.377 64.2767C178.542 64.5356 178.759 64.9238 179.008 65.3994C180.306 67.9316 181.099 70.6918 181.344 73.5266C181.389 74.0669 181.409 74.4972 181.409 74.8207C181.424 74.9778 181.424 75.136 181.409 75.2931C181.377 75.1387 181.359 74.9816 181.357 74.8239C181.341 74.5231 181.302 74.0863 181.241 73.546C180.935 70.7369 180.149 68.0011 178.918 65.4576C178.681 64.9691 178.484 64.5809 178.338 64.3123C178.25 64.1775 178.176 64.0345 178.115 63.8853Z" fill="#00AAFF"/>
<path d="M195.295 56.5186C195.19 56.6094 195.077 56.6897 194.956 56.758L194.005 57.3759C193.209 57.9065 192.128 58.6701 190.996 59.5824C189.863 60.4948 188.893 61.4007 188.21 62.0704L187.408 62.8728C187.316 62.9768 187.214 63.0711 187.104 63.1542C187.178 63.0382 187.263 62.9299 187.359 62.8307C187.534 62.6269 187.796 62.3389 188.126 61.9928C188.993 61.0905 189.916 60.2433 190.889 59.4562C191.86 58.6687 192.879 57.9416 193.94 57.2789C194.351 57.0265 194.684 56.8324 194.91 56.703C195.031 56.6261 195.16 56.5641 195.295 56.5186Z" fill="#00AAFF"/>
<path d="M179.121 44.8228C179.166 44.8493 179.207 44.8808 179.244 44.9166L179.568 45.2078C179.849 45.4634 180.25 45.8548 180.733 46.3175C181.703 47.2687 182.997 48.6243 184.343 50.1999C185.689 51.7755 186.821 53.2735 187.608 54.38C187.999 54.9332 188.31 55.3861 188.517 55.7032L188.753 56.072C188.805 56.1594 188.831 56.2047 188.824 56.2079C188.785 56.174 188.752 56.1348 188.724 56.0915L188.462 55.742L187.511 54.4479C186.702 53.3608 185.569 51.879 184.214 50.3067C182.858 48.7343 181.593 47.3657 180.655 46.3951L179.522 45.266L179.218 44.9425C179.15 44.868 179.118 44.8292 179.121 44.8228Z" fill="#00AAFF"/>
<path d="M196.961 36.8086C196.865 36.9512 196.756 37.0855 196.637 37.2098L195.738 38.271C194.984 39.1704 193.972 40.4354 192.93 41.8913C191.888 43.3472 191.021 44.7158 190.413 45.722L189.72 46.9126C189.642 47.0639 189.55 47.2079 189.445 47.3429C189.506 47.1833 189.578 47.0287 189.662 46.8802C189.811 46.589 190.041 46.1717 190.332 45.6605C190.914 44.6381 191.772 43.2566 192.817 41.7943C193.862 40.3319 194.894 39.0733 195.67 38.1933C196.058 37.7501 196.382 37.4007 196.612 37.1645C196.718 37.0362 196.835 36.9172 196.961 36.8086Z" fill="#00AAFF"/>
<path d="M183.574 24.6504C183.662 24.8024 183.74 24.9602 183.807 25.1228C183.946 25.4269 184.131 25.8734 184.377 26.4169C184.846 27.5234 185.467 29.0699 186.104 30.7943C186.742 32.5187 187.275 34.0944 187.641 35.2429C187.825 35.8156 187.965 36.2815 188.062 36.605C188.118 36.7706 188.161 36.9405 188.191 37.1129C188.111 36.9564 188.046 36.7929 187.997 36.6244L187.528 35.2785C187.136 34.1429 186.583 32.5737 185.946 30.8525C185.308 29.1313 184.707 27.5816 184.267 26.4622C184.053 25.9219 183.878 25.4916 183.746 25.1325C183.672 24.9779 183.615 24.8164 183.574 24.6504Z" fill="#00AAFF"/>
<path d="M14.3652 47.6046C14.3652 47.6046 18.0115 62.5324 34.3273 59.1127C34.3176 59.1127 29.5875 43.9939 14.3652 47.6046Z" fill="#00AAFF"/>
<path d="M22.2402 70.2138C22.2402 70.2138 29.7301 81.3822 42.1053 73.6594C42.1053 73.6594 33.6675 62.6625 22.2402 70.2138Z" fill="#00AAFF"/>
<path d="M34.1719 87.2505C34.1719 87.2505 45.1009 96.5456 55.5672 85.0278C55.5672 85.0278 43.7161 76.1823 34.1719 87.2505Z" fill="#00AAFF"/>
<path d="M45.7488 51.1313C45.7488 51.1313 33.6293 56.955 39.5111 70.3008C39.5079 70.3008 51.5951 63.5162 45.7488 51.1313Z" fill="#00AAFF"/>
<path d="M48.375 67.2236C48.375 67.2236 42.3313 75.3832 51.3385 82.3942C51.3385 82.3942 57.0004 73.594 48.375 67.2236Z" fill="#00AAFF"/>
<path d="M20.3436 30.147C20.3436 30.147 18.9524 42.2472 32.0232 44.1851C32.0232 44.1851 32.6574 31.6449 20.3436 30.147Z" fill="#00AAFF"/>
<path d="M39.0906 17.9014C39.0906 17.9014 28.5175 22.3176 33.1085 34.7252C33.1085 34.709 43.701 29.4127 39.0906 17.9014Z" fill="#00AAFF"/>
<path d="M45.4705 35.5825C45.4705 35.5825 31.4712 37.1808 32.7038 52.4063C32.7038 52.4128 47.0008 49.8536 45.4705 35.5825Z" fill="#00AAFF"/>
<path d="M68.4562 89.7939L68.2653 89.7583L67.712 89.6353C67.2267 89.5221 66.5085 89.37 65.5994 89.1015C63.0236 88.3841 60.5153 87.4434 58.1031 86.29C56.4328 85.5007 54.8121 84.6104 53.2501 83.6241C51.4522 82.5005 49.7364 81.2507 48.1156 79.884C46.319 78.3785 44.6413 76.7366 43.0975 74.9728L41.9199 73.5524C41.5381 73.0639 41.1758 72.556 40.7972 72.0545C40.6096 71.8021 40.4219 71.5465 40.231 71.2942L39.7101 70.5015C39.3672 69.9644 39.0016 69.4339 38.6684 68.8838C38.0213 67.7579 37.3742 66.6644 36.8404 65.5191C36.258 64.4029 35.7986 63.2543 35.3198 62.1284C31.9435 53.7345 31.0955 44.5363 32.8803 35.6666C33.0744 34.7413 33.2718 34.0327 33.385 33.5474C33.4465 33.3112 33.4918 33.1268 33.5242 32.9974C33.5565 32.868 33.5792 32.813 33.5792 32.813C33.5792 32.813 33.5792 32.8777 33.5403 33.0039C33.5015 33.1301 33.4724 33.3274 33.4174 33.5539C33.3139 34.0424 33.1262 34.7542 32.9418 35.6795C32.4481 38.3012 32.1679 40.9585 32.1038 43.6255C32.0108 49.934 33.1562 56.1994 35.4751 62.067C35.9507 63.1832 36.4101 64.3317 36.9925 65.4447C37.5198 66.5835 38.1798 67.6738 38.8107 68.7965C39.1342 69.3465 39.5063 69.8739 39.8493 70.4142L40.3702 71.2101L40.9331 71.9671C41.3084 72.4686 41.6708 72.9766 42.0493 73.4619L43.2237 74.8757C46.1578 78.2276 49.5597 81.1391 53.3245 83.5205C57.1416 85.9336 61.2806 87.7951 65.6188 89.0497C66.5214 89.328 67.2364 89.4898 67.7217 89.6127L68.2685 89.7551L68.4562 89.7939Z" fill="#00AAFF"/>
<path d="M49.6856 73.8018C49.721 73.9069 49.746 74.0153 49.76 74.1253C49.8021 74.3776 49.8506 74.6818 49.9088 75.0409C50.0318 75.8141 50.213 76.8818 50.4394 78.0562C50.6659 79.2307 50.9053 80.2854 51.0865 81.0489C51.1674 81.4016 51.2353 81.696 51.2936 81.9548C51.3256 82.0599 51.344 82.1686 51.3486 82.2784C51.2962 82.1755 51.2561 82.0669 51.2289 81.9548C51.1642 81.7478 51.0736 81.4404 50.97 81.0619C50.763 80.3048 50.5106 79.2501 50.2777 78.0724C50.0447 76.8947 49.8894 75.8077 49.7956 75.0409C49.7471 74.6526 49.7147 74.3356 49.6985 74.1156C49.6818 74.0119 49.6775 73.9065 49.6856 73.8018Z" fill="#00AAFF"/>
<path d="M46.7188 85.9214C46.823 85.8789 46.9315 85.8475 47.0423 85.8275C47.2558 85.779 47.5729 85.7143 47.9611 85.6399C48.7408 85.4943 49.8247 85.3164 51.0282 85.1805C52.2318 85.0446 53.3253 84.9572 54.118 84.9217C54.5159 84.9022 54.8362 84.8893 55.0562 84.8893C55.1711 84.8741 55.2875 84.8741 55.4024 84.8893C55.2916 84.9192 55.1775 84.9355 55.0627 84.9378L54.1277 85.0219C53.3383 85.0899 52.248 85.1934 51.0476 85.3455C49.8473 85.4975 48.7829 85.6399 47.9805 85.7564L47.052 85.889C46.9428 85.9142 46.8308 85.9251 46.7188 85.9214Z" fill="#00AAFF"/>
<path d="M31.9785 71.1094C32.1175 71.1046 32.2565 71.1165 32.3926 71.145C32.6579 71.1774 33.0397 71.2324 33.5088 71.31C34.4536 71.4653 35.7477 71.7177 37.1648 72.0606C38.5819 72.4036 39.8469 72.7724 40.756 73.0668C41.209 73.2124 41.5745 73.3386 41.8269 73.4292C41.9593 73.4687 42.0873 73.5218 42.2087 73.5877C42.0705 73.5716 41.9347 73.539 41.8043 73.4907L40.7204 73.1671C39.8048 72.9051 38.5366 72.5556 37.1227 72.2127C35.7089 71.8698 34.4244 71.6012 33.4894 71.4136L32.3829 71.1968C32.2457 71.1802 32.1103 71.151 31.9785 71.1094Z" fill="#00AAFF"/>
<path d="M42.6776 59.6665C42.6253 59.8059 42.5603 59.9402 42.4835 60.0677C42.3476 60.32 42.16 60.6889 41.9367 61.1515C41.3584 62.3506 40.8822 63.5963 40.5132 64.8754C40.1481 66.1557 39.8895 67.464 39.7399 68.7869C39.6849 69.2949 39.6461 69.709 39.6299 69.9937C39.6277 70.1428 39.6104 70.2914 39.5782 70.437C39.5597 70.2889 39.5543 70.1395 39.562 69.9905C39.562 69.7025 39.5782 69.2884 39.6202 68.7772C39.7369 67.4401 39.9817 66.1172 40.3514 64.8269C40.7217 63.5383 41.2169 62.2889 41.83 61.0965C42.0662 60.6403 42.27 60.278 42.4253 60.0353C42.4953 59.9033 42.58 59.7796 42.6776 59.6665Z" fill="#00AAFF"/>
<path d="M26.4434 52.707C26.5664 52.7521 26.6845 52.8096 26.796 52.8785C27.0192 52.9982 27.3363 53.1826 27.7246 53.422C28.7276 54.0472 29.6914 54.7333 30.6105 55.4765C31.5284 56.221 32.3993 57.0217 33.2182 57.8739C33.5417 58.1974 33.7779 58.4724 33.9429 58.6665C34.0344 58.766 34.1157 58.8744 34.1855 58.9901C34.0784 58.9122 33.9806 58.8221 33.8944 58.7215L33.1308 57.9548C32.4837 57.3077 31.5714 56.473 30.5005 55.6027C29.4296 54.7324 28.4072 54.0173 27.6566 53.5191L26.7604 52.9303C26.6463 52.8686 26.5399 52.7937 26.4434 52.707Z" fill="#00AAFF"/>
<path d="M41.7256 41.6519C41.6098 41.798 41.4832 41.9353 41.3471 42.0627L40.2826 43.1466C39.3929 44.0622 38.1829 45.3563 36.9146 46.8413C35.6464 48.3264 34.5658 49.7273 33.799 50.7561L32.8996 51.9758C32.7965 52.1299 32.6818 52.2759 32.5566 52.4126C32.6403 52.2469 32.7366 52.0879 32.8446 51.937C33.0387 51.6361 33.3331 51.2058 33.702 50.6849C34.4461 49.6367 35.517 48.2228 36.7885 46.7313C38.06 45.2399 39.2765 43.9716 40.1985 43.0625C40.6579 42.6128 41.0332 42.2536 41.3018 42.0142C41.4341 41.8834 41.5758 41.7623 41.7256 41.6519Z" fill="#00AAFF"/>
<path d="M24.8672 34.0776C24.9927 34.1753 25.1096 34.2835 25.2166 34.4012C25.4334 34.6244 25.7375 34.9544 26.1031 35.3718C27.0604 36.4659 27.961 37.6084 28.8014 38.7948C29.772 40.1763 30.6002 41.4833 31.1502 42.4475C31.4252 42.9295 31.6388 43.3243 31.7973 43.6025C31.8791 43.7423 31.9473 43.8897 32.0011 44.0425C31.903 43.9138 31.8154 43.7775 31.7391 43.6348L31.0629 42.5089C30.487 41.561 29.6652 40.2701 28.6817 38.8918C27.6981 37.5136 26.7405 36.3197 26.0287 35.4688C25.7051 35.0612 25.4043 34.7247 25.1843 34.4659C25.0652 34.348 24.9589 34.2179 24.8672 34.0776Z" fill="#00AAFF"/>
<path d="M37.5246 22.5894C37.4838 22.75 37.4297 22.9069 37.3628 23.0585C37.2366 23.382 37.0716 23.8058 36.871 24.3138C36.4569 25.3717 35.9004 26.8374 35.2857 28.4647C34.671 30.0921 34.1598 31.5739 33.778 32.648C33.5969 33.1625 33.4545 33.5895 33.3348 33.9195C33.2885 34.0783 33.2267 34.2322 33.1504 34.379C33.1769 34.2163 33.2169 34.0561 33.2701 33.9001C33.3575 33.5766 33.4933 33.1528 33.6648 32.606C34.011 31.5221 34.5125 30.0177 35.1175 28.4C35.7225 26.7824 36.3081 25.3135 36.7513 24.2653C36.9746 23.7411 37.159 23.3205 37.2916 23.0294C37.3553 22.8757 37.4333 22.7284 37.5246 22.5894Z" fill="#00AAFF"/>
</svg>
