<svg width="44" height="44" viewBox="0 0 44 44" fill="none" xmlns="http://www.w3.org/2000/svg">
<g id="flat-color-icons:google">
<path id="Vector" d="M39.9767 18.4094H38.5V18.3333H22V25.6667H32.361C30.8495 29.9356 26.7877 33 22 33C15.9252 33 11 28.0748 11 22C11 15.9253 15.9252 11 22 11C24.804 11 27.3551 12.0578 29.2975 13.7858L34.4831 8.60017C31.2088 5.54859 26.829 3.66667 22 3.66667C11.8754 3.66667 3.66663 11.8754 3.66663 22C3.66663 32.1246 11.8754 40.3333 22 40.3333C32.1245 40.3333 40.3333 32.1246 40.3333 22C40.3333 20.7708 40.2068 19.5708 39.9767 18.4094Z" fill="#FFC107"/>
<path id="Vector_2" d="M5.78052 13.4668L11.8039 17.8842C13.4338 13.849 17.3809 11 22 11C24.8041 11 27.3552 12.0578 29.2976 13.7858L34.4832 8.60017C31.2089 5.54859 26.829 3.66667 22 3.66667C14.9582 3.66667 8.85135 7.64225 5.78052 13.4668Z" fill="#FF3D00"/>
<path id="Vector_3" d="M22 40.3333C26.7355 40.3333 31.0383 38.5211 34.2915 35.574L28.6174 30.7725C26.7152 32.22 24.3902 33.0026 22 33C17.2315 33 13.1825 29.9594 11.6572 25.7162L5.67871 30.3224C8.71288 36.2597 14.8747 40.3333 22 40.3333Z" fill="#4CAF50"/>
<path id="Vector_4" d="M39.9768 18.4094H38.5V18.3333H22V25.6667H32.3611C31.638 27.6984 30.3356 29.4737 28.6147 30.7734L28.6174 30.7716L34.2916 35.5731C33.8901 35.9379 40.3333 31.1667 40.3333 22C40.3333 20.7707 40.2068 19.5708 39.9768 18.4094Z" fill="#1976D2"/>
</g>
</svg>
