<svg width="22" height="27" viewBox="0 0 22 27" fill="none" xmlns="http://www.w3.org/2000/svg">
<g id="gg:google">
<path id="Vector" d="M4.44332 13C4.44173 14.5581 4.99684 16.0665 6.01041 17.2583C7.02399 18.45 8.43065 19.2483 9.98144 19.5117C11.5322 19.7751 13.1271 19.4868 14.4838 18.6976C15.8406 17.9085 16.8716 16.6695 17.3945 15.2H11.1083V10.8H22V15.2H21.9944C20.9647 20.2204 16.4825 24 11.1083 24C4.97319 24 0 19.0753 0 13C0 6.9247 4.97319 2 11.1083 2C12.924 1.99872 14.7122 2.43863 16.3162 3.28113C17.9202 4.12364 19.291 5.34301 20.3082 6.8323L16.6669 9.3568C15.8764 8.17365 14.722 7.27421 13.3748 6.79178C12.0276 6.30936 10.5592 6.26964 9.18739 6.6785C7.81557 7.08737 6.61329 7.92307 5.75878 9.06171C4.90426 10.2004 4.44298 11.5814 4.44332 13Z" fill="#060020"/>
</g>
</svg>
