<svg width="28" height="28" viewBox="0 0 28 28" fill="none" xmlns="http://www.w3.org/2000/svg">
<path id="Vector" d="M14.1859 10.6108C13.5272 10.6108 12.8832 10.8096 12.3355 11.182C11.7878 11.5545 11.3609 12.0838 11.1088 12.7031C10.8567 13.3224 10.7907 14.0039 10.9193 14.6614C11.0478 15.3189 11.365 15.9228 11.8308 16.3968C12.2966 16.8708 12.89 17.1936 13.5361 17.3244C14.1822 17.4551 14.8519 17.388 15.4605 17.1315C16.0691 16.875 16.5893 16.4405 16.9552 15.8832C17.3212 15.3258 17.5166 14.6705 17.5166 14.0002C17.5166 13.5551 17.4304 13.1143 17.263 12.7031C17.0957 12.2919 16.8503 11.9183 16.541 11.6035C16.2318 11.2888 15.8646 11.0392 15.4605 10.8688C15.0564 10.6985 14.6233 10.6108 14.1859 10.6108ZM27.522 7.2625C27.5149 6.2071 27.3239 5.16134 26.9579 4.17383C26.6883 3.45122 26.2712 2.79499 25.7342 2.24845C25.1971 1.70191 24.5522 1.27748 23.8421 1.00316C22.8717 0.630697 21.8441 0.436353 20.8069 0.429163C19.0745 0.333496 18.5641 0.333496 14.1859 0.333496C9.80771 0.333496 9.29737 0.333496 7.5649 0.429163C6.52777 0.436353 5.50012 0.630697 4.5297 1.00316C3.8196 1.27748 3.17474 1.70191 2.63766 2.24845C2.10058 2.79499 1.6835 3.45122 1.41393 4.17383C1.04791 5.16134 0.856935 6.2071 0.84987 7.2625C0.755859 9.0255 0.755859 9.54483 0.755859 14.0002C0.755859 18.4555 0.755859 18.9748 0.84987 20.7378C0.864326 21.7969 1.05505 22.8459 1.41393 23.8402C1.6823 24.5595 2.09904 25.2119 2.63607 25.7535C3.17084 26.3033 3.81709 26.7277 4.5297 26.9972C5.50012 27.3696 6.52777 27.564 7.5649 27.5712C9.29737 27.6668 9.80771 27.6668 14.1859 27.6668C18.5641 27.6668 19.0745 27.6668 20.8069 27.5712C21.8441 27.564 22.8717 27.3696 23.8421 26.9972C24.5547 26.7277 25.201 26.3033 25.7358 25.7535C26.2728 25.2119 26.6895 24.5595 26.9579 23.8402C27.3236 22.8478 27.5145 21.7976 27.522 20.7378C27.616 18.9748 27.616 18.4555 27.616 14.0002C27.616 9.54483 27.616 9.0255 27.522 7.2625ZM24.1107 18.1958C24.0676 19.0392 23.8907 19.8699 23.5869 20.6558C23.3262 21.3114 22.9386 21.9069 22.4472 22.407C21.9558 22.9071 21.3706 23.3015 20.7263 23.5668C19.9467 23.8587 19.1258 24.0203 18.2955 24.0452C17.2345 24.0452 16.9525 24.0452 14.1859 24.0452C11.4193 24.0452 11.1373 24.0452 10.0763 24.0452C9.24598 24.0203 8.42507 23.8587 7.64548 23.5668C6.97948 23.315 6.37805 22.9132 5.88614 22.3915C5.39952 21.9012 5.02372 21.3089 4.78487 20.6558C4.49688 19.8633 4.3425 19.027 4.32825 18.1822C4.32825 17.1025 4.32825 16.8155 4.32825 14.0002C4.32825 11.1848 4.32825 10.8978 4.32825 9.81816C4.3425 8.97332 4.49688 8.137 4.78487 7.3445C5.03237 6.66677 5.4272 6.05474 5.93986 5.55416C6.42379 5.06165 7.00522 4.67962 7.64548 4.4335C8.42507 4.14158 9.24598 3.98005 10.0763 3.95516C11.1373 3.95516 11.4193 3.95516 14.1859 3.95516C16.9525 3.95516 17.2345 3.95516 18.2955 3.95516C19.1258 3.98005 19.9467 4.14158 20.7263 4.4335C21.3923 4.68535 21.9938 5.08714 22.4857 5.60883C22.9723 6.09912 23.3481 6.69141 23.5869 7.3445C23.8738 8.13783 24.0325 8.97319 24.057 9.81816C24.057 10.8978 24.057 11.1848 24.057 14.0002C24.057 16.8155 24.151 17.1025 24.1107 18.1822V18.1958ZM21.9619 8.02783C21.802 7.58637 21.5499 7.18547 21.223 6.85279C20.896 6.5201 20.5021 6.26355 20.0683 6.10083C19.4726 5.89072 18.8453 5.78894 18.2149 5.80016C17.1674 5.80016 16.8719 5.80016 14.1859 5.80016C11.4999 5.80016 11.2044 5.80016 10.1569 5.80016C9.52336 5.80646 8.89591 5.92676 8.30355 6.1555C7.87638 6.31083 7.48659 6.5569 7.16009 6.87737C6.8336 7.19784 6.57787 7.58535 6.40991 8.01416C6.21488 8.62283 6.11959 9.26001 6.12788 9.90016C6.12788 10.9662 6.12788 11.2668 6.12788 14.0002C6.12788 16.7335 6.12788 17.0342 6.12788 18.1002C6.14119 18.7441 6.25918 19.3814 6.47706 19.9862C6.63696 20.4276 6.88907 20.8285 7.216 21.1612C7.54293 21.4939 7.93689 21.7504 8.3707 21.9132C8.94371 22.1276 9.54671 22.2476 10.1569 22.2685C11.2044 22.2685 11.4999 22.2685 14.1859 22.2685C16.8719 22.2685 17.1674 22.2685 18.2149 22.2685C18.8485 22.2622 19.4759 22.1419 20.0683 21.9132C20.5021 21.7504 20.896 21.4939 21.223 21.1612C21.5499 20.8285 21.802 20.4276 21.9619 19.9862C22.1867 19.3834 22.3049 18.7449 22.3111 18.1002C22.3111 17.0342 22.3111 16.7335 22.3111 14.0002C22.3111 11.2668 22.3111 10.9662 22.3111 9.90016C22.3115 9.25482 22.193 8.61512 21.9619 8.01416V8.02783ZM14.1859 19.2208C13.5128 19.2208 12.8464 19.0857 12.2247 18.8232C11.603 18.5606 11.0383 18.1759 10.563 17.6909C10.0877 17.2059 9.71105 16.6303 9.4547 15.997C9.19834 15.3637 9.06729 14.6851 9.06906 14.0002C9.06906 12.967 9.37029 11.9571 9.93461 11.0983C10.4989 10.2395 11.301 9.57034 12.2392 9.1756C13.1774 8.78087 14.2096 8.67828 15.2052 8.88083C16.2007 9.08338 17.1148 9.58196 17.8317 10.3135C18.5487 11.0449 19.0362 11.9765 19.2327 12.9901C19.4291 14.0037 19.3256 15.0538 18.9352 16.0075C18.5449 16.9612 17.8852 17.7756 17.0398 18.3476C16.1944 18.9196 15.2012 19.2235 14.1859 19.2208ZM19.5579 9.8045C19.2611 9.77252 18.9863 9.62986 18.7866 9.40402C18.5869 9.17818 18.4765 8.88513 18.4765 8.58133C18.4765 8.27753 18.5869 7.98448 18.7866 7.75864C18.9863 7.53279 19.2611 7.39014 19.5579 7.35816C19.8548 7.39014 20.1296 7.53279 20.3292 7.75864C20.5289 7.98448 20.6394 8.27753 20.6394 8.58133C20.6394 8.88513 20.5289 9.17818 20.3292 9.40402C20.1296 9.62986 19.8548 9.77252 19.5579 9.8045Z" fill="white"/>
</svg>
