<svg width="28" height="28" viewBox="0 0 28 28" fill="none" xmlns="http://www.w3.org/2000/svg">
<path id="Vector" d="M25.3857 0.333687H2.49785C2.24057 0.330073 1.98511 0.377758 1.74605 0.47402C1.50699 0.570281 1.28902 0.713233 1.10458 0.894712C0.920149 1.07619 0.772864 1.29264 0.671139 1.5317C0.569414 1.77076 0.515243 2.02775 0.511719 2.28799V25.7123C0.515243 25.9726 0.569414 26.2296 0.671139 26.4686C0.772864 26.7077 0.920149 26.9241 1.10458 27.1056C1.28902 27.2871 1.50699 27.43 1.74605 27.5263C1.98511 27.6226 2.24057 27.6703 2.49785 27.6666H25.3857C25.643 27.6703 25.8984 27.6226 26.1375 27.5263C26.3766 27.43 26.5945 27.2871 26.779 27.1056C26.9634 26.9241 27.1107 26.7077 27.2124 26.4686C27.3141 26.2296 27.3683 25.9726 27.3718 25.7123V2.28799C27.3683 2.02775 27.3141 1.77076 27.2124 1.5317C27.1107 1.29264 26.9634 1.07619 26.779 0.894712C26.5945 0.713233 26.3766 0.570281 26.1375 0.47402C25.8984 0.377758 25.643 0.330073 25.3857 0.333687ZM8.65892 23.2114H4.60559V10.9115H8.65892V23.2114ZM6.63226 9.18956C6.07325 9.18956 5.53714 8.96495 5.14186 8.56512C4.74658 8.1653 4.52452 7.62303 4.52452 7.05759C4.52452 6.49216 4.74658 5.94989 5.14186 5.55006C5.53714 5.15024 6.07325 4.92562 6.63226 4.92562C6.92909 4.89157 7.22968 4.92132 7.51436 5.01293C7.79904 5.10453 8.06138 5.25593 8.2842 5.4572C8.50702 5.65847 8.6853 5.90507 8.80737 6.18086C8.92944 6.45666 8.99254 6.75542 8.99254 7.05759C8.99254 7.35976 8.92944 7.65853 8.80737 7.93432C8.6853 8.21012 8.50702 8.45672 8.2842 8.65799C8.06138 8.85926 7.79904 9.01065 7.51436 9.10226C7.22968 9.19386 6.92909 9.22361 6.63226 9.18956ZM23.278 23.2114H19.2246V16.6105C19.2246 14.9568 18.6436 13.8772 17.1709 13.8772C16.7151 13.8805 16.2713 14.0251 15.8993 14.2915C15.5273 14.5578 15.2449 14.9331 15.0902 15.3668C14.9845 15.688 14.9387 16.0263 14.9551 16.3645V23.1977H10.9018C10.9018 23.1977 10.9018 12.0185 10.9018 10.8979H14.9551V12.6335C15.3233 11.9872 15.8589 11.4548 16.5041 11.0936C17.1493 10.7324 17.8797 10.556 18.6166 10.5835C21.3188 10.5835 23.278 12.3465 23.278 16.1321V23.2114Z" fill="white"/>
</svg>
