<svg width="28" height="28" viewBox="0 0 28 28" fill="none" xmlns="http://www.w3.org/2000/svg">
<path id="XMLID_378_" d="M23.4707 4.49012C20.9348 1.92561 17.5589 0.515137 13.973 0.515137C10.3871 0.515137 7.01648 1.92561 4.48063 4.49012C1.93953 7.05462 0.542969 10.4633 0.542969 14.091C0.542969 17.7187 1.93953 21.1273 4.48063 23.6918C7.01648 26.251 10.3871 27.6668 13.973 27.6668C17.5589 27.6668 20.9296 26.2563 23.4654 23.6918C26.0065 21.1273 27.4031 17.7187 27.4031 14.091C27.4031 10.4633 26.0065 7.05462 23.4707 4.49012ZM24.4525 9.73132H19.47C19.4647 9.71529 19.4647 9.69927 19.4595 9.68324C18.9765 7.02791 18.2677 4.79465 17.7164 3.29335C20.7668 4.37258 23.2239 6.73406 24.4525 9.73132ZM12.4557 2.75908C12.9545 2.68962 13.4585 2.65757 13.973 2.65757C14.3983 2.65757 14.8131 2.68428 15.2226 2.72702C15.6741 3.79022 16.6874 6.40815 17.3279 9.73132H10.8281C11.3742 6.03416 12.2825 3.27198 12.4557 2.75908ZM2.64306 14.091C2.64306 13.3323 2.71656 12.5897 2.85831 11.8684H8.46029C8.26604 14.0108 8.25029 16.0731 8.41304 18.0125H3.33083C2.88456 16.789 2.64306 15.4694 2.64306 14.091ZM4.37038 20.1496H8.67555C8.93806 21.7791 9.33183 23.3178 9.86735 24.7444C7.58351 23.8468 5.65668 22.2172 4.37038 20.1496ZM8.70705 9.73132H3.49884C4.70639 6.78749 7.09524 4.4634 10.0616 3.35746C9.66784 4.7252 9.09032 6.98517 8.70705 9.73132ZM15.4851 25.4229C14.9916 25.487 14.4875 25.5244 13.9783 25.5244C13.4532 25.5244 12.9387 25.487 12.4295 25.4175C11.6314 23.7292 11.1169 21.9394 10.8124 20.1496H17.4329C17.0601 21.9287 16.4406 23.7186 15.4851 25.4229ZM17.7584 18.0125H10.5289C10.3346 15.8274 10.3976 13.717 10.5709 11.8684H17.6692C17.9002 13.7223 17.9894 15.8327 17.7584 18.0125ZM18.1889 24.707C18.8085 23.2804 19.2757 21.7578 19.575 20.1496H23.5809C22.3156 22.1905 20.4255 23.7987 18.1889 24.707ZM19.8795 18.0125L19.8953 17.8202C20.0633 15.9289 20.0265 13.9307 19.785 11.8684H25.093C25.2347 12.5897 25.3082 13.3323 25.3082 14.091C25.3082 15.4694 25.0667 16.789 24.6205 18.0125H19.8795Z" fill="white" fill-opacity="0.87"/>
</svg>
