<svg width="32" height="28" viewBox="0 0 32 28" fill="none" xmlns="http://www.w3.org/2000/svg">
<path id="Vector" d="M31.5898 3.60821C30.4248 4.15567 29.1927 4.51757 27.9318 4.68266C29.262 3.82196 30.2588 2.46793 30.7373 0.871728C29.4874 1.67767 28.119 2.24551 26.6918 2.55055C25.7379 1.43006 24.4675 0.684197 23.08 0.429947C21.6926 0.175698 20.2664 0.427441 19.0252 1.14569C17.7841 1.86395 16.7981 3.00809 16.222 4.39867C15.6458 5.78925 15.5121 7.34761 15.8418 8.82936C13.3145 8.6909 10.8422 7.97812 8.58576 6.73731C6.32929 5.49651 4.33906 3.75543 2.74434 1.6272C2.18501 2.68514 1.8911 3.88324 1.89184 5.10237C1.88986 6.23454 2.14638 7.34967 2.63856 8.34849C3.13075 9.3473 3.84332 10.1988 4.71284 10.8272C3.70221 10.7974 2.71317 10.5037 1.82984 9.97096V10.0549C1.83742 11.6412 2.35064 13.176 3.28268 14.3996C4.21473 15.6233 5.50839 16.4607 6.94484 16.7702C6.39189 16.9525 5.8178 17.0486 5.23984 17.0556C4.83977 17.0505 4.4407 17.0112 4.04634 16.9381C4.4554 18.3027 5.24701 19.4952 6.31101 20.3497C7.37501 21.2043 8.65849 21.6783 9.98284 21.706C7.74651 23.6119 4.98546 24.6521 2.13984 24.6607C1.62173 24.6625 1.10403 24.6289 0.589844 24.56C3.49521 26.5918 6.881 27.6704 10.3393 27.6658C12.7259 27.6926 15.0934 27.2041 17.3037 26.2288C19.5139 25.2535 21.5226 23.811 23.2124 21.9855C24.9022 20.1599 26.2392 17.988 27.1453 15.5965C28.0514 13.2051 28.5085 10.642 28.4898 8.0571C28.4898 7.7717 28.4898 7.46951 28.4898 7.16732C29.7061 6.18489 30.7551 4.98053 31.5898 3.60821Z" fill="white"/>
</svg>
