<svg width="27" height="28" viewBox="0 0 27 28" fill="none" xmlns="http://www.w3.org/2000/svg">
<path id="Vector" d="M25.3828 0.333496H1.47731C1.0855 0.333496 0.709742 0.491883 0.432693 0.773812C0.155644 1.05574 0 1.43812 0 1.83683V26.1635C0 26.3609 0.0382118 26.5564 0.112453 26.7388C0.186695 26.9212 0.295512 27.0869 0.432693 27.2265C0.569874 27.3661 0.73273 27.4768 0.911965 27.5524C1.0912 27.6279 1.2833 27.6668 1.47731 27.6668H14.3433V17.0752H10.8515V12.9752H14.3433V9.90016C14.271 9.17823 14.3547 8.44894 14.5887 7.76343C14.8226 7.07792 15.2012 6.45281 15.6977 5.93192C16.1942 5.41104 16.7967 5.00701 17.4629 4.74815C18.1291 4.4893 18.8428 4.38191 19.5542 4.4335C20.5995 4.42695 21.6443 4.48171 22.6834 4.5975V8.2875H20.548C18.8558 8.2875 18.5335 9.1075 18.5335 10.2965V12.9342H22.5625L22.0387 17.0342H18.5335V27.6668H25.3828C25.5768 27.6668 25.7689 27.6279 25.9481 27.5524C26.1274 27.4768 26.2902 27.3661 26.4274 27.2265C26.5646 27.0869 26.6734 26.9212 26.7477 26.7388C26.8219 26.5564 26.8601 26.3609 26.8601 26.1635V1.83683C26.8601 1.63941 26.8219 1.44392 26.7477 1.26153C26.6734 1.07914 26.5646 0.91341 26.4274 0.773812C26.2902 0.634215 26.1274 0.52348 25.9481 0.447931C25.7689 0.372381 25.5768 0.333496 25.3828 0.333496Z" fill="white"/>
</svg>
