<svg width="40" height="28" viewBox="0 0 40 28" fill="none" xmlns="http://www.w3.org/2000/svg">
<path id="Vector" d="M39.5809 9.96662C39.6685 7.43743 39.1139 4.92717 37.9687 2.66891C37.1917 1.74229 36.1133 1.11697 34.9215 0.90191C29.9921 0.455788 25.0422 0.272936 20.0932 0.35414C15.1621 0.269251 10.2301 0.446201 5.31794 0.884241C4.34678 1.06044 3.44804 1.51478 2.73139 2.19182C1.13694 3.65843 0.959784 6.16757 0.782623 8.28797C0.525584 12.1004 0.525584 15.9257 0.782623 19.7381C0.833876 20.9316 1.01204 22.1162 1.31411 23.2721C1.52772 24.1646 1.9599 24.9903 2.57195 25.6753C3.29347 26.3882 4.21314 26.8683 5.21165 27.0535C9.03109 27.5237 12.8796 27.7186 16.7271 27.6366C22.9277 27.725 28.3666 27.6366 34.7975 27.1419C35.8205 26.9681 36.7661 26.4873 37.5081 25.7636C38.0041 25.2687 38.3745 24.6629 38.5888 23.9966C39.2223 22.0575 39.5335 20.0281 39.51 17.9888C39.5809 16.9993 39.5809 11.0268 39.5809 9.96662ZM16.0893 19.049V8.11127L26.5773 13.6066C23.6364 15.2323 19.7566 17.07 16.0893 19.049Z" fill="white"/>
</svg>
