<svg width="28" height="28" viewBox="0 0 28 28" fill="none" xmlns="http://www.w3.org/2000/svg">
<g id="mdi:linkedin">
<path id="Vector" d="M22.6667 4C23.2855 4 23.879 4.24583 24.3166 4.68342C24.7542 5.121 25 5.71449 25 6.33333V22.6667C25 23.2855 24.7542 23.879 24.3166 24.3166C23.879 24.7542 23.2855 25 22.6667 25H6.33333C5.71449 25 5.121 24.7542 4.68342 24.3166C4.24583 23.879 4 23.2855 4 22.6667V6.33333C4 5.71449 4.24583 5.121 4.68342 4.68342C5.121 4.24583 5.71449 4 6.33333 4H22.6667ZM22.0833 22.0833V15.9C22.0833 14.8913 21.6826 13.9239 20.9694 13.2106C20.2561 12.4974 19.2887 12.0967 18.28 12.0967C17.2883 12.0967 16.1333 12.7033 15.5733 13.6133V12.3183H12.3183V22.0833H15.5733V16.3317C15.5733 15.4333 16.2967 14.6983 17.195 14.6983C17.6282 14.6983 18.0436 14.8704 18.3499 15.1767C18.6562 15.483 18.8283 15.8985 18.8283 16.3317V22.0833H22.0833ZM8.52667 10.4867C9.04649 10.4867 9.54502 10.2802 9.9126 9.9126C10.2802 9.54502 10.4867 9.04649 10.4867 8.52667C10.4867 7.44167 9.61167 6.555 8.52667 6.555C8.00375 6.555 7.50225 6.76273 7.13249 7.13249C6.76273 7.50225 6.555 8.00375 6.555 8.52667C6.555 9.61167 7.44167 10.4867 8.52667 10.4867ZM10.1483 22.0833V12.3183H6.91667V22.0833H10.1483Z" fill="#060020"/>
</g>
</svg>
