<svg width="1920" height="469" viewBox="0 0 1920 469" fill="none" xmlns="http://www.w3.org/2000/svg">
<g opacity="0.25">
<path d="M2187 129.847C2187 482.081 2020.74 929.887 1046.96 929.887C73.1824 929.887 -93 482.081 -93 129.847C-93 -222.388 22.7693 -470.101 201.103 -594.656C411.459 -741.462 751.213 -619.288 1046.79 -619.288C1342.38 -619.288 1682.38 -741.544 1892.49 -594.656C2071.23 -470.101 2187 -222.388 2187 129.847Z" fill="#263238"/>
<path d="M2178.08 237.887C2177.51 243.553 2176.85 249.3 2176.11 254.965C2156.49 412.034 2092.85 575.178 1935.38 701.868C1839.64 778.965 1709.26 842.597 1533.06 883.24C1410.99 910.114 1286.7 925.616 1161.77 929.547C1123.79 931.135 1084.4 931.929 1043.62 931.929C996.604 931.929 951.445 930.889 908.148 928.809H902.401H901.498C897.228 921.583 893.287 914.358 888.935 906.968C874.184 880.059 861.131 852.253 849.853 823.713C845.419 812.465 841.642 801.134 837.373 789.803C836.059 786.191 834.91 782.578 833.76 778.965C832.611 775.353 831.461 771.74 830.394 768.045C828.177 760.738 826.042 753.43 824.154 746.205C823.333 743.496 822.676 740.868 822.019 737.995C819.802 729.784 817.832 721.573 816.025 712.87L813.808 702.443C813.724 702.064 813.724 701.672 813.808 701.293C812.577 695.217 811.427 689.141 810.36 682.983C809.293 676.826 808.225 670.75 807.404 664.51C807.326 664.075 807.326 663.63 807.404 663.196C806.665 658.926 806.172 654.985 805.68 650.552C805.187 646.118 804.613 641.684 804.038 637.25C802.56 623.457 801.328 609.499 800.671 595.705C800.671 590.204 800.179 584.621 800.015 579.284V570.006C800.015 566.065 800.015 561.795 800.015 557.936C800.015 552.107 800.015 546.277 800.015 540.53C800.015 536.342 800.015 532.319 800.425 528.05C800.425 525.915 800.425 523.862 800.425 521.809C800.918 511.875 801.575 502.022 802.56 492.169L803.299 483.959C803.791 479.032 804.448 474.188 805.023 469.344C805.598 464.5 806.501 457.685 807.404 451.773C809.046 440.114 811.099 428.455 813.398 416.796C833.765 313.274 876.441 215.432 938.458 130.077C1000.47 44.7222 1080.34 -26.0969 1172.51 -77.4533C1264.67 -128.81 1366.92 -159.471 1472.13 -167.302C1577.35 -175.134 1683 -159.949 1781.76 -122.804L1798.18 -116.482C1801.46 -115.25 1804.58 -113.855 1807.7 -112.459C1810.82 -111.063 1815.01 -109.503 1818.62 -107.943L1823.3 -105.808C1828.72 -103.427 1833.97 -100.964 1839.23 -98.4187C1839.72 -98.2685 1840.19 -98.0472 1840.63 -97.7618C1844.81 -95.7913 1848.84 -93.8207 1853.02 -91.686L1861.23 -87.5807C1866.73 -84.7069 1872.15 -81.7512 1877.66 -78.7954C1883.16 -75.8396 1889.48 -72.2269 1895.23 -68.7785C1895.96 -68.7785 1896.7 -67.9574 1897.44 -67.5469L1913.86 -57.3657L1931.6 -45.7888L1939.81 -40.3697C1957.05 -28.5465 1973.72 -15.738 1989.98 -2.43684C1993.1 0.108429 1996.13 2.73581 1999.17 5.3632C2002.21 7.9906 2005.41 10.7001 2008.37 13.5738C2011.32 16.4475 2014.53 18.9107 2017.48 21.7844L2018.71 22.9339C2076.59 76.2897 2125.4 138.713 2163.22 207.754C2167.82 217.607 2173.07 227.706 2178.08 237.887Z" fill="#DBDBDB"/>
<path d="M853.024 817.423C885.867 783.267 953.276 720.046 1067.65 658.302C1206.08 583.503 1590.91 482.924 1764.15 377.089C2007.93 228.395 2028.45 87.7478 2021.31 16.5619C1952.52 -46.6797 1872.18 -96.0524 1784.68 -128.848C1772.53 -54.1314 1722.85 179.706 1312.82 362.638C1101.15 456.814 888.494 422.412 816.323 410.753C789.174 547.017 801.917 688.221 853.024 817.423Z" fill="#C7C7C7"/>
<path d="M2180.02 248.924C2160.4 405.992 2096.77 569.137 1939.29 695.826C1877.28 708.828 1816.87 728.569 1759.15 754.696C1682.01 789.792 1607.68 830.746 1536.8 877.199C1414.74 904.072 1290.45 919.574 1165.52 923.506C1231.21 904.95 1308.88 871.451 1398.05 815.208C1487.21 758.966 1587.46 680.144 1700.03 570.861C1977.55 300.815 2124.35 255.082 2180.02 248.924Z" fill="#C7C7C7"/>
<path d="M1563.49 131.102C1579.01 159.429 1624.9 163.945 1666.04 141.448C1707.17 118.951 1727.95 77.6514 1712.43 49.3249C1696.91 20.9983 1650.93 16.4825 1609.8 39.0617C1568.66 61.6408 1547.81 102.858 1563.49 131.102Z" fill="#A6A6A6"/>
<path d="M1772.94 163.945C1781.65 179.873 1808.74 181.844 1833.45 168.296C1858.17 154.749 1871.06 130.774 1862.27 114.846C1853.49 98.917 1826.39 97.0285 1801.76 110.576C1777.13 124.123 1764.16 148.016 1772.94 163.945Z" fill="#A6A6A6"/>
<g opacity="0.1">
<path d="M1378.42 -657.535C949.919 -235.019 484.373 148.2 -12.6183 487.514C-74.2798 368.296 -93 239.39 -93 121.157C-93 90.1758 -92.1242 60.0704 -90.3726 30.8406C211.684 -179.57 501.7 -406.758 778.308 -649.653C868.625 -638.405 959.68 -627.813 1046.96 -627.813C1154.19 -627.895 1267.58 -644.07 1378.42 -657.535Z" fill="white"/>
<path d="M2045.2 -442.828C1599.01 42.7902 1107.51 484.742 577.393 877.025C516.421 864.001 456.444 846.689 397.91 825.216C962.059 419.775 1483.66 -41.802 1954.72 -552.439C1989.05 -519.553 2019.42 -482.766 2045.2 -442.828Z" fill="white"/>
<path d="M2146.76 -206.774C1770.22 199.97 1362.11 576.311 926.259 918.734C913.04 918.16 899.985 917.585 887.012 916.846C1334.87 567.565 1753.62 182.481 2139.13 -234.608C2142 -225.494 2144.63 -216.216 2146.76 -206.774Z" fill="white"/>
<path d="M1505.84 -671C1054.47 -214.675 560.585 197.532 30.8932 560.015C25.9669 553.036 21.2047 545.974 16.771 538.913C537.369 183.049 1023.41 -220.906 1468.49 -667.634C1481.05 -668.947 1493.45 -670.015 1505.84 -671Z" fill="white"/>
</g>
</g>
</svg>
