<svg width="46" height="45" viewBox="0 0 46 45" fill="none" xmlns="http://www.w3.org/2000/svg">
<g filter="url(#filter0_d_616_114)">
<g clip-path="url(#clip0_616_114)">
<path d="M2 9C2 4.58172 5.58172 1 10 1H36C40.4183 1 44 4.58172 44 9V34C44 38.4183 40.4183 42 36 42H2V9Z" fill="#00AAFF"/>
<g clip-path="url(#clip1_616_114)">
<path d="M24.4272 14.2245V12.877C25.2549 12.9442 26.0721 13.1045 26.863 13.3548L27.4372 11.612C24.8795 10.7973 22.1273 10.7973 19.5696 11.612L20.1437 13.3548C20.9346 13.1045 21.7518 12.9442 22.5795 12.877V14.2245C20.1456 14.4597 17.8966 15.6108 16.2983 17.4394C14.7 19.2679 13.875 21.6338 13.9942 24.0468C14.1134 26.4598 15.1677 28.7351 16.9386 30.4012C18.7095 32.0673 21.0613 32.9966 23.5069 32.9966C25.9524 32.9966 28.3042 32.0673 30.0751 30.4012C31.846 28.7351 32.9003 26.4598 33.0195 24.0468C33.1387 21.6338 32.3137 19.2679 30.7154 17.4394C29.1172 15.6108 26.8681 14.4597 24.4342 14.2245H24.4272ZM23.4982 31.1679C21.9841 31.1679 20.504 30.7244 19.2451 29.8934C17.9862 29.0624 17.005 27.8813 16.4255 26.4995C15.8461 25.1176 15.6945 23.597 15.9899 22.13C16.2853 20.6631 17.0144 19.3156 18.085 18.2579C19.1556 17.2003 20.5197 16.48 22.0047 16.1882C23.4897 15.8964 25.0289 16.0462 26.4277 16.6186C27.8266 17.191 29.0222 18.1603 29.8633 19.4039C30.7045 20.6476 31.1535 22.1097 31.1535 23.6054C31.1535 25.6111 30.347 27.5347 28.9113 28.9529C27.4757 30.3711 25.5285 31.1679 23.4982 31.1679Z" fill="white"/>
<path d="M23.4982 31.1679C21.9841 31.1679 20.504 30.7244 19.2451 29.8934C17.9862 29.0624 17.005 27.8813 16.4255 26.4995C15.8461 25.1176 15.6945 23.597 15.9899 22.13C16.2853 20.6631 17.0144 19.3156 18.085 18.2579C19.1556 17.2003 20.5197 16.48 22.0047 16.1882C23.4897 15.8964 25.0289 16.0462 26.4277 16.6186C27.8266 17.191 29.0222 18.1603 29.8633 19.4039C30.7045 20.6476 31.1535 22.1097 31.1535 23.6054C31.1535 25.6111 30.347 27.5347 28.9113 28.9529C27.4757 30.3711 25.5285 31.1679 23.4982 31.1679Z" fill="white"/>
<path d="M32.4861 17.4969L34.0137 16.4656C33.1312 15.1979 32.0201 14.1014 30.7358 13.231L29.6919 14.74C30.7865 15.482 31.7336 16.4165 32.4861 17.4969Z" fill="white"/>
<path d="M17.3287 14.7298L16.2848 13.2207C14.9981 14.0905 13.8846 15.187 13 16.4554L14.5276 17.4866C15.2821 16.4056 16.2317 15.4711 17.3287 14.7298Z" fill="white"/>
<path d="M26.2854 24.7502L24.4272 23.3752V18.3324C24.435 18.2073 24.4167 18.0821 24.3737 17.9643C24.3306 17.8465 24.2635 17.7386 24.1766 17.6474C24.0898 17.5561 23.9849 17.4834 23.8685 17.4337C23.7521 17.384 23.6267 17.3584 23.4999 17.3584C23.3731 17.3584 23.2476 17.384 23.1312 17.4337C23.0149 17.4834 22.91 17.5561 22.8231 17.6474C22.7363 17.7386 22.6692 17.8465 22.6261 17.9643C22.583 18.0821 22.5648 18.2073 22.5725 18.3324V23.8324C22.5715 23.9032 22.5809 23.9738 22.6004 24.042C22.6137 24.1098 22.6384 24.1748 22.6735 24.2345C22.6957 24.2956 22.73 24.3517 22.7744 24.3995C22.7848 24.4113 22.7941 24.424 22.8022 24.4374C22.842 24.4818 22.8863 24.5221 22.9344 24.5577L22.9727 24.5852L26.6473 27.3077C26.806 27.4305 27.0024 27.496 27.204 27.4933C27.35 27.4945 27.4943 27.4626 27.6258 27.4C27.7573 27.3374 27.8726 27.2459 27.9626 27.1324C28.1093 26.9375 28.172 26.6932 28.1367 26.4529C28.1015 26.2126 27.9713 25.9959 27.7747 25.8502L26.2854 24.7502Z" fill="#00AAFF"/>
</g>
</g>
</g>
<defs>
<filter id="filter0_d_616_114" x="0" y="0" width="46" height="45" filterUnits="userSpaceOnUse" color-interpolation-filters="sRGB">
<feFlood flood-opacity="0" result="BackgroundImageFix"/>
<feColorMatrix in="SourceAlpha" type="matrix" values="0 0 0 0 0 0 0 0 0 0 0 0 0 0 0 0 0 0 127 0" result="hardAlpha"/>
<feOffset dy="1"/>
<feGaussianBlur stdDeviation="1"/>
<feComposite in2="hardAlpha" operator="out"/>
<feColorMatrix type="matrix" values="0 0 0 0 0 0 0 0 0 0 0 0 0 0 0 0 0 0 0.2 0"/>
<feBlend mode="normal" in2="BackgroundImageFix" result="effect1_dropShadow_616_114"/>
<feBlend mode="normal" in="SourceGraphic" in2="effect1_dropShadow_616_114" result="shape"/>
</filter>
<clipPath id="clip0_616_114">
<path d="M2 9C2 4.58172 5.58172 1 10 1H36C40.4183 1 44 4.58172 44 9V34C44 38.4183 40.4183 42 36 42H2V9Z" fill="white"/>
</clipPath>
<clipPath id="clip1_616_114">
<rect width="21" height="22" fill="white" transform="translate(13 11)"/>
</clipPath>
</defs>
</svg>
