<svg width="1920" height="454" viewBox="0 0 1920 454" fill="none" xmlns="http://www.w3.org/2000/svg">
<g opacity="0.6" filter="url(#filter0_d_535_531)">
<path opacity="0.3" d="M1939.65 643.95C1920.87 726.738 1893.6 807.613 1858.22 885.448C2001.67 514.083 1957.47 192.702 1876.59 -36.7785C1835.59 -153.134 1785.15 -245.864 1744.96 -309.506C1724.87 -341.328 1707.34 -365.878 1694.83 -382.475C1688.57 -390.774 1683.57 -397.084 1680.14 -401.32C1678.42 -403.438 1677.09 -405.038 1676.19 -406.109C1675.74 -406.644 1675.4 -407.047 1675.17 -407.317C1675.06 -407.452 1674.97 -407.553 1674.91 -407.621L1674.85 -407.697L1674.83 -407.717C1674.82 -407.721 1674.82 -407.723 1674.45 -407.396L1674.82 -407.723L1674.77 -407.787L1674.69 -407.83C1556.46 -475.629 1369.78 -502.749 1174.66 -499.263C983.137 -495.841 783.397 -462.929 632.127 -409.977C656.058 -421.549 680.649 -433.121 705.901 -444.693C890.427 -528.459 1101.27 -549.47 1281.57 -539.028C1371.72 -533.807 1454.23 -520.723 1521.98 -503.696C1589.7 -486.676 1642.65 -465.726 1673.76 -444.773C1866.56 -212.719 1971.03 73.1818 1970.5 367.378C1970.57 460.328 1960.23 553.028 1939.65 643.95Z" fill="#FAFAFA" stroke="black"/>
<path opacity="0.2" d="M1202.65 -421.472L1202.67 -421.476L1202.68 -421.48C1269.98 -444.095 1348.54 -437.661 1422.99 -415.153C1497.44 -392.646 1567.73 -354.082 1618.45 -312.507C1712.83 -235.145 1757.44 -103.701 1783.74 8.55829C1840.55 262.01 1868.68 485.387 1792.34 774.213C1787.96 790.583 1773.73 828.81 1753.38 857.792C1743.2 872.287 1731.52 884.415 1718.83 890.37C1706.18 896.306 1692.49 896.129 1678.15 885.954C1662.1 874.478 1656.08 855.163 1652.05 836.906L1652.05 836.905C1644.6 803.503 1640.74 769.602 1637.65 735.557C1636.81 726.302 1636.03 717.035 1635.25 707.765C1633.15 682.944 1631.05 658.098 1627.85 633.388C1596.36 382.565 1462.31 152.596 1303.31 -51.1594C1296.94 -59.3469 1290.5 -67.5298 1284.05 -75.726C1244.03 -126.586 1203.6 -177.958 1174.55 -234.083L1174.55 -234.086C1163.31 -255.517 1154.02 -277.804 1146.79 -300.706C1137.68 -330.211 1133.28 -364.118 1151.79 -389.157C1164.75 -404.623 1182.52 -415.921 1202.65 -421.472ZM1630.6 957.358L1630.6 957.358C1633.02 955.877 1635.58 954.596 1638.24 953.529C1652.09 948.073 1666.81 949.446 1677.7 956.123C1688.58 962.791 1695.68 974.763 1694.29 990.609C1693.34 1001.76 1686.65 1013.37 1677.01 1021.36C1667.38 1029.34 1654.87 1033.67 1642.3 1030.39C1631.17 1027.46 1621.24 1021.47 1613.79 1013.18L1613.78 1013.18L1613.78 1013.17C1611.17 1010.46 1609.18 1007.28 1607.93 1003.82C1606.86 1000.26 1606.6 996.528 1607.16 992.867L1607.16 992.859L1607.16 992.851C1608.03 985.682 1610.58 978.781 1614.63 972.644C1618.68 966.507 1624.13 961.286 1630.6 957.358Z" fill="#FAFAFA" stroke="black"/>
<path opacity="0.2" d="M265.428 -43.062L265.428 -43.0619C285.9 -35.6141 300.521 -23.3974 310.349 -7.57054C320.182 8.26433 325.234 27.7411 326.513 49.7252C329.072 93.7041 316.527 147.609 297.133 202.16C258.351 311.251 192.259 422.72 165.312 462.092L165.312 462.093C149.528 485.206 132.054 508.459 105.879 521.226L105.875 521.228C76.9798 535.659 49.5174 531.657 26.6473 518.099C3.75868 504.53 -14.5263 481.385 -24.9712 457.57C-36.0665 431.71 -42.5407 404.313 -44.134 376.479C-48.1642 304.241 -37.8218 222.174 -2.80283 155.165C20.9275 110.114 66.6563 52.7347 117.161 10.5289C142.412 -10.573 168.836 -27.8644 194.281 -37.9302C219.728 -47.9971 244.146 -50.8183 265.428 -43.062ZM427.749 -169.965L427.75 -169.965C450.58 -162.501 460.761 -146.839 461.779 -129.452C462.799 -112.024 454.614 -92.7927 440.538 -78.274C429.786 -68.8506 416.449 -62.4137 402.016 -59.6859C387.587 -56.9589 372.634 -58.0472 358.828 -62.8282C348.989 -67.7577 340.868 -75.2268 335.422 -84.3467C329.973 -93.4717 327.43 -103.868 328.091 -114.304C330.309 -134.297 343.887 -151.933 362.61 -162.718C381.331 -173.501 405.145 -177.4 427.749 -169.965Z" fill="#FAFAFA" stroke="black"/>
<g opacity="0.7">
<path d="M1759.86 998.786L1759.85 998.794L1759.85 998.802C1759.81 998.867 1759.78 998.93 1759.74 998.993C1759.65 999.13 1759.56 999.262 1759.46 999.388L1759.45 999.404L1759.43 999.42C1742.4 1024.65 1647.1 1147.3 1349.76 1243.42C1163.77 1303.6 951.193 1316.27 805.478 1316.27C704.023 1316.27 625.081 1310.21 592.242 1307.24L382.719 1002.21L382.632 1002.09L382.489 1002.03L-50.6385 832.397C449.083 369.037 1123.69 109.526 1826.4 110.361C1853.89 110.361 1881.46 110.85 1908.86 111.665C1926.57 195.855 1935.38 281.481 1935.16 367.295C1935.41 588.407 1875.05 805.866 1759.86 998.786Z" fill="#EBEBEB" stroke="black"/>
<path d="M382.72 1002.21L382.633 1002.09L382.49 1002.03L-51.0749 832.397C192.229 607.265 479.222 427.905 794.403 303.991C631.487 413.319 501.157 594.754 473.226 766.477C459.148 853.031 471.082 937.142 518.003 1008.29C564.924 1079.44 646.792 1137.57 772.464 1172.24C1255.66 1305.56 1663.62 1067.47 1808.65 909.176C1793.8 939.587 1777.4 969.531 1759.86 998.784L1759.85 998.793L1759.85 998.801C1759.74 999.007 1759.61 999.203 1759.46 999.388L1759.45 999.403L1759.44 999.42C1742.41 1024.65 1647.1 1147.22 1349.77 1243.42C1163.77 1303.6 951.194 1316.26 805.479 1316.26C704.024 1316.26 625.082 1310.21 592.243 1307.24L382.72 1002.21Z" fill="#E6E6E6" stroke="black"/>
<path d="M1168.67 174.919C1183.78 171.98 1201.85 168.12 1220.52 164.133C1248.86 158.077 1278.59 151.727 1301.43 147.859C1339.31 141.444 1397.88 132.068 1435.59 127.791C1443 127.024 1455.48 125.698 1469.37 124.221C1494.24 121.576 1523.67 118.447 1536.78 117.181C1563.32 114.446 1599.58 112.659 1632.15 111.053C1646.61 110.341 1660.33 109.664 1672.16 108.956C1689.37 107.84 1718.4 107.898 1743.21 107.947C1754.95 107.971 1765.74 107.993 1773.88 107.887C1810.28 106.907 1860.16 108.897 1898.88 110.693C1895.56 110.703 1892.24 110.719 1888.92 110.739M1168.67 174.919C1143.13 180.785 1110.79 189.27 1080.65 197.176C1065.16 201.241 1050.25 205.152 1037.14 208.476M1168.67 174.919L1168.77 175.41C1168.77 175.409 1168.77 175.409 1168.78 175.408M1168.67 174.919L1168.78 175.406C1168.78 175.407 1168.78 175.407 1168.78 175.408M1037.14 208.476C627.885 325.729 248.127 539.712 -48.6356 829.283C-46.4135 827.349 -44.189 825.419 -41.9622 823.493M1037.14 208.476L1037.27 208.961C1037.27 208.96 1037.27 208.959 1037.27 208.959M1037.14 208.476L1037.28 208.957C1037.28 208.957 1037.28 208.958 1037.27 208.959M-41.9622 823.493C-44.078 825.542 -46.1896 827.595 -48.297 829.651C489.751 361.47 1165.53 113.494 1898.87 111.193C1895.63 111.043 1892.3 110.891 1888.92 110.739M-41.9622 823.493C492.65 361.081 1162.32 115.225 1888.92 110.739M-41.9622 823.493C253.798 537.104 630.994 325.36 1037.27 208.959M1888.92 110.739C1851.89 109.085 1807.23 107.489 1773.89 108.387L1773.89 108.387C1765.73 108.493 1754.93 108.471 1743.18 108.447C1718.38 108.398 1689.38 108.34 1672.2 109.455L1672.19 109.455C1660.35 110.164 1646.62 110.841 1632.16 111.553C1599.59 113.159 1563.36 114.945 1536.83 117.678L1536.83 117.679C1523.72 118.945 1494.3 122.073 1469.43 124.717C1455.54 126.195 1443.06 127.521 1435.64 128.288M1435.64 128.288C1397.95 132.563 1339.39 141.937 1301.51 148.352C1278.68 152.219 1248.98 158.564 1220.65 164.617C1201.98 168.604 1183.91 172.465 1168.78 175.408M1435.64 128.288C1435.64 128.288 1435.64 128.288 1435.64 128.288L1435.59 127.797L1435.64 128.288C1435.64 128.288 1435.64 128.288 1435.64 128.288ZM1037.27 208.959C1050.38 205.633 1065.3 201.721 1080.79 197.656C1110.92 189.753 1143.25 181.273 1168.78 175.408" fill="white" stroke="black"/>
<path d="M1530.21 233.705L1530.21 233.705C1564.28 245.396 1583.7 264.786 1587.76 286.569C1591.81 308.345 1580.54 332.749 1552.69 354.566C1524.85 376.378 1485.8 391.425 1445.16 398.078C1404.53 404.73 1362.35 402.979 1328.25 391.251C1294.14 379.519 1274.71 360.129 1270.67 338.357C1266.63 316.591 1277.92 292.208 1305.77 270.391C1333.62 248.578 1372.66 233.531 1413.3 226.879C1453.94 220.226 1496.11 221.977 1530.21 233.705Z" fill="#F0F0F0" stroke="black"/>
<path d="M1574.86 288.793C1578.5 308.372 1565.69 328.872 1541.7 346.185C1517.75 363.478 1482.78 377.483 1442.48 384.074C1402.18 390.665 1364.22 388.585 1335.44 379.917C1306.63 371.238 1287.17 356.016 1283.53 336.436C1279.89 316.857 1292.71 296.357 1316.69 279.044C1340.65 261.752 1375.61 247.746 1415.92 241.156C1456.22 234.565 1494.17 236.645 1522.95 245.313C1551.77 253.992 1571.22 269.214 1574.86 288.793Z" fill="#E0E0E0" stroke="black"/>
<path opacity="0.1" d="M1321.25 306.445L1321.26 306.437L1321.27 306.428C1347.28 287.733 1383.31 274.595 1420.62 268.486C1457.93 262.378 1496.48 263.307 1527.51 272.697L1527.51 272.697C1551.09 279.798 1566.8 290.773 1574.55 303.542C1569.35 320.905 1557.74 335.98 1541.77 346.065L1541.76 346.074L1541.75 346.083C1515.91 364.736 1479.89 377.854 1442.53 383.962C1405.18 390.071 1366.54 389.162 1335.51 379.813L1335.37 380.272L1335.51 379.813C1311.93 372.712 1296.22 361.737 1288.47 348.968C1293.65 331.595 1305.27 316.515 1321.25 306.445Z" fill="black" stroke="black"/>
<path d="M1298.18 262.797C1298.18 262.797 1298.18 262.797 1298.18 262.798C1285.5 272.698 1274.72 284.554 1266.28 297.858L1266.28 297.865L1266.27 297.872C1258.53 311.056 1253.96 325.672 1252.88 340.694L1252.88 340.711L1252.88 340.727C1252.79 357.116 1250.02 373.396 1244.67 388.999C1241.65 396.469 1237.82 403.627 1233.23 410.359L1233.23 410.372L1233.22 410.385C1229.22 417.091 1223.68 422.879 1216.99 427.322C1216.03 427.857 1214.76 427.507 1213.77 426.624C1212.77 425.736 1212.33 424.557 1212.7 423.706C1216.8 417.062 1221.38 410.688 1226.4 404.627L1226.42 404.604L1226.44 404.578C1230.92 397.626 1234.55 390.225 1237.28 382.514L1237.28 382.514C1239.94 374.946 1241.74 367.135 1242.65 359.21L1242.65 359.207C1243.08 355.133 1243.29 351.027 1243.49 346.933C1243.52 346.464 1243.54 345.995 1243.56 345.526C1243.79 340.961 1244.06 336.415 1244.67 331.914L1244.67 331.912C1248.4 303.558 1268.57 272.324 1298.2 262.705C1298.2 262.737 1298.19 262.768 1298.18 262.797Z" fill="#E0E0E0" stroke="black"/>
<path d="M1567.1 251.195C1554.57 244.665 1541.12 239.419 1527.05 235.574C1528.81 235.453 1530.58 235.481 1532.33 235.657C1532.87 235.728 1533.42 235.82 1533.97 235.915C1534.26 235.963 1534.54 236.012 1534.84 236.059C1535.67 236.193 1536.52 236.305 1537.34 236.308C1540.9 236.836 1544.4 237.576 1547.83 238.521L1547.84 238.523L1547.85 238.525C1555.06 240.271 1562.02 242.674 1568.58 245.687C1581.68 252.003 1592.68 260.875 1600.59 271.509L1600.6 271.511C1604.67 276.937 1607.96 282.682 1611.27 288.462C1611.39 288.668 1611.5 288.874 1611.62 289.08C1615.04 295.055 1618.51 301.053 1622.91 306.694C1626.64 312.076 1631.34 316.961 1636.83 321.186L1636.84 321.192L1636.85 321.198C1638.8 322.571 1641.01 323.679 1643.17 324.761C1643.77 325.061 1644.36 325.358 1644.95 325.659C1647.67 327.059 1650.17 328.533 1651.99 330.613C1652.09 330.74 1652.22 330.956 1652.32 331.219C1652.43 331.482 1652.49 331.753 1652.5 331.979C1652.51 332.217 1652.45 332.318 1652.42 332.349C1652.41 332.359 1652.33 332.441 1652.01 332.385L1651.94 332.373L1651.87 332.381C1645.3 333.083 1638.89 330.61 1633.21 326.909C1627.54 323.215 1622.63 318.33 1619.06 314.283C1610.89 303.606 1603.74 292.423 1597.68 280.837L1597.67 280.825L1597.66 280.813C1590.63 268.997 1580.13 258.823 1567.12 251.207L1567.11 251.201L1567.1 251.195Z" fill="#E0E0E0" stroke="black"/>
<path d="M1295.5 397.524L1295.5 397.531L1295.51 397.537C1296.01 398.204 1296.26 398.802 1296.35 399.351C1296.44 399.9 1296.37 400.435 1296.19 400.983C1296 401.536 1295.7 402.095 1295.34 402.688C1295.16 402.983 1294.97 403.282 1294.77 403.59L1294.74 403.641C1294.55 403.932 1294.35 404.232 1294.16 404.538C1292.58 407.099 1291.17 409.658 1289.77 412.205L1289.77 412.209L1289.76 412.218L1289.76 412.226C1287.09 417.554 1284.91 423.084 1283.24 428.758L1283.23 428.763C1282.81 430.267 1282.42 431.805 1282.03 433.348C1281.03 437.272 1280.03 441.231 1278.4 444.769C1276.14 449.651 1272.71 453.636 1266.48 455.396L1266.45 455.405L1266.42 455.417C1266.41 455.423 1266.4 455.422 1266.4 455.42L1266.4 455.42C1266.38 455.415 1266.34 455.398 1266.28 455.341C1266.15 455.224 1266.02 455.004 1265.92 454.717C1265.82 454.435 1265.78 454.137 1265.8 453.893C1265.82 453.652 1265.89 453.536 1265.94 453.488C1270.52 450.504 1272.64 445.627 1273.94 440.475C1274.56 438.032 1275 435.502 1275.42 433.062C1275.44 432.923 1275.47 432.785 1275.49 432.648C1275.94 430.073 1276.38 427.612 1277.01 425.423C1278.72 419.814 1280.91 414.342 1283.55 409.057C1284.77 406.678 1285.91 404.551 1287.48 401.933C1287.53 401.846 1287.58 401.758 1287.63 401.672C1289.18 399.09 1290.57 396.77 1293.61 396.331L1293.61 396.331L1293.61 396.33C1293.98 396.273 1294.31 396.381 1294.63 396.605C1294.96 396.835 1295.25 397.173 1295.5 397.524Z" fill="#E0E0E0" stroke="black"/>
<path d="M1357.49 415.658V415.693L1357.49 415.727C1358.14 420.434 1357.96 425.21 1356.97 429.865L1356.97 429.889L1356.96 429.913C1356.72 432.07 1356.45 434.25 1356.18 436.441C1355.88 438.89 1355.57 441.353 1355.3 443.814C1354.81 448.158 1354.4 452.573 1353.99 456.922C1353.96 457.272 1353.93 457.621 1353.89 457.97L1353.89 457.969L1353.89 457.978C1353.82 458.9 1353.69 459.806 1353.57 460.722C1353.54 460.931 1353.51 461.141 1353.48 461.351C1353.33 462.468 1353.19 463.601 1353.19 464.742C1352.99 467.509 1352.24 470.217 1350.98 472.73C1350.74 473.062 1350.48 473.211 1350.21 473.263C1349.92 473.318 1349.58 473.269 1349.22 473.119C1348.49 472.815 1347.82 472.164 1347.57 471.632C1346.6 469.288 1346.14 466.79 1346.21 464.28L1346.21 464.255L1346.21 464.23C1346.04 461.901 1346.04 459.564 1346.21 457.235C1346.65 452.467 1347.08 447.866 1347.61 443.102C1348.13 438.343 1348.83 433.582 1349.62 428.817L1349.63 428.797L1349.63 428.776C1350.02 423.802 1351.28 418.922 1353.35 414.325C1353.57 413.948 1353.9 413.754 1354.29 413.688C1354.72 413.618 1355.22 413.694 1355.72 413.892C1356.22 414.09 1356.68 414.393 1357 414.732C1357.34 415.079 1357.49 415.408 1357.49 415.658Z" fill="#E0E0E0" stroke="black"/>
<path d="M1454.82 435.103L1454.82 435.103L1454.82 435.109C1455.17 439.318 1455.34 443.526 1455.34 447.734V447.751L1455.34 447.769C1455.48 449.663 1455.48 451.563 1455.34 453.457L1455.34 453.494L1455.34 453.532C1455.51 455.628 1455.12 457.731 1454.19 459.647C1454.05 459.819 1453.9 459.894 1453.73 459.918C1453.53 459.945 1453.28 459.906 1453.01 459.793C1452.45 459.565 1451.93 459.109 1451.72 458.766C1450.86 456.974 1450.41 455.036 1450.38 453.074L1450.38 453.004L1450.36 452.937C1449.77 450.961 1449.77 449.059 1449.77 446.994V446.961L1449.76 446.928C1449.24 443.018 1449.24 438.94 1449.24 434.821V434.808L1449.24 434.796C1449.13 432.678 1449.01 430.588 1448.9 428.518C1448.54 422.13 1448.19 415.935 1448.19 409.735C1448.19 409.232 1448.35 409.075 1448.46 409.015C1448.6 408.934 1448.87 408.91 1449.26 409.03C1449.63 409.146 1450.03 409.374 1450.36 409.66C1450.68 409.949 1450.9 410.259 1450.98 410.521C1452.95 418.607 1454.23 426.827 1454.82 435.103Z" fill="#E0E0E0" stroke="black"/>
<path d="M1541.22 408.425L1541.22 408.432L1541.22 408.439C1541.74 409.765 1542.28 411.081 1542.81 412.4C1543.54 414.212 1544.28 416.031 1544.99 417.888C1545.6 419.614 1546.21 421.328 1546.73 423.039C1546.82 423.333 1546.93 423.675 1547.04 424.05C1547.31 424.883 1547.62 425.877 1547.85 426.866C1548.02 427.577 1548.14 428.253 1548.15 428.824C1548.17 429.412 1548.09 429.801 1547.94 430.015C1547.49 430.672 1547.03 431.052 1546.57 431.173C1546.14 431.285 1545.6 431.2 1544.9 430.656C1542.86 428.805 1541.35 426.506 1540.5 423.971L1540.49 423.942L1540.47 423.913C1539.72 422.347 1539.05 420.744 1538.48 419.112L1538.47 419.108L1534.79 408.909L1534.79 408.896L1534.78 408.882C1531.77 401.852 1529.61 394.53 1528.33 387.051C1528.28 386.526 1528.39 386.252 1528.5 386.115C1528.62 385.98 1528.81 385.892 1529.09 385.892C1529.69 385.892 1530.48 386.288 1530.92 386.901C1535.09 393.745 1538.54 400.954 1541.22 408.425Z" fill="#E0E0E0" stroke="black"/>
<path d="M1608.28 390.637L1608.3 390.654L1608.33 390.668C1611.35 392.548 1614.03 394.868 1616.26 397.54C1616.41 397.745 1616.48 397.981 1616.47 398.219C1616.47 398.462 1616.39 398.702 1616.23 398.906C1616.07 399.11 1615.85 399.269 1615.59 399.356C1615.33 399.442 1615.05 399.452 1614.78 399.385C1612.07 398.539 1609.49 397.369 1607.1 395.904L1607.09 395.897L1607.08 395.891C1604.49 394.484 1602.02 392.902 1599.68 391.159L1599.68 391.159L1599.68 391.154C1595.86 388.402 1592.22 385.448 1588.76 382.307L1588.76 382.307L1588.75 382.301C1580.8 375.33 1574.06 367.24 1568.77 358.323C1568.39 357.673 1568.33 357.12 1568.43 356.697C1568.52 356.273 1568.79 355.928 1569.17 355.709C1569.91 355.275 1571.09 355.332 1571.99 356.429C1578.9 364.818 1586.51 372.676 1594.76 379.927L1594.76 379.927C1597.58 382.406 1600.57 384.717 1603.55 386.94L1608.28 390.637Z" fill="#E0E0E0" stroke="black"/>
<path d="M1598.51 330.696C1600.59 335.578 1603.56 340.086 1607.28 344.02L1631.83 366.063C1636.77 369.872 1642.5 372.673 1648.66 374.287M1598.51 330.696L1598.99 330.547C1598.98 330.539 1598.98 330.532 1598.98 330.524M1598.51 330.696C1598.07 329.298 1599.3 327.982 1600.44 329.298C1602.16 331.245 1603.74 333.144 1605.31 335.015C1607.24 337.332 1609.14 339.607 1611.22 341.882M1598.51 330.696L1598.97 330.5C1598.97 330.508 1598.97 330.516 1598.98 330.524M1598.98 330.524C1601.04 335.341 1603.97 339.791 1607.64 343.677L1607.65 343.688L1607.66 343.699C1611.22 347.941 1615.07 351.964 1619.19 355.743M1598.98 330.524C1598.82 329.99 1598.99 329.542 1599.21 329.358C1599.31 329.273 1599.41 329.243 1599.52 329.259C1599.64 329.277 1599.83 329.358 1600.06 329.625L1600.06 329.625L1600.06 329.629C1601.78 331.571 1603.36 333.464 1604.92 335.335C1605.11 335.558 1605.29 335.781 1605.48 336.003C1607.22 338.089 1608.96 340.153 1610.85 342.217M1619.19 355.743L1618.85 356.111L1619.19 355.743ZM1619.19 355.743C1623.17 359.396 1627.49 362.709 1632.1 365.641L1632.12 365.653L1632.13 365.667C1637.01 369.428 1642.68 372.197 1648.76 373.797M1648.76 373.797C1648.76 373.796 1648.75 373.794 1648.74 373.793L1648.66 374.287M1648.76 373.797C1648.77 373.799 1648.78 373.801 1648.79 373.804L1648.66 374.287M1648.76 373.797C1649.19 373.856 1649.52 373.77 1649.75 373.622C1649.99 373.468 1650.17 373.224 1650.27 372.919C1650.47 372.303 1650.33 371.479 1649.73 370.872M1648.66 374.287C1650.86 374.616 1651.56 371.985 1650.07 370.504M1650.07 370.504L1649.74 370.885C1649.74 370.88 1649.73 370.876 1649.73 370.872M1650.07 370.504C1647.44 368.263 1644.49 366.381 1641.3 364.911C1639.02 363.678 1636.83 362.362 1634.63 360.963M1650.07 370.504L1649.71 370.859C1649.72 370.863 1649.72 370.867 1649.73 370.872M1649.73 370.872C1647.14 368.667 1644.23 366.813 1641.09 365.365L1641.07 365.359L1641.06 365.351C1638.77 364.111 1636.57 362.789 1634.37 361.387M1634.37 361.387C1634.37 361.387 1634.37 361.388 1634.37 361.389L1634.63 360.963M1634.37 361.387C1634.37 361.386 1634.37 361.386 1634.37 361.385L1634.63 360.963M1634.37 361.387C1629.97 358.663 1625.57 355.527 1621.78 352.389M1634.63 360.963C1630.25 358.249 1625.87 355.124 1622.1 351.998M1622.1 351.998L1621.79 352.394C1621.79 352.392 1621.78 352.39 1621.78 352.389M1622.1 351.998C1618.15 348.943 1614.51 345.557 1611.22 341.882M1622.1 351.998L1621.78 352.383C1621.78 352.385 1621.78 352.387 1621.78 352.389M1621.78 352.389C1617.82 349.317 1614.16 345.913 1610.85 342.217M1611.22 341.882L1610.85 342.22C1610.85 342.219 1610.85 342.218 1610.85 342.217M1611.22 341.882L1610.85 342.215C1610.85 342.216 1610.85 342.217 1610.85 342.217" fill="#E0E0E0" stroke="black"/>
<path d="M932.329 309.994C940.005 307.674 948.155 307.074 956.124 308.242C963.303 309.705 967.656 313.083 969.065 317.225C970.472 321.357 969.021 326.469 964.103 331.573C958.378 336.873 951.406 340.843 943.745 343.163C936.084 345.483 927.95 346.087 919.994 344.926C912.77 343.462 908.396 340.083 906.976 335.942C905.56 331.81 907.01 326.699 911.928 321.595C917.666 316.288 924.653 312.314 932.329 309.994Z" fill="#F0F0F0" stroke="black"/>
<path d="M933.257 313.048C940.269 310.926 947.685 310.241 955.004 311.041C961.543 312.1 965.385 314.834 966.545 318.223C967.701 321.599 966.285 325.903 961.662 330.325C956.226 334.982 949.786 338.491 942.775 340.613C935.763 342.735 928.347 343.419 921.029 342.62C914.534 341.561 910.69 338.827 909.52 335.437C908.353 332.06 909.748 327.756 914.37 323.335C919.806 318.679 926.247 315.169 933.257 313.048Z" fill="#E0E0E0" stroke="black"/>
<path opacity="0.1" d="M916.111 328.774L916.112 328.773C921.554 324.122 928.002 320.622 935.018 318.513C942.034 316.403 949.452 315.735 956.768 316.553L956.89 316.566L957.004 316.522C957.99 316.141 959.049 315.954 960.117 315.973C961.184 315.992 962.235 316.217 963.204 316.634C964.173 317.05 965.037 317.648 965.745 318.389C966.453 319.13 966.988 319.998 967.32 320.937C967.652 321.876 967.774 322.869 967.679 323.853C967.584 324.837 967.273 325.794 966.766 326.664C966.258 327.534 965.563 328.298 964.723 328.909C963.883 329.52 962.916 329.963 961.882 330.21L961.764 330.238L961.672 330.316C956.234 334.978 949.79 338.49 942.774 340.613C935.759 342.736 928.338 343.42 921.015 342.619L921.015 342.618L921.008 342.618C917.137 342.25 913.561 340.545 910.968 337.848C911.505 334.364 913.319 331.153 916.111 328.774Z" fill="black" stroke="black"/>
<path d="M898.386 355.137C898.975 353.781 899.659 352.462 900.432 351.188L900.447 351.163L900.459 351.136C901.171 349.567 901.711 347.935 902.071 346.264L902.077 346.238L902.08 346.212C902.257 344.563 902.257 342.902 902.08 341.252L902.076 341.223L902.07 341.193C901.646 339.366 901.644 337.612 901.644 335.713V335.703L901.644 335.693C901.521 332.69 902.241 329.707 903.736 327.044C904.741 325.253 906.072 323.648 907.664 322.298C906.333 324.079 905.226 326.004 904.366 328.034L904.366 328.034L904.363 328.041C903.166 330.995 902.675 334.162 902.925 337.315L902.927 337.338L902.931 337.36C903.491 340.625 903.491 343.953 902.932 347.218C902.612 348.795 902.068 350.324 901.315 351.767L901.304 351.786L901.296 351.806C900.725 353.178 899.836 354.416 898.689 355.429C898.656 355.408 898.613 355.374 898.56 355.324C898.497 355.266 898.438 355.2 898.386 355.137Z" fill="#E0E0E0" stroke="black"/>
<path d="M983.351 324.356C982.271 324.497 981.117 324.138 979.998 323.515C978.764 322.829 977.642 321.86 976.825 321.054C974.755 318.825 972.897 316.429 971.276 313.895L971.27 313.886L971.263 313.877C969.412 311.25 966.866 309.125 963.878 307.709L963.871 307.705L963.863 307.702C962.433 307.081 960.962 306.551 959.459 306.117C964.014 306.773 968.15 308.966 971.094 312.276C972.124 313.443 973.006 314.714 973.907 316.012L973.915 316.024C974.808 317.311 975.72 318.626 976.791 319.84C977.78 320.981 978.938 321.981 980.23 322.81L980.23 322.81L980.235 322.813C980.69 323.098 981.227 323.315 981.717 323.514C981.843 323.564 981.965 323.614 982.082 323.663C982.582 323.872 983.013 324.082 983.351 324.356Z" fill="#E0E0E0" stroke="black"/>
<path d="M910.737 357.842C910.648 358.148 910.537 358.437 910.394 358.702C910.564 358.243 910.679 357.76 910.757 357.281C910.938 356.18 910.939 355.024 910.939 354.091C911.113 352.909 911.369 351.74 911.704 350.589C911.878 350.1 912.046 349.629 912.297 349.08C912.432 348.786 912.566 348.502 912.718 348.292C912.882 348.066 912.971 348.057 912.982 348.057H912.985H912.988H912.991H912.994H912.997H913H913.003H913.006H913.009H913.012H913.015H913.018H913.021H913.024H913.027H913.03H913.033H913.035H913.038H913.041H913.044H913.047H913.05H913.052H913.055H913.058H913.061H913.064H913.066H913.069H913.072H913.074H913.077H913.08H913.083H913.085H913.088H913.09H913.093H913.096H913.098H913.101H913.104H913.106H913.109H913.111H913.114H913.116H913.119H913.121H913.124H913.126H913.129H913.131H913.134H913.136H913.139H913.141H913.144H913.146H913.148H913.151H913.153H913.155H913.158H913.16H913.163H913.165H913.167H913.169H913.172H913.174H913.176H913.179H913.181H913.183H913.185H913.188H913.19H913.192H913.194H913.196H913.198H913.201H913.203H913.205H913.207H913.209H913.211H913.213H913.215H913.218H913.22H913.222H913.224H913.226H913.228H913.23H913.232H913.234H913.236H913.238H913.24H913.242H913.244H913.246H913.248H913.249C913.299 348.166 913.306 348.28 913.281 348.405C913.239 348.615 913.101 348.864 912.876 349.111L912.835 349.156L912.805 349.21C912.504 349.765 912.257 350.344 912.067 350.942L912.067 350.942L912.065 350.947C911.712 352.103 911.443 353.28 911.26 354.471C911.2 354.852 911.154 355.255 911.109 355.649C911.087 355.84 911.066 356.028 911.043 356.211C910.971 356.787 910.885 357.336 910.737 357.842Z" fill="#E0E0E0" stroke="black"/>
<path d="M927.012 352.574C927.077 351.602 926.958 350.628 926.661 349.695C926.361 350.095 926.361 350.095 926.361 350.095L926.361 350.095L926.361 350.096L926.362 350.096L926.359 350.094C926.355 350.091 926.348 350.086 926.34 350.08C926.322 350.068 926.295 350.05 926.262 350.031C926.204 349.995 926.138 349.96 926.076 349.935C925.935 350.836 925.943 351.753 926.101 352.652L926.109 352.695V352.738V355.699V355.705V355.711V355.717V355.722V355.728V355.734V355.74V355.746V355.751V355.757V355.763V355.769V355.775V355.78V355.786V355.792V355.798V355.803V355.809V355.815V355.821V355.827V355.832V355.838V355.844V355.85V355.855V355.861V355.867V355.873V355.879V355.884V355.89V355.896V355.902V355.907V355.913V355.919V355.925V355.931V355.936V355.942V355.948V355.954V355.96V355.965V355.971V355.977V355.983V355.988V355.994V356V356.006V356.012V356.017V356.023V356.029V356.035V356.04V356.046V356.052V356.058V356.064V356.069V356.075V356.081V356.087V356.092V356.098V356.104V356.11V356.115V356.121V356.127V356.133V356.139V356.144V356.15V356.156V356.162V356.167V356.173V356.179V356.185V356.191V356.196V356.202V356.208V356.214V356.219V356.225V356.231V356.237V356.242V356.248V356.254V356.26V356.265V356.271V356.277V356.283V356.289V356.294V356.3V356.306V356.312V356.317V356.323V356.329V356.335V356.34V356.346V356.352V356.358V356.363V356.369V356.375V356.381V356.386V356.392V356.398V356.404V356.409V356.415V356.421V356.427V356.433V356.438V356.444V356.45V356.456V356.461V356.467V356.473V356.479V356.484V356.49V356.496V356.502V356.507V356.513V356.519V356.524V356.53V356.536V356.542V356.547V356.553V356.559V356.565V356.57V356.576V356.582V356.588V356.593V356.599V356.605V356.611V356.616V356.622V356.628V356.634V356.639V356.645V356.651V356.656V356.662V356.668V356.674V356.679V356.685V356.691V356.697V356.702V356.708V356.714V356.72V356.725V356.731V356.737V356.742V356.748V356.754V356.76V356.765V356.771V356.777V356.782V356.788V356.794V356.8V356.805V356.811V356.817V356.822V356.828V356.834V356.84V356.845V356.851V356.857V356.862V356.868V356.874V356.88V356.885V356.891V356.897V356.902V356.908V356.914V356.919V356.925V356.931V356.937V356.942V356.948V356.954V356.959V356.965V356.971V356.976V356.982V356.988V356.994V356.999V357.005V357.011V357.016V357.022V357.028V357.033V357.039V357.045V357.05V357.056V357.062V357.067V357.073V357.079V357.084V357.09V357.096V357.101V357.107V357.113V357.118V357.124V357.13V357.135V357.141V357.147V357.152V357.158V357.164V357.169V357.175V357.181V357.186V357.192V357.198V357.203V357.209V357.215V357.22V357.226V357.232V357.237V357.243V357.249V357.254V357.26V357.266V357.271V357.277V357.283V357.288V357.294V357.299V357.305V357.311V357.316V357.322V357.328V357.333V357.339V357.345V357.35V357.356V357.361V357.367V357.373V357.378V357.384V357.39V357.395V357.401V357.406V357.412V357.418V357.423V357.429V357.434V357.44V357.446V357.451V357.457V357.463V357.468V357.474V357.479V357.485V357.491V357.496V357.502V357.507V357.513V357.519V357.524V357.53V357.535V357.541V357.547V357.552V357.558V357.563V357.569V357.574V357.58V357.586V357.591V357.597V357.602V357.608V357.614V357.619V357.625V357.63V357.636V357.641V357.647V357.653V357.658V357.664V357.669V357.675V357.68V357.686V357.692V357.697V357.703V357.708V357.714V357.719V357.725V357.73V357.736V357.741V357.747V357.753V357.758V357.764V357.769V357.775V357.78V357.786V357.791V357.797V357.802V357.808V357.813V357.819V357.825V357.83V357.836V357.841V357.847V357.852V357.858V357.863V357.869V357.874V357.88V357.885V357.891V357.896V357.902V357.907V357.913V357.918V357.924V357.929V357.935V357.94V357.946V357.951V357.957V357.962V357.968V357.973V357.979V357.984V357.99V357.995V358.001V358.006V358.012V358.017V358.023V358.028V358.034V358.039V358.044V358.05V358.055V358.061V358.066V358.072V358.077V358.083V358.088V358.094V358.099V358.105V358.11V358.115V358.121V358.126V358.132V358.137V358.143V358.148V358.154V358.159V358.164V358.17V358.175V358.181V358.186V358.192V358.197V358.202V358.208V358.213V358.219V358.224V358.23V358.235V358.24V358.246V358.251V358.257V358.262V358.267V358.273V358.278V358.284V358.289V358.294V358.3V358.305V358.311V358.316V358.321V358.327V358.332V358.338V358.343V358.348V358.354V358.359V358.364V358.37V358.375V358.381V358.386V358.391V358.397V358.402V358.407V358.413V358.418V358.423V358.429V358.434V358.439V358.445V358.45V358.456V358.461V358.466V358.472V358.477V358.482V358.488V358.493V358.498V358.504V358.509V358.514V358.519V358.525V358.53V358.535V358.541V358.546V358.551V358.557V358.562V358.567V358.573V358.578V358.6L926.107 358.622C926.066 359.085 926.066 359.551 926.107 360.015L926.107 360.018C926.14 360.43 926.276 360.831 926.504 361.19C926.509 361.194 926.515 361.198 926.521 361.202C926.535 361.211 926.549 361.219 926.563 361.228C926.633 360.794 926.62 360.352 926.524 359.921L926.512 359.867V359.812V359.809V359.806V359.803V359.8V359.797V359.794V359.791V359.789V359.786V359.783V359.78V359.777V359.774V359.771V359.768V359.765V359.763V359.76V359.757V359.754V359.751V359.748V359.745V359.742V359.739V359.737V359.734V359.731V359.728V359.725V359.722V359.719V359.716V359.713V359.711V359.708V359.705V359.702V359.699V359.696V359.693V359.69V359.687V359.685V359.682V359.679V359.676V359.673V359.67V359.667V359.664V359.661V359.659V359.656V359.653V359.65V359.647V359.644V359.641V359.638V359.635V359.633V359.63V359.627V359.624V359.621V359.618V359.615V359.612V359.61V359.607V359.604V359.601V359.598V359.595V359.592V359.589V359.586V359.584V359.581V359.578V359.575V359.572V359.569V359.566V359.563V359.561V359.558V359.555V359.552V359.549V359.546V359.543V359.54V359.538V359.535V359.532V359.529V359.526V359.523V359.52V359.517V359.515V359.512V359.509V359.506V359.503V359.5V359.497V359.494V359.492V359.489V359.486V359.483V359.48V359.477V359.474V359.472V359.469V359.466V359.463V359.46V359.457V359.454V359.451V359.449V359.446V359.443V359.44V359.437V359.434V359.431V359.429V359.426V359.423V359.42V359.417V359.414V359.411V359.409V359.406V359.403V359.4V359.397V359.394V359.391V359.389V359.386V359.383V359.38V359.377V359.374V359.372V359.369V359.366V359.363V359.36V359.357V359.354V359.352V359.349V359.346V359.343V359.34V359.337V359.335V359.332V359.329V359.326V359.323V359.32V359.317V359.315V359.312V359.309V359.306V359.303V359.3V359.298V359.295V359.292V359.289V359.286V359.283V359.281V359.278V359.275V359.272V359.269V359.267V359.264V359.261V359.258V359.255V359.252V359.25V359.247V359.244V359.241V359.238V359.236V359.233V359.23V359.227V359.224V359.221V359.219V359.216V359.213V359.21V359.207V359.205V359.202V359.199V359.196V359.193V359.191V359.188V359.185V359.182V359.179V359.177V359.174V359.171V359.168V359.165V359.163V359.16V359.157V359.154V359.151V359.149V359.146V359.143V359.14V359.137V359.135V359.132V359.129V359.126V359.123V359.121V359.118V359.115V359.112V359.11V359.107V359.104V359.101V359.098V359.096V359.093V359.09V359.087V359.085V359.082V359.079V359.076V359.073V359.071V359.068V359.065V359.062V359.06V359.057V359.054V359.051V359.049V359.046V359.043V359.04V359.038V359.035V359.032V359.029V359.027V359.024V359.021V359.018V359.016V359.013V359.01V359.007V359.005V359.002V358.999V358.996V358.994V358.991V358.988V358.985V358.983V358.98V358.977V358.974V358.972V358.969V358.966V358.964V358.961V358.958V358.955V358.953V358.95V358.947V358.944V358.942V358.939V358.936V358.934V358.931V358.928V358.925V358.923V358.92V358.917V358.915V358.912V358.909V358.907V358.904V358.901V358.898V358.896V358.893V358.89V358.888V358.885V358.882V358.88V358.877V358.874V358.871V358.869V358.866V358.863V358.861V358.858V358.855V358.853V358.85V358.847V358.845V358.842V358.839V358.837V358.834V358.831V358.829V358.826V358.823V358.821V358.818V358.815V358.813V358.81V358.807V358.805V358.802V358.799V358.797V358.794V358.791V358.789V358.786V358.783V358.781V358.778V358.776V358.773V358.77V358.768V358.765V358.762V358.76V358.757V358.754V358.752V358.749V358.747V358.744V358.741V358.739V358.736V358.733V358.731V358.728V358.726V358.723V358.72V358.718V358.715V358.713V358.71V358.707V358.705V358.702V358.7V358.697V358.694V358.692V358.689V358.687V358.684V358.681V358.679V358.676V358.674V358.671V358.668V358.666V358.663V358.661V358.658V358.656V358.653V358.65V358.648V358.645V358.643V358.64V358.638V358.635V358.632V358.63V358.627V358.625V358.622V358.62V358.617V358.615V358.612V358.609V358.607V358.604V358.602V358.599V358.597V358.594V358.592V358.589V358.587V358.584V358.582V358.579V358.576V358.574V358.571V358.569V358.566V358.564V358.561V358.559V358.556V358.554V358.551V358.549V358.546V358.544V358.541V358.539V358.536V358.534V358.531V358.529V358.526V358.524V358.521V358.519V358.516V358.514V358.511V358.509V358.506V358.504V358.501V358.499V358.497V358.494V358.492V358.489V358.487V358.484V358.482V358.479V358.477V358.474V358.472V358.469V358.467V358.465V358.462V358.46V358.457V358.455V358.452V358.45V358.447V358.445V358.443V358.44V358.438V358.435V358.433V358.43V358.428V358.426V358.423V358.421V358.418V358.416V358.414V358.411V358.409V358.406V358.404V358.401V358.399V358.396V358.393V358.391V358.388V358.385V358.383V358.38V358.377V358.374V358.372V358.369V358.366V358.363V358.36V358.357V358.354V358.351V358.348V358.345V358.342V358.339V358.336V358.333V358.33V358.327V358.323V358.32V358.317V358.314V358.31V358.307V358.304V358.3V358.297V358.293V358.29V358.287V358.283V358.28V358.276V358.272V358.269V358.265V358.262V358.258V358.254V358.251V358.247V358.243V358.24V358.236V358.232V358.228V358.224V358.22V358.217V358.213V358.209V358.205V358.201V358.197V358.193V358.189V358.185V358.181V358.177V358.172V358.168V358.164V358.16V358.156V358.152V358.147V358.143V358.139V358.134V358.13V358.126V358.121V358.117V358.113V358.108V358.104V358.099V358.095V358.09V358.086V358.081V358.077V358.072V358.068V358.063V358.058V358.054V358.049V358.044V358.04V358.035V358.03V358.025V358.021V358.016V358.011V358.006V358.001V357.996V357.992V357.987V357.982V357.977V357.972V357.967V357.962V357.957V357.952V357.947V357.942V357.937V357.932V357.926V357.921V357.916V357.911V357.906V357.901V357.895V357.89V357.885V357.88V357.874V357.869V357.864V357.859V357.853V357.848V357.842V357.837V357.832V357.826V357.821V357.815V357.81V357.805V357.799V357.794V357.788V357.782V357.777V357.771V357.766V357.76V357.755V357.749V357.743V357.738V357.732V357.726V357.721V357.715V357.709V357.704V357.698V357.692V357.686V357.68V357.675V357.669V357.663V357.657V357.651V357.646V357.64V357.634V357.628V357.622V357.616V357.61V357.604V357.598V357.592V357.586V357.58V357.574V357.568V357.562V357.556V357.55V357.544V357.538V357.532V357.526V357.52V357.514V357.507V357.501V357.495V357.489V357.483V357.477V357.47V357.464V357.458V357.452V357.446V357.439V357.433V357.427V357.421V357.414V357.408V357.402V357.395V357.389V357.383V357.376V357.37V357.364V357.357V357.351V357.344V357.338V357.332V357.325V357.319V357.312V357.306V357.299V357.293V357.287V357.28V357.274V357.267V357.261V357.254V357.248V357.241V357.235V357.228V357.221V357.215V357.208V357.202V357.195V357.189V357.182V357.175V357.169V357.162V357.156V357.149V357.142V357.136V357.129V357.122V357.116V357.109V357.102V357.096V357.089V357.082V357.076V357.069V357.062V357.056V357.049V357.042V357.035V357.029V357.022V357.015V357.008V357.002V356.995V356.988V356.981V356.975V356.968V356.961V356.954V356.948V356.941V356.934V356.927V356.92V356.914V356.907V356.9V356.893V356.886V356.879V356.873V356.866V356.859V356.852V356.845V356.838V356.832V356.825V356.818V356.811V356.804V356.797V356.79V356.784V356.777V356.77V356.763V356.756V356.749V356.742V356.735V356.729V356.722V356.715V356.708V356.701V356.694V356.687V356.68V356.673V356.666V356.66V356.653V356.646V356.639V356.632V356.625V356.618V356.611V356.604V356.597V356.591V356.584V356.577V356.57V356.563V356.556V356.549V356.542V356.535V356.528V356.521V356.515V356.508V356.501V356.494V356.487V356.48V356.473V356.466V356.459V356.452V356.446V356.439V356.432V356.425V356.418V356.411V356.404V356.397V356.39V356.384V356.377V356.37V356.363V356.356V356.349V356.342V356.335V356.329V356.322V356.315V356.308V356.301V356.294V356.287V356.281V356.274V356.267V356.26V356.253V356.246V356.24V356.233V356.226V356.219V356.212V356.206V356.199V356.192V356.185V356.178V356.172V356.165V356.158V356.151V356.145V356.138V356.131V356.124V356.118V356.111V356.104V356.097V356.091V356.084V356.077V356.07V356.064V356.057V356.05V356.044V356.037V356.03V356.024V356.017V356.01V356.004V355.997V355.99V355.984V355.977V355.971V355.964V355.957V355.951V355.944V355.938V355.931V355.925V355.918V355.911V355.905V355.898V355.892V355.885V355.879V355.872V355.866V355.859V355.853V355.846V355.84V355.833V355.827V355.821V355.814V355.808V355.801V355.795V355.788V355.782V355.776V355.769V355.763V355.757V355.75V355.744V355.738V355.731V355.725V355.719V355.712V355.706V355.7V355.694V355.687V355.681V355.675V355.669V355.663V355.656V355.65V355.644V355.638V355.632V355.626V355.619V355.613V355.607V355.601V355.595V355.589V355.583V355.577V355.571V355.565V355.559V355.553V355.547V355.541V355.535V355.529V355.523V355.517V355.511V355.505V355.499V355.493V355.488V355.482V355.476V355.47V355.464V355.458V355.453L927.012 352.574ZM926.712 361.295C926.714 361.295 926.714 361.295 926.715 361.295L926.712 361.295Z" fill="#E0E0E0" stroke="black"/>
<path d="M945.561 348.512C945.424 347.927 945.313 347.357 945.259 346.789C945.802 348.194 946.222 349.638 946.513 351.108C946.665 351.894 946.75 352.69 946.767 353.489L946.767 353.51L946.769 353.531C946.785 353.685 946.795 353.839 946.798 353.993C946.76 353.813 946.681 353.621 946.568 353.408C946.469 353.223 946.428 353.113 946.407 353.031C946.387 352.95 946.38 352.873 946.374 352.731C946.373 352.706 946.373 352.681 946.372 352.654C946.362 352.35 946.347 351.908 946.178 351.077C946.068 350.535 945.928 349.983 945.793 349.449C945.712 349.129 945.632 348.814 945.561 348.512ZM946.754 354.563C946.766 354.533 946.777 354.502 946.786 354.472C946.781 354.535 946.776 354.598 946.769 354.661L946.759 354.759L946.787 354.854C946.851 355.073 946.874 355.299 946.856 355.523C946.742 355.29 946.667 355.043 946.63 354.791C946.635 354.783 946.639 354.776 946.646 354.764C946.652 354.755 946.659 354.744 946.67 354.726C946.692 354.689 946.725 354.633 946.754 354.563ZM945.269 346.513L945.269 346.513L945.269 346.513Z" fill="#E0E0E0" stroke="black"/>
<path d="M962.768 343.254C962.15 342.305 961.633 341.303 961.221 340.264C962.022 341.282 962.721 342.368 963.307 343.508L963.311 343.516L963.315 343.523L964.365 345.411L964.889 346.393C964.944 346.498 965.054 346.809 965.15 347.142C964.831 346.858 964.566 346.527 964.364 346.163L964.364 346.163L964.359 346.154L963.838 345.257L962.79 343.291L962.78 343.272L962.768 343.254Z" fill="#E0E0E0" stroke="black"/>
<path d="M978.076 339.037C978.076 339.037 978.076 339.038 978.075 339.04L978.076 339.037ZM976.54 338.314C976.964 338.488 977.359 338.716 977.713 338.99L976.736 338.7L975.114 337.899C974.283 337.464 973.482 336.981 972.715 336.453L972.709 336.448L972.702 336.444C970.959 335.323 969.42 333.949 968.144 332.374C969.773 333.863 971.525 335.229 973.384 336.459L973.397 336.468L973.412 336.476L975.42 337.623L976.463 338.275L976.5 338.298L976.54 338.314Z" fill="#E0E0E0" stroke="black"/>
<mask id="path-28-inside-1_535_531" fill="white">
<path d="M984.621 332.423C984.045 332.009 983.39 331.702 982.691 331.518L981.201 330.86C980.219 330.448 979.28 329.953 978.395 329.38C977.492 328.879 976.641 328.301 975.852 327.653L973.309 325.35C973.86 326.299 974.605 327.138 975.501 327.817C976.325 328.617 977.236 329.333 978.219 329.955C979.13 330.607 980.098 331.185 981.113 331.683C982.245 332.297 983.498 332.688 984.796 332.834C984.971 333.574 984.971 332.999 984.621 332.423Z"/>
</mask>
<path d="M984.621 332.423C984.045 332.009 983.39 331.702 982.691 331.518L981.201 330.86C980.219 330.448 979.28 329.953 978.395 329.38C977.492 328.879 976.641 328.301 975.852 327.653L973.309 325.35C973.86 326.299 974.605 327.138 975.501 327.817C976.325 328.617 977.236 329.333 978.219 329.955C979.13 330.607 980.098 331.185 981.113 331.683C982.245 332.297 983.498 332.688 984.796 332.834C984.971 333.574 984.971 332.999 984.621 332.423Z" fill="#E0E0E0"/>
<path d="M984.621 332.423L985.475 331.903L985.369 331.729L985.204 331.611L984.621 332.423ZM982.691 331.518L982.288 332.433L982.36 332.465L982.437 332.485L982.691 331.518ZM981.201 330.86L981.604 329.945L981.596 329.942L981.587 329.938L981.201 330.86ZM978.395 329.38L978.939 328.54L978.91 328.522L978.88 328.505L978.395 329.38ZM975.852 327.653L975.181 328.394L975.199 328.41L975.217 328.425L975.852 327.653ZM973.309 325.35L973.98 324.608L972.444 325.851L973.309 325.35ZM975.501 327.817L976.198 327.099L976.154 327.057L976.105 327.02L975.501 327.817ZM978.219 329.955L978.801 329.142L978.778 329.126L978.754 329.11L978.219 329.955ZM981.113 331.683L981.59 330.804L981.572 330.794L981.553 330.785L981.113 331.683ZM984.796 332.834L985.769 332.604L985.607 331.919L984.907 331.84L984.796 332.834ZM985.204 331.611C984.527 331.124 983.76 330.765 982.946 330.551L982.437 332.485C983.02 332.638 983.562 332.894 984.037 333.235L985.204 331.611ZM983.095 330.603L981.604 329.945L980.797 331.775L982.288 332.433L983.095 330.603ZM981.587 329.938C980.66 329.549 979.773 329.081 978.939 328.54L977.851 330.219C978.786 330.825 979.778 331.348 980.814 331.782L981.587 329.938ZM978.88 328.505C978.03 328.033 977.229 327.489 976.487 326.88L975.217 328.425C976.054 329.112 976.955 329.724 977.91 330.254L978.88 328.505ZM976.523 326.911L973.98 324.608L972.638 326.091L975.181 328.394L976.523 326.911ZM972.444 325.851C973.063 326.919 973.898 327.857 974.897 328.614L976.105 327.02C975.312 326.419 974.657 325.68 974.174 324.848L972.444 325.851ZM974.805 328.535C975.679 329.383 976.644 330.142 977.685 330.801L978.754 329.11C977.828 328.525 976.972 327.851 976.198 327.099L974.805 328.535ZM977.637 330.769C978.593 331.453 979.609 332.059 980.673 332.581L981.553 330.785C980.587 330.311 979.667 329.762 978.801 329.142L977.637 330.769ZM980.636 332.562C981.883 333.238 983.26 333.668 984.684 333.828L984.907 331.84C983.735 331.709 982.607 331.355 981.59 330.804L980.636 332.562ZM983.823 333.065C983.865 333.245 983.918 333.441 983.986 333.586C983.988 333.59 984.059 333.76 984.215 333.908C984.259 333.95 984.62 334.295 985.163 334.151C985.702 334.009 985.847 333.535 985.865 333.479C985.928 333.274 985.908 333.093 985.908 333.088C985.904 333.032 985.896 332.983 985.89 332.947C985.847 332.702 985.715 332.297 985.475 331.903L983.767 332.943C983.817 333.026 983.857 333.112 983.885 333.187C983.916 333.268 983.923 333.31 983.921 333.297C983.92 333.292 983.916 333.269 983.913 333.233C983.912 333.215 983.91 333.181 983.912 333.137C983.913 333.107 983.917 333.007 983.955 332.884C983.972 332.831 984.115 332.359 984.652 332.218C985.193 332.075 985.551 332.419 985.592 332.458C985.686 332.547 985.739 332.633 985.754 332.659C985.777 332.696 985.791 332.725 985.798 332.74C985.827 332.803 985.814 332.794 985.769 332.604L983.823 333.065Z" fill="black" mask="url(#path-28-inside-1_535_531)"/>
<path d="M1766.68 138.204C1780.31 137.067 1794.04 138.956 1806.75 143.716C1818.14 148.696 1824.15 155.894 1824.86 163.41C1825.57 170.921 1821.01 178.989 1810.71 185.761C1799.09 192.535 1785.93 196.651 1772.3 197.773C1758.66 198.895 1744.94 196.993 1732.24 192.22C1720.85 187.282 1714.84 180.104 1714.13 172.599C1713.42 165.098 1717.98 157.03 1728.28 150.258C1739.89 143.471 1753.05 139.341 1766.68 138.204Z" fill="#F0F0F0" stroke="black"/>
<path d="M1767.08 143.088C1779.57 142.058 1792.15 143.565 1803.96 147.506C1814.36 151.591 1819.77 157.543 1820.36 163.739C1820.95 169.929 1816.74 176.663 1807.22 182.379C1796.32 188.192 1784.22 191.736 1771.73 192.766C1759.24 193.796 1746.66 192.289 1734.85 188.348C1724.45 184.263 1719.04 178.311 1718.46 172.116C1717.87 165.925 1722.07 159.191 1731.6 153.475C1742.49 147.662 1754.6 144.118 1767.08 143.088Z" fill="#E0E0E0" stroke="black"/>
<path opacity="0.1" d="M1732.28 163.106L1732.28 163.106L1732.29 163.105C1743.2 157.318 1755.3 153.79 1767.79 152.76C1780.28 151.73 1792.86 153.221 1804.68 157.134L1804.68 157.136C1811.08 159.163 1816.44 163.353 1819.71 168.874C1817.39 174.608 1812.97 179.395 1807.23 182.37L1807.23 182.373C1796.33 188.19 1784.22 191.736 1771.73 192.766C1759.24 193.797 1746.66 192.288 1734.84 188.344L1734.84 188.344L1734.84 188.342C1728.46 186.313 1723.11 182.159 1719.81 176.683C1722.12 170.926 1726.54 166.112 1732.28 163.106Z" fill="black" stroke="black"/>
<path d="M1712.22 155.886C1715.6 152.235 1719.9 149.429 1724.71 147.715C1720.22 150.732 1716.28 154.43 1713.07 158.66L1713.06 158.667L1713.06 158.674C1709.95 163.075 1707.88 168.054 1707.01 173.273L1707.01 173.29L1707 173.307C1706.46 178.911 1704.99 184.403 1702.67 189.59C1701.42 192.065 1699.89 194.402 1698.09 196.558L1698.07 196.573L1698.06 196.589C1696.51 198.778 1694.44 200.609 1692.02 201.942C1691.93 201.981 1691.86 201.976 1691.8 201.953C1691.72 201.924 1691.62 201.852 1691.52 201.719C1691.34 201.489 1691.21 201.168 1691.18 200.896C1692.76 198.774 1694.5 196.752 1696.37 194.843L1696.39 194.824L1696.41 194.803C1698.22 192.505 1699.75 190.014 1700.94 187.38L1700.94 187.377C1702.13 184.701 1703 181.907 1703.52 179.048C1703.87 177.485 1704.09 175.905 1704.31 174.357L1704.31 174.299C1704.53 172.722 1704.75 171.181 1705.1 169.685L1705.1 169.678L1705.1 169.671C1706.12 164.568 1708.58 159.81 1712.22 155.886Z" fill="#E0E0E0" stroke="black"/>
<path d="M1841.39 176.173L1841.4 176.181L1841.41 176.188C1842.04 176.778 1842.77 177.286 1843.46 177.768C1843.67 177.915 1843.88 178.059 1844.08 178.203C1844.91 178.803 1845.64 179.403 1846.16 180.163C1846.15 180.29 1846.14 180.454 1846.1 180.619C1846.07 180.796 1846.01 180.918 1845.95 180.996C1843.82 180.936 1841.83 179.846 1840.07 178.305C1838.27 176.728 1836.77 174.72 1835.69 173.017C1833.21 168.578 1831.11 163.959 1829.42 159.206L1829.41 159.194L1829.41 159.183C1827.38 154.26 1824.07 149.895 1819.79 146.481L1819.78 146.471L1819.76 146.463C1816.17 143.939 1812.32 141.764 1808.27 139.969H1809.69C1810.88 140.223 1812.03 140.595 1813.14 141.079L1813.15 141.084L1813.16 141.088C1815.58 142.013 1817.9 143.156 1820.09 144.498C1824.48 147.34 1828.07 151.147 1830.52 155.584C1831.78 157.898 1832.76 160.318 1833.74 162.778L1833.79 162.883C1834.76 165.301 1835.74 167.756 1837.01 170.134C1838.15 172.337 1839.63 174.371 1841.39 176.173Z" fill="#E0E0E0" stroke="black"/>
<path d="M1720.11 193.863L1720.12 193.901L1720.14 193.935C1720.26 194.116 1720.29 194.267 1720.3 194.396C1720.3 194.528 1720.27 194.671 1720.18 194.837C1720.01 195.188 1719.66 195.565 1719.17 196.021L1719.13 196.057L1719.1 196.102L1717.35 198.652L1717.34 198.661L1717.34 198.67C1716.24 200.424 1715.32 202.268 1714.58 204.181C1714.36 204.724 1714.15 205.303 1713.95 205.879C1713.82 206.241 1713.69 206.603 1713.56 206.954C1713.21 207.882 1712.84 208.778 1712.38 209.587C1711.57 211.027 1710.49 212.169 1708.79 212.687V212.687V212.684V212.681V212.678V212.675V212.672V212.669V212.667V212.664V212.661V212.658V212.655V212.652V212.65V212.647V212.644V212.641V212.638V212.636V212.633V212.63V212.627V212.626C1710.41 211.61 1711.26 209.943 1711.84 208.248C1712.11 207.467 1712.33 206.658 1712.54 205.887C1712.57 205.776 1712.6 205.666 1712.63 205.557C1712.87 204.678 1713.11 203.864 1713.4 203.156L1713.4 203.146L1713.41 203.136C1714.11 201.191 1715.04 199.322 1716.17 197.559L1716.17 197.55L1716.18 197.54C1716.63 196.758 1717.14 196.01 1717.71 195.301L1717.72 195.285L1717.74 195.268C1717.76 195.229 1717.79 195.191 1717.81 195.153C1718.1 194.728 1718.36 194.351 1718.66 194.061C1718.96 193.764 1719.28 193.597 1719.68 193.595C1719.78 193.598 1719.87 193.628 1719.95 193.676C1720.02 193.726 1720.08 193.792 1720.11 193.863Z" fill="#E0E0E0" stroke="black"/>
<path d="M1740.94 201.737C1740.94 201.737 1740.94 201.737 1740.94 201.736V201.748L1740.94 201.763C1741.04 203.367 1740.84 204.975 1740.35 206.514L1740.34 206.537L1740.33 206.561L1739.28 211.41C1739.28 211.41 1739.28 211.411 1739.28 211.412C1739.15 212.021 1739.03 212.778 1738.93 213.502C1738.89 213.733 1738.86 213.96 1738.83 214.178C1738.76 214.638 1738.68 215.061 1738.6 215.41C1738.52 215.774 1738.44 216.005 1738.38 216.117C1737.87 216.976 1737.87 217.837 1737.87 218.632L1737.87 218.643C1737.75 219.541 1737.42 220.406 1736.91 221.177C1736.9 221.192 1736.89 221.194 1736.87 221.195C1736.84 221.198 1736.77 221.188 1736.68 221.141C1736.59 221.095 1736.51 221.029 1736.46 220.963C1736.42 220.917 1736.41 220.89 1736.41 220.884V220.845L1736.4 220.795C1736.24 219.992 1736.24 219.167 1736.4 218.364L1736.42 218.288L1736.41 218.211C1736.33 217.43 1736.33 216.643 1736.41 215.862C1736.63 214.473 1736.92 213.144 1737.21 211.758C1737.26 211.523 1737.31 211.286 1737.37 211.048L1737.37 211.046C1737.72 209.399 1738.06 207.77 1738.5 206.226L1738.51 206.196L1738.51 206.165C1738.76 204.472 1739.34 202.834 1740.2 201.326C1740.23 201.286 1740.24 201.283 1740.27 201.281C1740.32 201.276 1740.41 201.29 1740.54 201.354C1740.66 201.417 1740.78 201.509 1740.85 201.602C1740.93 201.689 1740.94 201.737 1740.94 201.737Z" fill="#E0E0E0" stroke="black"/>
<path d="M1774.08 211.175L1774.08 211.182V211.19C1774.08 212.588 1774.08 214.058 1773.99 215.854L1773.99 215.882L1773.99 215.91C1774.03 216.546 1774.03 217.184 1773.99 217.82L1773.99 217.831L1773.99 217.842C1773.98 218.469 1773.83 219.085 1773.54 219.652C1773.51 219.64 1773.48 219.622 1773.45 219.6C1773.36 219.542 1773.27 219.471 1773.2 219.41C1773.2 219.408 1773.2 219.406 1773.19 219.403C1773.07 218.822 1773.08 218.223 1773.22 217.644L1773.24 217.569L1773.24 217.491C1773.2 216.828 1773.2 216.163 1773.24 215.499L1773.24 215.483V215.467V211.19V211.173V211.156V211.14V211.123V211.106V211.089V211.072V211.055V211.038V211.021V211.005V210.988V210.971V210.954V210.937V210.92V210.903V210.886V210.869V210.852V210.836V210.819V210.802V210.785V210.768V210.751V210.734V210.717V210.7V210.683V210.666V210.65V210.633V210.616V210.599V210.582V210.565V210.548V210.531V210.514V210.497V210.48V210.463V210.446V210.429V210.412V210.395V210.379V210.362V210.345V210.328V210.311V210.294V210.277V210.26V210.243V210.226V210.209V210.192V210.175V210.158V210.141V210.124V210.107V210.09V210.073V210.056V210.039V210.022V210.005V209.988V209.971V209.954V209.937V209.92V209.903V209.886V209.869V209.852V209.835V209.818V209.801V209.784V209.767V209.75V209.733V209.716V209.699V209.682V209.665V209.648V209.631V209.614V209.597V209.58V209.563V209.546V209.529V209.512V209.495V209.478V209.461V209.444V209.427V209.41V209.393V209.376V209.359V209.342V209.325V209.308V209.291V209.274V209.257V209.24V209.223V209.206V209.189V209.172V209.155V209.138V209.121V209.104V209.087V209.069V209.052V209.035V209.018V209.001V208.984V208.967V208.95V208.933V208.916V208.899V208.882V208.865V208.848V208.831V208.814V208.797V208.78V208.763V208.745V208.728V208.711V208.694V208.677V208.66V208.643V208.626V208.609V208.592V208.575V208.558V208.541V208.524V208.506V208.489V208.472V208.455V208.438V208.421V208.404V208.387V208.37V208.353V208.336V208.319V208.302V208.284V208.267V208.25V208.233V208.216V208.199V208.182V208.165V208.148V208.131V208.114V208.097V208.079V208.062V208.045V208.028V208.011V207.994V207.977V207.96V207.943V207.926V207.909V207.891V207.874V207.857V207.84V207.823V207.806V207.789V207.772V207.755V207.738V207.721V207.703V207.686V207.669V207.652V207.635V207.618V207.601V207.584V207.567V207.55V207.532V207.515V207.498V207.481V207.464V207.447V207.43V207.413V207.396V207.378V207.361V207.344V207.327V207.31V207.293V207.276V207.259V207.242V207.225V207.207V207.19V207.173V207.156V207.139V207.122V207.105V207.088V207.071V207.053V207.036V207.019V207.002V206.985V206.968V206.951V206.934V206.917V206.899V206.882V206.865V206.848V206.831V206.814V206.797V206.78V206.763V206.746V206.728V206.711V206.694V206.677V206.66V206.643V206.626V206.609V206.592V206.574V206.557V206.54V206.523V206.506V206.489V206.472V206.455V206.438V206.42V206.403V206.386V206.369V206.352V206.335V206.318V206.301V206.284V206.267V206.249V206.232V206.215V206.198V206.181V206.164V206.147V206.13V206.113V206.096V206.078V206.061V206.044V206.027V206.01V205.993V205.976V205.959V205.942V205.925V205.907V205.89V205.873V205.856V205.839V205.822V205.805V205.788V205.771V205.754V205.736V205.719V205.702V205.685V205.668V205.651V205.634V205.617V205.6V205.583V205.566V205.548V205.531V205.514V205.497V205.48V205.463V205.446V205.429V205.412V205.395V205.378V205.361V205.343V205.326V205.309V205.292V205.275V205.258V205.241V205.224V205.207V205.19V205.173V205.156V205.139V205.121V205.104V205.087V205.07V205.053V205.036V205.019V205.002V204.985V204.968V204.951V204.934V204.917V204.9V204.883V204.865V204.848V204.831V204.814V204.797V204.78V204.763V204.746V204.729V204.712V204.695V204.678V204.661V204.644V204.627V204.61V204.593V204.576V204.559V204.542V204.524V204.507V204.49V204.473V204.456V204.439V204.422V204.405V204.388V204.371V204.354V204.337V204.32V204.303V204.286V204.269V204.252V204.235V204.218V204.201V204.184V204.167V204.15V204.133V204.116V204.099V204.082V204.065V204.048V204.031V204.014V203.997V203.98V203.963V203.946V203.929V203.912V203.895V203.878V203.861V203.844V203.827V203.81V203.793V203.776V203.759V203.742V203.725V203.708V203.691V203.674V203.657V203.64V203.623V203.606V203.589V203.572V203.555V203.538V203.521V203.504V203.487V203.47V203.453V203.436V203.419V203.402V203.385V203.368V203.351V203.334V203.317V203.301V203.284V203.267V203.25V203.233V203.216V203.199V203.182V203.165V203.148V203.131V203.114V203.097V203.08V203.063V203.046V203.03V203.013V202.996V202.979V202.962V202.945V202.928V202.911V202.894V202.877V202.86V202.843V202.827V202.81V202.793V202.776V202.759V202.742V202.725V202.708V202.691V202.674V202.658V202.641V202.624V202.607V202.59V202.573V202.556V202.539V202.523V202.506V202.493C1773.25 202.38 1773.27 202.328 1773.29 202.307C1773.29 202.307 1773.3 202.308 1773.32 202.312C1773.38 202.325 1773.45 202.365 1773.51 202.42C1773.54 202.454 1773.55 202.477 1773.55 202.484V202.51L1773.56 202.547C1774 205.404 1774.17 208.29 1774.08 211.175ZM1773.29 202.296C1773.29 202.296 1773.29 202.296 1773.29 202.297C1773.29 202.296 1773.29 202.296 1773.29 202.296ZM1773.28 202.307C1773.27 202.308 1773.27 202.308 1773.27 202.308C1773.27 202.308 1773.27 202.308 1773.28 202.307Z" fill="#E0E0E0" stroke="black"/>
<path d="M1806.35 209.513L1806.34 209.604L1806.37 209.691C1806.46 209.976 1806.61 210.482 1806.74 210.985C1806.84 211.381 1806.92 211.735 1806.95 211.977C1806.9 211.997 1806.86 212.008 1806.81 212.008C1806.75 212.008 1806.7 211.996 1806.66 211.973C1806.61 211.951 1806.58 211.921 1806.56 211.888L1806.53 211.855L1806.5 211.826C1805.88 211.192 1805.44 210.42 1805.23 209.587L1805.23 209.578L1805.22 209.57L1804.7 207.774C1804.6 207.322 1804.43 206.85 1804.27 206.404C1804.21 206.252 1804.16 206.103 1804.11 205.959C1803.91 205.361 1803.75 204.81 1803.75 204.281V204.204L1803.73 204.13C1802.94 201.652 1802.45 199.1 1802.26 196.521C1802.27 196.521 1802.28 196.522 1802.3 196.523C1802.37 196.531 1802.45 196.561 1802.49 196.592C1802.49 196.593 1802.49 196.594 1802.49 196.594V196.668L1802.54 196.773C1803.76 199.222 1804.72 201.779 1805.4 204.406L1805.4 204.417L1805.41 204.427C1805.52 204.796 1805.67 205.187 1805.8 205.556C1805.88 205.768 1805.96 205.973 1806.03 206.163C1806.22 206.717 1806.35 207.207 1806.35 207.653V207.67L1806.35 207.686C1806.39 208.294 1806.39 208.904 1806.35 209.513ZM1802.51 196.609C1802.51 196.609 1802.51 196.608 1802.51 196.607C1802.51 196.608 1802.51 196.609 1802.51 196.609Z" fill="#E0E0E0" stroke="black"/>
<path d="M1828.88 200.214L1828.9 200.23L1828.91 200.244C1829.86 200.933 1830.66 201.765 1831.31 202.706C1831.31 202.721 1831.31 202.736 1831.31 202.75C1831.3 202.773 1831.29 202.798 1831.27 202.821C1831.25 202.845 1831.22 202.866 1831.18 202.879C1831.16 202.887 1831.13 202.891 1831.1 202.891C1830.26 202.496 1829.46 202.028 1828.71 201.492L1826.28 199.697C1825.06 198.624 1823.91 197.488 1822.83 196.296L1822.83 196.296L1822.82 196.286C1820.31 193.673 1818.24 190.721 1816.68 187.53L1816.66 187.493L1816.64 187.46C1816.6 187.409 1816.61 187.383 1816.62 187.357C1816.63 187.315 1816.68 187.247 1816.77 187.194C1816.86 187.142 1816.96 187.121 1817.05 187.134C1817.13 187.145 1817.22 187.186 1817.32 187.306C1819.45 190.405 1821.84 193.337 1824.46 196.074L1824.47 196.081L1824.48 196.087L1827.28 198.801L1827.29 198.809L1827.3 198.816L1828.88 200.214Z" fill="#E0E0E0" stroke="black"/>
<path d="M1840.92 192.346L1840.96 192.371L1840.99 192.389C1842.06 192.934 1843.01 193.643 1843.82 194.487C1843.93 194.647 1843.92 194.79 1843.89 194.847C1843.88 194.872 1843.87 194.888 1843.84 194.9C1843.81 194.912 1843.75 194.93 1843.63 194.914C1841.66 194.173 1839.86 193.094 1838.31 191.733L1838.29 191.722L1838.28 191.711C1836.78 190.568 1835.39 189.295 1834.14 187.909L1834.14 187.909L1834.13 187.901C1832.82 186.508 1831.61 185.04 1830.49 183.507L1830.49 183.507L1830.48 183.5C1829.48 182.169 1828.69 180.702 1828.16 179.152C1828.63 179.757 1829.06 180.39 1829.49 181.046C1829.53 181.097 1829.56 181.148 1829.6 181.199C1830.09 181.939 1830.6 182.704 1831.18 183.452C1832.24 184.805 1833.4 186.087 1834.65 187.288L1834.65 187.288C1835.96 188.54 1837.35 189.708 1838.82 190.784L1840.92 192.346Z" fill="#E0E0E0" stroke="black"/>
</g>
<g opacity="0.5">
<path d="M543.876 85.9532C584.708 168.162 546.769 265.888 459.078 304.208C371.387 342.528 267.215 306.904 226.383 224.695C185.551 142.486 223.49 44.7605 311.181 6.44021C398.873 -31.8801 503.044 3.74413 543.876 85.9532Z" fill="#BA68C8" stroke="black"/>
<g opacity="0.2">
<path d="M490.463 267.469L490.46 267.472C464.36 288.787 434.834 306.101 402.972 318.774C394.527 319.572 386.033 319.788 377.558 319.42C449.923 299.171 523.792 240.834 558.671 176.901C557.582 184.66 555.897 192.335 553.629 199.868C536.153 225.135 514.879 247.904 490.463 267.469Z" fill="black" stroke="black"/>
<path d="M458.814 233.332L458.807 233.337L458.801 233.342C417.145 268.111 367.11 292.872 312.996 305.498C309.078 303.804 305.163 301.979 301.311 300.023L305.773 298.945C356.465 289.959 409.299 263.185 453.768 227.351C497.827 191.846 533.717 147.412 551.173 102.5C552.543 106.387 553.775 110.252 554.868 114.094C533.113 160.269 500.234 201.085 458.814 233.332Z" fill="black" stroke="black"/>
<path d="M513.019 76.9473L513.017 76.951C496.747 120.519 462.441 163.465 419.962 197.723C377.484 231.981 327.053 257.515 278.663 266.133C271.992 267.308 265.26 268.152 258.494 268.66C255.963 266.413 253.706 263.977 251.783 261.58C260.309 261.261 268.797 260.335 277.174 258.81C324.318 250.567 373.498 225.703 414.836 192.312C456.172 158.922 489.712 116.969 505.536 74.5062C509.332 64.5242 512.053 54.211 513.658 43.7212C515.993 46.0733 518.301 48.4874 520.404 51.0259C518.714 59.8434 516.244 68.5139 513.019 76.9473Z" fill="black" stroke="black"/>
</g>
<path opacity="0.2" d="M210.199 163.635C224.768 167.04 239.981 167.242 254.651 164.222L254.651 164.222L254.662 164.22C289.021 156.333 320.914 140.951 347.745 119.322C374.576 97.6928 395.589 70.4268 409.072 39.7395L409.076 39.7305C415.194 25.0346 417.001 9.07165 414.314 -6.49596C424.194 -4.95827 433.913 -2.61693 443.36 0.501499C443.04 26.0275 431.926 55.2689 412.698 82.7816C393.383 110.419 365.905 136.275 333.046 154.826L333.04 154.829C314.974 165.384 294.731 172.236 273.64 174.935C252.651 177.62 231.296 176.133 210.964 170.57C210.532 168.292 210.355 165.952 210.199 163.635Z" fill="white" stroke="black"/>
<path opacity="0.1" d="M408.154 39.3401C394.722 69.8517 373.816 96.9701 347.126 118.497C320.437 140.024 288.716 155.355 254.531 163.244C239.912 166.253 224.75 166.031 210.242 162.598V162.594V162.577V162.559V162.542V162.525V162.507V162.49V162.473V162.456V162.438V162.421V162.404V162.386V162.369V162.352V162.335V162.317V162.3V162.283V162.265V162.248V162.231V162.214V162.196V162.179V162.162V162.145V162.127V162.11V162.093V162.075V162.058V162.041V162.024V162.006V161.989V161.972V161.955V161.937V161.92V161.903V161.886V161.868V161.851V161.834V161.817V161.799V161.782V161.765V161.748V161.731V161.713V161.696V161.679V161.662V161.644V161.627V161.61V161.593V161.576V161.558V161.541V161.524V161.507V161.489V161.472V161.455V161.438V161.421V161.403V161.386V161.369V161.352V161.335V161.317V161.3V161.283V161.266V161.249V161.231V161.214V161.197V161.18V161.163V161.145V161.128V161.111V161.094V161.077V161.059V161.042V161.025V161.008V160.991V160.974V160.956V160.939V160.922V160.905V160.888V160.871V160.853V160.836V160.819V160.802V160.785V160.768V160.75V160.733V160.716V160.699V160.682V160.665V160.647V160.63V160.613V160.596V160.579V160.562V160.544V160.527V160.51V160.493V160.476V160.459V160.441V160.424V160.407V160.39V160.373V160.356V160.339V160.321V160.304V160.287V160.27V160.253V160.236V160.219V160.201V160.184V160.167V160.15V160.133V160.116V160.099V160.081V160.064V160.047V160.03V160.013V159.996V159.979V159.962V159.944V159.927V159.91V159.893V159.876V159.859V159.842V159.825V159.807V159.79V159.773V159.756V159.739V159.722V159.705V159.688V159.67V159.653V159.636V159.619V159.602V159.585V159.568V159.551V159.533V159.516V159.499V159.482V159.465V159.448V159.431V159.414V159.396V159.379V159.362V159.345V159.328V159.311V159.294V159.277V159.26V159.242V159.225V159.208V159.191V159.174V159.157V159.14V159.123V159.106V159.088V159.071V159.054V159.037V159.02V159.003V158.986V158.969V158.952V158.934V158.917V158.9V158.883V158.866V158.849V158.832V158.815V158.798V158.78V158.763V158.746V158.729V158.712V158.695V158.678V158.661V158.644V158.626V158.609V158.592V158.575V158.558V158.541V158.524V158.507V158.49V158.473V158.455V158.438V158.421V158.404V158.387V158.37V158.353V158.336V158.319V158.301V158.284V158.267V158.25V158.233V158.216V158.199V158.182V158.165V158.147V158.13V158.113V158.096V158.079V158.062V158.045V158.028V158.011V157.993V157.976V157.959V157.942V157.925V157.908V157.891V157.874V157.857V157.839V157.822V157.805V157.788V157.771V157.754V157.737V157.72V157.702V157.685V157.668V157.651V157.634V157.617V157.6V157.583V157.566V157.548V157.531V157.514V157.497V157.48V157.463V157.446V157.429V157.411V157.394V157.377V157.36V157.343V157.326V157.309V157.292V157.274V157.257V157.24V157.223V157.206V157.189V157.172V157.154V157.137V157.12V157.103V157.086V157.069V157.052V157.035V157.017V157V156.983V156.966V156.949V156.932V156.915V156.897V156.88V156.863V156.846V156.829V156.812V156.795V156.777V156.76V156.743V156.726V156.709V156.692V156.674V156.657V156.64V156.623V156.606V156.589V156.572V156.554V156.537V156.52V156.503V156.486V156.469V156.451V156.434V156.417V156.4V156.383V156.366V156.348V156.331V156.314V156.297V156.28V156.263V156.245V156.228V156.211V156.194V156.177V156.159V156.142V156.125V156.108V156.091V156.074V156.056V156.039V156.022V156.005V155.988V155.97V155.953V155.936V155.919V155.902V155.884V155.867V155.85V155.833V155.816V155.798V155.781V155.764V155.747V155.73V155.712V155.695V155.678V155.661V155.643V155.626V155.609V155.592V155.575V155.557V155.54V155.523V155.506V155.488V155.471V155.454V155.437V155.42V155.402V155.385V155.368V155.351V155.333V155.316V155.299V155.282V155.264V155.247V155.23V155.213V155.195V155.178V155.161V155.144V155.126V155.109V155.092V155.075V155.057V155.04V155.023V155.006V154.988V154.971V154.954V154.936V154.919V154.902V154.885V154.867V154.85V154.849C224.374 158.702 239.32 159.127 253.681 156.081C284.162 150.633 315.933 134.572 342.637 113.025C369.338 91.4813 391.017 64.4189 401.274 36.9277C407.337 22.7173 408.737 7.13505 405.3 -7.82031C407.478 -7.75726 409.61 -7.38299 411.774 -7.00325C412.443 -6.88593 413.114 -6.76808 413.791 -6.65874C416.324 8.8681 414.38 24.7511 408.154 39.3401Z" fill="white" stroke="black"/>
<path opacity="0.1" d="M222.541 216.506C234.908 217.173 247.316 216.354 259.464 214.067L259.474 214.065L259.484 214.063C304.277 203.706 345.843 183.602 380.818 155.376C415.794 127.15 443.196 91.5937 460.804 51.5841L460.808 51.5754L460.812 51.5665C465.949 38.5703 468.906 24.9064 469.579 11.062C471.825 12.2256 474.052 13.3947 476.211 14.6868C480.473 35.6634 473.935 67.4708 455.753 101.007C437.52 134.638 407.609 169.942 365.284 197.695C311.101 233.05 265.889 243.197 239.526 245.866C232.809 236.648 227.118 226.81 222.541 216.506Z" fill="white" stroke="black"/>
<path opacity="0.1" d="M459.885 51.1922C442.36 91.0281 415.086 126.441 380.267 154.566C345.447 182.691 304.058 202.738 259.445 213.086C247.209 215.344 234.718 216.147 222.268 215.478C221.202 212.954 220.265 210.427 219.337 207.891C232.251 208.975 245.267 208.285 257.971 205.842C298.144 198.751 340.023 177.568 375.234 149.133C410.443 120.698 439.028 84.9769 452.572 48.7655C457.835 35.4224 460.519 21.3073 460.5 7.08295C463.134 8.26807 465.759 9.57291 468.253 10.8834C467.705 24.6437 464.882 38.242 459.885 51.1922Z" fill="black" stroke="black"/>
<path opacity="0.1" d="M259.2 269.505C265.698 268.988 272.164 268.164 278.574 267.034L278.575 267.034C327.166 258.38 377.748 232.838 420.326 198.501C462.902 164.164 497.34 120.998 513.69 77.2199C516.841 68.9788 519.277 60.5123 520.972 51.9034C528.177 60.1792 534.507 69.0923 539.873 78.5169C534.459 101.192 518.846 132.476 493.827 163.49C468.743 194.584 434.227 225.378 391.115 246.931L391.115 246.931C331.783 276.683 291.412 280.248 268.774 278.557L266.804 276.94C265.268 275.499 263.651 273.898 261.991 272.255C261.072 271.344 260.139 270.421 259.2 269.505Z" fill="black" stroke="black"/>
<path opacity="0.1" d="M468.547 257.759C434.61 283.597 396.124 303.681 354.822 317.106C340.962 314.863 327.446 311.048 314.572 305.746C368.273 293.111 417.959 268.547 459.434 234.116C500.645 201.889 533.378 161.187 555.097 115.174C557.33 123.588 558.873 132.151 559.712 140.786C539.749 186.058 508.485 226.174 468.547 257.759Z" fill="black" stroke="black"/>
<path opacity="0.3" d="M216.046 112.455C227.021 115.63 238.686 116.096 249.914 113.805L249.914 113.805L249.927 113.802C273.634 108.306 295.631 97.6525 314.139 82.7009C332.647 67.7493 347.145 48.9188 356.459 27.7314L356.463 27.7229C361.069 16.6967 362.102 4.64324 359.439 -6.92519H359.772H359.806L359.839 -6.9298C365.896 -7.75814 371.996 -8.27363 378.113 -8.47417C385.691 39.4449 353.3 87.9509 292.611 124.236L292.604 124.24L292.597 124.245C268.511 139.769 239.501 147.122 210.36 145.092C211.09 134.063 212.994 123.129 216.046 112.455Z" fill="white" stroke="black"/>
<path opacity="0.3" d="M249.027 60.264L249.038 60.262L249.049 60.2595C260.478 57.6396 271.089 52.5253 280.017 45.3306C288.945 38.1358 295.94 29.0633 300.428 18.8494L300.432 18.8413L300.435 18.8331C301.47 16.2322 302.149 13.5181 302.455 10.7564L310.308 7.07342C310.594 11.9545 309.784 16.8411 307.927 21.4163C302.999 32.8741 295.215 43.0615 285.224 51.1244C275.235 59.1861 263.33 64.8889 250.505 67.7532C245.981 68.5534 241.342 68.5951 236.806 67.8784C238.38 65.5361 240.022 63.2007 241.733 60.9303C244.181 60.9261 246.624 60.7031 249.027 60.264Z" fill="white" stroke="black"/>
<path opacity="0.2" d="M248.252 105.333L248.252 105.333L248.262 105.33C270.364 100.159 290.871 90.2026 308.137 76.2572C325.404 62.3116 338.951 44.764 347.69 25.0188L347.692 25.0142C351.872 15.3089 352.751 4.63103 350.215 -5.55578C352.787 -6.05702 355.421 -6.4938 357.993 -6.86587C360.795 4.50798 359.944 16.4091 355.541 27.3362C346.293 48.3703 331.896 67.0709 313.511 81.9234C295.125 96.7764 273.268 107.364 249.707 112.827C238.641 115.084 227.144 114.624 216.328 111.496C216.716 110.214 217.122 108.917 217.537 107.588C217.88 106.494 218.229 105.378 218.58 104.23C228.193 107.036 238.427 107.418 248.252 105.333Z" fill="white" stroke="black"/>
<path opacity="0.1" d="M365.511 318.3C341.543 315.855 318.416 308.793 297.562 297.601C326.036 308.234 365.85 304.086 403.255 287.83C445.313 269.553 484.476 235.91 501.24 190.472C519.067 142.165 506.072 93.4028 478.859 56.1558C453.209 21.0493 414.88 -3.89689 377.689 -8.6084C403.202 -9.53026 428.65 -5.20177 452.234 4.10312C477.895 14.2278 500.606 29.9511 518.479 49.9631C536.353 69.975 548.872 93.6973 555 119.157C561.128 144.616 560.688 171.079 553.716 196.347C546.744 221.615 533.442 244.96 514.911 264.439C496.38 283.919 473.157 298.97 447.171 308.339C421.185 317.708 393.189 321.123 365.511 318.3Z" fill="black" stroke="black"/>
<path opacity="0.15" d="M502.812 33.9136L502.816 33.9166C531.194 57.878 550.426 89.8886 557.581 125.057C564.736 160.224 559.423 196.623 542.45 228.696C525.477 260.769 497.775 286.756 463.569 302.682C435.188 315.896 403.627 321.579 372.273 319.296C404.141 319.316 468.104 309.049 517.76 234.167C552.196 182.271 548.655 132.007 533.77 92.7504C521.207 59.6193 500.557 34.3036 487.816 22.4178C493.042 25.9788 498.049 29.8167 502.812 33.9136Z" fill="black" stroke="black"/>
<path opacity="0.1" d="M337.339 108.291L337.338 108.291C331.2 108.133 325.157 106.839 319.555 104.485C313.953 102.13 308.905 98.762 304.698 94.5746C300.492 90.3873 297.211 85.4636 295.041 80.0871C292.872 74.7107 291.857 68.9864 292.053 63.2426L292.053 63.2416C292.331 54.6017 295.333 46.2298 300.686 39.1844C306.038 32.1386 313.501 26.7351 322.134 23.6616C330.768 20.588 340.181 19.9841 349.181 21.9269C358.181 23.8697 366.361 28.271 372.688 34.5697C379.015 40.8681 383.206 48.7805 384.735 57.3052C386.265 65.8296 385.066 74.5887 381.288 82.4767C377.51 90.3652 371.321 97.0313 363.498 101.628C355.675 106.225 346.571 108.545 337.339 108.291ZM340.455 162.867C336.981 164.898 332.954 165.942 328.86 165.871L328.774 165.71L328.486 165.7C322.924 165.511 317.671 163.278 313.86 159.492C310.049 155.708 307.984 150.677 308.099 145.486C308.22 141.574 309.576 137.781 311.999 134.586C314.422 131.39 317.806 128.936 321.725 127.539C325.644 126.143 329.918 125.868 334.005 126.751C338.091 127.634 341.802 129.634 344.669 132.492C347.537 135.35 349.431 138.938 350.119 142.799C350.807 146.661 350.258 150.627 348.54 154.199C346.822 157.77 344.009 160.789 340.455 162.867ZM288.171 99.3342C290.957 103.602 292.325 108.546 292.106 113.539C291.815 120.168 288.75 126.429 283.563 130.962C278.375 135.496 271.484 137.933 264.384 137.736C259.037 137.587 253.861 135.951 249.512 133.039C245.164 130.126 241.842 126.071 239.963 121.391C238.084 116.712 237.73 111.615 238.947 106.749C240.163 101.882 242.896 97.4587 246.803 94.0442C250.711 90.6294 255.616 88.3781 260.897 87.581C266.178 86.7838 271.592 87.4775 276.449 89.5723C281.307 91.667 285.385 95.0665 288.171 99.3342Z" fill="white" stroke="black"/>
<g opacity="0.4">
<path d="M303.238 305.708L303.227 305.712C279.697 313.719 259.605 317.099 243.417 316.372C227.228 315.644 214.984 310.812 207.078 302.439C199.176 294.071 195.536 282.09 196.707 266.911C197.878 251.725 203.864 233.37 215.178 212.331L215.182 212.322C216.146 210.444 217.175 208.564 218.213 206.732C219.188 209.587 220.293 212.387 221.465 215.244L221.465 215.245L221.47 215.257C223.554 219.979 225.725 224.628 228.155 229.198C225.295 244.215 227.469 256.331 234.265 264.708C241.088 273.12 252.481 277.652 267.787 277.652L267.794 277.652C283.359 277.449 298.763 274.655 313.287 269.399C350.977 256.583 392.328 231.379 428.748 201.004C465.166 170.631 496.693 135.055 514.709 101.467C522.113 88.6236 527.004 74.6378 529.147 60.1732L529.148 60.1642L529.149 60.1552C530.74 45.8596 527.278 34.7008 519.223 27.3657C511.208 20.0673 498.744 16.6443 482.484 17.5631C475.307 13.1101 467.789 9.16392 459.99 5.75688C462.056 4.96595 464.124 4.27305 466.203 3.57637L466.207 3.57529C489.648 -4.45188 509.674 -7.84245 525.819 -7.12773C541.963 -6.41301 554.186 -1.5968 562.092 6.74636C569.994 15.0844 573.655 27.0196 572.528 42.1237C571.401 57.2345 565.48 75.4859 554.254 96.3813L554.249 96.3909C553.29 98.2719 552.245 100.15 551.115 101.944L551.109 101.954L551.103 101.964C528.299 142.116 490.508 184.286 447.091 220.531C403.674 256.776 354.664 287.07 309.443 303.495L309.434 303.498L309.425 303.502C307.423 304.318 305.332 305.054 303.238 305.708Z" fill="#BA68C8" stroke="black"/>
</g>
<g opacity="0.1">
<path d="M303.238 305.708L303.227 305.712C279.697 313.719 259.605 317.099 243.417 316.372C227.228 315.644 214.984 310.812 207.078 302.439C199.176 294.071 195.536 282.09 196.707 266.911C197.878 251.725 203.864 233.37 215.178 212.331L215.182 212.322C216.146 210.444 217.175 208.564 218.213 206.732C219.188 209.587 220.293 212.387 221.465 215.244L221.465 215.245L221.47 215.257C223.554 219.979 225.725 224.628 228.155 229.198C225.295 244.215 227.469 256.331 234.265 264.708C241.088 273.12 252.481 277.652 267.787 277.652L267.794 277.652C283.359 277.449 298.763 274.655 313.287 269.399C350.977 256.583 392.328 231.379 428.748 201.004C465.166 170.631 496.693 135.055 514.709 101.467C522.113 88.6236 527.004 74.6378 529.147 60.1732L529.148 60.1642L529.149 60.1552C530.74 45.8596 527.278 34.7008 519.223 27.3657C511.208 20.0673 498.744 16.6443 482.484 17.5631C475.307 13.1101 467.789 9.16392 459.99 5.75688C462.056 4.96595 464.124 4.27305 466.203 3.57637L466.207 3.57529C489.648 -4.45188 509.674 -7.84245 525.819 -7.12773C541.963 -6.41301 554.186 -1.5968 562.092 6.74636C569.994 15.0844 573.655 27.0196 572.528 42.1237C571.401 57.2345 565.48 75.4859 554.254 96.3813L554.249 96.3909C553.29 98.2719 552.245 100.15 551.115 101.944L551.109 101.954L551.103 101.964C528.299 142.116 490.508 184.286 447.091 220.531C403.674 256.776 354.664 287.07 309.443 303.495L309.434 303.498L309.425 303.502C307.423 304.318 305.332 305.054 303.238 305.708Z" fill="white" stroke="black"/>
</g>
<g opacity="0.4">
<path d="M293.839 352.349C264.854 362.246 240.083 366.423 220.106 365.526C200.128 364.629 184.984 358.661 175.181 348.313C165.383 337.97 160.851 323.177 162.244 304.477C163.637 285.771 170.96 263.186 184.838 237.336C193.314 221.787 202.899 206.793 213.527 192.455C214.255 195.565 215.118 198.623 216.117 201.739C212.917 206.621 210.059 211.502 207.457 216.382C195.688 238.296 189.436 257.514 188.243 273.499C187.049 289.491 190.917 302.279 199.424 311.259C207.926 320.234 220.989 325.332 238.037 326.094C255.084 326.856 276.155 323.286 300.743 314.884L300.745 314.883C306.451 312.907 312.424 310.683 318.31 308.211C406.615 272.148 505.783 189.504 554.33 111.441C557.666 106.089 560.741 100.898 563.553 95.6214C575.301 73.7274 581.531 54.525 582.705 38.5512C583.88 22.5707 579.994 9.79058 571.477 0.815716C562.964 -8.15398 549.895 -13.2486 532.851 -14.0092C515.807 -14.7698 494.748 -11.2006 470.183 -2.7997C464.708 -1.00634 459.151 1.10826 453.68 3.3844C450.508 2.08433 447.272 0.911556 444.096 -0.189224C460.506 -8.35808 477.471 -15.5079 494.881 -21.5922C523.889 -31.4696 548.677 -35.6363 568.669 -34.7353C588.661 -33.8343 603.816 -27.8691 613.63 -17.526C623.438 -7.18818 627.982 7.59752 626.603 26.291C625.223 44.9909 617.916 67.5704 604.06 93.421C591.63 116.195 576.971 137.838 560.272 158.069C507.059 222.301 441.718 276.82 367.502 318.911C344.085 332.138 319.428 343.33 293.839 352.349ZM293.839 352.349C293.841 352.349 293.842 352.348 293.844 352.348L294.005 352.821M293.839 352.349C293.839 352.349 293.839 352.349 293.839 352.349L294.005 352.821M294.005 352.821C177.909 392.464 128.805 340.648 184.398 237.098C192.953 221.405 202.636 206.275 213.379 191.815L294.005 352.821Z" fill="#BA68C8" stroke="black"/>
</g>
<g opacity="0.1">
<path d="M293.839 352.349C264.854 362.246 240.083 366.423 220.106 365.526C200.128 364.629 184.984 358.661 175.181 348.313C165.383 337.97 160.851 323.177 162.244 304.477C163.637 285.771 170.96 263.186 184.838 237.336C193.314 221.787 202.899 206.793 213.527 192.455C214.255 195.565 215.118 198.623 216.117 201.739C212.917 206.621 210.059 211.502 207.457 216.382C195.688 238.296 189.436 257.514 188.243 273.499C187.049 289.491 190.917 302.279 199.424 311.259C207.926 320.234 220.989 325.332 238.037 326.094C255.084 326.856 276.155 323.286 300.743 314.884L300.745 314.883C306.451 312.907 312.424 310.683 318.31 308.211C406.615 272.148 505.783 189.504 554.33 111.441C557.666 106.089 560.741 100.898 563.553 95.6214C575.301 73.7274 581.531 54.525 582.705 38.5512C583.88 22.5707 579.994 9.79058 571.477 0.815716C562.964 -8.15398 549.895 -13.2486 532.851 -14.0092C515.807 -14.7698 494.748 -11.2006 470.183 -2.7997C464.708 -1.00634 459.151 1.10826 453.68 3.3844C450.508 2.08433 447.272 0.911556 444.096 -0.189224C460.506 -8.35808 477.471 -15.5079 494.881 -21.5922C523.889 -31.4696 548.677 -35.6363 568.669 -34.7353C588.661 -33.8343 603.816 -27.8691 613.63 -17.526C623.438 -7.18818 627.982 7.59752 626.603 26.291C625.223 44.9909 617.916 67.5704 604.06 93.421C591.63 116.195 576.971 137.838 560.272 158.069C507.059 222.301 441.718 276.82 367.502 318.911C344.085 332.138 319.428 343.33 293.839 352.349ZM293.839 352.349C293.841 352.349 293.842 352.348 293.844 352.348L294.005 352.821M293.839 352.349C293.839 352.349 293.839 352.349 293.839 352.349L294.005 352.821M294.005 352.821C177.909 392.464 128.805 340.648 184.398 237.098C192.953 221.405 202.636 206.275 213.379 191.815L294.005 352.821Z" fill="white" stroke="black"/>
</g>
<g opacity="0.4">
<path d="M466.484 240.962C492.831 218.965 517.148 194.918 539.175 169.077C550.268 156.183 560.517 142.67 569.865 128.612C579.363 114.618 587.464 99.8335 594.066 84.4445C600.944 69.0028 604.662 52.4851 605.027 35.7537M466.484 240.962L466.164 240.578C466.164 240.578 466.164 240.578 466.163 240.578M466.484 240.962L466.163 240.578M466.484 240.962C440.093 262.935 411.788 282.798 381.867 300.345L233.272 346.398M466.163 240.578C492.489 218.599 516.786 194.572 538.795 168.753L538.796 168.751C549.876 155.873 560.112 142.376 569.449 128.335L569.452 128.331C578.931 114.364 587.017 99.6068 593.607 84.2474L593.61 84.2411C600.46 68.8594 604.163 52.4071 604.527 35.7428M466.163 240.578C439.794 262.533 411.512 282.381 381.614 299.914L381.613 299.914C366.662 308.72 351.16 316.676 335.191 323.74L335.188 323.741C319.294 330.931 302.74 336.757 285.726 341.149L285.721 341.151C268.697 345.748 250.948 347.524 233.272 346.398M604.527 35.7428C604.527 35.7445 604.527 35.7464 604.527 35.7481L605.027 35.7537M604.527 35.7428L605.027 35.7537M604.527 35.7428C604.619 27.3892 603.057 19.0917 599.918 11.2717M605.027 35.7537C605.12 27.3299 603.545 18.9632 600.38 11.0793M600.38 11.0793L599.921 11.2771C599.92 11.2752 599.919 11.2735 599.918 11.2717M600.38 11.0793C596.993 3.21232 591.459 -3.68036 584.333 -8.90683M600.38 11.0793L599.916 11.2656C599.917 11.2676 599.917 11.2697 599.918 11.2717M599.918 11.2717C596.568 3.49294 591.094 -3.32672 584.042 -8.50068M584.333 -8.90683L584.046 -8.49767C584.045 -8.49869 584.043 -8.49966 584.042 -8.50068M584.333 -8.90683C577.159 -13.9456 568.851 -17.3779 560.045 -18.9411C551.385 -20.529 542.539 -21.0269 533.739 -20.4215M584.333 -8.90683L584.038 -8.50367C584.039 -8.50267 584.04 -8.50168 584.042 -8.50068M584.042 -8.50068C576.93 -13.4949 568.691 -16.8985 559.957 -18.4488L559.954 -18.4493C552.985 -19.7274 545.893 -20.2959 538.803 -20.148M538.803 -20.148C537.126 -20.1501 535.448 -20.1127 533.771 -20.0357L533.739 -20.4215M538.803 -20.148C545.854 -20.139 552.889 -19.4312 559.792 -18.0332M538.803 -20.148C537.127 -20.113 535.451 -20.038 533.777 -19.9229C533.641 -19.9116 533.505 -19.9001 533.37 -19.8884C533.367 -19.8882 533.365 -19.888 533.362 -19.8878C525.722 -19.2333 518.14 -18.146 510.658 -16.6351M533.739 -20.4215L533.765 -20.0354C533.631 -20.0292 533.497 -20.0229 533.363 -20.0162L533.353 -20.0155C525.693 -19.4814 518.082 -18.5155 510.563 -17.126C518.2 -18.668 525.939 -19.7696 533.739 -20.4215ZM510.658 -16.6351C518.157 -18.0207 525.748 -18.984 533.388 -19.5167C542.211 -19.956 551.057 -19.2923 559.694 -17.5429M510.658 -16.6351L536.019 166.528C558.392 141.248 576.869 113.146 590.91 83.0462C597.78 68.0493 601.616 51.9844 602.221 35.6715C602.415 27.5443 600.988 19.4548 598.012 11.8197C594.845 4.31045 589.683 -2.31469 583.018 -7.42643C576.167 -12.4226 568.189 -15.8829 559.694 -17.5429M510.658 -16.6351L559.792 -18.0332M559.694 -17.5429L559.793 -18.0329C559.793 -18.033 559.792 -18.0331 559.792 -18.0332M559.694 -17.5429L559.79 -18.0336C559.79 -18.0335 559.791 -18.0333 559.792 -18.0332M233.272 346.398C233.272 346.398 233.272 346.398 233.272 346.398L233.24 346.897L233.272 346.398Z" fill="#BA68C8" stroke="black"/>
</g>
<g opacity="0.2">
<path d="M243.528 294.005L244.802 294.444L244.805 294.445C247.624 295.437 250.529 296.2 253.488 296.726C265.577 298.474 277.903 298.169 289.877 295.825L289.883 295.823C301.844 293.636 313.558 290.395 324.87 286.143C347.452 277.559 369.021 266.797 389.229 254.029L389.231 254.027C409.472 241.378 428.733 227.402 446.871 212.205C464.972 196.944 481.864 180.467 497.414 162.907L497.417 162.903C513.177 145.478 526.884 126.509 538.301 106.325C543.946 96.1845 548.457 85.524 551.762 74.5137L551.764 74.5074C555.223 63.5131 556.144 51.9541 554.465 40.6006C553.529 34.8532 551.384 29.3361 548.154 24.37L545.364 20.9359L545.252 20.7981V20.625C545.252 20.6251 545.245 20.5858 545.188 20.4978C545.124 20.3999 545.025 20.2835 544.893 20.1499C544.724 19.979 544.552 19.8278 544.376 19.6728C544.257 19.5677 544.136 19.4609 544.012 19.345C544.01 19.3435 544.009 19.3419 544.007 19.3404L542.361 17.8778L542.351 17.8691L538.974 15.0267L535.085 12.7568C530.389 10.5549 525.434 8.9501 520.348 7.96269C525.548 9.23366 530.575 11.1499 535.291 13.6826L535.303 13.6892L535.315 13.6964L539.086 15.9993L539.127 16.0243L539.162 16.0567L542.391 19.004L542.406 19.0176L544.057 20.4022L544.1 20.4379L544.133 20.4822L545.445 22.2049L545.449 22.2095L548.076 25.5769L548.094 25.6L548.109 25.6251C551.103 30.5599 553.089 35.9776 553.963 41.5992L553.964 41.6071L553.965 41.615C555.334 52.7463 554.221 64.0225 550.7 74.7284C547.325 85.6062 542.725 96.1156 536.978 106.079L536.977 106.081C525.371 126.03 511.599 144.8 495.88 162.093C480.319 179.501 463.421 195.818 445.323 210.914C427.329 226.11 408.205 240.086 388.097 252.736C388.097 252.736 388.097 252.736 388.097 252.736L387.83 252.313C367.804 265.013 346.514 275.865 324.258 284.718C313.088 289.012 301.524 292.343 289.71 294.67L243.528 294.005ZM243.528 294.005L245.011 294.488L245.02 294.491C247.906 295.372 250.863 296.038 253.861 296.481L253.867 296.482C265.833 298.109 278.015 297.661 289.809 295.161L243.528 294.005Z" fill="black" stroke="black"/>
</g>
<g opacity="0.1">
<path d="M109.953 283.485C92.4157 343.69 111.97 376.754 131.699 393.861C164.669 422.895 222.103 425.28 292.953 401.428L292.785 400.957C292.786 400.956 292.787 400.956 292.789 400.956M109.953 283.485L110.431 283.631C110.431 283.63 110.431 283.629 110.432 283.628M109.953 283.485L110.433 283.624C110.433 283.626 110.432 283.627 110.432 283.628M109.953 283.485C115.544 265.253 123.064 247.592 132.4 230.764C148.311 201.859 167.236 174.505 188.896 149.101L403.619 -28.508M110.432 283.628C101.686 313.656 102.2 336.874 107.331 354.696C112.463 372.518 122.222 384.982 132.026 393.483L132.029 393.486C164.788 422.333 221.984 424.791 292.789 400.956M110.432 283.628C116.012 265.431 123.518 247.803 132.838 231.006L132.838 231.005C148.639 202.3 167.416 175.124 188.896 149.873V149.883V149.897V149.912V149.927V149.941V149.956V149.97V149.985V150V150.014V150.029V150.044V150.058V150.073V150.088V150.102V150.117V150.131V150.146V150.161V150.175V150.19V150.205V150.219V150.234V150.249V150.263V150.278V150.293V150.307V150.322V150.337V150.351V150.366V150.381V150.395V150.41V150.425V150.439V150.454V150.469V150.483V150.498V150.513V150.527V150.542V150.557V150.571V150.586V150.601V150.615V150.63V150.645V150.66V150.674V150.689V150.704V150.718V150.733V150.748V150.762V150.777V150.792V150.807V150.821V150.836V150.851V150.865V150.88V150.895V150.91V150.924V150.939V150.954V150.968V150.983V150.998V151.013V151.027V151.042V151.057V151.072V151.086V151.101V151.116V151.13V151.145V151.16V151.175V151.189V151.204V151.219V151.234V151.248V151.263V151.278V151.293V151.307V151.322V151.337V151.352V151.366V151.381V151.396V151.411V151.425V151.44V151.455V151.47V151.484V151.499V151.514V151.529V151.544V151.558V151.573V151.588V151.603V151.617V151.632V151.647V151.662V151.676V151.691V151.706V151.721V151.736V151.75V151.765V151.78V151.795V151.81V151.824V151.839V151.854V151.869V151.883V151.898V151.913V151.928V151.943V151.957V151.972V151.987V152.002V152.017V152.031V152.046V152.061V152.076V152.091V152.105V152.12V152.135V152.15V152.165V152.18V152.194V152.209V152.224V152.239V152.254V152.268V152.283V152.298V152.313V152.328V152.343V152.357V152.372V152.387V152.402V152.417V152.431V152.446V152.461V152.476V152.491V152.506V152.52V152.535V152.55V152.565V152.58V152.595V152.61V152.624V152.639V152.654V152.669V152.684V152.699V152.713V152.728V152.743V152.758V152.773V152.788V152.802V152.817V152.832V152.847V152.862V152.877V152.892V152.906V152.921V152.936V152.951V152.966V152.981V152.996V153.01V153.025V153.04V153.055V153.07V153.085V153.1V153.115V153.129V153.144V153.159V153.174V153.189V153.204V153.219V153.233V153.248V153.263V153.278V153.293V153.308V153.323V153.338V153.352V153.367V153.382V153.397V153.412V153.427V153.442V153.457V153.472V153.486V153.501V153.516V153.531V153.546V153.561V153.576V153.591V153.605V153.62V153.635V153.65V153.665V153.68V153.695V153.71V153.725V153.74V153.754V153.769V153.784V153.799V153.814V153.829V153.844V153.859V153.874V153.889V153.903V153.918V153.933V153.948V153.963V153.978V153.993V154.008V154.023V154.038V154.052V154.067V154.082V154.097V154.112V154.127V154.142V154.157V154.172V154.187V154.202V154.216V154.231V154.246V154.261V154.276V154.291V154.306V154.321V154.336V154.351V154.366V154.38V154.395V154.41V154.425V154.44V154.455V154.47V154.485V154.5V154.515V154.53V154.545V154.559V154.574V154.589V154.604V154.619V154.634V154.649V154.664V154.679V154.694V154.709V154.724V154.739V154.753V154.768V154.783V154.798V154.813V154.828V154.843V154.858V154.873V154.888V154.903V154.918V154.933V154.948V154.962V154.977V154.992V155.007V155.022V155.037V155.052V155.067V155.082V155.097V155.112V155.127V155.142V155.157V155.171V155.186V155.201V155.216V155.231V155.246V155.261V155.276V155.291V155.306V155.321V155.336V155.351V155.366V155.381V155.396V155.41V155.425V155.44V155.455V155.47V155.485V155.5V155.515V155.53V155.545V155.56V155.575V155.59V155.605V155.62V155.634V155.649V155.664V155.679V155.694V155.709V155.724V155.739V155.754V155.769V155.784V155.799V155.814V155.829V155.844V155.859V155.874V155.888V155.901C168.869 179.749 151.276 205.311 136.347 232.249C127.15 248.82 119.734 266.209 114.21 284.16L114.208 284.165C105.637 313.189 106.043 335.618 110.963 352.874C115.882 370.132 125.304 382.177 134.7 390.453L134.703 390.455C166.83 418.437 222.657 420.834 291.71 397.543L291.717 397.54C336.304 381.677 378.609 360.661 417.653 334.979C474.08 298.524 525.577 255.775 571.014 207.67C603.081 174.51 630.618 137.73 652.987 98.1797L652.99 98.1746C662.108 81.6085 669.492 64.2515 675.039 46.3475L675.041 46.341C683.611 17.2762 683.206 -5.19323 678.286 -22.4805C673.367 -39.7685 663.945 -51.8348 654.549 -60.1108L654.546 -60.1135C622.331 -88.0123 566.593 -90.4095 497.539 -67.1182L497.536 -67.1171C467.063 -56.6106 437.724 -43.4072 409.918 -27.6857C409.59 -27.7357 409.261 -27.7869 408.931 -27.8383C407.18 -28.111 405.402 -28.3878 403.619 -28.508M292.789 400.956C341.232 383.684 387.038 360.502 429.023 332.008L429.027 332.006C478.879 298.773 524.824 260.665 566.087 218.324L566.091 218.32C601.567 182.773 631.879 142.985 656.238 99.99C665.528 83.2498 673.003 65.6784 678.553 47.5396C687.3 17.4689 686.786 -5.77081 681.654 -23.6139C676.523 -41.4566 666.764 -53.941 656.958 -62.484C623.846 -91.2542 566.732 -94.1183 495.931 -70.6125C463.779 -59.4111 432.863 -45.31 403.619 -28.508M292.789 400.956L403.619 -28.508" fill="#BA68C8" stroke="black"/>
</g>
<g opacity="0.2">
<path d="M396.334 326.599C459.609 287.907 516.538 240.775 565.327 186.686C590.068 159.593 611.501 129.989 629.226 98.426L629.229 98.4218C637.474 83.4035 644.154 67.6723 649.173 51.4477L649.175 51.442C656.605 26.3688 656.419 7.06734 652.378 -7.70094C648.336 -22.4708 640.449 -32.6687 632.539 -39.5497C605.142 -63.4233 556.15 -65.0729 494.735 -44.417L494.73 -44.4154C470.184 -35.8918 446.43 -25.4844 423.707 -13.2987C421.962 -13.673 420.218 -13.9993 418.474 -14.2778C442.383 -27.3995 467.482 -38.517 493.478 -47.5003C556.568 -68.7047 606.662 -66.4942 635.037 -42.0043C643.175 -34.8195 651.356 -24.2283 655.59 -8.9367C659.824 6.35709 660.12 26.3904 652.424 52.4743C647.362 68.9227 640.593 84.8658 632.212 100.075C612.92 134.211 589.398 166.091 562.136 195.055L562.133 195.059C516.25 244.793 463.431 288.503 405.102 325.008L405.099 325.01C371.07 346.694 334.433 364.539 295.947 378.174C233.115 399.38 182.674 397.657 154.215 372.596L154.214 372.595C146.077 365.452 137.895 354.861 133.662 339.579C129.428 324.295 129.132 304.283 136.826 278.283C141.865 261.761 148.666 245.757 157.128 230.514L157.128 230.513C169.901 207.357 184.851 185.316 201.8 164.653C202.041 166.403 202.05 168.155 202.05 169.89C186.32 189.457 172.379 210.235 160.374 232.003C152.045 247.054 145.335 262.845 140.341 279.144L140.34 279.149C132.91 304.263 133.074 323.585 137.104 338.353C141.134 353.122 149.02 363.299 156.975 370.14C184.372 394.097 233.366 395.663 294.78 375.008L294.786 375.005C330.446 362.458 364.506 346.222 396.334 326.599ZM396.334 326.599C396.334 326.598 396.335 326.598 396.335 326.598L396.073 326.172L396.333 326.599C396.334 326.599 396.334 326.599 396.334 326.599Z" fill="#BA68C8" stroke="black"/>
</g>
<g opacity="0.4">
<path d="M386.609 319.656L386.608 319.657C358.381 336.618 328.314 350.719 296.911 361.724C239.688 381.286 194.683 379.562 169.996 358.036L169.99 358.031C162.999 352.125 156.025 343.162 152.482 329.959C148.938 316.753 148.816 299.27 155.59 276.309C160.303 261.012 166.634 246.194 174.489 232.077L174.49 232.073C184.906 213.034 196.944 194.815 210.486 177.594C210.565 177.998 210.653 178.4 210.74 178.796C210.789 179.021 210.837 179.243 210.884 179.462C211.078 180.384 211.236 181.274 211.255 182.151C198.611 198.409 187.344 215.573 177.56 233.484C169.839 247.409 163.599 262.013 158.931 277.086L158.929 277.093C152.42 299.16 152.43 316.012 155.757 328.816C159.084 341.623 165.722 350.343 172.408 356.158L172.409 356.158C184.318 366.498 201.236 371.886 222.103 372.36C242.971 372.835 267.824 368.398 295.656 359.051L295.661 359.05C324.71 348.966 352.591 336.138 378.874 320.764C447.842 280.54 509.171 229.802 560.334 170.64C579.928 148.048 597.045 123.661 611.426 97.8482L611.427 97.8462C619.107 83.9133 625.317 69.3098 629.969 54.2434L629.971 54.2379C636.523 32.1291 636.514 15.2766 633.187 2.47269C629.859 -10.3344 623.221 -19.0536 616.581 -24.9081L616.578 -24.9112C604.625 -35.2506 587.685 -40.6378 566.818 -41.1021C545.95 -41.5664 521.119 -37.1094 493.331 -27.7211C473.171 -20.929 453.594 -12.6996 434.772 -3.10511L429.978 -4.37189C449.911 -14.7534 470.672 -23.6732 492.075 -31.0512C520.622 -40.6612 546.165 -45.1483 567.659 -44.5438C589.153 -43.9394 606.566 -38.2452 618.904 -27.5282C625.899 -21.4151 632.874 -12.3271 636.418 0.958916C639.962 14.2473 640.084 31.7724 633.309 54.7734C628.559 70.02 622.26 84.8045 614.499 98.9236C598.883 126.786 580.182 153.028 558.706 177.218L558.705 177.219C509.664 232.873 451.588 280.941 386.609 319.656Z" fill="#BA68C8" stroke="black"/>
</g>
<g opacity="0.5">
<path d="M182.294 235.694C191.222 219.519 201.313 203.932 212.497 189.042C212.573 189.315 212.652 189.587 212.729 189.856C212.83 190.202 212.928 190.543 213.017 190.87C213.25 191.735 213.425 192.556 213.447 193.344C203.097 207.351 193.716 221.967 185.364 237.102C177.882 250.632 171.847 264.825 167.348 279.472L167.347 279.478C158.732 308.665 161.145 331.999 175.178 346.911L175.181 346.914C185.472 357.69 200.982 363.392 220.804 364.073C240.625 364.755 264.801 360.419 292.5 351.073L292.503 351.072C317.106 342.577 340.845 332.022 363.432 319.536L363.434 319.535C439.527 277.098 506.49 221.686 560.868 156.155L560.868 156.155C576.983 136.679 591.176 115.869 603.273 93.9808L603.275 93.9772C616.621 69.3522 624.303 47.2843 626.087 28.6876C627.872 10.0842 623.756 -5.08709 613.455 -15.8322C603.164 -26.5667 587.654 -32.2476 567.833 -32.9289C548.012 -33.6101 523.836 -29.2954 496.138 -19.9902L496.135 -19.9893C479.036 -14.1383 462.379 -7.20831 446.279 0.753204L441.914 -0.695293C458.998 -9.30079 476.729 -16.7249 494.967 -22.9083L494.968 -22.9086C523.517 -32.6426 548.53 -36.9842 569.043 -36.0832C589.555 -35.1821 605.526 -29.0425 616.063 -17.8575L616.065 -17.855C630.965 -2.25427 633.463 22.0298 624.716 52.6376C620.196 67.333 614.13 81.571 606.607 95.1415C593.404 118.869 577.832 141.369 560.101 162.34C507.318 224.697 443.145 277.767 370.571 319.075L370.571 319.075C346.261 332.97 320.565 344.609 293.846 353.826C265.296 363.437 240.282 367.779 219.757 366.94C199.233 366.1 183.241 360.083 172.661 349.021C157.847 333.419 155.262 309.134 164.009 278.528C168.615 263.73 174.738 249.385 182.294 235.694Z" fill="#BA68C8" stroke="black"/>
</g>
</g>
<path opacity="0.3" d="M889.358 142.328C889.051 140.851 889.213 139.321 889.825 137.927C890.437 136.532 891.475 135.332 892.814 134.478C894.153 133.624 895.733 133.155 897.358 133.134C898.983 133.112 900.577 133.538 901.941 134.357C903.306 135.175 904.379 136.348 905.034 137.726C905.688 139.104 905.896 140.629 905.634 142.114C905.372 143.599 904.65 144.984 903.553 146.095C902.456 147.206 901.031 147.995 899.454 148.358C898.363 148.609 897.229 148.65 896.12 148.478C895.011 148.306 893.953 147.924 893.009 147.358C892.065 146.792 891.256 146.054 890.629 145.189C890.002 144.324 889.57 143.351 889.358 142.328Z" fill="#E0E0E0" stroke="black"/>
<path opacity="0.3" d="M1500.96 37.4526C1500.73 36.4406 1500.71 35.3961 1500.91 34.3779C1501.11 33.3598 1501.52 32.3867 1502.12 31.5143C1502.72 30.6418 1503.5 29.8867 1504.42 29.2937C1505.33 28.7005 1506.37 28.2814 1507.46 28.0613C1508.55 27.8413 1509.68 27.8251 1510.77 28.0134C1511.87 28.2018 1512.92 28.5909 1513.85 29.1574C1514.79 29.7239 1515.59 30.4563 1516.22 31.3113C1516.85 32.1662 1517.29 33.1273 1517.53 34.1394C1517.99 36.1816 1517.58 38.3169 1516.37 40.0778C1515.15 41.8401 1513.24 43.0861 1511.03 43.5307C1508.83 43.9753 1506.53 43.5793 1504.64 42.4346C1502.75 41.2904 1501.43 39.4957 1500.96 37.4526Z" fill="#E0E0E0" stroke="black"/>
<path opacity="0.3" d="M1745.08 -0.700157C1744.78 -2.17767 1744.94 -3.70751 1745.55 -5.10163C1746.16 -6.49619 1747.2 -7.69666 1748.54 -8.55058C1749.88 -9.40468 1751.46 -9.87316 1753.08 -9.89473C1754.71 -9.91629 1756.3 -9.48995 1757.67 -8.67147C1759.03 -7.85315 1760.1 -6.68033 1760.76 -5.30218C1761.41 -3.92448 1761.62 -2.39933 1761.36 -0.914446C1761.1 0.570688 1760.37 1.95536 1759.28 3.06646C1758.18 4.17789 1756.75 4.96634 1755.18 5.32956C1754.09 5.5808 1752.95 5.62173 1751.84 5.44961C1750.74 5.27749 1749.68 4.89614 1748.73 4.33004C1747.79 3.76397 1746.98 3.02545 1746.35 2.16057C1745.73 1.29577 1745.29 0.322352 1745.08 -0.700157Z" fill="#E0E0E0" stroke="black"/>
<path opacity="0.3" d="M852.526 145.606C852.33 144.771 852.402 143.899 852.735 143.101C853.068 142.302 853.649 141.609 854.409 141.113C855.17 140.616 856.073 140.341 857.005 140.325C857.937 140.309 858.851 140.553 859.631 141.023C860.41 141.493 861.018 142.166 861.383 142.954C861.747 143.741 861.854 144.609 861.691 145.45C861.527 146.292 861.1 147.073 860.459 147.695C859.817 148.316 858.989 148.748 858.078 148.931C856.862 149.176 855.593 148.959 854.552 148.331C853.512 147.703 852.788 146.721 852.526 145.606Z" fill="#E0E0E0" stroke="black"/>
<path opacity="0.3" d="M582.718 313.969C582.526 313.137 582.601 312.269 582.933 311.475C583.266 310.68 583.844 309.99 584.6 309.495C585.356 308.999 586.255 308.723 587.183 308.704C588.111 308.684 589.022 308.923 589.802 309.386C590.581 309.85 591.192 310.516 591.563 311.297C591.933 312.077 592.048 312.94 591.896 313.78C591.744 314.619 591.33 315.402 590.7 316.029C590.071 316.656 589.254 317.097 588.351 317.294C587.743 317.426 587.114 317.444 586.499 317.345C585.884 317.247 585.298 317.036 584.774 316.724C584.25 316.413 583.799 316.008 583.447 315.534C583.095 315.061 582.848 314.529 582.718 313.969Z" fill="#E0E0E0" stroke="black"/>
<path opacity="0.3" d="M36.0837 178.643C35.6569 180.097 34.7825 181.407 33.5638 182.406C32.3448 183.406 30.8359 184.05 29.2238 184.255C27.6117 184.46 25.9718 184.216 24.509 183.555C23.0463 182.893 21.828 181.846 21.0016 180.547C20.1754 179.249 19.776 177.754 19.8494 176.25C19.9227 174.745 20.4658 173.29 21.4159 172.066C22.3663 170.842 23.6829 169.902 25.205 169.368C26.7272 168.835 28.3843 168.732 29.9692 169.074C31.0601 169.309 32.0872 169.749 32.9891 170.365C33.8909 170.981 34.6483 171.76 35.2172 172.654C35.7861 173.548 36.1551 174.539 36.3037 175.568C36.4522 176.596 36.3776 177.642 36.0837 178.643Z" fill="#E0E0E0" stroke="black"/>
<path opacity="0.3" d="M74.3092 154.887C73.7643 156.932 72.3728 158.699 70.4289 159.793C68.484 160.888 66.1512 161.214 63.9458 160.697C61.7409 160.18 59.8545 158.865 58.6946 157.052C57.5357 155.24 57.1937 153.076 57.7384 151.032C58.0083 150.019 58.4888 149.064 59.154 148.222C59.8193 147.38 60.6564 146.667 61.6189 146.125C62.5814 145.584 63.6496 145.224 64.7627 145.069C65.8758 144.914 67.0105 144.965 68.1018 145.221C69.1931 145.477 70.2184 145.932 71.1194 146.558C72.0203 147.184 72.7789 147.969 73.3531 148.867C73.9273 149.765 74.3064 150.758 74.4701 151.79C74.6338 152.822 74.5792 153.874 74.3092 154.887Z" fill="#E0E0E0" stroke="black"/>
<path opacity="0.3" d="M59.4913 215.995C59.3425 216.549 59.0782 217.071 58.7121 217.533C58.346 217.994 57.8848 218.386 57.354 218.683C56.8231 218.981 56.2335 219.178 55.6189 219.262C55.0043 219.347 54.3779 219.317 53.7759 219.175C53.174 219.032 52.6094 218.78 52.1142 218.435C51.6191 218.089 51.2036 217.657 50.8898 217.164C50.576 216.671 50.3698 216.127 50.2815 215.563C50.1932 214.998 50.2242 214.423 50.3731 213.869C50.522 213.315 50.7862 212.793 51.1523 212.331C51.5185 211.87 51.9796 211.478 52.5105 211.181C53.0414 210.883 53.6309 210.686 54.2456 210.602C54.8602 210.517 55.4866 210.547 56.0885 210.689C56.6905 210.832 57.2551 211.084 57.7502 211.429C58.2453 211.775 58.6609 212.207 58.9747 212.7C59.2885 213.193 59.4947 213.737 59.583 214.301C59.6713 214.866 59.6402 215.441 59.4913 215.995Z" fill="#E0E0E0" stroke="black"/>
</g>
<defs>
<filter id="filter0_d_535_531" x="-56" y="-542" width="2031" height="1866.77" filterUnits="userSpaceOnUse" color-interpolation-filters="sRGB">
<feFlood flood-opacity="0" result="BackgroundImageFix"/>
<feColorMatrix in="SourceAlpha" type="matrix" values="0 0 0 0 0 0 0 0 0 0 0 0 0 0 0 0 0 0 127 0" result="hardAlpha"/>
<feOffset dy="4"/>
<feGaussianBlur stdDeviation="2"/>
<feComposite in2="hardAlpha" operator="out"/>
<feColorMatrix type="matrix" values="0 0 0 0 0 0 0 0 0 0 0 0 0 0 0 0 0 0 0.25 0"/>
<feBlend mode="normal" in2="BackgroundImageFix" result="effect1_dropShadow_535_531"/>
<feBlend mode="normal" in="SourceGraphic" in2="effect1_dropShadow_535_531" result="shape"/>
</filter>
</defs>
</svg>
