<svg width="46" height="45" viewBox="0 0 46 45" fill="none" xmlns="http://www.w3.org/2000/svg">
<g filter="url(#filter0_d_616_116)">
<g clip-path="url(#clip0_616_116)">
<path d="M2 9C2 4.58172 5.58172 1 10 1H36C40.4183 1 44 4.58172 44 9V34C44 38.4183 40.4183 42 36 42H2V9Z" fill="#00AAFF"/>
<path d="M23.5004 19.4C24.6054 19.4 25.665 18.9575 26.4463 18.1698C27.2276 17.3822 27.6665 16.3139 27.6665 15.2C27.6665 14.0861 27.2276 13.0178 26.4463 12.2302C25.665 11.4425 24.6054 11 23.5004 11C22.3955 11 21.3358 11.4425 20.5546 12.2302C19.7733 13.0178 19.3343 14.0861 19.3343 15.2C19.3343 16.3139 19.7733 17.3822 20.5546 18.1698C21.3358 18.9575 22.3955 19.4 23.5004 19.4ZM17.9456 18C17.9456 18.7426 17.653 19.4548 17.1321 19.9799C16.6113 20.505 15.9048 20.8 15.1682 20.8C14.4316 20.8 13.7252 20.505 13.2043 19.9799C12.6834 19.4548 12.3908 18.7426 12.3908 18C12.3908 17.2574 12.6834 16.5452 13.2043 16.0201C13.7252 15.495 14.4316 15.2 15.1682 15.2C15.9048 15.2 16.6113 15.495 17.1321 16.0201C17.653 16.5452 17.9456 17.2574 17.9456 18ZM11.6826 28.2564C11.4455 28.1206 11.268 27.8996 11.1854 27.6376C10.9407 26.8387 10.9382 25.9843 11.178 25.1838C11.4179 24.3834 11.8893 23.6734 12.5319 23.1447C13.1745 22.616 13.9589 22.2927 14.7849 22.2162C15.6108 22.1397 16.4406 22.3134 17.1679 22.7152C15.6728 24.1958 14.7372 26.1561 14.5225 28.2578C14.491 28.5705 14.5026 28.8757 14.5572 29.1734C13.5439 29.0837 12.5626 28.7706 11.6826 28.2564ZM32.4437 29.172C33.4568 29.0827 34.4382 28.7701 35.3183 28.2564C35.5549 28.1203 35.7319 27.8994 35.8141 27.6376C36.0591 26.8386 36.062 25.984 35.8223 25.1833C35.5826 24.3826 35.1112 23.6723 34.4686 23.1434C33.8259 22.6145 33.0413 22.291 32.2151 22.2145C31.389 22.138 30.559 22.3118 29.8315 22.7138C31.328 24.1943 32.2647 26.1552 32.4798 28.2578C32.5111 28.5632 32.499 28.8715 32.4437 29.1734M34.6101 18C34.6101 18.7426 34.3174 19.4548 33.7966 19.9799C33.2757 20.505 32.5693 20.8 31.8327 20.8C31.096 20.8 30.3896 20.505 29.8687 19.9799C29.3479 19.4548 29.0553 18.7426 29.0553 18C29.0553 17.2574 29.3479 16.5452 29.8687 16.0201C30.3896 15.495 31.096 15.2 31.8327 15.2C32.5693 15.2 33.2757 15.495 33.7966 16.0201C34.3174 16.5452 34.6101 17.2574 34.6101 18ZM16.9791 29.466C16.8418 29.3426 16.7353 29.1882 16.6685 29.0155C16.6016 28.8428 16.5763 28.6565 16.5944 28.472C16.7711 26.7493 17.5749 25.1537 18.8506 23.9937C20.1263 22.8338 21.7832 22.1917 23.5011 22.1917C25.2191 22.1917 26.876 22.8338 28.1517 23.9937C29.4274 25.1537 30.2312 26.7493 30.4078 28.472C30.426 28.6565 30.4006 28.8428 30.3338 29.0155C30.2669 29.1882 30.1605 29.3426 30.0232 29.466C28.2372 31.0991 25.9116 32.0026 23.5004 32C21.0895 32.0036 18.764 31.1 16.9791 29.466Z" fill="white"/>
</g>
</g>
<defs>
<filter id="filter0_d_616_116" x="0" y="0" width="46" height="45" filterUnits="userSpaceOnUse" color-interpolation-filters="sRGB">
<feFlood flood-opacity="0" result="BackgroundImageFix"/>
<feColorMatrix in="SourceAlpha" type="matrix" values="0 0 0 0 0 0 0 0 0 0 0 0 0 0 0 0 0 0 127 0" result="hardAlpha"/>
<feOffset dy="1"/>
<feGaussianBlur stdDeviation="1"/>
<feComposite in2="hardAlpha" operator="out"/>
<feColorMatrix type="matrix" values="0 0 0 0 0 0 0 0 0 0 0 0 0 0 0 0 0 0 0.2 0"/>
<feBlend mode="normal" in2="BackgroundImageFix" result="effect1_dropShadow_616_116"/>
<feBlend mode="normal" in="SourceGraphic" in2="effect1_dropShadow_616_116" result="shape"/>
</filter>
<clipPath id="clip0_616_116">
<path d="M2 9C2 4.58172 5.58172 1 10 1H36C40.4183 1 44 4.58172 44 9V34C44 38.4183 40.4183 42 36 42H2V9Z" fill="white"/>
</clipPath>
</defs>
</svg>
