<svg width="42" height="42" viewBox="0 0 42 42" fill="none" xmlns="http://www.w3.org/2000/svg">
<path d="M18.45 4C17.7983 3.99966 17.1626 4.20145 16.6304 4.57756C16.0982 4.95367 15.6957 5.48559 15.4785 6.1H12.15C11.3146 6.1 10.5134 6.43187 9.92261 7.02261C9.33187 7.61335 9 8.41457 9 9.25V34.45C9 35.2854 9.33187 36.0866 9.92261 36.6774C10.5134 37.2681 11.3146 37.6 12.15 37.6H31.05C31.8854 37.6 32.6866 37.2681 33.2774 36.6774C33.8681 36.0866 34.2 35.2854 34.2 34.45V9.25C34.2 8.41457 33.8681 7.61335 33.2774 7.02261C32.6866 6.43187 31.8854 6.1 31.05 6.1H27.7215C27.5043 5.48559 27.1018 4.95367 26.5696 4.57756C26.0374 4.20145 25.4017 3.99966 24.75 4H18.45ZM17.4 7.15C17.4 6.87152 17.5106 6.60445 17.7075 6.40754C17.9045 6.21063 18.1715 6.1 18.45 6.1H24.75C25.0285 6.1 25.2956 6.21063 25.4925 6.40754C25.6894 6.60445 25.8 6.87152 25.8 7.15C25.8 7.42848 25.6894 7.69555 25.4925 7.89246C25.2956 8.08938 25.0285 8.2 24.75 8.2H18.45C18.1715 8.2 17.9045 8.08938 17.7075 7.89246C17.5106 7.69555 17.4 7.42848 17.4 7.15ZM20.2434 16.2934L16.5684 19.9684C16.3771 20.1595 16.1195 20.2694 15.8492 20.2752C15.5789 20.2811 15.3167 20.1825 15.1173 19.9999L13.5423 18.5614C13.4353 18.4699 13.3477 18.3579 13.2849 18.2319C13.2221 18.1059 13.1852 17.9685 13.1765 17.828C13.1678 17.6875 13.1875 17.5466 13.2343 17.4139C13.2812 17.2811 13.3543 17.1591 13.4492 17.0551C13.5441 16.9512 13.659 16.8674 13.787 16.8087C13.915 16.7501 14.0535 16.7177 14.1942 16.7137C14.335 16.7096 14.4751 16.7339 14.6062 16.7851C14.7374 16.8363 14.8569 16.9133 14.9577 17.0116L15.7914 17.7718L18.7566 14.8066C18.8542 14.709 18.9701 14.6315 19.0977 14.5787C19.2252 14.5259 19.3619 14.4987 19.5 14.4987C19.6381 14.4987 19.7748 14.5259 19.9023 14.5787C20.0299 14.6315 20.1458 14.709 20.2434 14.8066C20.341 14.9042 20.4185 15.0201 20.4713 15.1477C20.5241 15.2752 20.5513 15.4119 20.5513 15.55C20.5513 15.6881 20.5241 15.8248 20.4713 15.9523C20.4185 16.0799 20.341 16.1958 20.2434 16.2934ZM20.2434 25.3066C20.3412 25.4041 20.4188 25.52 20.4717 25.6476C20.5246 25.7751 20.5519 25.9119 20.5519 26.05C20.5519 26.1881 20.5246 26.3249 20.4717 26.4524C20.4188 26.58 20.3412 26.6959 20.2434 26.7934L16.5684 30.4684C16.3771 30.6595 16.1195 30.7694 15.8492 30.7752C15.5789 30.7811 15.3167 30.6825 15.1173 30.4999L13.5423 29.0614C13.3472 28.8711 13.2338 28.6125 13.2259 28.3401C13.2181 28.0677 13.3164 27.8029 13.5002 27.6017C13.6839 27.4005 13.9387 27.2786 14.2107 27.2618C14.4827 27.245 14.7506 27.3345 14.9577 27.5116L15.7914 28.2739L18.7566 25.3066C18.8541 25.2088 18.97 25.1312 19.0976 25.0783C19.2251 25.0254 19.3619 24.9981 19.5 24.9981C19.6381 24.9981 19.7749 25.0254 19.9024 25.0783C20.03 25.1312 20.1459 25.2088 20.2434 25.3066ZM23.7 26.575H28.95C29.2285 26.575 29.4956 26.6856 29.6925 26.8825C29.8894 27.0794 30 27.3465 30 27.625C30 27.9035 29.8894 28.1705 29.6925 28.3675C29.4956 28.5644 29.2285 28.675 28.95 28.675H23.7C23.4215 28.675 23.1545 28.5644 22.9575 28.3675C22.7606 28.1705 22.65 27.9035 22.65 27.625C22.65 27.3465 22.7606 27.0794 22.9575 26.8825C23.1545 26.6856 23.4215 26.575 23.7 26.575ZM22.65 17.125C22.65 16.8465 22.7606 16.5795 22.9575 16.3825C23.1545 16.1856 23.4215 16.075 23.7 16.075H28.95C29.2285 16.075 29.4956 16.1856 29.6925 16.3825C29.8894 16.5795 30 16.8465 30 17.125C30 17.4035 29.8894 17.6705 29.6925 17.8675C29.4956 18.0644 29.2285 18.175 28.95 18.175H23.7C23.4215 18.175 23.1545 18.0644 22.9575 17.8675C22.7606 17.6705 22.65 17.4035 22.65 17.125Z" fill="#00AAFF"/>
</svg>
