<svg width="38" height="38" viewBox="0 0 38 38" fill="none" xmlns="http://www.w3.org/2000/svg">
<path d="M11.4118 11.031C12.3193 11.0345 13.2025 10.7387 13.9248 10.1893C13.9362 10.1513 13.9506 10.116 13.9628 10.0791C13.9821 10.021 14.0008 9.96512 14.0228 9.90584C14.0467 9.84238 14.0726 9.78006 14.0988 9.71584C14.1227 9.65884 14.1459 9.60184 14.1718 9.5456C14.2014 9.481 14.2337 9.4183 14.266 9.3556C14.2918 9.30506 14.3162 9.25338 14.342 9.2036C14.3914 9.11354 14.445 9.02576 14.4997 8.9376C14.5225 8.9015 14.5457 8.8654 14.5696 8.82968C14.6297 8.73962 14.6916 8.6507 14.7573 8.56368C14.7847 8.52796 14.8143 8.49376 14.8428 8.45842C14.8953 8.39268 14.9485 8.32732 15.0043 8.26424C15.0378 8.22624 15.0731 8.18824 15.1081 8.15252C15.162 8.09476 15.2168 8.03852 15.2738 7.98228C15.3118 7.94428 15.3517 7.90856 15.3912 7.87246C15.4223 7.84358 15.452 7.81356 15.4839 7.78544C15.5562 7.47783 15.5924 7.16284 15.5918 6.84684C15.5914 6.01976 15.3457 5.21138 14.8858 4.52393C14.4259 3.83648 13.7725 3.30083 13.0083 2.98472C12.244 2.6686 11.4031 2.58622 10.592 2.74799C9.78087 2.90977 9.03595 3.30842 8.4514 3.89355C7.86686 4.47868 7.46895 5.22401 7.30799 6.03528C7.14703 6.84655 7.23024 7.68733 7.54712 8.45131C7.864 9.21529 8.4003 9.86814 9.08821 10.3273C9.77612 10.7865 10.5847 11.0314 11.4118 11.031Z" fill="#060020"/>
<path d="M27.934 35.3324V23.3901C27.9329 22.3904 27.5353 21.432 26.8284 20.725C26.1214 20.0181 25.163 19.6205 24.1633 19.6194H13.8371C12.8374 19.6205 11.879 20.0181 11.1721 20.725C10.4651 21.432 10.0675 22.3904 10.0664 23.3901V35.3324H12.7538V25.1104C12.7538 24.9592 12.8138 24.8142 12.9207 24.7073C13.0276 24.6005 13.1726 24.5404 13.3238 24.5404C13.4749 24.5404 13.6199 24.6005 13.7268 24.7073C13.8337 24.8142 13.8938 24.9592 13.8938 25.1104V35.3324H24.1089V25.1104C24.1089 24.9592 24.169 24.8142 24.2759 24.7073C24.3828 24.6005 24.5278 24.5404 24.6789 24.5404C24.8301 24.5404 24.9751 24.6005 25.082 24.7073C25.1889 24.8142 25.2489 24.9592 25.2489 25.1104V35.3324H27.934Z" fill="#060020"/>
<path d="M22.5142 7.79C22.5419 7.81432 22.5678 7.84092 22.5951 7.866C22.6396 7.90666 22.6837 7.94732 22.7262 7.9895C22.7749 8.037 22.8216 8.08602 22.8683 8.13542C22.909 8.17874 22.95 8.22168 22.9896 8.26614C23.0363 8.31934 23.0804 8.37406 23.1252 8.42878C23.1606 8.47286 23.197 8.5158 23.2312 8.56102C23.2791 8.62372 23.3236 8.68832 23.3684 8.7533C23.3958 8.7913 23.4247 8.8293 23.4513 8.87148C23.52 8.97712 23.5854 9.08466 23.6462 9.19448C23.6565 9.2131 23.6652 9.23248 23.6755 9.25148C23.7256 9.34496 23.7743 9.4392 23.8187 9.53572C23.8377 9.57676 23.8541 9.61856 23.8719 9.65998C23.9046 9.73598 23.9369 9.81198 23.9658 9.88798C23.9836 9.93586 23.9992 9.9845 24.0156 10.0328C24.0319 10.081 24.0536 10.1357 24.0695 10.1882C24.8217 10.7554 25.7435 11.0519 26.6854 11.0296C27.6272 11.0072 28.5339 10.6674 29.2584 10.0651C29.9829 9.46283 30.4827 8.63347 30.6767 7.71154C30.8707 6.78961 30.7476 5.82918 30.3273 4.986C29.907 4.14282 29.2142 3.46635 28.3612 3.0663C27.5082 2.66626 26.5451 2.56609 25.6281 2.78205C24.711 2.99801 23.8939 3.51744 23.309 4.25608C22.7242 4.99473 22.4061 5.90927 22.4063 6.8514C22.4057 7.16739 22.4419 7.48237 22.5142 7.79Z" fill="#060020"/>
<path d="M2.47021 30.4H5.16176V20.178C5.16176 20.1031 5.1765 20.029 5.20514 19.9599C5.23379 19.8907 5.27577 19.8279 5.3287 19.7749C5.38163 19.722 5.44447 19.68 5.51363 19.6514C5.58278 19.6227 5.6569 19.608 5.73176 19.608C5.80661 19.608 5.88073 19.6227 5.94988 19.6514C6.01904 19.68 6.08188 19.722 6.13481 19.7749C6.18774 19.8279 6.22972 19.8907 6.25837 19.9599C6.28701 20.029 6.30176 20.1031 6.30176 20.178V30.4H8.92641V23.3901C8.92782 22.0882 9.44566 20.8399 10.3663 19.9193C11.2869 18.9986 12.5352 18.4808 13.8372 18.4794H24.1633C25.4653 18.4808 26.7135 18.9986 27.6341 19.9193C28.5548 20.8399 29.0726 22.0882 29.074 23.3901V30.4H31.7006V20.178C31.7006 20.0268 31.7606 19.8818 31.8675 19.7749C31.9744 19.668 32.1194 19.608 32.2706 19.608C32.4217 19.608 32.5667 19.668 32.6736 19.7749C32.7805 19.8818 32.8406 20.0268 32.8406 20.178V30.4H35.5302V18.4574C35.5291 17.4576 35.1315 16.4992 34.4246 15.7923C33.7177 15.0854 32.7592 14.6877 31.7595 14.6866H23.4572C23.4413 14.7117 23.4223 14.7349 23.4056 14.76C23.3622 14.8246 23.3166 14.8869 23.2707 14.95C23.2205 15.0187 23.1692 15.0864 23.1156 15.1521C23.062 15.2179 23.0145 15.2733 22.9636 15.3322C22.9127 15.3911 22.8496 15.4565 22.7915 15.5165C22.7333 15.5766 22.6817 15.6267 22.6247 15.6799C22.562 15.7385 22.4974 15.7939 22.432 15.8498C22.3742 15.8984 22.318 15.9475 22.2564 15.9938C22.1858 16.0482 22.1128 16.0995 22.0395 16.1504C21.9798 16.1918 21.9213 16.2336 21.8601 16.2724C21.7795 16.3237 21.6963 16.37 21.6127 16.4168C21.5542 16.4498 21.4987 16.4844 21.4372 16.5148C21.3414 16.5638 21.2422 16.6071 21.143 16.6505C21.0917 16.6729 21.042 16.6983 20.991 16.7192C20.839 16.7804 20.6813 16.8355 20.5214 16.883C19.5296 17.1785 18.4732 17.1785 17.4814 16.883C17.3218 16.8359 17.1656 16.7804 17.0128 16.7192C16.9608 16.6983 16.911 16.6733 16.8608 16.6508C16.7616 16.6075 16.6625 16.5642 16.5667 16.5152C16.5082 16.4852 16.4527 16.451 16.3942 16.4187C16.3094 16.3712 16.2247 16.324 16.143 16.272C16.0841 16.234 16.029 16.196 15.9705 16.1542C15.8945 16.1014 15.8185 16.0485 15.7455 15.9915C15.6885 15.9478 15.6342 15.9015 15.5791 15.8555C15.5099 15.797 15.4415 15.7377 15.3754 15.6754C15.3222 15.626 15.2705 15.5747 15.2196 15.5234C15.156 15.4588 15.0943 15.3927 15.0345 15.325C14.9863 15.2707 14.9388 15.2156 14.8928 15.159C14.835 15.0879 14.7788 15.0149 14.7256 14.9405C14.683 14.8823 14.6405 14.8238 14.5998 14.7634C14.5827 14.7379 14.5618 14.714 14.5466 14.6874H6.24894C5.2483 14.6875 4.28855 15.0844 3.58017 15.7912C2.8718 16.4979 2.47263 17.4567 2.47021 18.4574V30.4Z" fill="#060020"/>
<path d="M16.3551 8.54544C15.7669 9.02127 15.3214 9.6502 15.0677 10.363C15.0317 10.4643 14.9993 10.5677 14.9704 10.6731C14.8686 11.0339 14.8174 11.407 14.8184 11.7819C14.8176 12.5013 15.0042 13.2085 15.3599 13.8339C15.8143 14.6376 16.5219 15.2684 17.3723 15.6278C18.2228 15.9873 19.1683 16.0551 20.0614 15.8208C20.9545 15.5866 21.7449 15.0633 22.3094 14.3327C22.874 13.6021 23.1808 12.7052 23.1822 11.7819C23.1832 11.4298 23.1379 11.0791 23.0473 10.7388C23.0366 10.7141 23.0276 10.6887 23.0203 10.6628C22.7964 9.83218 22.3169 9.09304 21.6496 8.55C20.9039 7.93694 19.9686 7.60148 19.0032 7.60079C18.0378 7.60009 17.1021 7.93421 16.3555 8.5462L16.3551 8.54544Z" fill="#060020"/>
<circle cx="17.1904" cy="10.8571" r="0.904762" fill="white"/>
<circle cx="25.3335" cy="6.33334" r="0.904762" fill="white"/>
<circle cx="9.04783" cy="6.33334" r="0.904762" fill="white"/>
<circle cx="20.8095" cy="10.8571" r="0.904762" fill="white"/>
<circle cx="28.9526" cy="6.33334" r="0.904762" fill="white"/>
<circle cx="12.6665" cy="6.33334" r="0.904762" fill="white"/>
</svg>
