<svg width="41" height="32" viewBox="0 0 41 32" fill="none" xmlns="http://www.w3.org/2000/svg">
<g clip-path="url(#clip0_740_249)">
<path d="M20.4979 11.8666C23.7824 11.8666 26.445 9.21015 26.445 5.93329C26.445 2.65642 23.7824 0 20.4979 0C17.2134 0 14.5508 2.65642 14.5508 5.93329C14.5508 9.21015 17.2134 11.8666 20.4979 11.8666Z" fill="#060020"/>
<path d="M7.74227 24.3009C7.25648 27.6527 7.15351 31.7996 7.43664 36.6263C7.50246 37.7475 8.43428 38.6127 9.54549 38.6127C9.58704 38.6127 9.62912 38.6115 9.6712 38.609C10.8369 38.5409 11.7266 37.5429 11.6585 36.3798C11.3921 31.8365 11.4827 27.9757 11.928 24.905C12.0126 24.3219 12.1081 23.7838 12.2115 23.286C12.5336 21.7335 12.9355 20.5799 13.3492 19.7335V28.4481V32.6679C13.4334 32.7357 13.5125 32.8046 13.5793 32.8755C13.9087 33.2248 13.9621 33.5538 13.9489 33.7683C13.9207 34.2238 13.6858 34.6365 13.3492 35.0245V40.2822C14.6902 41.0893 16.3441 42.2995 17.668 44.4854C19.4888 47.4921 18.0128 51.6885 17.2883 53.3627L17.877 54.0649C18.4637 54.7646 18.3706 55.81 17.6693 56.3954C17.3724 56.6432 16.9948 56.7797 16.6066 56.7797C16.1128 56.7797 15.6484 56.564 15.3333 56.1881L14.8854 55.6541C14.4709 55.8518 13.9621 56.0533 13.3492 56.2334V59.2852C13.3492 61.0863 14.8127 62.5454 16.617 62.5454C18.4218 62.5454 19.8853 61.0863 19.8853 59.2852V35.4805H21.1104V59.2852C21.1104 61.0863 22.5739 62.5454 24.3782 62.5454C26.183 62.5454 27.6465 61.0863 27.6465 59.2852V56.2863C26.9096 56.0692 26.2838 55.8129 25.7712 55.5593L25.3825 56.0227C25.0673 56.3987 24.6032 56.6143 24.1094 56.6143C23.7209 56.6143 23.3435 56.4778 23.0467 56.2299C22.7078 55.9473 22.4995 55.5486 22.46 55.1076C22.4208 54.6665 22.5553 54.2375 22.8389 53.8993L23.3854 53.2477C22.9838 51.2684 22.3261 47.1084 23.3782 45.0727C24.4094 43.077 25.9367 41.8571 27.2841 40.7807C27.4082 40.6815 27.5273 40.5857 27.6465 40.4895V35.0928C26.7204 34.3913 26.1608 33.8504 26.0848 33.2474C26.0482 32.9581 26.1287 32.686 26.3171 32.4604C26.5554 32.175 26.9312 32.0302 27.4335 32.0302C27.502 32.0302 27.5741 32.0348 27.6465 32.0397V28.448V19.7227C28.3922 21.2698 29.0859 23.8083 29.3602 27.7989C29.5205 30.1324 29.5378 32.9608 29.3373 36.3798C29.2692 37.5429 30.1589 38.5411 31.3248 38.609C31.3669 38.6115 31.4085 38.6127 31.4503 38.6127C32.5615 38.6127 33.4933 37.7474 33.5591 36.6263C33.772 32.9959 33.7658 29.7796 33.5446 26.9786C33.0872 21.1839 31.7053 17.176 29.408 15.0226C27.9207 13.6285 26.4679 13.3917 25.7258 13.3753C25.6852 13.3729 25.645 13.3692 25.6038 13.3692H15.3919C15.3627 13.3692 15.3343 13.3724 15.3053 13.3736C13.9005 13.3891 9.74978 14.1728 8.04394 22.5638C7.93303 23.1093 7.8319 23.6849 7.74312 24.2966L7.74227 24.3009ZM20.4976 31.2727L17.9866 29.3716L19.4328 18.7387C19.7757 18.867 20.1364 18.9339 20.4971 18.9337H20.4991C20.8594 18.9337 21.2195 18.8667 21.5619 18.7385L23.0086 29.3716L20.4976 31.2727ZM19.493 15.5272H20.4976H21.5017L22.004 17.505L21.9277 17.6252C21.5137 17.9695 21.0067 18.1422 20.4971 18.1426C19.9875 18.1422 19.4813 17.97 19.0677 17.6264L18.9907 17.505L19.493 15.5272Z" fill="#060020"/>
<ellipse cx="17.4318" cy="5.67965" rx="1.32483" ry="1.31602" fill="white"/>
<ellipse cx="23.0104" cy="5.67965" rx="1.32483" ry="1.31602" fill="white"/>
</g>
<defs>
<clipPath id="clip0_740_249">
<rect width="41" height="32" fill="white"/>
</clipPath>
</defs>
</svg>
