<svg width="39" height="36" viewBox="0 0 39 36" fill="none" xmlns="http://www.w3.org/2000/svg">
<path d="M19.6767 7.29373C19.9169 7.71565 20.1842 8.25199 20.4744 8.93728C20.7075 9.48796 20.9148 10.0407 21.0908 10.5453C20.3205 10.3862 19.5087 10.2301 18.8702 10.1348C18.1198 11.1398 16.926 11.791 15.5839 11.791C14.0263 11.791 12.6683 10.914 11.9715 9.62465C11.8998 9.61242 11.8267 9.60464 11.7515 9.60464C11.275 9.60464 10.5662 9.78561 9.89606 10.6478C9.6135 11.0113 9.44148 11.3616 9.40988 11.4282C9.36445 11.5238 9.33065 11.6246 9.30911 11.7284L7.96605 18.2094C7.87825 18.633 8.00315 19.0719 8.29777 19.3858H11.8737C12.3981 19.3075 12.9742 19.2268 13.5656 19.1533C15.57 18.9041 16.7688 18.8563 17.4735 18.8737C17.5564 18.6194 17.7918 18.434 18.0718 18.434H20.5115C20.5866 18.1791 20.5874 17.8994 20.4948 17.6289C20.3526 17.2138 19.9823 16.6656 19.0257 16.4119C18.6325 16.3076 18.1428 16.2494 17.5284 16.234C16.6201 16.2113 15.4108 16.2837 13.9335 16.4493C12.8505 16.5708 11.7871 16.7232 10.9273 16.8575L11.575 13.7316L11.952 13.7744L11.4081 16.3993C12.2868 16.2679 13.1201 16.1578 13.8916 16.0714C15.2035 15.9242 16.3133 15.8496 17.19 15.8496C17.3103 15.8496 17.4262 15.851 17.5377 15.8538C17.909 15.863 18.2373 15.8882 18.5307 15.9289L19.019 12.8377C20.0055 13.0143 21.4611 13.3196 22.7264 13.6097C22.8233 13.6319 22.9211 13.6427 23.0182 13.6427C23.3699 13.6427 23.712 13.5003 23.9623 13.2399C24.2817 12.9076 24.4057 12.4316 24.2892 11.9842C24.2659 11.8947 23.7077 9.76805 22.7929 7.66927C22.2519 6.4284 20.6048 2.65257 17.8857 3.16384C17.5057 3.23527 17.1956 3.46549 17.0076 3.77285C18.4669 4.31723 19.5372 5.67331 19.6767 7.29373Z" fill="#060020"/>
<path d="M10.948 31.6215L6.14362 33.1097V33.7189C5.83581 33.8717 5.62354 34.1899 5.62354 34.5588C5.62354 35.0763 6.04024 35.4959 6.5543 35.4959C7.06834 35.4959 7.48504 35.0764 7.48504 34.5588C7.48504 34.1907 7.27367 33.873 6.96691 33.7198L10.948 32.4866V33.7189C10.6402 33.8717 10.4279 34.1899 10.4279 34.5588C10.4279 35.0763 10.8446 35.4959 11.3587 35.4959C11.8727 35.4959 12.2894 35.0764 12.2894 34.5588C12.2894 34.1899 12.0771 33.8717 11.7692 33.7188V32.4866L15.7504 33.7198C15.4436 33.8731 15.2322 34.1907 15.2322 34.5588C15.2322 35.0763 15.6489 35.4959 16.163 35.4959C16.677 35.4959 17.0937 35.0764 17.0937 34.5588C17.0937 34.1899 16.8814 33.8717 16.5736 33.7188V33.1097L11.7692 31.6215V31.2378H10.948V31.6215Z" fill="#060020"/>
<path d="M18.8207 34.5024C19.0632 35.4054 19.8751 36 20.7619 36C20.9356 36 21.1124 35.9771 21.2881 35.9294C22.3609 35.6375 22.9954 34.5253 22.7055 33.4453L22.1129 31.2378H17.9443L18.8207 34.5024Z" fill="#060020"/>
<path d="M23.9325 34.5024C24.175 35.4054 24.9869 36 25.8737 36C26.0474 36 26.2242 35.9771 26.3999 35.9294C27.4727 35.6375 28.1072 34.5253 27.8173 33.4453L27.2247 31.2378H23.0562L23.9325 34.5024Z" fill="#060020"/>
<path d="M7.59589 18.1316L8.93878 11.6507C8.96652 11.5173 9.01016 11.3872 9.06853 11.2641C9.10303 11.1914 9.29085 10.8087 9.59801 10.4134C10.2111 9.6247 10.8654 9.33663 11.3898 9.2534C11.1603 8.94713 10.7972 8.75232 10.3938 8.75232H3.4686C2.70177 8.75232 2.11628 9.44199 2.23573 10.2046L3.67367 19.3858H7.82295C7.59116 19.0166 7.50516 18.569 7.59589 18.1316Z" fill="#060020"/>
<path d="M17.4692 19.2543C17.4681 19.2542 17.4669 19.2542 17.4658 19.2542V19.3858H17.5254C17.5018 19.3446 17.4832 19.3007 17.4692 19.2543Z" fill="#060020"/>
<path d="M15.5837 11.4107C17.6448 11.4107 19.3153 9.72871 19.3153 7.65378C19.3153 5.57884 17.6448 3.89688 15.5837 3.89688C13.5229 3.89688 11.8521 5.57884 11.8521 7.65378C11.8521 9.72871 13.5229 11.4107 15.5837 11.4107ZM18.009 8.40572C18.009 8.69731 17.7742 8.93368 17.4846 8.93368C17.195 8.93368 16.9602 8.69731 16.9602 8.40572C16.9602 8.11415 17.195 7.87778 17.4846 7.87778C17.7742 7.87778 18.009 8.11415 18.009 8.40572ZM15.0796 7.87778C15.3692 7.87778 15.604 8.11415 15.604 8.40572C15.604 8.69731 15.3692 8.93368 15.0796 8.93368C14.79 8.93368 14.5552 8.69731 14.5552 8.40572C14.5552 8.11415 14.79 7.87778 15.0796 7.87778Z" fill="#060020"/>
<path d="M1.20454 22.1695H2.0942V35.4473H3.16184V30.7417H35.8382V35.4473H36.9058V22.1695H37.7955V20.7087H39V19.8819H0V20.7087H1.20454V22.1695Z" fill="#060020"/>
<path d="M18.0716 19.3271H24.0722H31.3633H33.4888C33.6387 19.3271 33.7675 19.22 33.7956 19.0718L35.2203 11.5763C35.2572 11.3824 35.1096 11.2027 34.9135 11.2027H25.4969C25.347 11.2027 25.2183 11.3099 25.1901 11.4581L23.7919 18.8142H18.0716C17.9315 18.8142 17.8169 18.9296 17.8169 19.0707C17.8169 19.2117 17.9315 19.3271 18.0716 19.3271ZM29.5562 13.7741C29.5947 13.5543 29.803 13.376 30.0214 13.376C30.2397 13.376 30.3856 13.5543 30.347 13.7741C30.3085 13.994 30.1003 14.1722 29.8819 14.1722C29.6635 14.1722 29.5177 13.994 29.5562 13.7741Z" fill="#060020"/>
</svg>
