<svg width="720" height="206" viewBox="0 0 1920 206" fill="none" xmlns="http://www.w3.org/2000/svg">
<path d="M1982.38 201.536C1983.46 201.743 1984.17 202.791 1983.96 203.876C1983.76 204.96 1982.71 205.672 1981.62 205.464L1982.38 201.536ZM1272 39.9997L1270.89 38.3361L1272 39.9997ZM595.5 6.99974L595.792 5.02124L595.5 6.99974ZM173 92.4997L171.217 91.5941L173 92.4997ZM200 92.4997L198.209 93.39L200 92.4997ZM1976.8 204.519C1975.72 204.301 1975.02 203.247 1975.24 202.164C1975.45 201.081 1976.51 200.38 1977.59 200.597L1976.8 204.519ZM1967.83 198.544C1968.9 198.78 1969.59 199.847 1969.35 200.926C1969.11 202.005 1968.05 202.688 1966.97 202.451L1967.83 198.544ZM1957.16 200.221C1956.09 199.968 1955.42 198.892 1955.68 197.817C1955.93 196.741 1957.01 196.075 1958.08 196.328L1957.16 200.221ZM1948.39 193.977C1949.46 194.245 1950.11 195.33 1949.85 196.402C1949.58 197.474 1948.49 198.126 1947.42 197.858L1948.39 193.977ZM1937.66 195.358C1936.59 195.077 1935.95 193.984 1936.23 192.916C1936.51 191.847 1937.6 191.208 1938.67 191.489L1937.66 195.358ZM1929.07 188.913C1930.13 189.205 1930.76 190.305 1930.47 191.37C1930.18 192.436 1929.08 193.063 1928.01 192.771L1929.07 188.913ZM1918.26 190.05C1917.2 189.748 1916.58 188.642 1916.88 187.58C1917.18 186.517 1918.29 185.9 1919.35 186.202L1918.26 190.05ZM1909.83 183.454C1910.89 183.764 1911.5 184.876 1911.19 185.936C1910.88 186.995 1909.77 187.603 1908.71 187.292L1909.83 183.454ZM1899.02 184.408C1897.96 184.088 1897.36 182.973 1897.68 181.915C1898 180.858 1899.11 180.259 1900.17 180.578L1899.02 184.408ZM1890.67 177.675C1891.72 178.001 1892.31 179.121 1891.99 180.176C1891.66 181.232 1890.54 181.823 1889.49 181.496L1890.67 177.675ZM1879.9 178.499C1878.85 178.166 1878.26 177.043 1878.6 175.989C1878.93 174.936 1880.05 174.352 1881.11 174.685L1879.9 178.499ZM1871.55 171.636C1872.61 171.975 1873.18 173.102 1872.84 174.153C1872.51 175.205 1871.38 175.782 1870.33 175.444L1871.55 171.636ZM1860.83 172.358C1859.78 172.014 1859.21 170.884 1859.55 169.834C1859.9 168.785 1861.03 168.213 1862.08 168.557L1860.83 172.358ZM1852.5 165.394C1853.55 165.743 1854.12 166.875 1853.77 167.923C1853.42 168.971 1852.29 169.538 1851.24 169.19L1852.5 165.394ZM1841.8 166.026C1840.75 165.673 1840.19 164.538 1840.54 163.492C1840.9 162.445 1842.03 161.883 1843.08 162.236L1841.8 166.026ZM1833.59 159.016C1834.63 159.373 1835.19 160.509 1834.83 161.555C1834.48 162.6 1833.34 163.158 1832.3 162.801L1833.59 159.016ZM1822.79 159.54C1821.75 159.18 1821.19 158.042 1821.55 156.998C1821.91 155.953 1823.05 155.399 1824.1 155.759L1822.79 159.54ZM1814.67 152.494C1815.72 152.857 1816.27 153.997 1815.91 155.04C1815.54 156.083 1814.4 156.635 1813.36 156.271L1814.67 152.494ZM1803.86 152.952C1802.82 152.586 1802.27 151.444 1802.64 150.402C1803 149.36 1804.14 148.811 1805.19 149.177L1803.86 152.952ZM1795.77 145.859C1796.81 146.227 1797.35 147.37 1796.98 148.411C1796.62 149.453 1795.47 149.999 1794.43 149.631L1795.77 145.859ZM1785 146.286C1783.96 145.916 1783.41 144.772 1783.78 143.732C1784.15 142.691 1785.3 142.147 1786.34 142.517L1785 146.286ZM1776.86 139.141C1777.9 139.513 1778.45 140.658 1778.08 141.698C1777.7 142.738 1776.56 143.28 1775.52 142.908L1776.86 139.141ZM1766.12 139.545C1765.08 139.172 1764.54 138.026 1764.92 136.987C1765.29 135.947 1766.43 135.407 1767.47 135.78L1766.12 139.545ZM1758.04 132.391C1759.08 132.765 1759.62 133.91 1759.25 134.95C1758.87 135.989 1757.73 136.528 1756.69 136.154L1758.04 132.391ZM1747.25 132.754C1746.21 132.379 1745.67 131.233 1746.05 130.194C1746.42 129.155 1747.57 128.617 1748.61 128.992L1747.25 132.754ZM1739.21 125.597C1740.25 125.972 1740.78 127.118 1740.41 128.157C1740.03 129.196 1738.89 129.734 1737.85 129.359L1739.21 125.597ZM1728.42 125.949C1727.38 125.574 1726.84 124.427 1727.22 123.388C1727.59 122.349 1728.74 121.812 1729.78 122.188L1728.42 125.949ZM1720.36 118.782C1721.4 119.157 1721.94 120.304 1721.56 121.343C1721.18 122.381 1720.04 122.919 1719 122.543L1720.36 118.782ZM1709.59 119.14C1708.55 118.765 1708.01 117.618 1708.38 116.579C1708.76 115.541 1709.91 115.003 1710.94 115.378L1709.59 119.14ZM1701.52 111.973C1702.55 112.348 1703.09 113.494 1702.72 114.533C1702.34 115.572 1701.2 116.11 1700.16 115.735L1701.52 111.973ZM1690.74 112.34C1689.7 111.966 1689.16 110.82 1689.54 109.781C1689.91 108.741 1691.06 108.202 1692.09 108.577L1690.74 112.34ZM1682.67 105.187C1683.71 105.561 1684.25 106.706 1683.88 107.745C1683.5 108.785 1682.36 109.325 1681.32 108.952L1682.67 105.187ZM1671.89 105.574C1670.85 105.202 1670.31 104.057 1670.68 103.017C1671.05 101.977 1672.2 101.435 1673.24 101.807L1671.89 105.574ZM1663.8 98.4375C1664.84 98.808 1665.38 99.952 1665.01 100.993C1664.64 102.033 1663.5 102.576 1662.46 102.206L1663.8 98.4375ZM1653.03 98.8555C1651.98 98.4867 1651.44 97.3436 1651.81 96.3025C1652.18 95.2613 1653.32 94.7163 1654.36 95.0852L1653.03 98.8555ZM1644.92 91.7487C1645.96 92.1156 1646.5 93.2576 1646.14 94.2994C1645.77 95.3413 1644.63 95.8885 1643.59 95.5216L1644.92 91.7487ZM1634.13 92.2028C1633.09 91.8382 1632.54 90.6973 1632.9 89.6547C1633.27 88.612 1634.41 88.0624 1635.45 88.427L1634.13 92.2028ZM1626 85.135C1627.04 85.4971 1627.6 86.6366 1627.23 87.6802C1626.87 88.7237 1625.73 89.2761 1624.69 88.914L1626 85.135ZM1615.22 85.6422C1614.17 85.283 1613.62 84.145 1613.98 83.1005C1614.34 82.056 1615.48 81.5005 1616.52 81.8597L1615.22 85.6422ZM1607.03 78.6112C1608.08 78.9674 1608.63 80.1037 1608.28 81.1493C1607.92 82.1948 1606.79 82.7537 1605.74 82.3976L1607.03 78.6112ZM1596.29 79.1958C1595.24 78.8431 1594.68 77.7086 1595.03 76.6619C1595.39 75.6152 1596.52 75.0525 1597.57 75.4053L1596.29 79.1958ZM1588.03 72.2109C1589.08 72.5599 1589.65 73.6923 1589.3 74.7403C1588.95 75.7883 1587.82 76.355 1586.77 76.0061L1588.03 72.2109ZM1577.27 72.8638C1576.22 72.519 1575.65 71.3888 1576 70.3394C1576.34 69.29 1577.47 68.7189 1578.52 69.0638L1577.27 72.8638ZM1569.02 65.9631C1570.07 66.3035 1570.64 67.4313 1570.3 68.4821C1569.96 69.5329 1568.84 70.1088 1567.79 69.7685L1569.02 65.9631ZM1558.22 66.694C1557.17 66.3585 1556.59 65.2334 1556.92 64.181C1557.26 63.1286 1558.38 62.5475 1559.43 62.883L1558.22 66.694ZM1549.9 59.87C1550.95 60.2002 1551.54 61.3224 1551.21 62.3764C1550.88 63.4305 1549.76 64.0173 1548.71 63.6871L1549.9 59.87ZM1539.14 60.7189C1538.08 60.3945 1537.49 59.2755 1537.82 58.2197C1538.14 57.1639 1539.26 56.5709 1540.31 56.8954L1539.14 60.7189ZM1530.7 53.9722C1531.76 54.2904 1532.36 55.4058 1532.04 56.4635C1531.72 57.5213 1530.61 58.1208 1529.55 57.8026L1530.7 53.9722ZM1520.03 54.9708C1518.97 54.6594 1518.36 53.5478 1518.67 52.488C1518.99 51.4283 1520.1 50.8217 1521.16 51.1332L1520.03 54.9708ZM1511.45 48.3176C1512.52 48.6217 1513.13 49.7291 1512.83 50.791C1512.52 51.8528 1511.41 52.4672 1510.35 52.1631L1511.45 48.3176ZM1500.75 49.4517C1499.69 49.1555 1499.06 48.0528 1499.36 46.9887C1499.66 45.9246 1500.76 45.302 1501.82 45.5981L1500.75 49.4517ZM1492.15 42.9491C1493.22 43.2365 1493.85 44.3341 1493.56 45.4007C1493.28 46.4672 1492.18 47.0987 1491.11 46.8112L1492.15 42.9491ZM1481.41 44.2423C1480.34 43.9643 1479.7 42.8723 1479.98 41.8033C1480.26 40.7343 1481.35 40.093 1482.42 40.371L1481.41 44.2423ZM1472.79 37.9143C1473.86 38.1821 1474.51 39.268 1474.24 40.3396C1473.98 41.4112 1472.89 42.0628 1471.82 41.7949L1472.79 37.9143ZM1462.01 39.3982C1460.94 39.1417 1460.28 38.0628 1460.53 36.9884C1460.79 35.914 1461.87 35.2511 1462.94 35.5076L1462.01 39.3982ZM1453.21 33.2418C1454.29 33.4861 1454.96 34.5574 1454.72 35.6346C1454.48 36.7118 1453.4 37.387 1452.33 37.1427L1453.21 33.2418ZM1442.54 34.9863C1441.46 34.7555 1440.77 33.6927 1441 32.6126C1441.23 31.5324 1442.3 30.8438 1443.38 31.0747L1442.54 34.9863ZM1433.54 29.0415C1434.62 29.2576 1435.33 30.3108 1435.11 31.3941C1434.89 32.4773 1433.84 33.1803 1432.76 32.9643L1433.54 29.0415ZM1422.98 31.0901C1421.9 30.8903 1421.18 29.8477 1421.38 28.7613C1421.58 27.675 1422.62 26.9563 1423.71 27.156L1422.98 31.0901ZM1413.76 25.4107C1414.85 25.5923 1415.58 26.6228 1415.4 27.7124C1415.22 28.8019 1414.19 29.5379 1413.1 29.3563L1413.76 25.4107ZM1403.33 27.8172C1402.23 27.6554 1401.48 26.6386 1401.64 25.5459C1401.8 24.4532 1402.82 23.6985 1403.91 23.8602L1403.33 27.8172ZM1393.86 22.4762C1394.95 22.6153 1395.73 23.6163 1395.59 24.7121C1395.45 25.8079 1394.45 26.5834 1393.35 26.4443L1393.86 22.4762ZM1383.56 25.3116C1382.46 25.1973 1381.67 24.2141 1381.78 23.1154C1381.89 22.0168 1382.88 21.2188 1383.98 21.3331L1383.56 25.3116ZM1373.84 20.4089C1374.94 20.4945 1375.76 21.4567 1375.67 22.5579C1375.59 23.6592 1374.63 24.4825 1373.53 24.3968L1373.84 20.4089ZM1363.7 23.7715C1362.59 23.7176 1361.74 22.7795 1361.8 21.6763C1361.85 20.573 1362.79 19.7224 1363.89 19.7763L1363.7 23.7715ZM1353.71 19.4453C1354.81 19.4623 1355.7 20.3715 1355.68 21.4759C1355.66 22.5803 1354.75 23.4619 1353.65 23.4448L1353.71 19.4453ZM1343.78 23.4742C1342.67 23.4987 1341.76 22.6234 1341.73 21.5191C1341.71 20.4148 1342.58 19.4997 1343.69 19.4752L1343.78 23.4742ZM1333.55 19.9178C1334.65 19.8448 1335.6 20.6792 1335.68 21.7813C1335.75 22.8835 1334.92 23.8361 1333.81 23.9091L1333.55 19.9178ZM1323.94 24.808C1322.84 24.9367 1321.85 24.1517 1321.72 23.0546C1321.59 21.9576 1322.38 20.9639 1323.48 20.8352L1323.94 24.808ZM1313.52 22.2926C1314.61 22.0998 1315.65 22.8251 1315.84 23.9127C1316.03 25.0003 1315.31 26.0383 1314.22 26.2312L1313.52 22.2926ZM1304.48 28.301C1303.41 28.5692 1302.33 27.9181 1302.06 26.8466C1301.79 25.7751 1302.44 24.689 1303.51 24.4207L1304.48 28.301ZM1293.79 27.2665C1294.84 26.9125 1295.97 27.4737 1296.33 28.5201C1296.68 29.5664 1296.12 30.7015 1295.07 31.0555L1293.79 27.2665ZM1285.96 34.6142C1284.95 35.0652 1283.76 34.6133 1283.31 33.6049C1282.86 32.5966 1283.31 31.4136 1284.32 30.9627L1285.96 34.6142ZM1275.19 35.6484C1276.14 35.0903 1277.37 35.4106 1277.92 36.3638C1278.48 37.317 1278.16 38.5421 1277.21 39.1002L1275.19 35.6484ZM1268.81 44.5042C1267.88 45.1081 1266.64 44.8479 1266.04 43.923C1265.43 42.9981 1265.69 41.7588 1266.62 41.1549L1268.81 44.5042ZM1258.09 46.6046C1259.02 46.0195 1260.26 46.3046 1260.84 47.2415C1261.43 48.1783 1261.14 49.4121 1260.21 49.9973L1258.09 46.6046ZM1251.62 55.242C1250.67 55.808 1249.44 55.4978 1248.87 54.5492C1248.31 53.6007 1248.62 52.3729 1249.57 51.807L1251.62 55.242ZM1240.85 56.8821C1241.81 56.3362 1243.04 56.6722 1243.58 57.6324C1244.13 58.5927 1243.79 59.8136 1242.83 60.3595L1240.85 56.8821ZM1233.93 65.2963C1232.95 65.8214 1231.74 65.4593 1231.22 64.4875C1230.69 63.5157 1231.05 62.3023 1232.02 61.7772L1233.93 65.2963ZM1223.21 66.4183C1224.19 65.9144 1225.4 66.3028 1225.9 67.2857C1226.4 68.2686 1226.02 69.4739 1225.03 69.9778L1223.21 66.4183ZM1215.89 74.5362C1214.9 75.0179 1213.7 74.6026 1213.22 73.6086C1212.74 72.6146 1213.15 71.4183 1214.15 70.9366L1215.89 74.5362ZM1205.05 75.2201C1206.05 74.7611 1207.24 75.2034 1207.7 76.2081C1208.16 77.2128 1207.71 78.3993 1206.71 78.8584L1205.05 75.2201ZM1197.5 82.9391C1196.49 83.375 1195.31 82.9057 1194.87 81.8907C1194.44 80.8758 1194.91 79.6997 1195.92 79.2638L1197.5 82.9391ZM1186.57 83.1528C1187.59 82.7409 1188.76 83.2378 1189.17 84.2627C1189.58 85.2876 1189.08 86.4523 1188.06 86.8642L1186.57 83.1528ZM1178.64 90.5237C1177.6 90.9113 1176.45 90.3871 1176.06 89.3528C1175.67 88.3185 1176.2 87.1658 1177.23 86.7781L1178.64 90.5237ZM1167.77 90.1947C1168.82 89.8319 1169.96 90.3835 1170.32 91.4268C1170.68 92.47 1170.13 93.6099 1169.09 93.9728L1167.77 90.1947ZM1159.44 97.1983C1158.39 97.5358 1157.26 96.9568 1156.92 95.9051C1156.59 94.8533 1157.17 93.7271 1158.22 93.3896L1159.44 97.1983ZM1148.68 96.324C1149.74 96.0118 1150.85 96.6177 1151.16 97.6773C1151.48 98.7368 1150.87 99.8488 1149.81 100.161L1148.68 96.324ZM1139.98 102.928C1138.91 103.214 1137.81 102.581 1137.53 101.514C1137.24 100.448 1137.87 99.3508 1138.94 99.0647L1139.98 102.928ZM1129.22 101.544C1130.3 101.284 1131.38 101.943 1131.64 103.017C1131.9 104.09 1131.24 105.171 1130.16 105.431L1129.22 101.544ZM1120.27 107.701C1119.19 107.935 1118.13 107.249 1117.89 106.17C1117.66 105.09 1118.34 104.025 1119.42 103.791L1120.27 107.701ZM1109.56 105.802C1110.65 105.595 1111.69 106.306 1111.9 107.391C1112.11 108.476 1111.4 109.524 1110.31 109.731L1109.56 105.802ZM1100.36 111.51C1099.27 111.691 1098.24 110.955 1098.06 109.865C1097.88 108.776 1098.62 107.746 1099.71 107.564L1100.36 111.51ZM1089.73 109.101C1090.82 108.946 1091.84 109.706 1091.99 110.8C1092.15 111.894 1091.39 112.906 1090.29 113.061L1089.73 109.101ZM1080.26 114.362C1079.16 114.491 1078.16 113.707 1078.04 112.61C1077.91 111.513 1078.69 110.519 1079.79 110.39L1080.26 114.362ZM1069.77 111.449C1070.87 111.345 1071.85 112.153 1071.95 113.253C1072.05 114.353 1071.25 115.328 1070.15 115.431L1069.77 111.449ZM1060.04 116.262C1058.94 116.34 1057.98 115.51 1057.9 114.408C1057.82 113.306 1058.65 112.35 1059.76 112.272L1060.04 116.262ZM1049.73 112.865C1050.83 112.813 1051.77 113.664 1051.82 114.768C1051.87 115.871 1051.02 116.808 1049.92 116.861L1049.73 112.865ZM1039.77 117.232C1038.66 117.26 1037.74 116.388 1037.72 115.283C1037.69 114.179 1038.56 113.261 1039.66 113.233L1039.77 117.232ZM1029.63 113.378C1030.74 113.374 1031.64 114.267 1031.64 115.371C1031.64 116.476 1030.75 117.374 1029.65 117.378L1029.63 113.378ZM1019.48 117.306C1018.38 117.286 1017.5 116.375 1017.52 115.271C1017.54 114.166 1018.45 113.287 1019.55 113.306L1019.48 117.306ZM1009.51 113.023C1010.62 113.066 1011.48 113.995 1011.43 115.099C1011.39 116.203 1010.46 117.063 1009.36 117.02L1009.51 113.023ZM999.215 116.526C998.113 116.461 997.271 115.514 997.336 114.411C997.401 113.309 998.348 112.468 999.45 112.532L999.215 116.526ZM989.417 111.842C990.518 111.929 991.34 112.892 991.254 113.993C991.167 115.094 990.204 115.916 989.103 115.83L989.417 111.842ZM979.003 114.939C977.904 114.831 977.1 113.853 977.207 112.753C977.315 111.654 978.293 110.85 979.392 110.958L979.003 114.939ZM969.381 109.885C970.478 110.013 971.264 111.006 971.136 112.103C971.009 113.2 970.016 113.986 968.919 113.858L969.381 109.885ZM958.869 112.597C957.775 112.45 957.006 111.443 957.154 110.349C957.301 109.254 958.307 108.486 959.402 108.633L958.869 112.597ZM949.426 107.204C950.518 107.37 951.269 108.39 951.103 109.482C950.937 110.574 949.917 111.325 948.825 111.159L949.426 107.204ZM938.835 109.558C937.746 109.374 937.012 108.342 937.196 107.253C937.38 106.164 938.411 105.43 939.501 105.613L938.835 109.558ZM929.567 103.856C930.653 104.057 931.371 105.101 931.17 106.187C930.969 107.273 929.926 107.991 928.84 107.79L929.567 103.856ZM918.902 105.874C917.819 105.657 917.117 104.603 917.334 103.52C917.551 102.437 918.605 101.735 919.688 101.952L918.902 105.874ZM909.816 99.8981C910.896 100.131 911.582 101.195 911.35 102.275C911.117 103.354 910.053 104.041 908.973 103.808L909.816 99.8981ZM899.091 101.607C898.015 101.36 897.343 100.287 897.59 99.2103C897.838 98.1338 898.911 97.4617 899.987 97.7091L899.091 101.607ZM890.179 95.3872C891.252 95.6486 891.91 96.7304 891.649 97.8036C891.387 98.8769 890.306 99.535 889.232 99.2737L890.179 95.3872ZM879.407 96.8167C878.337 96.5423 877.692 95.4525 877.967 94.3825C878.241 93.3126 879.331 92.6677 880.401 92.9422L879.407 96.8167ZM870.657 90.3822C871.724 90.669 872.356 91.7662 872.07 92.8329C871.783 93.8996 870.686 94.5318 869.619 94.2451L870.657 90.3822ZM859.848 91.5608C858.784 91.2625 858.164 90.1585 858.462 89.095C858.761 88.0315 859.865 87.4111 860.928 87.7094L859.848 91.5608ZM851.249 84.9412C852.31 85.2503 852.919 86.3604 852.61 87.4209C852.301 88.4814 851.191 89.0905 850.13 88.7815L851.249 84.9412ZM840.409 85.8986C839.351 85.5796 838.753 84.4637 839.072 83.4062C839.391 82.3487 840.506 81.75 841.564 82.069L840.409 85.8986ZM831.947 79.1225C833.002 79.4506 833.591 80.5716 833.263 81.6263C832.935 82.681 831.814 83.2701 830.759 82.942L831.947 79.1225ZM821.081 79.889C820.029 79.5526 819.449 78.4269 819.785 77.3749C820.122 76.3228 821.247 75.7426 822.299 76.079L821.081 79.889ZM812.726 72.9796C813.776 73.3235 814.348 74.4532 814.004 75.5029C813.66 76.5525 812.53 77.1247 811.481 76.7808L812.726 72.9796ZM801.852 73.5917C800.805 73.2411 800.24 72.1077 800.591 71.0603C800.941 70.0128 802.075 69.4479 803.122 69.7985L801.852 73.5917ZM793.582 66.5752C794.628 66.9316 795.186 68.0681 794.83 69.1136C794.473 70.1591 793.337 70.7177 792.291 70.3613L793.582 66.5752ZM782.707 67.0676C781.663 66.7062 781.11 65.5671 781.471 64.5233C781.832 63.4795 782.971 62.9263 784.015 63.2877L782.707 67.0676ZM774.5 59.9715C775.542 60.337 776.091 61.4783 775.725 62.5206C775.36 63.563 774.219 64.1117 773.176 63.7462L774.5 59.9715ZM763.624 60.3802C762.583 60.0116 762.038 58.8686 762.406 57.8274C762.775 56.7862 763.918 56.2409 764.959 56.6095L763.624 60.3802ZM755.458 53.2336C756.498 53.6044 757.041 54.7485 756.67 55.7889C756.299 56.8294 755.155 57.3722 754.115 57.0014L755.458 53.2336ZM744.583 53.597C743.543 53.225 743.002 52.0803 743.374 51.0403C743.746 50.0002 744.891 49.4587 745.93 49.8308L744.583 53.597ZM736.433 46.4315C737.473 46.8037 738.014 47.9485 737.642 48.9885C737.27 50.0284 736.125 50.5698 735.085 50.1976L736.433 46.4315ZM725.557 46.7919C724.517 46.4207 723.974 45.2765 724.345 44.2361C724.717 43.1958 725.861 42.6534 726.901 43.0246L725.557 46.7919ZM717.396 39.6435C718.438 40.0125 718.982 41.1556 718.613 42.1967C718.245 43.2378 717.101 43.7827 716.06 43.4137L717.396 39.6435ZM706.517 40.0482C705.474 39.6828 704.926 38.5415 705.291 37.4991C705.657 36.4568 706.798 35.9081 707.84 36.2735L706.517 40.0482ZM698.319 32.9591C699.363 33.3196 699.917 34.4583 699.556 35.5024C699.196 36.5464 698.057 37.1005 697.013 36.74L698.319 32.9591ZM687.431 33.4632C686.385 33.1092 685.824 31.974 686.178 30.9277C686.532 29.8814 687.667 29.3202 688.713 29.6742L687.431 33.4632ZM679.166 26.4844C680.215 26.8301 680.786 27.9609 680.44 29.0099C680.094 30.059 678.963 30.6291 677.914 30.2833L679.166 26.4844ZM668.268 27.1542C667.216 26.8187 666.634 25.6936 666.97 24.6412C667.305 23.5888 668.431 23.0077 669.483 23.3432L668.268 27.1542ZM659.875 20.34C660.931 20.6631 661.526 21.7814 661.202 22.8376C660.879 23.8938 659.761 24.4881 658.705 24.1649L659.875 20.34ZM648.997 21.2674C647.936 20.9592 647.326 19.8495 647.634 18.7888C647.942 17.7281 649.052 17.118 650.113 17.4262L648.997 21.2674ZM640.377 14.6829C641.443 14.9734 642.071 16.0727 641.781 17.1384C641.49 18.2041 640.391 18.8326 639.325 18.5421L640.377 14.6829ZM629.593 15.9896C628.522 15.7202 627.872 14.6334 628.141 13.5622C628.411 12.491 629.498 11.841 630.569 12.1104L629.593 15.9896ZM620.672 9.73995C621.749 9.98442 622.424 11.0558 622.18 12.133C621.935 13.2102 620.864 13.8852 619.787 13.6407L620.672 9.73995ZM610.028 11.56C608.944 11.3447 608.241 10.2918 608.456 9.20844C608.671 8.12508 609.724 7.42143 610.807 7.63681L610.028 11.56ZM600.747 5.79872C601.836 5.97942 602.573 7.00927 602.392 8.09896C602.212 9.18865 601.182 9.92553 600.092 9.74483L600.747 5.79872ZM590.2 8.26746C589.105 8.11857 588.339 7.11061 588.488 6.01612C588.636 4.92164 589.644 4.15507 590.739 4.30396L590.2 8.26746ZM580.688 3.05424C581.785 3.17791 582.575 4.16796 582.451 5.26558C582.328 6.36321 581.338 7.15276 580.24 7.0291L580.688 3.05424ZM570.356 6.02955C569.256 5.93097 568.444 4.95919 568.542 3.85903C568.641 2.75886 569.613 1.94693 570.713 2.04552L570.356 6.02955ZM560.624 1.25845C561.726 1.33167 562.56 2.28449 562.487 3.38663C562.414 4.48877 561.461 5.32287 560.359 5.24965L560.624 1.25845ZM550.363 4.70078C549.26 4.65288 548.404 3.71946 548.452 2.61593C548.5 1.5124 549.433 0.65664 550.537 0.704538L550.363 4.70078ZM540.535 0.384079C541.639 0.406936 542.516 1.3207 542.493 2.42504C542.47 3.52937 541.557 4.40608 540.452 4.38322L540.535 0.384079ZM530.384 4.29041C529.28 4.29288 528.382 3.39946 528.38 2.29489C528.377 1.19033 529.271 0.292893 530.375 0.29042L530.384 4.29041ZM520.303 0.426946C521.407 0.399505 522.325 1.27241 522.352 2.37664C522.38 3.48087 521.507 4.39827 520.403 4.42571L520.303 0.426946ZM510.44 4.78518C509.337 4.83737 508.4 3.98524 508.348 2.8819C508.296 1.77857 509.148 0.841831 510.251 0.789648L510.44 4.78518ZM500.14 1.38151C501.242 1.30464 502.198 2.13559 502.275 3.23749C502.351 4.33938 501.521 5.29495 500.419 5.37181L500.14 1.38151ZM490.499 6.17349C489.399 6.27454 488.426 5.46478 488.325 4.36485C488.224 3.26491 489.033 2.29132 490.133 2.19027L490.499 6.17349ZM480.071 3.22604C481.169 3.10094 482.16 3.8892 482.285 4.98666C482.41 6.08412 481.622 7.0752 480.524 7.2003L480.071 3.22604ZM470.599 8.44042C469.505 8.58916 468.497 7.82246 468.348 6.72795C468.2 5.63344 468.966 4.62559 470.061 4.47685L470.599 8.44042ZM460.125 5.93466C461.216 5.76278 462.24 6.50797 462.412 7.59909C462.583 8.6902 461.838 9.71406 460.747 9.88594L460.125 5.93466ZM450.838 11.5542C449.751 11.749 448.712 11.0256 448.517 9.9383C448.322 8.85105 449.046 7.81173 450.133 7.61692L450.838 11.5542ZM440.266 9.48995C441.349 9.27285 442.403 9.97481 442.62 11.0578C442.837 12.1409 442.135 13.1948 441.052 13.4119L440.266 9.48995ZM431.24 15.4832C430.161 15.7223 429.093 15.0419 428.854 13.9635C428.615 12.8851 429.295 11.8171 430.374 11.578L431.24 15.4832ZM420.553 13.8585C421.626 13.598 422.708 14.257 422.968 15.3304C423.229 16.4038 422.57 17.4852 421.496 17.7457L420.553 13.8585ZM411.827 20.1927C410.758 20.4741 409.664 19.8363 409.383 18.7681C409.102 17.7 409.74 16.606 410.808 16.3246L411.827 20.1927ZM401.046 18.997C402.109 18.6952 403.215 19.3118 403.516 20.3743C403.818 21.4369 403.202 22.5429 402.139 22.8448L401.046 18.997ZM392.598 25.652C391.542 25.9737 390.424 25.3778 390.103 24.321C389.781 23.2643 390.377 22.147 391.434 21.8254L392.598 25.652ZM381.763 24.8668C382.814 24.5258 383.942 25.1009 384.283 26.1515C384.624 27.2021 384.049 28.3303 382.998 28.6714L381.763 24.8668ZM373.535 31.8378C372.491 32.1976 371.352 31.6427 370.993 30.5984C370.633 29.5541 371.188 28.4158 372.232 28.056L373.535 31.8378ZM362.718 31.428C363.756 31.0499 364.904 31.5847 365.282 32.6226C365.66 33.6604 365.125 34.8083 364.087 35.1864L362.718 31.428ZM354.709 38.6944C353.678 39.0902 352.521 38.5751 352.126 37.5438C351.73 36.5126 352.245 35.3558 353.276 34.96L354.709 38.6944ZM343.922 38.6402C344.947 38.2273 346.112 38.7231 346.525 39.7476C346.938 40.7721 346.442 41.9373 345.417 42.3502L343.922 38.6402ZM336.13 46.1819C335.112 46.6114 333.939 46.1347 333.51 45.117C333.08 44.0994 333.557 42.9262 334.574 42.4967L336.13 46.1819ZM325.38 46.4634C326.39 46.018 327.571 46.4762 328.016 47.487C328.462 48.4978 328.004 49.6783 326.993 50.1237L325.38 46.4634ZM317.801 54.2604C316.797 54.7214 315.609 54.2814 315.148 53.2777C314.687 52.2739 315.127 51.0865 316.131 50.6255L317.801 54.2604ZM307.091 54.8588C308.088 54.3831 309.282 54.8055 309.757 55.8023C310.233 56.7992 309.811 57.993 308.814 58.4688L307.091 54.8588ZM299.722 62.89C298.732 63.3802 297.532 62.9752 297.042 61.9854C296.552 60.9956 296.957 59.7957 297.947 59.3055L299.722 62.89ZM289.045 63.7914C290.028 63.2876 291.233 63.6761 291.737 64.659C292.24 65.642 291.852 66.8473 290.869 67.3511L289.045 63.7914ZM281.891 72.03C280.915 72.547 279.705 72.1749 279.188 71.1988C278.671 70.2228 279.043 69.0123 280.019 68.4953L281.891 72.03ZM271.246 73.2146C272.215 72.6852 273.431 73.0418 273.96 74.0113C274.489 74.9807 274.133 76.1958 273.163 76.7252L271.246 73.2146ZM264.302 81.6362C263.34 82.1775 262.12 81.8359 261.579 80.8731C261.038 79.9103 261.379 78.6909 262.342 78.1495L264.302 81.6362ZM253.664 83.0956C254.62 82.5432 255.844 82.8708 256.396 83.8273C256.949 84.7838 256.621 86.0071 255.664 86.5595L253.664 83.0956ZM246.953 91.655C246.002 92.2178 244.775 91.9035 244.213 90.9531C243.65 90.0026 243.964 88.7759 244.915 88.2131L246.953 91.655ZM236.292 93.3776C237.237 92.8054 238.467 93.1075 239.039 94.0523C239.611 94.9971 239.309 96.2269 238.364 96.7991L236.292 93.3776ZM229.848 102.009C228.909 102.59 227.676 102.299 227.096 101.359C226.515 100.419 226.806 99.1867 227.746 98.6062L229.848 102.009ZM219.136 103.972C220.071 103.384 221.306 103.666 221.893 104.601C222.481 105.537 222.199 106.771 221.264 107.359L219.136 103.972ZM212.836 112.688C211.904 113.281 210.668 113.006 210.075 112.074C209.482 111.142 209.757 109.906 210.689 109.313L212.836 112.688ZM202.256 114.698C203.186 114.102 204.423 114.374 205.019 115.304C205.614 116.234 205.343 117.471 204.412 118.067L202.256 114.698ZM195.871 123.533C194.941 124.127 193.704 123.855 193.109 122.924C192.515 121.993 192.788 120.756 193.719 120.162L195.871 123.533ZM185.221 125.547C186.157 124.961 187.391 125.244 187.977 126.18C188.564 127.116 188.28 128.35 187.344 128.937L185.221 125.547ZM178.733 134.213C177.783 134.778 176.556 134.465 175.992 133.515C175.428 132.566 175.74 131.339 176.69 130.775L178.733 134.213ZM168.098 135.573C169.083 135.072 170.287 135.465 170.787 136.45C171.288 137.434 170.896 138.638 169.911 139.139L168.098 135.573ZM159.823 142.845C158.726 142.972 157.734 142.184 157.608 141.087C157.481 139.99 158.268 138.998 159.366 138.871L159.823 142.845ZM157.26 134.503C157.082 135.593 156.054 136.332 154.964 136.155C153.874 135.977 153.134 134.949 153.312 133.859L157.26 134.503ZM156.26 123.859C156.65 122.826 157.804 122.304 158.837 122.695C159.87 123.085 160.392 124.239 160.002 125.272L156.26 123.859ZM163.81 116.12C163.361 117.129 162.178 117.582 161.169 117.133C160.16 116.683 159.707 115.5 160.157 114.492L163.81 116.12ZM164.501 105.145C164.979 104.149 166.174 103.73 167.17 104.208C168.165 104.686 168.585 105.881 168.106 106.877L164.501 105.145ZM172.378 98.1765C171.884 99.1644 170.683 99.5648 169.695 99.0707C168.707 98.5767 168.306 97.3753 168.801 96.3874L172.378 98.1765ZM173.733 86.7319C174.249 85.755 175.458 85.3809 176.435 85.8964C177.412 86.4119 177.786 87.6217 177.271 88.5986L173.733 86.7319ZM182.153 79.7066C181.604 80.6652 180.382 80.9975 179.424 80.4488C178.465 79.9 178.133 78.6781 178.682 77.7195L182.153 79.7066ZM184.036 68.8047C184.626 67.871 185.861 67.5924 186.795 68.1824C187.728 68.7725 188.007 70.0078 187.417 70.9415L184.036 68.8047ZM192.888 62.765C192.248 63.665 190.999 63.8755 190.099 63.2351C189.199 62.5947 188.989 61.346 189.629 60.446L192.888 62.765ZM196.118 52.0134C196.828 51.1671 198.089 51.0564 198.936 51.7663C199.782 52.4761 199.892 53.7376 199.183 54.5839L196.118 52.0134ZM206.029 47.2549C205.226 48.0139 203.961 47.9788 203.202 47.1763C202.443 46.3739 202.478 45.108 203.28 44.349L206.029 47.2549ZM211.535 37.7682C212.464 37.1694 213.701 37.4365 214.3 38.3646C214.899 39.2928 214.632 40.5307 213.704 41.1295L211.535 37.7682ZM222.303 37.1888C221.235 37.4678 220.142 36.8276 219.863 35.7588C219.584 34.6901 220.224 33.5975 221.293 33.3185L222.303 37.1888ZM232.354 33.0829C233.429 33.3331 234.099 34.4081 233.848 35.484C233.598 36.5598 232.523 37.2291 231.447 36.9788L232.354 33.0829ZM239.773 41.1467C238.906 40.4624 238.758 39.2048 239.442 38.3377C240.127 37.4706 241.384 37.3224 242.251 38.0066L239.773 41.1467ZM249.607 45.7779C250.263 46.6667 250.074 47.9189 249.186 48.5747C248.297 49.2305 247.045 49.0417 246.389 48.1529L249.607 45.7779ZM251.552 56.6219C251.051 55.638 251.441 54.4335 252.425 53.9315C253.409 53.4296 254.614 53.8204 255.116 54.8043L251.552 56.6219ZM259.327 64.4225C259.715 65.4565 259.192 66.6097 258.158 66.9983C257.124 67.3869 255.971 66.8638 255.582 65.8299L259.327 64.4225ZM258.714 75.4325C258.415 74.3692 259.035 73.2648 260.098 72.9657C261.161 72.6666 262.266 73.2861 262.565 74.3495L258.714 75.4325ZM265.015 84.462C265.237 85.5439 264.541 86.6013 263.459 86.8238C262.377 87.0463 261.319 86.3496 261.097 85.2677L265.015 84.462ZM262.81 95.2475C262.658 94.1534 263.422 93.1435 264.516 92.9918C265.611 92.8402 266.62 93.6042 266.772 94.6983L262.81 95.2475ZM267.866 105.018C267.946 106.12 267.119 107.078 266.017 107.159C264.915 107.239 263.957 106.412 263.876 105.31L267.866 105.018ZM264.266 115.424C264.263 114.32 265.157 113.422 266.261 113.42C267.366 113.418 268.263 114.311 268.265 115.416L264.266 115.424ZM267.852 125.876C267.758 126.976 266.789 127.792 265.689 127.699C264.588 127.605 263.772 126.636 263.866 125.536L267.852 125.876ZM262.435 135.474C262.666 134.393 263.729 133.705 264.809 133.936C265.889 134.168 266.577 135.231 266.346 136.311L262.435 135.474ZM263.105 146.388C262.636 147.388 261.445 147.818 260.445 147.349C259.445 146.879 259.015 145.688 259.484 144.688L263.105 146.388ZM253.856 151.608C254.815 151.06 256.037 151.394 256.584 152.354C257.132 153.313 256.798 154.534 255.839 155.082L253.856 151.608ZM244.23 155.464C243.204 155.055 242.704 153.892 243.113 152.866C243.522 151.84 244.686 151.34 245.712 151.749L244.23 155.464ZM237.905 146.624C238.735 147.353 238.816 148.617 238.087 149.447C237.358 150.276 236.094 150.357 235.264 149.628L237.905 146.624ZM227.973 142.076C227.259 141.232 227.365 139.971 228.208 139.257C229.051 138.544 230.313 138.649 231.027 139.492L227.973 142.076ZM224.877 131.524C225.518 132.424 225.308 133.673 224.409 134.314C223.509 134.955 222.26 134.746 221.619 133.846L224.877 131.524ZM215.738 125.061C215.148 124.128 215.426 122.892 216.359 122.302C217.293 121.711 218.528 121.989 219.119 122.923L215.738 125.061ZM213.963 114.398C214.517 115.354 214.192 116.578 213.237 117.132C212.281 117.686 211.057 117.361 210.503 116.406L213.963 114.398ZM205.458 107.392C204.933 106.421 205.294 105.207 206.266 104.681C207.237 104.156 208.451 104.517 208.976 105.489L205.458 107.392ZM204.236 96.4638C204.739 97.4475 204.348 98.6522 203.365 99.1546C202.381 99.6569 201.176 99.2667 200.674 98.283L204.236 96.4638ZM195.96 89.2461C195.398 88.2948 195.714 87.0685 196.666 86.5071C197.617 85.9457 198.843 86.2618 199.405 87.213L195.96 89.2461ZM193.762 79.0231C194.45 79.8875 194.307 81.1457 193.443 81.8334C192.578 82.5211 191.32 82.3779 190.632 81.5135L193.762 79.0231ZM184.301 74.54C183.509 73.7704 183.49 72.5042 184.26 71.7118C185.029 70.9195 186.296 70.9011 187.088 71.6707L184.301 74.54ZM179.594 65.1903C180.468 65.8655 180.629 67.1215 179.954 67.9957C179.279 68.8699 178.023 69.0313 177.149 68.3561L179.594 65.1903ZM169.357 62.9396C168.421 62.353 168.137 61.1188 168.724 60.1828C169.311 59.2469 170.545 58.9637 171.481 59.5503L169.357 62.9396ZM162.916 54.6802C163.898 55.1868 164.283 56.3931 163.776 57.3747C163.27 58.3563 162.063 58.7414 161.082 58.2348L162.916 54.6802ZM152.448 54.1713C151.433 53.7357 150.963 52.5597 151.399 51.5447C151.834 50.5296 153.01 50.0598 154.025 50.4954L152.448 54.1713ZM144.899 46.9116C145.939 47.2848 146.479 48.4301 146.106 49.4697C145.733 50.5093 144.588 51.0496 143.548 50.6765L144.899 46.9116ZM134.449 47.6831C133.392 47.3648 132.792 46.2493 133.111 45.1916C133.429 44.1339 134.545 43.5345 135.602 43.8528L134.449 47.6831ZM126.179 41.2533C127.25 41.5234 127.899 42.6106 127.629 43.6816C127.359 44.7527 126.272 45.402 125.201 45.1319L126.179 41.2533ZM115.839 42.9718C114.758 42.7444 114.066 41.6838 114.294 40.6029C114.521 39.522 115.582 38.8301 116.663 39.0575L115.839 42.9718ZM107.077 37.2191C108.166 37.4085 108.894 38.4442 108.705 39.5324C108.515 40.6207 107.48 41.3493 106.391 41.1599L107.077 37.2191ZM96.8796 39.6594C95.7861 39.504 95.0255 38.4915 95.1809 37.3979C95.3363 36.3044 96.3489 35.5438 97.4425 35.6992L96.8796 39.6594ZM87.7731 34.4652C88.8705 34.59 89.6591 35.5808 89.5343 36.6783C89.4095 37.7758 88.4187 38.5644 87.3213 38.4396L87.7731 34.4652ZM77.7307 37.4741C76.6304 37.3771 75.817 36.4065 75.9141 35.3062C76.011 34.2059 76.9816 33.3926 78.0819 33.4895L77.7307 37.4741ZM68.3794 32.7486C69.4816 32.8202 70.3171 33.7718 70.2455 34.8741C70.174 35.9763 69.2223 36.8118 68.1201 36.7402L68.3794 32.7486ZM58.4894 36.2181C57.3859 36.1698 56.5305 35.2361 56.5787 34.1326C56.6271 33.0291 57.5608 32.1737 58.6643 32.222L58.4894 36.2181ZM48.9369 31.8927C50.0411 31.9194 50.9147 32.8362 50.8879 33.9405C50.8612 35.0447 49.9443 35.9182 48.8401 35.8915L48.9369 31.8927ZM39.1821 35.7467C38.0775 35.7401 37.1875 34.8393 37.1941 33.7348C37.2007 32.6302 38.1016 31.7402 39.2061 31.7468L39.1821 35.7467ZM29.4764 31.7723C30.5809 31.7601 31.4862 32.6455 31.4984 33.75C31.5106 34.8545 30.6251 35.7598 29.5206 35.772L29.4764 31.7723ZM19.86 35.9574C18.7557 35.9874 17.8363 35.1167 17.8064 34.0125C17.7764 32.9083 18.6471 31.9889 19.7512 31.9589L19.86 35.9574ZM10.0332 32.2982C11.1367 32.2513 12.0695 33.1078 12.1163 34.2114C12.1633 35.315 11.3068 36.2477 10.2032 36.2946L10.0332 32.2982ZM0.554688 36.7769C-0.547974 36.8402 -1.49329 35.9975 -1.55652 34.8947C-1.61975 33.792 -0.7771 32.8467 0.325684 32.7835L0.554688 36.7769ZM-9.36206 33.4092C-8.26038 33.3301 -7.3031 34.1591 -7.224 35.2609C-7.1449 36.3626 -7.974 37.3199 -9.07568 37.399L-9.36206 33.4092ZM-18.661 38.1556C-19.7616 38.2503 -20.7305 37.435 -20.8252 36.3345C-20.9199 35.234 -20.1046 34.265 -19.0042 34.1703L-18.661 38.1556ZM-28.754 35.0812C-27.655 34.9703 -26.6742 35.7714 -26.5634 36.8704C-26.4525 37.9694 -27.2535 38.9501 -28.3525 39.061L-28.754 35.0812ZM-37.897 40.0969C-38.9941 40.2247 -39.9872 39.4389 -40.115 38.3417C-40.2428 37.2446 -39.457 36.2515 -38.3599 36.1237L-37.897 40.0969ZM-48.0428 37.3402C-46.9484 37.1915 -45.9406 37.9582 -45.7917 39.0527C-45.6431 40.1472 -46.4098 41.155 -47.5043 41.3038L-48.0428 37.3402ZM1981.62 205.464C1980.03 205.159 1978.42 204.844 1976.8 204.519L1977.59 200.597C1979.2 200.92 1980.79 201.233 1982.38 201.536L1981.62 205.464ZM1966.97 202.451C1963.74 201.743 1960.47 200.999 1957.16 200.221L1958.08 196.328C1961.37 197.101 1964.62 197.84 1967.83 198.544L1966.97 202.451ZM1947.42 197.858C1944.2 197.054 1940.94 196.22 1937.66 195.358L1938.67 191.489C1941.94 192.347 1945.18 193.177 1948.39 193.977L1947.42 197.858ZM1928.01 192.771C1924.79 191.889 1921.54 190.981 1918.26 190.05L1919.35 186.202C1922.62 187.13 1925.86 188.034 1929.07 188.913L1928.01 192.771ZM1908.71 187.292C1905.5 186.351 1902.27 185.389 1899.02 184.408L1900.17 180.578C1903.42 181.557 1906.64 182.516 1909.83 183.454L1908.71 187.292ZM1889.49 181.496C1886.31 180.514 1883.12 179.515 1879.9 178.499L1881.11 174.685C1884.31 175.699 1887.5 176.696 1890.67 177.675L1889.49 181.496ZM1870.33 175.444C1867.18 174.429 1864.01 173.4 1860.83 172.358L1862.08 168.557C1865.25 169.597 1868.41 170.624 1871.55 171.636L1870.33 175.444ZM1851.24 169.19C1848.11 168.147 1844.96 167.092 1841.8 166.026L1843.08 162.236C1846.23 163.3 1849.38 164.353 1852.5 165.394L1851.24 169.19ZM1832.3 162.801C1829.14 161.724 1825.97 160.637 1822.79 159.54L1824.1 155.759C1827.27 156.855 1830.44 157.94 1833.59 159.016L1832.3 162.801ZM1813.36 156.271C1810.2 155.173 1807.04 154.066 1803.86 152.952L1805.19 149.177C1808.36 150.291 1811.52 151.397 1814.67 152.494L1813.36 156.271ZM1794.43 149.631C1791.3 148.522 1788.15 147.407 1785 146.286L1786.34 142.517C1789.49 143.637 1792.63 144.752 1795.77 145.859L1794.43 149.631ZM1775.52 142.908C1772.39 141.792 1769.26 140.67 1766.12 139.545L1767.47 135.78C1770.61 136.905 1773.74 138.026 1776.86 139.141L1775.52 142.908ZM1756.69 136.154C1753.55 135.024 1750.4 133.891 1747.25 132.754L1748.61 128.992C1751.76 130.128 1754.9 131.261 1758.04 132.391L1756.69 136.154ZM1737.85 129.359C1734.71 128.224 1731.56 127.087 1728.42 125.949L1729.78 122.188C1732.92 123.326 1736.07 124.462 1739.21 125.597L1737.85 129.359ZM1719 122.543C1715.86 121.41 1712.73 120.275 1709.59 119.14L1710.94 115.378C1714.09 116.513 1717.22 117.648 1720.36 118.782L1719 122.543ZM1700.16 115.735C1697.02 114.603 1693.88 113.471 1690.74 112.34L1692.09 108.577C1695.24 109.708 1698.38 110.84 1701.52 111.973L1700.16 115.735ZM1681.32 108.952C1678.18 107.824 1675.03 106.698 1671.89 105.574L1673.24 101.807C1676.38 102.932 1679.53 104.059 1682.67 105.187L1681.32 108.952ZM1662.46 102.206C1659.31 101.086 1656.17 99.9688 1653.03 98.8555L1654.36 95.0852C1657.51 96.1992 1660.65 97.3169 1663.8 98.4375L1662.46 102.206ZM1643.59 95.5216C1640.43 94.4108 1637.28 93.3043 1634.13 92.2028L1635.45 88.427C1638.6 89.5295 1641.76 90.6369 1644.92 91.7487L1643.59 95.5216ZM1624.69 88.914C1621.53 87.8175 1618.37 86.7266 1615.22 85.6422L1616.52 81.8597C1619.68 82.9454 1622.84 84.0374 1626 85.135L1624.69 88.914ZM1605.74 82.3976C1602.59 81.323 1599.44 80.2555 1596.29 79.1958L1597.57 75.4053C1600.72 76.4664 1603.87 77.5353 1607.03 78.6112L1605.74 82.3976ZM1586.77 76.0061C1583.6 74.9497 1580.43 73.902 1577.27 72.8638L1578.52 69.0638C1581.68 70.1037 1584.86 71.153 1588.03 72.2109L1586.77 76.0061ZM1567.79 69.7685C1564.59 68.7329 1561.4 67.7078 1558.22 66.694L1559.43 62.883C1562.62 63.8987 1565.82 64.9257 1569.02 65.9631L1567.79 69.7685ZM1548.71 63.6871C1545.51 62.6852 1542.32 61.6955 1539.14 60.7189L1540.31 56.8954C1543.5 57.8742 1546.7 58.866 1549.9 59.87L1548.71 63.6871ZM1529.55 57.8026C1526.36 56.8443 1523.19 55.9001 1520.03 54.9708L1521.16 51.1332C1524.33 52.0649 1527.51 53.0115 1530.7 53.9722L1529.55 57.8026ZM1510.35 52.1631C1507.14 51.2425 1503.94 50.3384 1500.75 49.4517L1501.82 45.5981C1505.02 46.4876 1508.23 47.3944 1511.45 48.3176L1510.35 52.1631ZM1491.11 46.8112C1487.86 45.9353 1484.63 45.0786 1481.41 44.2423L1482.42 40.371C1485.65 41.2105 1488.89 42.0701 1492.15 42.9491L1491.11 46.8112ZM1471.82 41.7949C1468.53 40.973 1465.26 40.1738 1462.01 39.3982L1462.94 35.5076C1466.21 36.2865 1469.49 37.0891 1472.79 37.9143L1471.82 41.7949ZM1452.33 37.1427C1449.04 36.3976 1445.78 35.6784 1442.54 34.9863L1443.38 31.0747C1446.63 31.7703 1449.91 32.4931 1453.21 33.2418L1452.33 37.1427ZM1432.76 32.9643C1429.47 32.3092 1426.21 31.6841 1422.98 31.0901L1423.71 27.156C1426.96 27.7538 1430.24 28.3827 1433.54 29.0415L1432.76 32.9643ZM1413.1 29.3563C1409.81 28.808 1406.55 28.2945 1403.33 27.8172L1403.91 23.8602C1407.16 24.3413 1410.45 24.8586 1413.76 25.4107L1413.1 29.3563ZM1393.35 26.4443C1390.05 26.0252 1386.79 25.6471 1383.56 25.3116L1383.98 21.3331C1387.23 21.6718 1390.53 22.0534 1393.86 22.4762L1393.35 26.4443ZM1373.53 24.3968C1370.2 24.1384 1366.93 23.9294 1363.7 23.7715L1363.89 19.7763C1367.16 19.9361 1370.48 20.1476 1373.84 20.4089L1373.53 24.3968ZM1353.65 23.4448C1350.3 23.3933 1347.01 23.4023 1343.78 23.4742L1343.69 19.4752C1346.97 19.4021 1350.31 19.393 1353.71 19.4453L1353.65 23.4448ZM1333.81 23.9091C1330.45 24.1317 1327.16 24.4305 1323.94 24.808L1323.48 20.8352C1326.76 20.4494 1330.12 20.1447 1333.55 19.9178L1333.81 23.9091ZM1314.22 26.2312C1310.88 26.8233 1307.63 27.5122 1304.48 28.301L1303.51 24.4207C1306.76 23.608 1310.1 22.9 1313.52 22.2926L1314.22 26.2312ZM1295.07 31.0555C1291.92 32.1226 1288.88 33.3076 1285.96 34.6142L1284.32 30.9627C1287.37 29.6019 1290.52 28.3716 1293.79 27.2665L1295.07 31.0555ZM1277.21 39.1002C1275.81 39.9199 1274.44 40.774 1273.11 41.6633L1270.89 38.3361C1272.29 37.4024 1273.72 36.5068 1275.19 35.6484L1277.21 39.1002ZM1273.11 41.6633C1271.68 42.6208 1270.24 43.5678 1268.81 44.5042L1266.62 41.1549C1268.04 40.2258 1269.47 39.2862 1270.89 38.3361L1273.11 41.6633ZM1260.21 49.9973C1257.34 51.7867 1254.48 53.5347 1251.62 55.242L1249.57 51.807C1252.41 50.1136 1255.25 48.3798 1258.09 46.6046L1260.21 49.9973ZM1242.83 60.3595C1239.86 62.0482 1236.89 63.6935 1233.93 65.2963L1232.02 61.7772C1234.97 60.1881 1237.91 58.5566 1240.85 56.8821L1242.83 60.3595ZM1225.03 69.9778C1221.98 71.5414 1218.94 73.0605 1215.89 74.5362L1214.15 70.9366C1217.16 69.474 1220.19 67.9682 1223.21 66.4183L1225.03 69.9778ZM1206.71 78.8584C1203.64 80.262 1200.57 81.6219 1197.5 82.9391L1195.92 79.2638C1198.96 77.9587 1202 76.6111 1205.05 75.2201L1206.71 78.8584ZM1188.06 86.8642C1184.91 88.1281 1181.77 89.3476 1178.64 90.5237L1177.23 86.7781C1180.34 85.613 1183.45 84.4049 1186.57 83.1528L1188.06 86.8642ZM1169.09 93.9728C1165.87 95.0925 1162.65 96.1673 1159.44 97.1983L1158.22 93.3896C1161.4 92.3685 1164.58 91.3039 1167.77 90.1947L1169.09 93.9728ZM1149.81 100.161C1146.53 101.128 1143.25 102.05 1139.98 102.928L1138.94 99.0647C1142.18 98.1951 1145.43 97.2818 1148.68 96.324L1149.81 100.161ZM1130.16 105.431C1126.86 106.231 1123.56 106.988 1120.27 107.701L1119.42 103.791C1122.69 103.085 1125.95 102.336 1129.22 101.544L1130.16 105.431ZM1110.31 109.731C1106.99 110.366 1103.67 110.959 1100.36 111.51L1099.71 107.564C1102.99 107.018 1106.27 106.432 1109.56 105.802L1110.31 109.731ZM1090.29 113.061C1086.94 113.536 1083.6 113.969 1080.26 114.362L1079.79 110.39C1083.1 110 1086.41 109.571 1089.73 109.101L1090.29 113.061ZM1070.15 115.431C1066.77 115.748 1063.4 116.025 1060.04 116.262L1059.76 112.272C1063.09 112.037 1066.43 111.763 1069.77 111.449L1070.15 115.431ZM1049.92 116.861C1046.53 117.023 1043.14 117.146 1039.77 117.232L1039.66 113.233C1043.01 113.148 1046.37 113.026 1049.73 112.865L1049.92 116.861ZM1029.65 117.378C1026.25 117.391 1022.86 117.366 1019.48 117.306L1019.55 113.306C1022.9 113.366 1026.26 113.391 1029.63 113.378L1029.65 117.378ZM1009.36 117.02C1005.97 116.89 1002.59 116.724 999.215 116.526L999.45 112.532C1002.8 112.73 1006.15 112.894 1009.51 113.023L1009.36 117.02ZM989.103 115.83C985.728 115.565 982.361 115.267 979.003 114.939L979.392 110.958C982.726 111.284 986.067 111.579 989.417 111.842L989.103 115.83ZM968.919 113.858C965.56 113.467 962.21 113.046 958.869 112.597L959.402 108.633C962.72 109.079 966.047 109.497 969.381 109.885L968.919 113.858ZM948.825 111.159C945.486 110.652 942.156 110.118 938.835 109.558L939.501 105.613C942.8 106.17 946.109 106.701 949.426 107.204L948.825 111.159ZM928.84 107.79C925.517 107.175 922.205 106.536 918.902 105.874L919.688 101.952C922.972 102.611 926.265 103.246 929.567 103.856L928.84 107.79ZM908.973 103.808C905.669 103.096 902.375 102.362 899.091 101.607L899.987 97.7091C903.254 98.4598 906.53 99.1899 909.816 99.8981L908.973 103.808ZM889.232 99.2737C885.947 98.4736 882.671 97.6541 879.407 96.8167L880.401 92.9422C883.65 93.7756 886.909 94.5911 890.179 95.3872L889.232 99.2737ZM869.619 94.2451C866.35 93.3664 863.094 92.4711 859.848 91.5608L860.928 87.7094C864.16 88.616 867.403 89.5074 870.657 90.3822L869.619 94.2451ZM850.13 88.7815C846.878 87.8338 843.637 86.8722 840.409 85.8986L841.564 82.069C844.781 83.0392 848.009 83.9971 851.249 84.9412L850.13 88.7815ZM830.759 82.942C827.521 81.9346 824.294 80.9164 821.081 79.889L822.299 76.079C825.503 77.1034 828.719 78.1184 831.947 79.1225L830.759 82.942ZM811.481 76.7808C808.258 75.7249 805.048 74.6613 801.852 73.5917L803.122 69.7985C806.31 70.8656 809.512 71.9265 812.726 72.9796L811.481 76.7808ZM792.291 70.3613C789.082 69.2672 785.887 68.1687 782.707 67.0676L784.015 63.2877C787.19 64.387 790.379 65.4834 793.582 66.5752L792.291 70.3613ZM773.176 63.7462C769.977 62.6246 766.793 61.5019 763.624 60.3802L764.959 56.6095C768.125 57.7301 771.305 58.8514 774.5 59.9715L773.176 63.7462ZM754.115 57.0014C750.921 55.8631 747.744 54.7277 744.583 53.597L745.93 49.8308C749.09 50.9611 752.266 52.096 755.458 53.2336L754.115 57.0014ZM735.085 50.1976C731.891 49.0546 728.715 47.9188 725.557 46.7919L726.901 43.0246C730.061 44.152 733.239 45.2884 736.433 46.4315L735.085 50.1976ZM716.06 43.4137C712.86 42.2794 709.678 41.1568 706.517 40.0482L707.84 36.2735C711.007 37.3839 714.193 38.508 717.396 39.6435L716.06 43.4137ZM697.013 36.74C693.798 35.6297 690.604 34.5366 687.431 33.4632L688.713 29.6742C691.895 30.7506 695.097 31.8464 698.319 32.9591L697.013 36.74ZM677.914 30.2833C674.675 29.2157 671.46 28.1718 668.268 27.1542L669.483 23.3432C672.688 24.3651 675.916 25.413 679.166 26.4844L677.914 30.2833ZM658.705 24.1649C655.442 23.1667 652.206 22.1999 648.997 21.2674L650.113 17.4262C653.342 18.3644 656.596 19.3367 659.875 20.34L658.705 24.1649ZM639.325 18.5421C636.052 17.65 632.808 16.798 629.593 15.9896L630.569 12.1104C633.811 12.9257 637.08 13.7843 640.377 14.6829L639.325 18.5421ZM619.787 13.6407C616.5 12.8949 613.247 12.2001 610.028 11.56L610.807 7.63681C614.065 8.28434 617.353 8.9867 620.672 9.73995L619.787 13.6407ZM600.092 9.74483C598.455 9.47328 596.826 9.21757 595.208 8.97823L595.792 5.02124C597.435 5.26411 599.087 5.52346 600.747 5.79872L600.092 9.74483ZM595.208 8.97823C593.535 8.73099 591.866 8.49411 590.2 8.26746L590.739 4.30396C592.42 4.5327 594.105 4.77174 595.792 5.02124L595.208 8.97823ZM580.24 7.0291C576.933 6.65648 573.638 6.32366 570.356 6.02955L570.713 2.04552C574.025 2.34232 577.35 2.6782 580.688 3.05424L580.24 7.0291ZM560.359 5.24965C557.013 5.02735 553.681 4.84479 550.363 4.70078L550.537 0.704538C553.885 0.849871 557.248 1.03411 560.624 1.25845L560.359 5.24965ZM540.452 4.38322C537.081 4.31345 533.725 4.28293 530.384 4.29041L530.375 0.29042C533.746 0.282872 537.133 0.313665 540.535 0.384079L540.452 4.38322ZM520.403 4.42571C517.066 4.50863 513.745 4.62889 510.44 4.78518L510.251 0.789648C513.586 0.631955 516.936 0.510616 520.303 0.426946L520.403 4.42571ZM500.419 5.37181C497.095 5.60365 493.788 5.87133 490.499 6.17349L490.133 2.19027C493.451 1.88545 496.787 1.6154 500.14 1.38151L500.419 5.37181ZM480.524 7.2003C477.198 7.57955 473.889 7.9934 470.599 8.44042L470.061 4.47685C473.379 4.026 476.716 3.60857 480.071 3.22604L480.524 7.2003ZM460.747 9.88594C457.424 10.4094 454.121 10.966 450.838 11.5542L450.133 7.61692C453.443 7.02384 456.774 6.46257 460.125 5.93466L460.747 9.88594ZM441.052 13.4119C437.76 14.0719 434.489 14.7629 431.24 15.4832L430.374 11.578C433.649 10.8519 436.946 10.1554 440.266 9.48995L441.052 13.4119ZM421.496 17.7457C418.25 18.5335 415.027 19.3497 411.827 20.1927L410.808 16.3246C414.032 15.4751 417.281 14.6525 420.553 13.8585L421.496 17.7457ZM402.139 22.8448C398.934 23.7553 395.754 24.6916 392.598 25.652L391.434 21.8254C394.613 20.8578 397.817 19.9144 401.046 18.997L402.139 22.8448ZM382.998 28.6714C379.817 29.7041 376.663 30.7602 373.535 31.8378L372.232 28.056C375.382 26.9708 378.559 25.9071 381.763 24.8668L382.998 28.6714ZM364.087 35.1864C360.932 36.3358 357.806 37.5058 354.709 38.6944L353.276 34.96C356.394 33.7634 359.541 32.5854 362.718 31.428L364.087 35.1864ZM345.417 42.3502C342.289 43.6107 339.193 44.8887 336.13 46.1819L334.574 42.4967C337.658 41.1953 340.774 39.909 343.922 38.6402L345.417 42.3502ZM326.993 50.1237C323.893 51.4897 320.829 52.8694 317.801 54.2604L316.131 50.6255C319.178 49.2261 322.261 47.8379 325.38 46.4634L326.993 50.1237ZM308.814 58.4688C305.744 59.934 302.713 61.4087 299.722 62.89L297.947 59.3055C300.955 57.8158 304.003 56.3326 307.091 54.8588L308.814 58.4688ZM290.869 67.3511C287.832 68.9076 284.839 70.4683 281.891 72.03L280.019 68.4953C282.982 66.9254 285.991 65.3564 289.045 63.7914L290.869 67.3511ZM273.163 76.7252C270.159 78.3658 267.205 80.0041 264.302 81.6362L262.342 78.1495C265.258 76.5097 268.227 74.8634 271.246 73.2146L273.163 76.7252ZM255.664 86.5595C252.702 88.2705 249.797 89.9705 246.953 91.655L244.915 88.2131C247.771 86.5216 250.688 84.8143 253.664 83.0956L255.664 86.5595ZM238.364 96.7991C235.456 98.5604 232.617 100.299 229.848 102.009L227.746 98.6062C230.524 96.8902 233.373 95.1456 236.292 93.3776L238.364 96.7991ZM221.264 107.359C218.366 109.179 215.556 110.958 212.836 112.688L210.689 109.313C213.414 107.58 216.231 105.797 219.136 103.972L221.264 107.359ZM204.412 118.067C201.439 119.97 198.59 121.797 195.871 123.533L193.719 120.162C196.434 118.428 199.279 116.603 202.256 114.698L204.412 118.067ZM187.344 128.937C184.264 130.867 181.39 132.635 178.733 134.213L176.69 130.775C179.311 129.218 182.155 127.468 185.221 125.547L187.344 128.937ZM169.911 139.139C165.927 141.164 162.502 142.537 159.823 142.845L159.366 138.871C161.277 138.651 164.152 137.579 168.098 135.573L169.911 139.139ZM153.312 133.859C153.745 131.207 154.74 127.884 156.26 123.859L160.002 125.272C158.52 129.198 157.63 132.235 157.26 134.503L153.312 133.859ZM160.157 114.492C161.429 111.638 162.876 108.526 164.501 105.145L168.106 106.877C166.494 110.232 165.063 113.309 163.81 116.12L160.157 114.492ZM168.801 96.3874C169.576 94.8363 170.381 93.2388 171.217 91.5941L174.783 93.4053C173.951 95.0433 173.15 96.6334 172.378 98.1765L168.801 96.3874ZM171.217 91.5941C172.06 89.9331 172.899 88.3126 173.733 86.7319L177.271 88.5986C176.447 90.1604 175.618 91.7624 174.783 93.4053L171.217 91.5941ZM178.682 77.7195C180.489 74.5616 182.274 71.5923 184.036 68.8047L187.417 70.9415C185.689 73.6763 183.934 76.5955 182.153 79.7066L178.682 77.7195ZM189.629 60.446C191.829 57.3543 193.992 54.548 196.118 52.0134L199.183 54.5839C197.132 57.0289 195.033 59.7503 192.888 62.765L189.629 60.446ZM203.28 44.349C206.093 41.6886 208.844 39.5043 211.535 37.7682L213.704 41.1295C211.251 42.7118 208.692 44.7363 206.029 47.2549L203.28 44.349ZM221.293 33.3185C225.159 32.3093 228.857 32.2696 232.354 33.0829L231.447 36.9788C228.61 36.319 225.57 36.336 222.303 37.1888L221.293 33.3185ZM242.251 38.0066C244.924 40.1157 247.374 42.7516 249.607 45.7779L246.389 48.1529C244.322 45.352 242.112 42.9921 239.773 41.1467L242.251 38.0066ZM255.116 54.8043C256.653 57.8186 258.057 61.0452 259.327 64.4225L255.582 65.8299C254.359 62.5744 253.014 59.4867 251.552 56.6219L255.116 54.8043ZM262.565 74.3495C263.493 77.6506 264.31 81.0364 265.015 84.462L261.097 85.2677C260.411 81.93 259.615 78.637 258.714 75.4325L262.565 74.3495ZM266.772 94.6983C267.251 98.1541 267.616 101.609 267.866 105.018L263.876 105.31C263.633 101.987 263.277 98.6186 262.81 95.2475L266.772 94.6983ZM268.265 115.416C268.273 119.028 268.137 122.535 267.852 125.876L263.866 125.536C264.14 122.322 264.273 118.932 264.266 115.424L268.265 115.416ZM266.346 136.311C265.542 140.07 264.47 143.481 263.105 146.388L259.484 144.688C260.687 142.127 261.675 139.022 262.435 135.474L266.346 136.311ZM255.839 155.082C252.458 157.012 248.521 157.176 244.23 155.464L245.712 151.749C249.066 153.086 251.702 152.837 253.856 151.608L255.839 155.082ZM235.264 149.628C232.947 147.591 230.517 145.083 227.973 142.076L231.027 139.492C233.472 142.383 235.764 144.742 237.905 146.624L235.264 149.628ZM221.619 133.846C219.721 131.183 217.761 128.259 215.738 125.061L219.119 122.923C221.106 126.065 223.025 128.928 224.877 131.524L221.619 133.846ZM210.503 116.406C208.86 113.574 207.178 110.572 205.458 107.392L208.976 105.489C210.679 108.636 212.341 111.604 213.963 114.398L210.503 116.406ZM200.674 98.283C199.86 96.69 199.039 95.0592 198.209 93.39L201.791 91.6095C202.614 93.2661 203.43 94.884 204.236 96.4638L200.674 98.283ZM198.209 93.39C197.506 91.9756 196.756 90.5946 195.96 89.2461L199.405 87.213C200.249 88.6434 201.045 90.1087 201.791 91.6095L198.209 93.39ZM190.632 81.5135C188.687 79.069 186.573 76.7463 184.301 74.54L187.088 71.6707C189.476 73.9902 191.706 76.4389 193.762 79.0231L190.632 81.5135ZM177.149 68.3561C174.68 66.4496 172.079 64.6456 169.357 62.9396L171.481 59.5503C174.306 61.321 177.015 63.199 179.594 65.1903L177.149 68.3561ZM161.082 58.2348C158.297 56.7976 155.415 55.4444 152.448 54.1713L154.025 50.4954C157.074 51.8034 160.041 53.1967 162.916 54.6802L161.082 58.2348ZM143.548 50.6765C140.579 49.6108 137.543 48.6142 134.449 47.6831L135.602 43.8528C138.758 44.8027 141.861 45.821 144.899 46.9116L143.548 50.6765ZM125.201 45.1319C122.122 44.3553 118.998 43.6364 115.839 42.9718L116.663 39.0575C119.87 39.7324 123.046 40.4631 126.179 41.2533L125.201 45.1319ZM106.391 41.1599C103.244 40.6119 100.07 40.1129 96.8796 39.6594L97.4425 35.6992C100.672 36.1582 103.887 36.6637 107.077 37.2191L106.391 41.1599ZM87.3213 38.4396C84.1307 38.077 80.9313 37.7562 77.7307 37.4741L78.0819 33.4895C81.3145 33.7744 84.5475 34.0986 87.7731 34.4652L87.3213 38.4396ZM68.1201 36.7402C64.9001 36.531 61.6873 36.3581 58.4894 36.2181L58.6643 32.222C61.889 32.3631 65.13 32.5375 68.3794 32.7486L68.1201 36.7402ZM48.8401 35.8915C45.5931 35.8129 42.3708 35.7659 39.1821 35.7467L39.2061 31.7468C42.4181 31.7661 45.6646 31.8135 48.9369 31.8927L48.8401 35.8915ZM29.5206 35.772C26.25 35.8082 23.0264 35.8714 19.86 35.9574L19.7512 31.9589C22.9382 31.8723 26.1833 31.8087 29.4764 31.7723L29.5206 35.772ZM10.2032 36.2946C6.90247 36.4351 3.68201 36.5976 0.554688 36.7769L0.325684 32.7835C3.4718 32.603 6.71204 32.4395 10.0332 32.2982L10.2032 36.2946ZM-9.07568 37.399C-12.4185 37.6389 -15.6201 37.8938 -18.661 38.1556L-19.0042 34.1703C-15.9452 33.907 -12.7246 33.6506 -9.36206 33.4092L-9.07568 37.399ZM-28.3525 39.061C-31.8723 39.416 -35.0692 39.7674 -37.897 40.0969L-38.3599 36.1237C-35.5127 35.7921 -32.2954 35.4384 -28.754 35.0812L-28.3525 39.061ZM-47.5043 41.3038C-49.0278 41.5109 -50.2023 41.6793 -50.9943 41.7957C-51.3903 41.8539 -51.6907 41.8991 -51.8912 41.9296C-51.9916 41.9448 -52.0669 41.9564 -52.1168 41.9641C-52.1417 41.968 -52.1603 41.9709 -52.1725 41.9728C-52.1785 41.9737 -52.183 41.9744 -52.1858 41.9749C-52.1873 41.9751 -52.1882 41.9753 -52.1888 41.9754C-52.1892 41.9754 -52.1895 41.9754 -52.1896 41.9755C-52.1896 41.9755 -52.1896 41.9755 -52.1896 41.9755V41.9755C-52.1896 41.9755 -52.1896 41.9755 -52.5 39.9997C-52.8104 38.0239 -52.8104 38.0239 -52.8104 38.0239C-52.8103 38.0239 -52.8103 38.0239 -52.8103 38.0239C-52.8102 38.0239 -52.8101 38.0239 -52.8099 38.0239C-52.8096 38.0238 -52.8092 38.0237 -52.8087 38.0237C-52.8076 38.0235 -52.8063 38.0233 -52.8044 38.023C-52.8008 38.0224 -52.7955 38.0216 -52.7887 38.0205C-52.7749 38.0184 -52.7548 38.0153 -52.7283 38.0112C-52.6752 38.0029 -52.5966 37.9909 -52.4929 37.9751C-52.2858 37.9436 -51.9788 37.8974 -51.5759 37.8382C-50.7703 37.7198 -49.5814 37.5493 -48.0428 37.3402L-47.5043 41.3038Z" fill="#CAEEFF"/>
</svg>
