
<svg width="46" height="45" viewBox="0 0 46 45" fill="none" xmlns="http://www.w3.org/2000/svg">
<g filter="url(#filter0_d_1074_1081)">
<g clip-path="url(#clip0_1074_1081)">
<path d="M2 9C2 4.58172 5.58172 1 10 1H36C40.4183 1 44 4.58172 44 9V34C44 38.4183 40.4183 42 36 42H2V9Z" fill="#00AAFF"/>
<g clip-path="url(#clip1_1074_1081)">
<path d="M18.2865 22.7344H14.2134V34.9426H18.2865V22.7344Z" fill="white"/>
<path d="M24.2972 17.9326H20.2241V34.9367H24.2972V17.9326Z" fill="white"/>
<path d="M32.036 11.8787L30.3079 10.1305L28.2597 8.05737L24.5298 11.8315L23.4883 12.8887H26.2347V34.9426H30.3079V12.8887H33.031L32.036 11.8787Z" fill="white"/>
<path d="M17.1286 13.1249C17.1281 13.1688 17.1372 13.2122 17.1553 13.2521C17.1734 13.2919 17.2001 13.3272 17.2333 13.3553C17.3236 13.4241 17.4264 13.4743 17.5359 13.5029V12.7056C17.4195 12.7257 17.312 12.7814 17.2275 12.865C17.1948 12.8995 17.1693 12.9403 17.1523 12.9849C17.1353 13.0295 17.1272 13.0771 17.1286 13.1249Z" fill="white"/>
<path d="M18.0884 14.4717V15.2454C18.2007 15.2291 18.3059 15.1798 18.391 15.1036C18.4543 15.0394 18.4898 14.9523 18.4899 14.8615C18.4912 14.8175 18.4825 14.7737 18.4643 14.7338C18.4461 14.6938 18.419 14.6586 18.3851 14.6311C18.298 14.5579 18.197 14.5037 18.0884 14.4717Z" fill="white"/>
<path d="M20.3462 16.9699L20.1542 16.3792L20.7709 16.5151L20.4858 15.9245L21.1143 15.9658L20.736 15.446L21.3645 15.3752L20.9164 14.9322L21.4983 14.7609L21.0037 14.4125L21.5856 14.1349L21.0037 13.8632L21.5216 13.497L20.9397 13.3257L21.3877 12.8827L20.7593 12.8178L21.1375 12.2921L20.5091 12.3394L20.7942 11.7487L20.1774 11.8905L20.3695 11.2999L19.7876 11.5479L19.8807 10.91L19.3395 11.2467V10.6029L18.8624 11.0282L18.746 10.3962L18.3445 10.8923L18.1234 10.3017L17.8092 10.8569L17.4543 10.2781L17.239 10.8687L16.8375 10.3726L16.7211 11.0045L16.244 10.5793V11.2231L15.7028 10.8864L15.7959 11.5243L15.214 11.2762L15.4002 11.8669L14.7718 11.7605L15.0569 12.3512L14.4227 12.2862L14.8009 12.8119L14.1899 12.8768L14.6496 13.3198L14.0387 13.4911L14.5623 13.8573L13.9805 14.129L14.5623 14.4065L14.0387 14.7668L14.6496 14.9381L14.1899 15.3811L14.8242 15.452L14.446 15.9717L15.0802 15.9304L14.7893 16.521L15.4061 16.3851L15.2199 16.9758L15.8017 16.7277L15.6912 17.3656L16.2265 17.0289V17.6727L16.7036 17.2475L16.8258 17.8794L17.2273 17.3833L17.4426 17.9739L17.7568 17.4187L18.071 17.9739L18.2922 17.3833L18.6937 17.8794L18.81 17.2475L19.2872 17.6727V17.0289L19.8283 17.3656L19.7352 16.7277L20.3462 16.9699ZM19.0544 15.5937C18.7811 15.8266 18.4439 15.9688 18.0885 16.0012V16.6273H17.5357V16.0367C17.27 16.0275 17.0071 15.9777 16.756 15.889C16.547 15.8219 16.3504 15.7201 16.1741 15.5878L16.4767 14.9027C16.6307 15.0091 16.7968 15.0963 16.9713 15.1625C17.1586 15.2335 17.3542 15.2792 17.5532 15.2984V14.3357C17.3268 14.2805 17.105 14.2075 16.8898 14.1171C16.7111 14.0434 16.5545 13.9232 16.436 13.7687C16.3077 13.6 16.2418 13.391 16.2498 13.178C16.2483 13.0277 16.2775 12.8788 16.3355 12.7405C16.3936 12.6022 16.4793 12.4777 16.5873 12.3748C16.8568 12.1356 17.196 11.9925 17.5532 11.9673V11.3353H18.106V11.9259C18.5035 11.9484 18.8903 12.0658 19.2348 12.2685L18.9613 12.9654C18.7006 12.8053 18.4088 12.7046 18.106 12.6701V13.6446C18.3308 13.6935 18.5508 13.7627 18.7635 13.8514C18.9402 13.9259 19.0961 14.0436 19.2173 14.1939C19.3452 14.3628 19.4111 14.5717 19.4035 14.7845C19.4048 14.9368 19.3743 15.0875 19.3141 15.227C19.254 15.3664 19.1655 15.4914 19.0544 15.5937Z" fill="white"/>
</g>
</g>
</g>
<defs>
<filter id="filter0_d_1074_1081" x="0" y="0" width="46" height="45" filterUnits="userSpaceOnUse" color-interpolation-filters="sRGB">
<feFlood flood-opacity="0" result="BackgroundImageFix"/>
<feColorMatrix in="SourceAlpha" type="matrix" values="0 0 0 0 0 0 0 0 0 0 0 0 0 0 0 0 0 0 127 0" result="hardAlpha"/>
<feOffset dy="1"/>
<feGaussianBlur stdDeviation="1"/>
<feComposite in2="hardAlpha" operator="out"/>
<feColorMatrix type="matrix" values="0 0 0 0 0 0 0 0 0 0 0 0 0 0 0 0 0 0 0.2 0"/>
<feBlend mode="normal" in2="BackgroundImageFix" result="effect1_dropShadow_1074_1081"/>
<feBlend mode="normal" in="SourceGraphic" in2="effect1_dropShadow_1074_1081" result="shape"/>
</filter>
<clipPath id="clip0_1074_1081">
<path d="M2 9C2 4.58172 5.58172 1 10 1H36C40.4183 1 44 4.58172 44 9V34C44 38.4183 40.4183 42 36 42H2V9Z" fill="white"/>
</clipPath>
<clipPath id="clip1_1074_1081">
<rect width="19" height="27" fill="white" transform="translate(14 8)"/>
</clipPath>
</defs>
</svg>
