<svg width="46" height="45" viewBox="0 0 46 45" fill="none" xmlns="http://www.w3.org/2000/svg">
  <g filter="url(#filter0_d_561_726)">
    <g clip-path="url(#clip0_561_726)">
      <path d="M2 9C2 4.58172 5.58172 1 10 1H36C40.4183 1 44 4.58172 44 9V34C44 38.4183 40.4183 42 36 42H2V9Z"
        fill="#00AAFF" />
      <path
        d="M33.4474 30.8947H31.7895V15.9737C31.7977 15.8528 31.7651 15.7327 31.697 15.6325C31.6289 15.5323 31.5291 15.4579 31.4137 15.4211L27.3684 13.73V30.8947H26.2632V11.5526C26.2632 11.4061 26.2049 11.2655 26.1013 11.1619C25.9977 11.0582 25.8571 11 25.7105 11H15.7632C15.6166 11 15.476 11.0582 15.3724 11.1619C15.2688 11.2655 15.2105 11.4061 15.2105 11.5526V30.8947H13.5526C13.4061 30.8947 13.2655 30.953 13.1619 31.0566C13.0582 31.1602 13 31.3008 13 31.4474C13 31.5939 13.0582 31.7345 13.1619 31.8381C13.2655 31.9418 13.4061 32 13.5526 32H33.4474C33.5939 32 33.7345 31.9418 33.8381 31.8381C33.9418 31.7345 34 31.5939 34 31.4474C34 31.3008 33.9418 31.1602 33.8381 31.0566C33.7345 30.953 33.5939 30.8947 33.4474 30.8947ZM29.0263 17.6316H30.1316C30.2781 17.6316 30.4187 17.6898 30.5224 17.7934C30.626 17.8971 30.6842 18.0376 30.6842 18.1842C30.6814 18.3299 30.6223 18.4688 30.5192 18.5718C30.4162 18.6749 30.2773 18.734 30.1316 18.7368H29.0263C28.8806 18.734 28.7417 18.6749 28.6387 18.5718C28.5356 18.4688 28.4765 18.3299 28.4737 18.1842C28.4737 18.0376 28.5319 17.8971 28.6355 17.7934C28.7392 17.6898 28.8797 17.6316 29.0263 17.6316ZM29.0263 20.9474H30.1316C30.2781 20.9474 30.4187 21.0056 30.5224 21.1092C30.626 21.2129 30.6842 21.3534 30.6842 21.5C30.6842 21.6466 30.626 21.7871 30.5224 21.8908C30.4187 21.9944 30.2781 22.0526 30.1316 22.0526H29.0263C28.8797 22.0526 28.7392 21.9944 28.6355 21.8908C28.5319 21.7871 28.4737 21.6466 28.4737 21.5C28.4737 21.3534 28.5319 21.2129 28.6355 21.1092C28.7392 21.0056 28.8797 20.9474 29.0263 20.9474ZM29.0263 24.2632H30.1316C30.2773 24.266 30.4162 24.3251 30.5192 24.4282C30.6223 24.5312 30.6814 24.6701 30.6842 24.8158C30.6842 24.9624 30.626 25.1029 30.5224 25.2066C30.4187 25.3102 30.2781 25.3684 30.1316 25.3684H29.0263C28.8797 25.3684 28.7392 25.3102 28.6355 25.2066C28.5319 25.1029 28.4737 24.9624 28.4737 24.8158C28.4765 24.6701 28.5356 24.5312 28.6387 24.4282C28.7417 24.3251 28.8806 24.266 29.0263 24.2632ZM29.0263 27.5789H30.1316C30.2781 27.5789 30.4187 27.6372 30.5224 27.7408C30.626 27.8444 30.6842 27.985 30.6842 28.1316C30.6842 28.2781 30.626 28.4187 30.5224 28.5224C30.4187 28.626 30.2781 28.6842 30.1316 28.6842H29.0263C28.8797 28.6842 28.7392 28.626 28.6355 28.5224C28.5319 28.4187 28.4737 28.2781 28.4737 28.1316C28.4737 27.985 28.5319 27.8444 28.6355 27.7408C28.7392 27.6372 28.8797 27.5789 29.0263 27.5789ZM21.8421 14.3158H22.9474C23.0939 14.3158 23.2345 14.374 23.3381 14.4777C23.4418 14.5813 23.5 14.7219 23.5 14.8684C23.5 15.015 23.4418 15.1556 23.3381 15.2592C23.2345 15.3628 23.0939 15.4211 22.9474 15.4211H21.8421C21.6955 15.4211 21.555 15.3628 21.4513 15.2592C21.3477 15.1556 21.2895 15.015 21.2895 14.8684C21.2895 14.7219 21.3477 14.5813 21.4513 14.4777C21.555 14.374 21.6955 14.3158 21.8421 14.3158ZM21.8421 17.6316H22.9474C23.0939 17.6316 23.2345 17.6898 23.3381 17.7934C23.4418 17.8971 23.5 18.0376 23.5 18.1842C23.5 18.3308 23.4418 18.4713 23.3381 18.575C23.2345 18.6786 23.0939 18.7368 22.9474 18.7368H21.8421C21.6955 18.7368 21.555 18.6786 21.4513 18.575C21.3477 18.4713 21.2895 18.3308 21.2895 18.1842C21.2895 18.0376 21.3477 17.8971 21.4513 17.7934C21.555 17.6898 21.6955 17.6316 21.8421 17.6316ZM21.8421 20.9474H22.9474C23.0939 20.9474 23.2345 21.0056 23.3381 21.1092C23.4418 21.2129 23.5 21.3534 23.5 21.5C23.5 21.6466 23.4418 21.7871 23.3381 21.8908C23.2345 21.9944 23.0939 22.0526 22.9474 22.0526H21.8421C21.6955 22.0526 21.555 21.9944 21.4513 21.8908C21.3477 21.7871 21.2895 21.6466 21.2895 21.5C21.2895 21.3534 21.3477 21.2129 21.4513 21.1092C21.555 21.0056 21.6955 20.9474 21.8421 20.9474ZM21.8421 24.2632H22.9474C23.0939 24.2632 23.2345 24.3214 23.3381 24.425C23.4418 24.5287 23.5 24.6692 23.5 24.8158C23.5 24.9624 23.4418 25.1029 23.3381 25.2066C23.2345 25.3102 23.0939 25.3684 22.9474 25.3684H21.8421C21.6955 25.3684 21.555 25.3102 21.4513 25.2066C21.3477 25.1029 21.2895 24.9624 21.2895 24.8158C21.2895 24.6692 21.3477 24.5287 21.4513 24.425C21.555 24.3214 21.6955 24.2632 21.8421 24.2632ZM18.46 14.3158H19.6316C19.7781 14.3158 19.9187 14.374 20.0223 14.4777C20.126 14.5813 20.1842 14.7219 20.1842 14.8684C20.1842 15.015 20.126 15.1556 20.0223 15.2592C19.9187 15.3628 19.7781 15.4211 19.6316 15.4211H18.5263C18.3797 15.4211 18.2392 15.3628 18.1355 15.2592C18.0319 15.1556 17.9737 15.015 17.9737 14.8684C17.9737 14.7219 18.0319 14.5813 18.1355 14.4777C18.2392 14.374 18.3797 14.3158 18.5263 14.3158H18.46ZM18.46 17.6316H19.6316C19.7781 17.6316 19.9187 17.6898 20.0223 17.7934C20.126 17.8971 20.1842 18.0376 20.1842 18.1842C20.1842 18.3308 20.126 18.4713 20.0223 18.575C19.9187 18.6786 19.7781 18.7368 19.6316 18.7368H18.5263C18.3797 18.7368 18.2392 18.6786 18.1355 18.575C18.0319 18.4713 17.9737 18.3308 17.9737 18.1842C17.9737 18.0376 18.0319 17.8971 18.1355 17.7934C18.2392 17.6898 18.3797 17.6316 18.5263 17.6316H18.46ZM18.46 20.9474H19.6316C19.7781 20.9474 19.9187 21.0056 20.0223 21.1092C20.126 21.2129 20.1842 21.3534 20.1842 21.5C20.1842 21.6466 20.126 21.7871 20.0223 21.8908C19.9187 21.9944 19.7781 22.0526 19.6316 22.0526H18.5263C18.3797 22.0526 18.2392 21.9944 18.1355 21.8908C18.0319 21.7871 17.9737 21.6466 17.9737 21.5C17.9737 21.3534 18.0319 21.2129 18.1355 21.1092C18.2392 21.0056 18.3797 20.9474 18.5263 20.9474H18.46ZM18.46 24.2632H19.6316C19.7781 24.2632 19.9187 24.3214 20.0223 24.425C20.126 24.5287 20.1842 24.6692 20.1842 24.8158C20.1842 24.9624 20.126 25.1029 20.0223 25.2066C19.9187 25.3102 19.7781 25.3684 19.6316 25.3684H18.5263C18.3797 25.3684 18.2392 25.3102 18.1355 25.2066C18.0319 25.1029 17.9737 24.9624 17.9737 24.8158C17.9737 24.6692 18.0319 24.5287 18.1355 24.425C18.2392 24.3214 18.3797 24.2632 18.5263 24.2632H18.46ZM21.2895 30.8947V28.6842H20.1842V30.8947H19.0789V28.0984C19.0874 27.9577 19.1493 27.8255 19.2521 27.7289C19.3548 27.6323 19.4906 27.5787 19.6316 27.5789H21.8421C21.9887 27.5789 22.1292 27.6372 22.2329 27.7408C22.3365 27.8444 22.3947 27.985 22.3947 28.1316V30.8947H21.2895Z"
        fill="white" />
    </g>
  </g>
  <defs>
    <filter id="filter0_d_561_726" x="0" y="0" width="46" height="45" filterUnits="userSpaceOnUse"
      color-interpolation-filters="sRGB">
      <feFlood flood-opacity="0" result="BackgroundImageFix" />
      <feColorMatrix in="SourceAlpha" type="matrix" values="0 0 0 0 0 0 0 0 0 0 0 0 0 0 0 0 0 0 127 0"
        result="hardAlpha" />
      <feOffset dy="1" />
      <feGaussianBlur stdDeviation="1" />
      <feComposite in2="hardAlpha" operator="out" />
      <feColorMatrix type="matrix" values="0 0 0 0 0 0 0 0 0 0 0 0 0 0 0 0 0 0 0.2 0" />
      <feBlend mode="normal" in2="BackgroundImageFix" result="effect1_dropShadow_561_726" />
      <feBlend mode="normal" in="SourceGraphic" in2="effect1_dropShadow_561_726" result="shape" />
    </filter>
    <clipPath id="clip0_561_726">
      <path d="M2 9C2 4.58172 5.58172 1 10 1H36C40.4183 1 44 4.58172 44 9V34C44 38.4183 40.4183 42 36 42H2V9Z"
        fill="white" />
    </clipPath>
  </defs>
</svg>