
<svg width="46" height="45" viewBox="0 0 46 45" fill="none" xmlns="http://www.w3.org/2000/svg">
<g filter="url(#filter0_d_1074_1016)">
<g clip-path="url(#clip0_1074_1016)">
<path d="M2 9C2 4.58172 5.58172 1 10 1H36C40.4183 1 44 4.58172 44 9V34C44 38.4183 40.4183 42 36 42H2V9Z" fill="#00AAFF"/>
<path d="M31.6129 30.4526C33.7013 28.5587 35.0614 25.9938 35.4573 23.2024C35.8533 20.411 35.26 17.569 33.7805 15.169C32.301 12.7691 30.0285 10.9624 27.3568 10.062C24.685 9.1617 21.7825 9.22448 19.1522 10.2395C16.5219 11.2546 14.3297 13.1579 12.9554 15.6196C11.581 18.0813 11.1113 20.9462 11.6276 23.7179C12.1438 26.4895 13.6135 28.9933 15.7819 30.7951C17.9504 32.5969 20.6809 33.5833 23.5002 33.5833C23.8776 33.5833 24.2523 33.566 24.6246 33.5316C27.2264 33.2952 29.6795 32.2149 31.6105 30.455L31.6129 30.4526ZM23.5002 11.8333C26.0631 11.8362 28.5201 12.8556 30.3324 14.6679C32.1445 16.4801 33.164 18.9371 33.1669 21.5C33.1742 23.7281 32.4002 25.8884 30.9798 27.6051C30.529 27.0125 30.0088 26.4762 29.4301 26.0077C27.7486 24.657 25.6571 23.9195 23.5002 23.9166C22.0542 23.9164 20.6278 24.2503 19.3321 24.8922C18.0364 25.5341 16.9065 26.4667 16.0306 27.6172C14.6039 25.8987 13.8262 23.7336 13.8336 21.5C13.8365 18.9371 14.8559 16.4801 16.6681 14.6679C18.4803 12.8556 20.9374 11.8362 23.5002 11.8333Z" fill="white"/>
<path d="M23.4998 22.7084C26.1692 22.7084 28.3332 20.5444 28.3332 17.8751C28.3332 15.2057 26.1692 13.0417 23.4998 13.0417C20.8305 13.0417 18.6665 15.2057 18.6665 17.8751C18.6665 20.5444 20.8305 22.7084 23.4998 22.7084Z" fill="white"/>
</g>
</g>
<defs>
<filter id="filter0_d_1074_1016" x="0" y="0" width="46" height="45" filterUnits="userSpaceOnUse" color-interpolation-filters="sRGB">
<feFlood flood-opacity="0" result="BackgroundImageFix"/>
<feColorMatrix in="SourceAlpha" type="matrix" values="0 0 0 0 0 0 0 0 0 0 0 0 0 0 0 0 0 0 127 0" result="hardAlpha"/>
<feOffset dy="1"/>
<feGaussianBlur stdDeviation="1"/>
<feComposite in2="hardAlpha" operator="out"/>
<feColorMatrix type="matrix" values="0 0 0 0 0 0 0 0 0 0 0 0 0 0 0 0 0 0 0.2 0"/>
<feBlend mode="normal" in2="BackgroundImageFix" result="effect1_dropShadow_1074_1016"/>
<feBlend mode="normal" in="SourceGraphic" in2="effect1_dropShadow_1074_1016" result="shape"/>
</filter>
<clipPath id="clip0_1074_1016">
<path d="M2 9C2 4.58172 5.58172 1 10 1H36C40.4183 1 44 4.58172 44 9V34C44 38.4183 40.4183 42 36 42H2V9Z" fill="white"/>
</clipPath>
</defs>
</svg>
