<svg width="46" height="45" viewBox="0 0 46 45" fill="none" xmlns="http://www.w3.org/2000/svg">
  <g filter="url(#filter0_d_616_110)">
    <g clip-path="url(#clip0_616_110)">
      <path d="M2 9C2 4.58172 5.58172 1 10 1H36C40.4183 1 44 4.58172 44 9V34C44 38.4183 40.4183 42 36 42H2V9Z"
        fill="#00AAFF" />
      <path fill-rule="evenodd" clip-rule="evenodd"
        d="M22.9197 31.8986C21.7182 31.8986 20.8068 31.6086 19.3154 31.1529H19.2325C19.564 30.6557 19.6882 30.0343 19.5225 29.4129L17.6168 22.2457C17.4925 21.79 17.244 21.3757 16.8711 21.1271C17.2854 20.8786 17.6582 20.7129 17.9897 20.5886C19.1082 20.1329 19.6882 19.8843 19.5225 18.31C19.5225 18.1857 19.4811 18.02 19.4811 17.8543C19.3154 16.7357 19.1497 15.4929 20.0197 14.3743C20.434 13.8771 21.1382 13.6286 21.8011 13.7529C22.4225 13.8771 22.8368 14.2914 23.0025 14.8714C23.4168 16.28 23.7897 17.73 24.1625 19.1386L24.204 19.3871L31.9097 17.3157C32.8211 17.0671 33.7739 17.6057 34.0225 18.5586C34.1468 19.0143 34.1054 19.47 33.8568 19.8843C33.6497 20.2986 33.2354 20.5886 32.8211 20.7129L30.0868 21.4171C30.4597 21.6657 30.6668 21.9971 30.7911 22.4114C31.0397 23.2814 30.5425 24.1929 29.714 24.4829C30.0454 24.7314 30.294 25.0629 30.4182 25.4771C30.5425 25.9329 30.4597 26.3886 30.2111 26.8029C30.004 27.2172 29.6311 27.5071 29.1754 27.6314L28.7197 27.7557C29.0511 27.9629 29.2997 28.3357 29.424 28.7086C29.6725 29.6614 29.0925 30.6143 28.1811 30.8629L27.0625 31.1529C25.1568 31.6914 23.914 31.8986 22.9197 31.8986Z"
        fill="white" />
      <path fill-rule="evenodd" clip-rule="evenodd"
        d="M16.3327 31.7742C15.6284 31.7742 15.0484 31.3184 14.8827 30.6556L12.9355 23.4884C12.8527 23.1156 12.8941 22.7013 13.1012 22.3284C13.3084 21.997 13.6398 21.7484 14.0127 21.6656L15.2141 21.3342C15.3384 21.2927 15.4627 21.2927 15.5869 21.2927C16.2912 21.2927 16.8712 21.7484 17.0784 22.3699L18.9841 29.537C19.1912 30.3656 18.7355 31.1942 17.9069 31.4013L16.7055 31.7327C16.5812 31.7742 16.4569 31.7742 16.3327 31.7742Z"
        fill="white" />
      <path fill-rule="evenodd" clip-rule="evenodd"
        d="M27.3114 15.4927C27.1043 15.4927 26.98 15.3685 26.98 15.2027V11.4327C26.98 11.2256 27.1043 11.1013 27.3114 11.1013C27.4771 11.1013 27.6014 11.2256 27.6014 11.4327V15.2027C27.6014 15.3685 27.4771 15.4927 27.3114 15.4927Z"
        fill="white" />
      <path fill-rule="evenodd" clip-rule="evenodd"
        d="M29.217 15.4927C29.1756 15.4927 29.1342 15.4927 29.0928 15.4927C28.927 15.4098 28.8442 15.2441 28.927 15.0784L30.4185 11.4741C30.5013 11.3084 30.667 11.2255 30.8328 11.3084C30.9985 11.3912 31.0813 11.557 30.9985 11.7227L29.507 15.327C29.4656 15.4098 29.3413 15.4927 29.217 15.4927Z"
        fill="white" />
      <path fill-rule="evenodd" clip-rule="evenodd"
        d="M25.3642 15.4927C25.24 15.4927 25.1571 15.4098 25.0742 15.327L23.5828 11.7227C23.5414 11.557 23.5828 11.3912 23.7485 11.3084C23.9142 11.2255 24.08 11.3084 24.1628 11.4741L25.6542 15.0784C25.7371 15.2441 25.6542 15.4098 25.4885 15.4927C25.4471 15.4927 25.4057 15.4927 25.3642 15.4927Z"
        fill="white" />
    </g>
  </g>
  <defs>
    <filter id="filter0_d_616_110" x="0" y="0" width="46" height="45" filterUnits="userSpaceOnUse"
      color-interpolation-filters="sRGB">
      <feFlood flood-opacity="0" result="BackgroundImageFix" />
      <feColorMatrix in="SourceAlpha" type="matrix" values="0 0 0 0 0 0 0 0 0 0 0 0 0 0 0 0 0 0 127 0"
        result="hardAlpha" />
      <feOffset dy="1" />
      <feGaussianBlur stdDeviation="1" />
      <feComposite in2="hardAlpha" operator="out" />
      <feColorMatrix type="matrix" values="0 0 0 0 0 0 0 0 0 0 0 0 0 0 0 0 0 0 0.2 0" />
      <feBlend mode="normal" in2="BackgroundImageFix" result="effect1_dropShadow_616_110" />
      <feBlend mode="normal" in="SourceGraphic" in2="effect1_dropShadow_616_110" result="shape" />
    </filter>
    <clipPath id="clip0_616_110">
      <path d="M2 9C2 4.58172 5.58172 1 10 1H36C40.4183 1 44 4.58172 44 9V34C44 38.4183 40.4183 42 36 42H2V9Z"
        fill="white" />
    </clipPath>
  </defs>
</svg>