<svg width="46" height="45" viewBox="0 0 46 45" fill="none" xmlns="http://www.w3.org/2000/svg">
  <g filter="url(#filter0_d_616_111)">
    <g clip-path="url(#clip0_616_111)">
      <path d="M2 9C2 4.58172 5.58172 1 10 1H36C40.4183 1 44 4.58172 44 9V34C44 38.4183 40.4183 42 36 42H2V9Z"
        fill="#00AAFF" />
      <path
        d="M29.36 12.64C31 12.64 32.36 14 32.36 15.64C32.36 17.29 31 18.64 29.36 18.64C27.71 18.64 26.36 17.29 26.36 15.64C26.36 15.34 26.41 15.06 26.5 14.8C25.43 14.29 24.25 14 23 14C20.8783 14 18.8434 14.8429 17.3431 16.3431C15.8429 17.8434 15 19.8783 15 22L15.04 22.84L13.05 23.05L13 22C13 19.3478 14.0536 16.8043 15.9289 14.9289C17.8043 13.0536 20.3478 12 23 12C24.69 12 26.28 12.42 27.67 13.16C28.16 12.83 28.74 12.64 29.36 12.64ZM29.36 14.64C29.0948 14.64 28.8404 14.7454 28.6529 14.9329C28.4654 15.1204 28.36 15.3748 28.36 15.64C28.36 15.9052 28.4654 16.1596 28.6529 16.3471C28.8404 16.5346 29.0948 16.64 29.36 16.64C29.92 16.64 30.36 16.19 30.36 15.64C30.36 15.08 29.92 14.64 29.36 14.64ZM16.64 25.36C18.29 25.36 19.64 26.71 19.64 28.36C19.64 28.66 19.59 28.94 19.5 29.2C20.57 29.71 21.75 30 23 30C25.1217 30 27.1566 29.1571 28.6569 27.6569C30.1571 26.1566 31 24.1217 31 22L30.96 21.16L32.95 20.95L33 22C33 24.6522 31.9464 27.1957 30.0711 29.0711C28.1957 30.9464 25.6522 32 23 32C21.31 32 19.72 31.58 18.33 30.84C17.84 31.17 17.26 31.36 16.64 31.36C15 31.36 13.64 30 13.64 28.36C13.64 26.71 15 25.36 16.64 25.36ZM16.64 27.36C16.08 27.36 15.64 27.81 15.64 28.36C15.64 28.92 16.08 29.36 16.64 29.36C16.9052 29.36 17.1596 29.2546 17.3471 29.0671C17.5346 28.8796 17.64 28.6252 17.64 28.36C17.64 28.0948 17.5346 27.8404 17.3471 27.6529C17.1596 27.4654 16.9052 27.36 16.64 27.36ZM23 18C24.0609 18 25.0783 18.4214 25.8284 19.1716C26.5786 19.9217 27 20.9391 27 22C27 23.0609 26.5786 24.0783 25.8284 24.8284C25.0783 25.5786 24.0609 26 23 26C21.9391 26 20.9217 25.5786 20.1716 24.8284C19.4214 24.0783 19 23.0609 19 22C19 20.9391 19.4214 19.9217 20.1716 19.1716C20.9217 18.4214 21.9391 18 23 18Z"
        fill="white" />
    </g>
  </g>
  <defs>
    <filter id="filter0_d_616_111" x="0" y="0" width="46" height="45" filterUnits="userSpaceOnUse"
      color-interpolation-filters="sRGB">
      <feFlood flood-opacity="0" result="BackgroundImageFix" />
      <feColorMatrix in="SourceAlpha" type="matrix" values="0 0 0 0 0 0 0 0 0 0 0 0 0 0 0 0 0 0 127 0"
        result="hardAlpha" />
      <feOffset dy="1" />
      <feGaussianBlur stdDeviation="1" />
      <feComposite in2="hardAlpha" operator="out" />
      <feColorMatrix type="matrix" values="0 0 0 0 0 0 0 0 0 0 0 0 0 0 0 0 0 0 0.2 0" />
      <feBlend mode="normal" in2="BackgroundImageFix" result="effect1_dropShadow_616_111" />
      <feBlend mode="normal" in="SourceGraphic" in2="effect1_dropShadow_616_111" result="shape" />
    </filter>
    <clipPath id="clip0_616_111">
      <path d="M2 9C2 4.58172 5.58172 1 10 1H36C40.4183 1 44 4.58172 44 9V34C44 38.4183 40.4183 42 36 42H2V9Z"
        fill="white" />
    </clipPath>
  </defs>
</svg>