
<svg width="46" height="45" viewBox="0 0 46 45" fill="none" xmlns="http://www.w3.org/2000/svg">
<g filter="url(#filter0_d_1074_1048)">
<g clip-path="url(#clip0_1074_1048)">
<path d="M2 9C2 4.58172 5.58172 1 10 1H36C40.4183 1 44 4.58172 44 9V34C44 38.4183 40.4183 42 36 42H2V9Z" fill="#00AAFF"/>
<path d="M13.375 27.4063V31.6251H17.5938L30.0362 19.1826L25.8175 14.9638L13.375 27.4063ZM33.2987 15.9201C33.403 15.816 33.4858 15.6924 33.5422 15.5563C33.5987 15.4202 33.6277 15.2743 33.6277 15.1269C33.6277 14.9796 33.5987 14.8337 33.5422 14.6976C33.4858 14.5615 33.403 14.4379 33.2987 14.3338L30.6663 11.7013C30.5622 11.597 30.4385 11.5143 30.3025 11.4578C30.1664 11.4014 30.0205 11.3723 29.8731 11.3723C29.7258 11.3723 29.5799 11.4014 29.4438 11.4578C29.3077 11.5143 29.1841 11.597 29.08 11.7013L27.0212 13.7601L31.24 17.9788L33.2987 15.9201Z" fill="white"/>
</g>
</g>
<defs>
<filter id="filter0_d_1074_1048" x="0" y="0" width="46" height="45" filterUnits="userSpaceOnUse" color-interpolation-filters="sRGB">
<feFlood flood-opacity="0" result="BackgroundImageFix"/>
<feColorMatrix in="SourceAlpha" type="matrix" values="0 0 0 0 0 0 0 0 0 0 0 0 0 0 0 0 0 0 127 0" result="hardAlpha"/>
<feOffset dy="1"/>
<feGaussianBlur stdDeviation="1"/>
<feComposite in2="hardAlpha" operator="out"/>
<feColorMatrix type="matrix" values="0 0 0 0 0 0 0 0 0 0 0 0 0 0 0 0 0 0 0.2 0"/>
<feBlend mode="normal" in2="BackgroundImageFix" result="effect1_dropShadow_1074_1048"/>
<feBlend mode="normal" in="SourceGraphic" in2="effect1_dropShadow_1074_1048" result="shape"/>
</filter>
<clipPath id="clip0_1074_1048">
<path d="M2 9C2 4.58172 5.58172 1 10 1H36C40.4183 1 44 4.58172 44 9V34C44 38.4183 40.4183 42 36 42H2V9Z" fill="white"/>
</clipPath>
</defs>
</svg>
