<svg width="1920" height="382" viewBox="0 0 1920 382" fill="none" xmlns="http://www.w3.org/2000/svg">
<g opacity="0.7">
<path d="M2000.85 478.172C2044.45 196.391 1959.68 -112.012 1768.5 -326.239C1659.88 -447.909 1499.91 -550.778 1337.6 -561.365C1177.77 -571.721 1054.59 -504.211 940.381 -396.188C814.722 -277.308 702.468 -167.82 526.225 -139.194C329.187 -107.244 147.319 -145.593 -14.5618 3.81099C-131.667 112.156 -195.162 278.924 -181.567 442.698C-173.086 544.557 -133.236 648.174 -55.9313 713.866C15.3088 774.459 109.595 796.744 200.741 805.741C331.48 818.816 492.188 803.725 605.459 889.032C793.747 1030.88 906.761 1244.48 1296.46 1225.28C1598.02 1210.31 1829.64 1016.64 1932.1 738.885C1963.59 654.471 1986.62 567.138 2000.85 478.172Z" fill="#263238"/>
<g opacity="0.7">
<path d="M1910.88 167.527C1846.97 -401.605 1017.55 -402.216 892.028 -399.086C766.579 -402.216 -62.9145 -401.605 -126.821 167.527C-126.821 167.527 -137.956 318.721 -91.2074 568.599C-45.9845 810.539 85.6424 985.392 206.211 1055.61C326.78 1125.82 503.63 1214.13 571.121 1130.33L638.46 1037.44C638.46 1037.44 667.973 976.386 779.848 981.271H1003.75C1115.7 976.768 1145.14 1037.44 1145.14 1037.44L1212.4 1130.33C1279.51 1214.28 1456.44 1125.75 1577.31 1055.61C1698.19 985.469 1829.81 810.539 1874.73 568.599C1922.01 318.721 1910.88 167.527 1910.88 167.527Z" fill="#263238"/>
<path opacity="0.2" d="M1496.72 -20.89C1496.72 -20.89 1292.69 -242.115 976.78 -266.092C788.262 -280.374 680.835 -213.904 553.808 -99.575C426.78 14.754 41.4705 390.924 -11.8141 589.459C-65.0987 787.994 327.682 750.058 455.602 732.096C583.522 714.134 744.307 625.065 897.54 508.465C1087.41 364.171 1496.72 -20.89 1496.72 -20.89Z" fill="white"/>
</g>
<path d="M43.6085 150.917C39.5438 149.282 35.0857 148.889 30.7977 149.788C26.5097 150.686 22.5844 152.836 19.5179 155.965C16.4515 159.094 14.3817 163.062 13.5702 167.367C12.7587 171.673 13.2419 176.122 14.9587 180.153C16.6755 184.183 19.5488 187.615 23.2155 190.013C26.8821 192.41 31.1773 193.667 35.5582 193.625C39.9392 193.582 44.209 192.241 47.8279 189.772C51.4469 187.302 54.2525 183.815 55.89 179.752C56.9779 177.052 57.5232 174.165 57.4947 171.254C57.4662 168.344 56.8645 165.467 55.7239 162.79C54.5834 160.112 52.9263 157.685 50.8475 155.648C48.7687 153.611 46.3088 152.003 43.6085 150.917Z" fill="white"/>
<path d="M923.082 273.584C907.833 247.967 872.94 262.804 880.822 291.535C896.173 316.916 931.045 302.126 923.082 273.584Z" fill="white"/>
<path d="M236.202 57.4545C241.804 59.8783 248.31 57.3022 250.733 51.7006C253.157 46.099 250.581 39.5931 244.98 37.1692C239.378 34.7454 232.872 37.3215 230.448 42.9231C228.024 48.5248 230.6 55.0307 236.202 57.4545Z" fill="white"/>
<path d="M682.354 276.333C681.162 273.534 678.908 271.323 676.086 270.186C673.264 269.05 670.107 269.081 667.308 270.272C664.509 271.464 662.298 273.718 661.161 276.54C660.025 279.362 660.056 282.52 661.247 285.318C661.837 286.704 662.695 287.96 663.77 289.015C664.845 290.07 666.118 290.902 667.515 291.465C668.912 292.028 670.407 292.31 671.913 292.295C673.419 292.28 674.908 291.969 676.294 291.379C677.679 290.789 678.936 289.932 679.99 288.856C681.045 287.781 681.877 286.508 682.44 285.111C683.003 283.714 683.285 282.219 683.27 280.713C683.255 279.207 682.944 277.719 682.354 276.333Z" fill="white"/>
<path d="M1174.01 101.489C1171.97 100.664 1169.74 100.462 1167.58 100.909C1165.43 101.356 1163.46 102.432 1161.92 104C1160.38 105.568 1159.34 107.558 1158.93 109.717C1158.52 111.877 1158.77 114.109 1159.63 116.131C1160.49 118.153 1161.93 119.874 1163.77 121.076C1165.61 122.278 1167.77 122.907 1169.96 122.883C1172.16 122.859 1174.3 122.183 1176.12 120.941C1177.93 119.699 1179.33 117.947 1180.15 115.907C1181.24 113.18 1181.21 110.132 1180.06 107.43C1178.91 104.727 1176.73 102.591 1174.01 101.489Z" fill="white"/>
<path d="M90.319 340.893C88.2818 340.068 86.0456 339.867 83.8937 340.314C81.7418 340.761 79.7709 341.836 78.2307 343.404C76.6906 344.972 75.6505 346.962 75.2421 349.122C74.8338 351.281 75.0755 353.513 75.9368 355.536C76.798 357.558 78.2401 359.279 80.0802 360.481C81.9203 361.682 84.0758 362.311 86.2735 362.287C88.4712 362.263 90.6123 361.587 92.4257 360.345C94.239 359.103 95.643 357.351 96.4598 355.311C97.0073 353.961 97.2826 352.517 97.2701 351.061C97.2575 349.604 96.9573 348.165 96.3866 346.825C95.8159 345.486 94.9861 344.272 93.9448 343.254C92.9035 342.236 91.6713 341.433 90.319 340.893Z" fill="white"/>
<path d="M1563.39 3.82294C1569 6.24677 1575.5 3.67062 1577.93 -1.931C1580.35 -7.53261 1577.77 -14.0385 1572.17 -16.4624C1566.57 -18.8862 1560.06 -16.3101 1557.64 -10.7085C1555.22 -5.10684 1557.79 1.39911 1563.39 3.82294Z" fill="white"/>
<path d="M295.056 68.575C307.011 73.3976 320.613 67.6153 325.435 55.6598C330.258 43.7043 324.476 30.1029 312.52 25.2803C300.564 20.4576 286.963 26.24 282.14 38.1955C277.318 50.151 283.1 63.7524 295.056 68.575Z" fill="white"/>
<path d="M1755.76 638.248C1881.35 539.841 1903.38 358.26 1804.97 232.676C1706.57 107.091 1524.98 85.0588 1399.4 183.465C1273.81 281.872 1251.78 463.453 1350.19 589.037C1448.6 714.622 1630.18 736.654 1755.76 638.248Z" fill="white"/>
<mask id="mask0_1045_359" style="mask-type:luminance" maskUnits="userSpaceOnUse" x="1288" y="121" width="579" height="579">
<path d="M1755.76 638.248C1881.35 539.841 1903.38 358.26 1804.97 232.676C1706.56 107.091 1524.98 85.0588 1399.4 183.465C1273.81 281.872 1251.78 463.453 1350.19 589.037C1448.6 714.622 1630.18 736.654 1755.76 638.248Z" fill="white"/>
</mask>
<g mask="url(#mask0_1045_359)">
<path d="M1866.35 403.315L1549.97 217.804L1847.27 307.339C1845.16 301.696 1842.77 296.161 1840.27 290.633L1467.17 143.881C1446.12 152.543 1426.18 163.695 1407.78 177.098L1493.76 228.2L1380.28 199.691L1500.15 280.816L1330.79 260.764C1328.62 264.33 1326.58 267.89 1324.56 271.518L1691.61 411.549L1433.62 365.245L1552.86 435.463L1422.65 418.173L1818.07 570.814C1839.96 538.037 1854.87 501.104 1861.86 462.315L1766.8 402.948L1865.11 438.172C1866.2 426.588 1866.62 414.949 1866.35 403.315Z" fill="#01ABFE"/>
<path d="M1551.27 123.384L1731.1 196.75L1682.63 158.445L1733.51 167.912C1679.44 133.129 1615.29 117.453 1551.27 123.384Z" fill="#01ABFE"/>
</g>
<path d="M1755.76 638.248C1881.35 539.841 1903.38 358.26 1804.97 232.676C1706.57 107.091 1524.98 85.0588 1399.4 183.465C1273.81 281.872 1251.78 463.453 1350.19 589.037C1448.6 714.622 1630.18 736.654 1755.76 638.248Z" stroke="#263238" stroke-width="1.04814" stroke-linecap="round" stroke-linejoin="round"/>
<path d="M1872.15 44.2419C1832.46 12.8297 1746.71 49.6094 1649.28 130.96C1659.33 133.579 1669.24 136.721 1678.97 140.374C1751.67 79.3816 1811.28 50.987 1836.87 71.175C1882.27 107.083 1803.48 282.537 1660.8 462.984C1518.13 643.431 1365.69 760.739 1320.29 724.832C1296.89 706.327 1306.54 650.742 1340.85 576.515C1334.92 568.033 1329.45 559.241 1324.45 550.175C1276.49 653.608 1264.97 735.896 1302.07 765.231C1364.96 814.951 1543.49 693.793 1700.88 494.676C1858.28 295.558 1935.06 93.9148 1872.15 44.2419Z" fill="#01ABFE" stroke="#263238" stroke-width="1.04814" stroke-linecap="round" stroke-linejoin="round"/>
<path d="M627.953 100.59C611.027 87.1302 591.013 78.0393 569.596 83.1105C551.458 87.4093 537.289 106.03 517.669 102.328C494.332 97.913 492.703 92.2304 475.668 97.0793C470.835 98.4013 466.442 100.989 462.943 104.576C459.444 108.163 456.966 112.618 455.764 117.483C455.764 117.483 477.375 102.788 495.602 112.947C498.03 113.944 500.044 115.743 501.307 118.044C485.282 117.683 469.129 110.646 455.764 117.483C442.193 125.231 429.607 134.586 418.276 145.347C408.553 154.249 397.18 144.068 376.947 150.966C356.713 157.863 346.993 160.091 336.262 174.204C325.531 188.316 316.357 194.607 299.782 196.857C289.477 198.209 279.06 198.496 268.697 197.714C268.697 197.714 288.553 213.555 305.09 211.292C321.627 209.029 329.207 203.743 346.296 192.195C363.384 180.646 403.304 196.25 403.304 196.25C403.304 196.25 373.787 196.05 353.73 209.727C333.674 223.403 327.187 236.944 302.243 233.573C281.148 230.658 268.901 221.901 256.243 225.664C245.269 224.871 234.341 227.732 225.163 233.801C203.619 248.303 199.128 250.728 176.539 247.775C153.95 244.822 127.385 258.639 109.427 275.747C91.4692 292.855 86.7092 303.112 55.23 304.868C23.7508 306.623 7.77975 305.85 -12.4884 318.636C-22.5215 324.658 -32.0559 331.475 -40.9999 339.021C-40.9999 339.021 1.80598 318.017 44.0321 324.117C86.2583 330.218 129.051 309.252 142.132 291.293C155.214 273.334 180.012 291.599 212.419 284.993C217.004 284.002 221.508 282.665 225.89 280.991C228.024 280.466 230.061 279.609 231.928 278.45C245.766 272.12 255.469 264.029 265.858 260.479C272.155 260.546 278.4 261.636 284.347 263.708C324.855 276.714 356.002 282.596 375.499 264.766C394.997 246.937 407.305 238.532 425.533 248.691C443.76 258.85 459.786 259.211 467.595 260.678C475.405 262.146 481.049 260.504 456.877 274.752C432.706 289.001 413.829 274.701 404.643 281.031L379.974 297.865C379.974 297.865 401.559 283.119 422.372 293.775C443.186 304.432 478.486 309.755 490.808 301.312C503.13 292.869 525.3 282.327 538.753 282.153C552.206 281.978 577.596 282.788 585.357 277.478C589.901 274.03 594.787 271.056 599.937 268.602C594.291 286.479 575.335 301.092 558.183 307.667C578.526 306.109 598.161 299.51 615.316 288.466C622.627 283.787 629.407 278.324 635.535 272.175C683.923 223.668 682.197 143.793 627.953 100.59Z" fill="white"/>
<path d="M629.535 123.267C629.535 123.267 607.015 103.758 585.179 100.115C563.342 96.4731 551.181 108.976 532.053 122.583C512.925 136.19 498.286 133.159 480.038 135.138C467.887 136.103 456.474 141.354 447.835 149.953C445.646 152.951 452.778 147.339 463.355 147.514C471.878 148.205 480.247 150.184 488.176 153.384C478.742 161.773 466.611 166.499 453.988 166.702C432.167 167.543 417.592 166.215 409.217 169.291C403.546 171.743 398.396 175.257 394.046 179.644C390.858 181.912 407.029 172.288 421.03 182.464C435.031 192.641 458.839 197.819 458.839 197.819C458.839 197.819 427.103 193.028 411.392 199.923C395.682 206.818 386.158 219.794 376.416 231.015C366.675 242.237 355.979 235.991 344.417 241.335C336.364 245.532 329.141 251.159 323.1 257.939C336.804 252.601 351.345 249.734 366.05 249.473C389.024 249.414 387.946 242.499 407.021 229.046C426.096 215.594 446.501 221.029 460.476 231.282C474.45 241.535 505.66 242.831 505.66 242.831C505.66 242.831 496.635 253.092 488.451 251.711C480.268 250.331 488.07 260.625 501.184 259.429C514.297 258.234 520.851 249.28 531.841 257.306C542.832 265.332 543.371 268.789 556.432 267.619C569.494 266.449 592.657 255.774 609.538 255.653C626.418 255.532 654.361 219.319 654.413 187.468C654.464 155.616 629.535 123.267 629.535 123.267Z" fill="#01ABFE"/>
<g clip-path="url(#clip0_1045_359)">
<path d="M615.546 170.788C623.124 199.868 605.693 229.584 576.613 237.161C547.533 244.739 517.823 227.306 510.246 198.226C507.847 189.02 507.956 179.75 510.151 171.134L524.855 174.77C523.125 181.188 522.988 188.115 524.784 195.007C530.29 216.141 551.886 228.804 573.014 223.299C594.142 217.793 606.811 196.196 601.305 175.068C599.524 168.232 596.059 162.284 591.477 157.551L602.521 147.22C608.583 153.65 613.156 161.64 615.542 170.796L615.546 170.788Z" fill="#263238" stroke="#263238" stroke-linecap="round" stroke-linejoin="round"/>
<path d="M568.796 215.246L570.038 220.32C570.098 220.567 570.348 220.718 570.594 220.657L572.602 220.166C572.849 220.105 573 219.856 572.94 219.609L571.698 214.536C571.638 214.289 571.389 214.138 571.142 214.198L569.134 214.69C568.887 214.75 568.736 214.999 568.796 215.246Z" fill="#263238" stroke="#263238" stroke-linecap="round" stroke-linejoin="round"/>
<path d="M590.127 200.894L594.427 203.86C594.636 204.004 594.923 203.951 595.067 203.742L596.241 202.04C596.385 201.831 596.333 201.545 596.123 201.4L591.824 198.435C591.614 198.29 591.328 198.343 591.184 198.552L590.01 200.254C589.866 200.463 589.918 200.75 590.127 200.894Z" fill="#263238" stroke="#263238" stroke-linecap="round" stroke-linejoin="round"/>
<path d="M543.962 210.18L541.523 214.785C541.402 215.013 541.489 215.295 541.717 215.416L543.533 216.377C543.76 216.498 544.043 216.411 544.163 216.183L546.602 211.579C546.722 211.351 546.636 211.069 546.408 210.948L544.592 209.986C544.365 209.866 544.082 209.953 543.962 210.18Z" fill="#263238" stroke="#263238" stroke-linecap="round" stroke-linejoin="round"/>
<path d="M594.531 180.386L599.75 180.173C600.004 180.163 600.201 179.948 600.191 179.694L600.107 177.629C600.096 177.375 599.882 177.177 599.628 177.188L594.409 177.401C594.155 177.411 593.958 177.625 593.968 177.879L594.052 179.945C594.063 180.199 594.277 180.396 594.531 180.386Z" fill="#263238" stroke="#263238" stroke-linecap="round" stroke-linejoin="round"/>
<path d="M531.622 192.759L526.906 194.975C526.672 195.084 526.572 195.362 526.682 195.595L527.555 197.455C527.665 197.688 527.943 197.788 528.176 197.679L532.892 195.463C533.125 195.353 533.226 195.075 533.116 194.842L532.242 192.983C532.133 192.75 531.855 192.649 531.622 192.759Z" fill="#263238" stroke="#263238" stroke-linecap="round" stroke-linejoin="round"/>
<path d="M603.366 123.118L602.334 142.111C602.279 143.157 601.118 143.741 600.24 143.173L596.755 140.9L564.778 189.943C564.341 190.606 563.449 190.805 562.772 190.392C562.759 190.396 562.748 190.379 562.732 190.369L558.812 187.815L556.008 185.947L525.421 165.535L523.109 168.997C522.53 169.858 521.237 169.779 520.779 168.847L512.35 151.79C511.887 150.859 512.614 149.772 513.649 149.837L532.644 151.076C533.686 151.146 534.256 152.303 533.674 153.178L531.361 156.64L560.878 176.34L587.799 135.057L584.315 132.79C583.441 132.214 583.512 130.916 584.441 130.447L601.407 121.847C602.341 121.369 603.431 122.083 603.367 123.124L603.366 123.118Z" fill="#263238" stroke="#263238" stroke-linecap="round" stroke-linejoin="round"/>
</g>
<path d="M1209.66 90.3011C1282.38 121.766 1366.84 88.3244 1398.3 15.6081C1429.77 -57.1082 1396.32 -141.563 1323.61 -173.028C1250.89 -204.492 1166.44 -171.051 1134.97 -98.3349C1103.51 -25.6186 1136.95 58.8366 1209.66 90.3011Z" fill="white"/>
<mask id="mask1_1045_359" style="mask-type:luminance" maskUnits="userSpaceOnUse" x="1123" y="-185" width="288" height="288">
<path d="M1209.66 90.3011C1282.38 121.766 1366.84 88.3244 1398.3 15.6081C1429.77 -57.1082 1396.32 -141.563 1323.61 -173.028C1250.89 -204.492 1166.44 -171.051 1134.97 -98.3349C1103.51 -25.6186 1136.95 58.8366 1209.66 90.3011Z" fill="white"/>
</mask>
<g mask="url(#mask1_1045_359)">
<path d="M1285.77 -183.494C1314.07 -131.86 1356.64 -14.5157 1248.75 101.023C1283.31 105.349 1318.27 96.9511 1347.1 77.396C1375.93 57.8409 1396.66 28.4646 1405.42 -5.25089C1414.18 -38.9663 1410.37 -74.7174 1394.71 -105.833C1379.04 -136.948 1352.6 -161.301 1320.3 -174.348C1309.22 -178.837 1297.61 -181.91 1285.77 -183.494Z" fill="#01ABFE"/>
</g>
<path d="M1209.66 90.3011C1282.38 121.766 1366.84 88.3244 1398.3 15.6081C1429.77 -57.1082 1396.32 -141.563 1323.61 -173.028C1250.89 -204.492 1166.44 -171.051 1134.97 -98.3349C1103.51 -25.6186 1136.95 58.8366 1209.66 90.3011Z" stroke="#263238" stroke-width="1.04814" stroke-linecap="round" stroke-linejoin="round"/>
<path d="M1238.56 64.8781C1251.65 70.5413 1266.85 64.5223 1272.51 51.4344C1278.17 38.3466 1272.16 23.1458 1259.07 17.4827C1245.98 11.8195 1230.78 17.8385 1225.12 30.9264C1219.45 44.0142 1225.47 59.215 1238.56 64.8781Z" fill="#01ABFE" stroke="#263238" stroke-width="1.04814" stroke-linecap="round" stroke-linejoin="round"/>
<path d="M1362.46 0.382065C1367.54 2.57937 1373.44 0.244013 1375.64 -4.83409C1377.83 -9.91219 1375.5 -15.8101 1370.42 -18.0074C1365.34 -20.2047 1359.44 -17.8693 1357.25 -12.7912C1355.05 -7.71313 1357.38 -1.81524 1362.46 0.382065Z" fill="#01ABFE" stroke="#263238" stroke-width="1.04814" stroke-linecap="round" stroke-linejoin="round"/>
<path d="M1169.96 9.36739C1177.97 12.8332 1187.27 9.14972 1190.74 1.13993C1194.2 -6.86986 1190.52 -16.1727 1182.51 -19.6386C1174.5 -23.1044 1165.2 -19.4209 1161.73 -11.4111C1158.27 -3.40128 1161.95 5.90154 1169.96 9.36739Z" fill="#01ABFE" stroke="#263238" stroke-width="1.04814" stroke-linecap="round" stroke-linejoin="round"/>
<path d="M111.848 52.7678C134.349 10.3409 118.195 -42.2929 75.7678 -64.793C33.3409 -87.2932 -19.293 -71.1394 -41.7931 -28.7124C-64.2932 13.7145 -48.1393 66.3483 -5.71237 88.8484C36.7146 111.349 89.3483 95.1947 111.848 52.7678Z" fill="white" stroke="white" stroke-width="1.04814" stroke-linecap="round" stroke-linejoin="round"/>
<path d="M93.1201 -14.8644L110.078 55.7845C115.939 45.7516 119.713 34.6379 121.174 23.1104L93.1201 -14.8644Z" fill="#01ABFE"/>
<path d="M21.4815 -73.7702L61.5285 94.8261C71.8368 91.5109 81.428 86.283 89.8001 79.4158L59.9552 -71.1868C47.4833 -74.9043 34.3384 -75.7869 21.4815 -73.7702Z" fill="#01ABFE"/>
<path d="M-0.282591 91.359L-17.356 17.3094L-18.2777 80.5745C-12.7526 84.9058 -6.70726 88.5288 -0.282591 91.359Z" fill="#01ABFE"/>
<path d="M34.6407 98.887L-6.8923 -64.1358C-8.22848 -63.3913 -9.52254 -62.5404 -10.8537 -61.7055L4.04624 93.2761C13.8271 96.9599 24.1892 98.8602 34.6407 98.887Z" fill="#01ABFE"/>
</g>
<defs>
<clipPath id="clip0_1045_359">
<rect width="109.763" height="106.017" fill="white" transform="translate(497 148.677) rotate(-14.6048)"/>
</clipPath>
</defs>
</svg>
