<svg width="55" height="44" viewBox="0 0 85 77" fill="none" xmlns="http://www.w3.org/2000/svg">
  <path fill-rule="evenodd" clip-rule="evenodd"
    d="M27.9688 15.25C27.9688 16.8542 26.6667 18.1562 25.0625 18.1562C23.4582 18.1562 22.1562 16.8542 22.1562 15.25V7.5C22.1562 3.75287 25.1942 0.71875 28.9375 0.71875H56.0625C59.8058 0.71875 62.8438 3.75287 62.8438 7.5V15.25C62.8438 16.8542 61.5418 18.1562 59.9375 18.1562C58.3332 18.1562 57.0312 16.8542 57.0312 15.25V7.5C57.0312 6.96525 56.5973 6.53125 56.0625 6.53125H28.9375C28.4028 6.53125 27.9688 6.96525 27.9688 7.5V15.25Z"
    fill="white" />
  <path fill-rule="evenodd" clip-rule="evenodd"
    d="M50.25 40.4375C50.25 39.368 49.382 38.5 48.3125 38.5C45.3326 38.5 39.6674 38.5 36.6875 38.5C35.618 38.5 34.75 39.368 34.75 40.4375C34.75 43.0144 34.75 47.5481 34.75 50.125C34.75 51.1945 35.618 52.0625 36.6875 52.0625C39.6674 52.0625 45.3326 52.0625 48.3125 52.0625C49.382 52.0625 50.25 51.1945 50.25 50.125C50.25 47.5481 50.25 43.0144 50.25 40.4375Z"
    fill="white" />
  <path fill-rule="evenodd" clip-rule="evenodd"
    d="M54.125 48.3967L79.9596 41.937C80.754 41.7394 81.5096 41.4527 82.2188 41.0923V65.6249C82.2188 71.511 77.4486 76.2812 71.5625 76.2812H13.4375C7.55138 76.2812 2.78125 71.511 2.78125 65.6249V41.0923C3.49038 41.4527 4.246 41.7394 5.04037 41.937L30.875 48.3967V50.1249C30.875 53.3334 33.479 55.9374 36.6875 55.9374H48.3125C51.521 55.9374 54.125 53.3334 54.125 50.1249V48.3967Z"
    fill="white" />
  <path fill-rule="evenodd" clip-rule="evenodd"
    d="M30.875 44.4016L5.982 38.1784C2.96337 37.4228 0.84375 34.7103 0.84375 31.5986V19.125C0.84375 17.327 1.55675 15.6026 2.83162 14.3316C4.10262 13.0568 5.827 12.3438 7.625 12.3438H77.375C79.173 12.3438 80.8974 13.0568 82.1684 14.3316C83.4432 15.6026 84.1562 17.327 84.1562 19.125V31.5986C84.1562 34.7103 82.0366 37.4228 79.018 38.1784L54.125 44.4016V40.4375C54.125 37.229 51.521 34.625 48.3125 34.625H36.6875C33.479 34.625 30.875 37.229 30.875 40.4375V44.4016Z"
    fill="white" />
</svg>