<svg width="55" height="55" viewBox="0 0 89 89" fill="none" xmlns="http://www.w3.org/2000/svg">
  <path
    d="M86.6579 84.3158H79.6316V21.0789C79.6663 20.5667 79.5283 20.0575 79.2396 19.633C78.9509 19.2084 78.5281 18.8928 78.0389 18.7368L60.8947 11.57V84.3158H56.2105V2.34211C56.2105 1.72094 55.9638 1.12522 55.5245 0.685987C55.0853 0.246757 54.4896 0 53.8684 0H11.7105C11.0894 0 10.4936 0.246757 10.0544 0.685987C9.61518 1.12522 9.36842 1.72094 9.36842 2.34211V84.3158H2.34211C1.72094 84.3158 1.12522 84.5626 0.685987 85.0018C0.246757 85.441 0 86.0367 0 86.6579C0 87.2791 0.246757 87.8748 0.685987 88.314C1.12522 88.7533 1.72094 89 2.34211 89H86.6579C87.2791 89 87.8748 88.7533 88.314 88.314C88.7533 87.8748 89 87.2791 89 86.6579C89 86.0367 88.7533 85.441 88.314 85.0018C87.8748 84.5626 87.2791 84.3158 86.6579 84.3158ZM67.9211 28.1053H72.6053C73.2264 28.1053 73.8222 28.352 74.2614 28.7913C74.7006 29.2305 74.9474 29.8262 74.9474 30.4474C74.9354 31.0648 74.6848 31.6536 74.2481 32.0902C73.8115 32.5269 73.2227 32.7775 72.6053 32.7895H67.9211C67.3036 32.7775 66.7149 32.5269 66.2782 32.0902C65.8415 31.6536 65.5909 31.0648 65.5789 30.4474C65.5789 29.8262 65.8257 29.2305 66.2649 28.7913C66.7042 28.352 67.2999 28.1053 67.9211 28.1053ZM67.9211 42.1579H72.6053C73.2264 42.1579 73.8222 42.4047 74.2614 42.8439C74.7006 43.2831 74.9474 43.8788 74.9474 44.5C74.9474 45.1212 74.7006 45.7169 74.2614 46.1561C73.8222 46.5954 73.2264 46.8421 72.6053 46.8421H67.9211C67.2999 46.8421 66.7042 46.5954 66.2649 46.1561C65.8257 45.7169 65.5789 45.1212 65.5789 44.5C65.5789 43.8788 65.8257 43.2831 66.2649 42.8439C66.7042 42.4047 67.2999 42.1579 67.9211 42.1579ZM67.9211 56.2105H72.6053C73.2227 56.2225 73.8115 56.4731 74.2481 56.9098C74.6848 57.3464 74.9354 57.9352 74.9474 58.5526C74.9474 59.1738 74.7006 59.7695 74.2614 60.2088C73.8222 60.648 73.2264 60.8947 72.6053 60.8947H67.9211C67.2999 60.8947 66.7042 60.648 66.2649 60.2088C65.8257 59.7695 65.5789 59.1738 65.5789 58.5526C65.5909 57.9352 65.8415 57.3464 66.2782 56.9098C66.7149 56.4731 67.3036 56.2225 67.9211 56.2105ZM67.9211 70.2632H72.6053C73.2264 70.2632 73.8222 70.5099 74.2614 70.9492C74.7006 71.3884 74.9474 71.9841 74.9474 72.6053C74.9474 73.2264 74.7006 73.8222 74.2614 74.2614C73.8222 74.7006 73.2264 74.9474 72.6053 74.9474H67.9211C67.2999 74.9474 66.7042 74.7006 66.2649 74.2614C65.8257 73.8222 65.5789 73.2264 65.5789 72.6053C65.5789 71.9841 65.8257 71.3884 66.2649 70.9492C66.7042 70.5099 67.2999 70.2632 67.9211 70.2632ZM37.4737 14.0526H42.1579C42.7791 14.0526 43.3748 14.2994 43.814 14.7386C44.2533 15.1778 44.5 15.7736 44.5 16.3947C44.5 17.0159 44.2533 17.6116 43.814 18.0509C43.3748 18.4901 42.7791 18.7368 42.1579 18.7368H37.4737C36.8525 18.7368 36.2568 18.4901 35.8176 18.0509C35.3783 17.6116 35.1316 17.0159 35.1316 16.3947C35.1316 15.7736 35.3783 15.1778 35.8176 14.7386C36.2568 14.2994 36.8525 14.0526 37.4737 14.0526ZM37.4737 28.1053H42.1579C42.7791 28.1053 43.3748 28.352 43.814 28.7913C44.2533 29.2305 44.5 29.8262 44.5 30.4474C44.5 31.0685 44.2533 31.6643 43.814 32.1035C43.3748 32.5427 42.7791 32.7895 42.1579 32.7895H37.4737C36.8525 32.7895 36.2568 32.5427 35.8176 32.1035C35.3783 31.6643 35.1316 31.0685 35.1316 30.4474C35.1316 29.8262 35.3783 29.2305 35.8176 28.7913C36.2568 28.352 36.8525 28.1053 37.4737 28.1053ZM37.4737 42.1579H42.1579C42.7791 42.1579 43.3748 42.4047 43.814 42.8439C44.2533 43.2831 44.5 43.8788 44.5 44.5C44.5 45.1212 44.2533 45.7169 43.814 46.1561C43.3748 46.5954 42.7791 46.8421 42.1579 46.8421H37.4737C36.8525 46.8421 36.2568 46.5954 35.8176 46.1561C35.3783 45.7169 35.1316 45.1212 35.1316 44.5C35.1316 43.8788 35.3783 43.2831 35.8176 42.8439C36.2568 42.4047 36.8525 42.1579 37.4737 42.1579ZM37.4737 56.2105H42.1579C42.7791 56.2105 43.3748 56.4573 43.814 56.8965C44.2533 57.3357 44.5 57.9315 44.5 58.5526C44.5 59.1738 44.2533 59.7695 43.814 60.2088C43.3748 60.648 42.7791 60.8947 42.1579 60.8947H37.4737C36.8525 60.8947 36.2568 60.648 35.8176 60.2088C35.3783 59.7695 35.1316 59.1738 35.1316 58.5526C35.1316 57.9315 35.3783 57.3357 35.8176 56.8965C36.2568 56.4573 36.8525 56.2105 37.4737 56.2105ZM23.14 14.0526H28.1053C28.7264 14.0526 29.3222 14.2994 29.7614 14.7386C30.2006 15.1778 30.4474 15.7736 30.4474 16.3947C30.4474 17.0159 30.2006 17.6116 29.7614 18.0509C29.3222 18.4901 28.7264 18.7368 28.1053 18.7368H23.4211C22.7999 18.7368 22.2042 18.4901 21.7649 18.0509C21.3257 17.6116 21.0789 17.0159 21.0789 16.3947C21.0789 15.7736 21.3257 15.1778 21.7649 14.7386C22.2042 14.2994 22.7999 14.0526 23.4211 14.0526H23.14ZM23.14 28.1053H28.1053C28.7264 28.1053 29.3222 28.352 29.7614 28.7913C30.2006 29.2305 30.4474 29.8262 30.4474 30.4474C30.4474 31.0685 30.2006 31.6643 29.7614 32.1035C29.3222 32.5427 28.7264 32.7895 28.1053 32.7895H23.4211C22.7999 32.7895 22.2042 32.5427 21.7649 32.1035C21.3257 31.6643 21.0789 31.0685 21.0789 30.4474C21.0789 29.8262 21.3257 29.2305 21.7649 28.7913C22.2042 28.352 22.7999 28.1053 23.4211 28.1053H23.14ZM23.14 42.1579H28.1053C28.7264 42.1579 29.3222 42.4047 29.7614 42.8439C30.2006 43.2831 30.4474 43.8788 30.4474 44.5C30.4474 45.1212 30.2006 45.7169 29.7614 46.1561C29.3222 46.5954 28.7264 46.8421 28.1053 46.8421H23.4211C22.7999 46.8421 22.2042 46.5954 21.7649 46.1561C21.3257 45.7169 21.0789 45.1212 21.0789 44.5C21.0789 43.8788 21.3257 43.2831 21.7649 42.8439C22.2042 42.4047 22.7999 42.1579 23.4211 42.1579H23.14ZM23.14 56.2105H28.1053C28.7264 56.2105 29.3222 56.4573 29.7614 56.8965C30.2006 57.3357 30.4474 57.9315 30.4474 58.5526C30.4474 59.1738 30.2006 59.7695 29.7614 60.2088C29.3222 60.648 28.7264 60.8947 28.1053 60.8947H23.4211C22.7999 60.8947 22.2042 60.648 21.7649 60.2088C21.3257 59.7695 21.0789 59.1738 21.0789 58.5526C21.0789 57.9315 21.3257 57.3357 21.7649 56.8965C22.2042 56.4573 22.7999 56.2105 23.4211 56.2105H23.14ZM35.1316 84.3158V74.9474H30.4474V84.3158H25.7632V72.4647C25.799 71.8682 26.0615 71.308 26.4969 70.8987C26.9323 70.4895 27.5077 70.2621 28.1053 70.2632H37.4737C38.0949 70.2632 38.6906 70.5099 39.1298 70.9492C39.569 71.3884 39.8158 71.9841 39.8158 72.6053V84.3158H35.1316Z"
    fill="white" />
</svg>