
<svg width="46" height="45" viewBox="0 0 46 45" fill="none" xmlns="http://www.w3.org/2000/svg">
<g filter="url(#filter0_d_1074_977)">
<g clip-path="url(#clip0_1074_977)">
<path d="M2 9C2 4.58172 5.58172 1 10 1H36C40.4183 1 44 4.58172 44 9V34C44 38.4183 40.4183 42 36 42H2V9Z" fill="#00AAFF"/>
<path d="M17.1563 32.3751C17.0657 32.3751 16.8844 32.3751 16.7938 32.2844C16.3407 32.1032 16.1594 31.5594 16.3407 31.1063L19.0594 24.7626C19.2407 24.3094 19.7844 24.1282 20.2376 24.3094C20.6907 24.4907 20.8719 25.0344 20.6907 25.4876L17.9719 31.8313C17.8813 32.1938 17.5188 32.3751 17.1563 32.3751Z" fill="white"/>
<path d="M19.8751 34.1876C19.7844 34.1876 19.6032 34.1876 19.5126 34.0969C19.0594 33.9157 18.8782 33.3719 19.0594 32.9188L21.7782 26.5751C21.9594 26.1219 22.5032 25.9407 22.9563 26.1219C23.4094 26.3032 23.5907 26.8469 23.4094 27.3001L20.6907 33.6438C20.6001 34.0063 20.2376 34.1876 19.8751 34.1876Z" fill="white"/>
<path d="M24.4063 32.3751C24.3157 32.3751 24.1344 32.3751 24.0438 32.2844C23.5907 32.1032 23.4094 31.5594 23.5907 31.1063L26.3094 24.7626C26.4907 24.3094 27.0344 24.1282 27.4876 24.3094C27.9407 24.4907 28.1219 25.0344 27.9407 25.4876L25.2219 31.8313C25.1313 32.1938 24.7688 32.3751 24.4063 32.3751Z" fill="white"/>
<path d="M26.2188 10.625C22.2312 10.625 18.7875 13.1625 17.6094 16.9688C14.3469 16.9688 11.7188 19.5969 11.7188 22.8594C11.7188 25.0344 12.8969 27.0281 14.8 28.025C15.0719 28.1156 15.2531 28.2969 15.525 28.3875L17.3375 24.0375C17.6094 23.4031 18.1531 22.8594 18.7875 22.5875C19.4219 22.3156 20.2375 22.3156 20.8719 22.5875C21.5063 22.8594 22.05 23.4031 22.3219 24.0375V24.1281C22.775 24.1281 23.1375 24.1281 23.5906 24.3094C23.8625 24.4 24.0437 24.5813 24.225 24.6719L24.5875 23.8563C24.8594 23.2219 25.4031 22.6781 26.0375 22.4062C26.6719 22.1344 27.4875 22.1344 28.1219 22.4062C28.7563 22.6781 29.3 23.2219 29.5719 23.8563C29.8438 24.4906 29.8438 25.3062 29.5719 25.9406L28.6656 28.1156C32.4719 27.0281 35.2812 23.5844 35.2812 19.4156C35.2812 14.7031 31.2031 10.625 26.2188 10.625Z" fill="white"/>
</g>
</g>
<defs>
<filter id="filter0_d_1074_977" x="0" y="0" width="46" height="45" filterUnits="userSpaceOnUse" color-interpolation-filters="sRGB">
<feFlood flood-opacity="0" result="BackgroundImageFix"/>
<feColorMatrix in="SourceAlpha" type="matrix" values="0 0 0 0 0 0 0 0 0 0 0 0 0 0 0 0 0 0 127 0" result="hardAlpha"/>
<feOffset dy="1"/>
<feGaussianBlur stdDeviation="1"/>
<feComposite in2="hardAlpha" operator="out"/>
<feColorMatrix type="matrix" values="0 0 0 0 0 0 0 0 0 0 0 0 0 0 0 0 0 0 0.2 0"/>
<feBlend mode="normal" in2="BackgroundImageFix" result="effect1_dropShadow_1074_977"/>
<feBlend mode="normal" in="SourceGraphic" in2="effect1_dropShadow_1074_977" result="shape"/>
</filter>
<clipPath id="clip0_1074_977">
<path d="M2 9C2 4.58172 5.58172 1 10 1H36C40.4183 1 44 4.58172 44 9V34C44 38.4183 40.4183 42 36 42H2V9Z" fill="white"/>
</clipPath>
</defs>
</svg>
