<svg width="46" height="45" viewBox="0 0 46 45" fill="none" xmlns="http://www.w3.org/2000/svg">
  <g filter="url(#filter0_d_560_636)">
    <g clip-path="url(#clip0_560_636)">
      <path d="M2 9C2 4.58172 5.58172 1 10 1H36C40.4183 1 44 4.58172 44 9V34C44 38.4183 40.4183 42 36 42H2V9Z"
        fill="#50192F" />
      <g clip-path="url(#clip1_560_636)">
        <path
          d="M24.3191 28.2072C23.6247 27.711 22.7129 28.4326 22.3906 29.2103C22.1102 29.8884 22.4555 30.5115 23.1494 30.7117C23.5369 30.8226 23.951 30.7953 24.3206 30.6346C25.1733 30.2327 25.0868 29.2433 24.6377 28.5521C24.554 28.4182 24.4459 28.3013 24.3191 28.2072Z"
          fill="white" />
        <path
          d="M30.2538 21.4975C30.0493 21.4982 29.8451 21.5152 29.6433 21.5483C28.9154 21.6451 28.2068 21.854 27.5429 22.1677C27.2091 22.3375 26.8978 22.5492 26.5587 22.7096C26.217 22.871 25.7904 22.8658 25.4765 23.0691C25.2742 23.194 25.1277 23.392 25.0673 23.622C24.9656 24.0543 25.2496 24.3976 25.607 24.5957C26.1274 24.8839 26.6536 25.1627 27.1656 25.4645C27.5979 25.7198 28.0821 26.1023 28.6167 26.0195C28.994 25.9608 29.3215 25.6218 29.6019 25.3844C29.9627 25.0704 30.3057 24.7364 30.629 24.3839C31.0221 23.9678 31.6148 23.5297 31.8171 22.98C31.8704 22.7991 31.8714 22.6068 31.8199 22.4254C31.7684 22.244 31.6666 22.0809 31.5262 21.955C31.3555 21.7975 31.1549 21.6759 30.9364 21.5973C30.7178 21.5187 30.4857 21.4848 30.2538 21.4975Z"
          fill="white" />
        <path
          d="M35.6665 21.2384C35.6655 21.2054 35.665 21.1729 35.6639 21.1404C35.6623 21.0869 35.6603 21.033 35.6582 20.9795C35.654 20.8899 35.6498 20.8003 35.6435 20.7112C35.6424 20.6918 35.6414 20.6735 35.6403 20.6541C35.6361 20.5912 35.6309 20.5278 35.6257 20.4649L35.6225 20.4287C35.3717 17.5945 34.1359 14.9377 32.1299 12.9198C30.1238 10.902 27.4743 9.65068 24.6415 9.38329C24.6305 9.38224 24.6195 9.38171 24.6085 9.38067C24.5058 9.37124 24.402 9.36337 24.2983 9.35709C24.2689 9.35447 24.2401 9.35289 24.2113 9.35132C24.1222 9.3466 24.0321 9.34189 23.943 9.33875C23.9115 9.3377 23.8806 9.33665 23.8497 9.3356C23.7334 9.33246 23.617 9.32983 23.5002 9.32983C23.4084 9.32983 23.3167 9.33141 23.2255 9.3335C23.1794 9.33455 23.1328 9.33665 23.0861 9.3377C23.0463 9.33926 23.007 9.34031 22.9682 9.34189C22.8985 9.34556 22.8288 9.34922 22.7597 9.35289C22.7523 9.35342 22.746 9.35394 22.7387 9.35394C19.8348 9.53622 17.0922 10.7528 15.008 12.7831C12.9238 14.8134 11.636 17.5232 11.3778 20.4214C11.3453 20.7741 11.3301 21.1121 11.3301 21.4999C11.3301 21.5948 11.3311 21.6896 11.3337 21.7839L11.3369 21.8856C11.3385 21.9453 11.3406 22.0051 11.3432 22.0648C11.3458 22.1073 11.3479 22.1492 11.35 22.1916C11.3526 22.2414 11.3563 22.2912 11.3594 22.3415C11.3626 22.3892 11.3657 22.4374 11.3699 22.4851C11.3731 22.527 11.3767 22.5695 11.3809 22.6114C11.3856 22.6649 11.3903 22.7183 11.3961 22.7718C11.3998 22.8095 11.4045 22.8472 11.4082 22.8855C11.4118 22.9248 11.4155 22.9636 11.4207 23.0023L11.4302 23.0663C11.5363 23.9015 11.7297 24.7234 12.0072 25.5183C12.0078 25.5214 12.0087 25.5243 12.0098 25.5272C12.0328 25.5933 12.0569 25.6598 12.0816 25.7264C12.09 25.7484 12.0983 25.7704 12.1062 25.7924C12.1266 25.8474 12.1476 25.9019 12.1691 25.9559C12.1843 25.9957 12.2 26.0345 12.2163 26.0733C12.232 26.1131 12.2477 26.153 12.2645 26.1917C13.381 28.8766 15.4252 31.0708 18.0243 32.3745C18.032 32.3789 18.0398 32.383 18.0479 32.3866C18.1092 32.4175 18.1716 32.4479 18.2339 32.4772C18.2748 32.4971 18.3162 32.517 18.3571 32.5359C18.377 32.5453 18.3969 32.5543 18.4163 32.5637C20.0111 33.2955 21.7455 33.6729 23.5001 33.67H23.507C23.6081 33.67 23.7098 33.6684 23.8104 33.6658C23.8266 33.6652 23.8418 33.6642 23.857 33.6642C23.9466 33.6616 24.0357 33.6584 24.1238 33.6537C24.128 33.6537 24.1322 33.6532 24.1363 33.6532C27.14 33.4958 29.979 32.2318 32.1056 30.1048C34.2323 27.9779 35.496 25.1387 35.6529 22.1351C35.6534 22.1314 35.6534 22.1277 35.654 22.124C35.6587 22.035 35.6618 21.9453 35.6639 21.8552L35.6655 21.8107C35.6686 21.708 35.6697 21.6042 35.6697 21.5004V21.4999C35.6697 21.4129 35.6686 21.3254 35.6665 21.2384ZM23.5001 32.0637C23.4556 32.0637 23.4116 32.0622 23.3676 32.0616C23.3146 32.0611 23.1972 31.9474 23.1522 31.9165C23.0683 31.8588 22.9852 31.8005 22.9027 31.7415C22.7471 31.6293 22.5941 31.513 22.4452 31.3919C22.078 31.1073 21.756 30.7688 21.4901 30.3879C20.9264 29.5338 21.0301 28.545 21.545 27.6948C21.9126 27.0877 22.4861 26.6095 22.9208 26.0476C23.4164 25.4381 23.7921 24.7402 24.0279 23.9909C24.1323 23.6569 24.1562 23.3029 24.0976 22.9579C24.0389 22.6129 23.8994 22.2867 23.6905 22.006C23.1838 21.3825 22.2526 21.0482 21.5019 20.8522C21.4076 20.8275 21.3117 20.8076 21.2153 20.7914C21.0021 20.7583 20.7873 20.7364 20.5717 20.7259C19.7939 20.6816 19.0139 20.6983 18.2387 20.7757C17.5584 20.8417 16.8436 21.0529 16.1996 20.7238C15.6441 20.4408 15.1441 20.0593 14.532 19.9C14.0568 19.7917 13.5705 19.7393 13.083 19.7438C13.321 18.334 13.8427 16.9871 14.6164 15.7848C15.3902 14.5824 16.3999 13.5496 17.5844 12.7489C18.7689 11.9482 20.1037 11.3962 21.5078 11.1264C22.9119 10.8566 24.3561 10.8746 25.753 11.1792C25.8007 11.9847 26.5323 12.4757 26.1555 13.3315C25.6472 14.4855 24.215 14.8282 23.6291 15.9208C23.4939 16.155 23.4281 16.4228 23.4391 16.6929C23.4501 16.963 23.5376 17.2245 23.6914 17.4469C23.9036 17.7796 24.0975 18.1238 24.2721 18.4777C24.5273 18.9713 24.8024 19.6165 25.3076 19.9073C26.7854 20.7594 26.9049 18.1061 27.9211 17.9384C28.4692 17.8478 28.7789 18.158 29.0373 18.5956C29.3454 19.1165 29.5923 19.5724 30.2431 19.6998C30.6535 19.7585 31.0701 19.7585 31.4804 19.6998C31.6827 19.6804 33.8413 19.3392 33.8156 19.2234C34.1559 20.7668 34.1457 22.3669 33.7856 23.9059C33.4254 25.4448 32.7246 26.8833 31.7348 28.1154C30.7449 29.3476 29.4912 30.3419 28.0661 31.0253C26.6409 31.7086 25.0806 32.0635 23.5001 32.0637Z"
          fill="white" />
      </g>
    </g>
  </g>
  <defs>
    <filter id="filter0_d_560_636" x="0" y="0" width="46" height="45" filterUnits="userSpaceOnUse"
      color-interpolation-filters="sRGB">
      <feFlood flood-opacity="0" result="BackgroundImageFix" />
      <feColorMatrix in="SourceAlpha" type="matrix" values="0 0 0 0 0 0 0 0 0 0 0 0 0 0 0 0 0 0 127 0"
        result="hardAlpha" />
      <feOffset dy="1" />
      <feGaussianBlur stdDeviation="1" />
      <feComposite in2="hardAlpha" operator="out" />
      <feColorMatrix type="matrix" values="0 0 0 0 0 0 0 0 0 0 0 0 0 0 0 0 0 0 0.2 0" />
      <feBlend mode="normal" in2="BackgroundImageFix" result="effect1_dropShadow_560_636" />
      <feBlend mode="normal" in="SourceGraphic" in2="effect1_dropShadow_560_636" result="shape" />
    </filter>
    <clipPath id="clip0_560_636">
      <path d="M2 9C2 4.58172 5.58172 1 10 1H36C40.4183 1 44 4.58172 44 9V34C44 38.4183 40.4183 42 36 42H2V9Z"
        fill="white" />
    </clipPath>
    <clipPath id="clip1_560_636">
      <rect width="25" height="25" fill="white" transform="translate(11 9)" />
    </clipPath>
  </defs>
</svg>