
<svg width="46" height="45" viewBox="0 0 46 45" fill="none" xmlns="http://www.w3.org/2000/svg">
<g filter="url(#filter0_d_1074_991)">
<g clip-path="url(#clip0_1074_991)">
<path d="M2 9C2 4.58172 5.58172 1 10 1H36C40.4183 1 44 4.58172 44 9V34C44 38.4183 40.4183 42 36 42H2V9Z" fill="#00AAFF"/>
<g clip-path="url(#clip1_1074_991)">
<path d="M21.5833 22.4582C21.9948 23.0084 22.5199 23.4637 23.1229 23.7931C23.7258 24.1226 24.3926 24.3185 25.078 24.3675C25.7633 24.4166 26.4512 24.3177 27.095 24.0776C27.7387 23.8374 28.3233 23.4617 28.8091 22.9757L31.6841 20.1007C32.5569 19.197 33.0399 17.9866 33.029 16.7303C33.0181 15.4739 32.5141 14.2721 31.6257 13.3837C30.7373 12.4953 29.5355 11.9913 28.2791 11.9804C27.0228 11.9695 25.8124 12.4525 24.9087 13.3253L23.2603 14.9641" stroke="white" stroke-width="2" stroke-linecap="round" stroke-linejoin="round"/>
<path d="M25.4166 20.5417C25.0051 19.9915 24.48 19.5362 23.877 19.2068C23.274 18.8773 22.6073 18.6814 21.9219 18.6324C21.2366 18.5833 20.5487 18.6822 19.9049 18.9223C19.2611 19.1624 18.6765 19.5382 18.1908 20.0242L15.3158 22.8992C14.4429 23.8029 13.96 25.0133 13.9709 26.2696C13.9818 27.526 14.4857 28.7278 15.3741 29.6162C16.2626 30.5046 17.4644 31.0086 18.7207 31.0195C19.9771 31.0304 21.1875 30.5474 22.0912 29.6746L23.7299 28.0358" stroke="white" stroke-width="2" stroke-linecap="round" stroke-linejoin="round"/>
</g>
</g>
</g>
<defs>
<filter id="filter0_d_1074_991" x="0" y="0" width="46" height="45" filterUnits="userSpaceOnUse" color-interpolation-filters="sRGB">
<feFlood flood-opacity="0" result="BackgroundImageFix"/>
<feColorMatrix in="SourceAlpha" type="matrix" values="0 0 0 0 0 0 0 0 0 0 0 0 0 0 0 0 0 0 127 0" result="hardAlpha"/>
<feOffset dy="1"/>
<feGaussianBlur stdDeviation="1"/>
<feComposite in2="hardAlpha" operator="out"/>
<feColorMatrix type="matrix" values="0 0 0 0 0 0 0 0 0 0 0 0 0 0 0 0 0 0 0.2 0"/>
<feBlend mode="normal" in2="BackgroundImageFix" result="effect1_dropShadow_1074_991"/>
<feBlend mode="normal" in="SourceGraphic" in2="effect1_dropShadow_1074_991" result="shape"/>
</filter>
<clipPath id="clip0_1074_991">
<path d="M2 9C2 4.58172 5.58172 1 10 1H36C40.4183 1 44 4.58172 44 9V34C44 38.4183 40.4183 42 36 42H2V9Z" fill="white"/>
</clipPath>
<clipPath id="clip1_1074_991">
<rect width="23" height="23" fill="white" transform="translate(12 10)"/>
</clipPath>
</defs>
</svg>
