<svg width="46" height="45" viewBox="0 0 46 45" fill="none" xmlns="http://www.w3.org/2000/svg">
  <g filter="url(#filter0_d_560_604)">
    <g clip-path="url(#clip0_560_604)">
      <path d="M2 9C2 4.58172 5.58172 1 10 1H36C40.4183 1 44 4.58172 44 9V34C44 38.4183 40.4183 42 36 42H2V9Z"
        fill="#34C759" />
      <g clip-path="url(#clip1_560_604)">
        <path fill-rule="evenodd" clip-rule="evenodd"
          d="M12 31.3555C12 31.0204 12.2578 30.7498 12.58 30.7498H33.4071C33.7293 30.7498 34 31.0204 34 31.3555C34 31.6777 33.7293 31.9483 33.4071 31.9483H12.58C12.2578 31.9483 12 31.6777 12 31.3555Z"
          fill="white" />
        <path fill-rule="evenodd" clip-rule="evenodd"
          d="M16.7761 30.1441C16.2238 30.1441 15.7761 29.6964 15.7761 29.1441V25.6332C15.7761 25.0923 15.3376 24.6537 14.7966 24.6537C14.6677 24.6537 14.5646 24.5764 14.5131 24.4604C14.4615 24.3573 14.4873 24.2284 14.5775 24.1382L16.5494 22.1663C16.6654 22.0503 16.8587 22.0503 16.9747 22.1663L18.9595 24.1382C19.0368 24.2284 19.0626 24.3573 19.0239 24.4604C18.9724 24.5764 18.8693 24.6537 18.7404 24.6537C18.2208 24.6537 17.7996 25.075 17.7996 25.5946V29.1441C17.7996 29.6964 17.3518 30.1441 16.7996 30.1441H16.7761Z"
          fill="white" />
        <path fill-rule="evenodd" clip-rule="evenodd"
          d="M20.9003 30.1442C20.3481 30.1442 19.9003 29.6965 19.9003 29.1442V23.4811C19.9003 22.9614 19.4791 22.5402 18.9595 22.5402C18.8435 22.5402 18.7275 22.4758 18.676 22.3598C18.6373 22.2438 18.6631 22.1149 18.7404 22.0376L20.7252 20.0528C20.8412 19.9368 21.0345 19.9368 21.1505 20.0528L23.1224 22.0376C23.2126 22.1149 23.2384 22.2438 23.1868 22.3598C23.1353 22.4758 23.0321 22.5402 22.9033 22.5402C22.3837 22.5402 21.9624 22.9614 21.9624 23.4811V29.1442C21.9624 29.6965 21.5147 30.1442 20.9624 30.1442H20.9003Z"
          fill="white" />
        <path fill-rule="evenodd" clip-rule="evenodd"
          d="M25.0244 30.1441C24.4721 30.1441 24.0244 29.6964 24.0244 29.1441V20.6456C24.0244 20.126 23.6031 19.7048 23.0835 19.7048C22.9675 19.7048 22.8515 19.6403 22.8 19.5243C22.7613 19.4083 22.7871 19.2795 22.8644 19.2021L24.8492 17.2174C24.9652 17.1014 25.1585 17.1014 25.2745 17.2174L27.2464 19.2021C27.3366 19.2795 27.3624 19.4083 27.3108 19.5243C27.2593 19.6403 27.1562 19.7048 27.0273 19.7048C26.5077 19.7048 26.0865 20.126 26.0865 20.6456V29.1441C26.0865 29.6964 25.6387 30.1441 25.0865 30.1441H25.0244Z"
          fill="white" />
        <path fill-rule="evenodd" clip-rule="evenodd"
          d="M29.2056 30.1441C28.6533 30.1441 28.2004 29.6964 28.2004 29.1441V17.1014C28.2004 16.5746 27.7734 16.1476 27.2466 16.1476C27.1534 16.1476 27.0603 16.0977 27.0072 16.018C26.9809 15.9786 26.962 15.9337 26.9537 15.8871C26.938 15.7992 26.969 15.7035 27.0404 15.6321L29.0123 13.6602C29.1283 13.5442 29.3216 13.5442 29.4376 13.6602L31.4095 15.6321C31.4809 15.7035 31.5119 15.7992 31.4962 15.8871C31.4879 15.9337 31.469 15.9786 31.4427 16.018C31.3897 16.0977 31.2965 16.1476 31.2033 16.1476C30.6552 16.1476 30.2109 16.5919 30.2109 17.14V29.1441C30.2109 29.6964 29.7579 30.1441 29.2056 30.1441Z"
          fill="white" />
        <path fill-rule="evenodd" clip-rule="evenodd"
          d="M13.843 22.2437C13.7528 22.2437 13.6626 22.205 13.611 22.1277L12.7088 20.9677C12.6573 20.9033 12.6315 20.826 12.6444 20.7486C12.6573 20.6584 12.696 20.594 12.7604 20.5424L25.1072 11.2759L24.553 10.5284C24.4886 10.4253 24.4757 10.2964 24.5401 10.1933C24.6046 10.0902 24.7206 10.0386 24.8365 10.0515L27.5946 10.4382C27.7493 10.451 27.8653 10.6057 27.8524 10.7732L27.4657 13.5184C27.4399 13.6473 27.3497 13.7375 27.2337 13.7762C27.1177 13.8019 26.9889 13.7633 26.9244 13.6602L26.3702 12.9127L14.0234 22.1792C13.9719 22.2179 13.9074 22.2437 13.843 22.2437Z"
          fill="white" />
      </g>
    </g>
  </g>
  <defs>
    <filter id="filter0_d_560_604" x="0" y="0" width="46" height="45" filterUnits="userSpaceOnUse"
      color-interpolation-filters="sRGB">
      <feFlood flood-opacity="0" result="BackgroundImageFix" />
      <feColorMatrix in="SourceAlpha" type="matrix" values="0 0 0 0 0 0 0 0 0 0 0 0 0 0 0 0 0 0 127 0"
        result="hardAlpha" />
      <feOffset dy="1" />
      <feGaussianBlur stdDeviation="1" />
      <feComposite in2="hardAlpha" operator="out" />
      <feColorMatrix type="matrix" values="0 0 0 0 0 0 0 0 0 0 0 0 0 0 0 0 0 0 0.2 0" />
      <feBlend mode="normal" in2="BackgroundImageFix" result="effect1_dropShadow_560_604" />
      <feBlend mode="normal" in="SourceGraphic" in2="effect1_dropShadow_560_604" result="shape" />
    </filter>
    <clipPath id="clip0_560_604">
      <path d="M2 9C2 4.58172 5.58172 1 10 1H36C40.4183 1 44 4.58172 44 9V34C44 38.4183 40.4183 42 36 42H2V9Z"
        fill="white" />
    </clipPath>
    <clipPath id="clip1_560_604">
      <rect width="22" height="22" fill="white" transform="translate(12 10)" />
    </clipPath>
  </defs>
</svg>