
<svg width="46" height="45" viewBox="0 0 46 45" fill="none" xmlns="http://www.w3.org/2000/svg">
<g filter="url(#filter0_d_1074_940)">
<g clip-path="url(#clip0_1074_940)">
<path d="M2 9C2 4.58172 5.58172 1 10 1H36C40.4183 1 44 4.58172 44 9V34C44 38.4183 40.4183 42 36 42H2V9Z" fill="#00AAFF"/>
<path fill-rule="evenodd" clip-rule="evenodd" d="M19.1796 15.8462C19.1796 16.2708 18.835 16.6154 18.4103 16.6154C17.9857 16.6154 17.6411 16.2708 17.6411 15.8462V13.7949C17.6411 12.8031 18.4452 12 19.436 12H26.6155C27.6062 12 28.4103 12.8031 28.4103 13.7949V15.8462C28.4103 16.2708 28.0657 16.6154 27.6411 16.6154C27.2165 16.6154 26.8719 16.2708 26.8719 15.8462V13.7949C26.8719 13.6533 26.757 13.5385 26.6155 13.5385H19.436C19.2944 13.5385 19.1796 13.6533 19.1796 13.7949V15.8462Z" fill="white"/>
<path fill-rule="evenodd" clip-rule="evenodd" d="M25.0767 22.5128C25.0767 22.2297 24.8469 22 24.5639 22C23.7751 22 22.2757 22 21.4869 22C21.2039 22 20.9741 22.2297 20.9741 22.5128C20.9741 23.1949 20.9741 24.3949 20.9741 25.0769C20.9741 25.36 21.2039 25.5897 21.4869 25.5897C22.2757 25.5897 23.7751 25.5897 24.5639 25.5897C24.8469 25.5897 25.0767 25.36 25.0767 25.0769C25.0767 24.3949 25.0767 23.1949 25.0767 22.5128Z" fill="white"/>
<path fill-rule="evenodd" clip-rule="evenodd" d="M26.1024 24.6194L32.9404 22.9096C33.1506 22.8573 33.3506 22.7814 33.5383 22.686V29.1794C33.5383 30.7373 32.2758 31.9999 30.7178 31.9999H15.3332C13.7753 31.9999 12.5127 30.7373 12.5127 29.1794V22.686C12.7004 22.7814 12.9004 22.8573 13.1106 22.9096L19.9486 24.6194V25.0768C19.9486 25.926 20.6378 26.6153 21.4871 26.6153H24.564C25.4132 26.6153 26.1024 25.926 26.1024 25.0768V24.6194Z" fill="white"/>
<path fill-rule="evenodd" clip-rule="evenodd" d="M19.9487 23.562L13.36 21.9149C12.561 21.7149 12 20.9969 12 20.1733V16.8718C12 16.3959 12.1887 15.9395 12.5262 15.6031C12.8626 15.2656 13.319 15.0769 13.7949 15.0769H32.2564C32.7323 15.0769 33.1887 15.2656 33.5251 15.6031C33.8626 15.9395 34.0513 16.3959 34.0513 16.8718V20.1733C34.0513 20.9969 33.4903 21.7149 32.6913 21.9149L26.1026 23.562V22.5128C26.1026 21.6636 25.4133 20.9743 24.5641 20.9743H21.4872C20.6379 20.9743 19.9487 21.6636 19.9487 22.5128V23.562Z" fill="white"/>
</g>
</g>
<defs>
<filter id="filter0_d_1074_940" x="0" y="0" width="46" height="45" filterUnits="userSpaceOnUse" color-interpolation-filters="sRGB">
<feFlood flood-opacity="0" result="BackgroundImageFix"/>
<feColorMatrix in="SourceAlpha" type="matrix" values="0 0 0 0 0 0 0 0 0 0 0 0 0 0 0 0 0 0 127 0" result="hardAlpha"/>
<feOffset dy="1"/>
<feGaussianBlur stdDeviation="1"/>
<feComposite in2="hardAlpha" operator="out"/>
<feColorMatrix type="matrix" values="0 0 0 0 0 0 0 0 0 0 0 0 0 0 0 0 0 0 0.2 0"/>
<feBlend mode="normal" in2="BackgroundImageFix" result="effect1_dropShadow_1074_940"/>
<feBlend mode="normal" in="SourceGraphic" in2="effect1_dropShadow_1074_940" result="shape"/>
</filter>
<clipPath id="clip0_1074_940">
<path d="M2 9C2 4.58172 5.58172 1 10 1H36C40.4183 1 44 4.58172 44 9V34C44 38.4183 40.4183 42 36 42H2V9Z" fill="white"/>
</clipPath>
</defs>
</svg>
