<svg width="46" height="45" viewBox="0 0 46 45" fill="none" xmlns="http://www.w3.org/2000/svg">
  <g filter="url(#filter0_d_560_614)">
    <g clip-path="url(#clip0_560_614)">
      <path d="M2 9C2 4.58172 5.58172 1 10 1H36C40.4183 1 44 4.58172 44 9V34C44 38.4183 40.4183 42 36 42H2V9Z"
        fill="#FF9500" />
      <g clip-path="url(#clip1_560_614)">
        <path
          d="M23.9715 13.371V11.9622C24.8386 12.0326 25.6947 12.2001 26.5233 12.4618L27.1247 10.6397C24.4452 9.78805 21.562 9.78805 18.8825 10.6397L19.484 12.4618C20.3125 12.2001 21.1687 12.0326 22.0358 11.9622V13.371C19.4859 13.6169 17.1298 14.8204 15.4554 16.732C13.781 18.6437 12.9168 21.1171 13.0417 23.6398C13.1665 26.1625 14.271 28.5411 16.1262 30.283C17.9814 32.0249 20.4453 32.9964 23.0073 32.9964C25.5693 32.9964 28.0331 32.0249 29.8883 30.283C31.7435 28.5411 32.848 26.1625 32.9729 23.6398C33.0977 21.1171 32.2335 18.6437 30.5591 16.732C28.8847 14.8204 26.5286 13.6169 23.9788 13.371H23.9715ZM22.9981 31.0846C21.412 31.0846 19.8614 30.6209 18.5425 29.7521C17.2237 28.8834 16.1957 27.6486 15.5887 26.2039C14.9817 24.7593 14.8229 23.1696 15.1324 21.6359C15.4418 20.1022 16.2056 18.6935 17.3272 17.5878C18.4488 16.4821 19.8778 15.7291 21.4335 15.424C22.9893 15.1189 24.6018 15.2755 26.0672 15.8739C27.5327 16.4723 28.7852 17.4857 29.6664 18.7859C30.5477 20.086 31.018 21.6146 31.018 23.1783C31.018 25.2752 30.1731 27.2862 28.6691 28.7689C27.165 30.2516 25.1252 31.0846 22.9981 31.0846Z"
          fill="white" />
        <path
          d="M22.9981 31.0846C21.412 31.0846 19.8614 30.6209 18.5425 29.7521C17.2237 28.8834 16.1957 27.6486 15.5887 26.2039C14.9817 24.7593 14.8229 23.1696 15.1324 21.6359C15.4418 20.1022 16.2056 18.6935 17.3272 17.5878C18.4488 16.4821 19.8778 15.7291 21.4335 15.424C22.9893 15.1189 24.6018 15.2755 26.0672 15.8739C27.5327 16.4723 28.7852 17.4857 29.6664 18.7859C30.5477 20.086 31.018 21.6146 31.018 23.1783C31.018 25.2752 30.1731 27.2862 28.6691 28.7689C27.165 30.2516 25.1252 31.0846 22.9981 31.0846Z"
          fill="white" />
        <path
          d="M32.4141 16.7924L34.0144 15.7142C33.0899 14.3889 31.9258 13.2425 30.5804 12.3325L29.4868 13.9102C30.6335 14.6859 31.6258 15.6629 32.4141 16.7924Z"
          fill="white" />
        <path
          d="M16.5349 13.8994L15.4413 12.3218C14.0932 13.2311 12.9267 14.3775 12 15.7035L13.6003 16.7816C14.3908 15.6515 15.3856 14.6745 16.5349 13.8994Z"
          fill="white" />
        <path
          d="M25.9183 24.3752L23.9717 22.9377V17.6657C23.9798 17.535 23.9607 17.404 23.9156 17.2809C23.8704 17.1577 23.8002 17.045 23.7092 16.9496C23.6181 16.8542 23.5083 16.7782 23.3864 16.7262C23.2644 16.6743 23.133 16.6475 23.0002 16.6475C22.8673 16.6475 22.7359 16.6743 22.614 16.7262C22.4921 16.7782 22.3822 16.8542 22.2912 16.9496C22.2002 17.045 22.1299 17.1577 22.0848 17.2809C22.0397 17.404 22.0206 17.535 22.0287 17.6657V23.4157C22.0276 23.4898 22.0374 23.5636 22.0578 23.6349C22.0718 23.7057 22.0977 23.7737 22.1344 23.8362C22.1577 23.9 22.1937 23.9586 22.2401 24.0087C22.251 24.0209 22.2608 24.0342 22.2693 24.0482C22.311 24.0946 22.3574 24.1368 22.4078 24.174L22.4479 24.2027L26.2974 27.049C26.4637 27.1773 26.6695 27.2458 26.8807 27.243C27.0336 27.2443 27.1848 27.2109 27.3226 27.1455C27.4604 27.0801 27.5811 26.9844 27.6754 26.8657C27.8291 26.662 27.8947 26.4066 27.8578 26.1554C27.821 25.9041 27.6846 25.6775 27.4786 25.5252L25.9183 24.3752Z"
          fill="#FFCC00" />
      </g>
    </g>
  </g>
  <defs>
    <filter id="filter0_d_560_614" x="0" y="0" width="46" height="45" filterUnits="userSpaceOnUse"
      color-interpolation-filters="sRGB">
      <feFlood flood-opacity="0" result="BackgroundImageFix" />
      <feColorMatrix in="SourceAlpha" type="matrix" values="0 0 0 0 0 0 0 0 0 0 0 0 0 0 0 0 0 0 127 0"
        result="hardAlpha" />
      <feOffset dy="1" />
      <feGaussianBlur stdDeviation="1" />
      <feComposite in2="hardAlpha" operator="out" />
      <feColorMatrix type="matrix" values="0 0 0 0 0 0 0 0 0 0 0 0 0 0 0 0 0 0 0.2 0" />
      <feBlend mode="normal" in2="BackgroundImageFix" result="effect1_dropShadow_560_614" />
      <feBlend mode="normal" in="SourceGraphic" in2="effect1_dropShadow_560_614" result="shape" />
    </filter>
    <clipPath id="clip0_560_614">
      <path d="M2 9C2 4.58172 5.58172 1 10 1H36C40.4183 1 44 4.58172 44 9V34C44 38.4183 40.4183 42 36 42H2V9Z"
        fill="white" />
    </clipPath>
    <clipPath id="clip1_560_614">
      <rect width="22" height="23" fill="white" transform="translate(12 10)" />
    </clipPath>
  </defs>
</svg>