
<svg width="46" height="45" viewBox="0 0 46 45" fill="none" xmlns="http://www.w3.org/2000/svg">
<g filter="url(#filter0_d_1074_959)">
<g clip-path="url(#clip0_1074_959)">
<path d="M2 9C2 4.58172 5.58172 1 10 1H36C40.4183 1 44 4.58172 44 9V34C44 38.4183 40.4183 42 36 42H2V9Z" fill="#00AAFF"/>
<path d="M23 32L21.405 30.5831C19.5533 28.9301 18.0225 27.5041 16.8125 26.3052C15.6025 25.1063 14.64 24.0298 13.925 23.0758C13.21 22.1217 12.7106 21.2454 12.4268 20.4469C12.143 19.6483 12.0007 18.8309 12 17.9945C12 16.287 12.5775 14.861 13.7325 13.7166C14.8875 12.5722 16.3267 12 18.05 12C19.0033 12 19.9108 12.1998 20.7725 12.5995C21.6342 12.9991 22.3767 13.5622 23 14.2888C23.6233 13.5622 24.3658 12.9991 25.2275 12.5995C26.0892 12.1998 26.9967 12 27.95 12C29.6733 12 31.1125 12.5722 32.2675 13.7166C33.4225 14.861 34 16.287 34 17.9945C34 18.8302 33.8581 19.6476 33.5743 20.4469C33.2905 21.2461 32.7907 22.1224 32.075 23.0758C31.3593 24.0291 30.3968 25.1055 29.1875 26.3052C27.9782 27.5048 26.4474 28.9308 24.595 30.5831L23 32Z" fill="white"/>
</g>
</g>
<defs>
<filter id="filter0_d_1074_959" x="0" y="0" width="46" height="45" filterUnits="userSpaceOnUse" color-interpolation-filters="sRGB">
<feFlood flood-opacity="0" result="BackgroundImageFix"/>
<feColorMatrix in="SourceAlpha" type="matrix" values="0 0 0 0 0 0 0 0 0 0 0 0 0 0 0 0 0 0 127 0" result="hardAlpha"/>
<feOffset dy="1"/>
<feGaussianBlur stdDeviation="1"/>
<feComposite in2="hardAlpha" operator="out"/>
<feColorMatrix type="matrix" values="0 0 0 0 0 0 0 0 0 0 0 0 0 0 0 0 0 0 0.2 0"/>
<feBlend mode="normal" in2="BackgroundImageFix" result="effect1_dropShadow_1074_959"/>
<feBlend mode="normal" in="SourceGraphic" in2="effect1_dropShadow_1074_959" result="shape"/>
</filter>
<clipPath id="clip0_1074_959">
<path d="M2 9C2 4.58172 5.58172 1 10 1H36C40.4183 1 44 4.58172 44 9V34C44 38.4183 40.4183 42 36 42H2V9Z" fill="white"/>
</clipPath>
</defs>
</svg>
