<svg width="22" height="23" viewBox="0 0 31 28" fill="none"
                                xmlns="http://www.w3.org/2000/svg">
                                <path
                                    d="M3.875 5C3.875 3.67392 4.38532 2.40215 5.2937 1.46447C6.20208 0.526784 7.43411 0 8.71875 0H26.1562C27.4409 0 28.6729 0.526784 29.5813 1.46447C30.4897 2.40215 31 3.67392 31 5V19C31 20.3261 30.4897 21.5979 29.5813 22.5355C28.6729 23.4732 27.4409 24 26.1562 24H8.71875C7.43411 24 6.20208 23.4732 5.2937 22.5355C4.38532 21.5979 3.875 20.3261 3.875 19V5ZM16.9454 13.862L5.8125 7.922V19C5.8125 19.7956 6.11869 20.5587 6.66372 21.1213C7.20875 21.6839 7.94796 22 8.71875 22H26.1562C26.927 22 27.6663 21.6839 28.2113 21.1213C28.7563 20.5587 29.0625 19.7956 29.0625 19V7.926L17.9296 13.862L17.7708 13.938C17.6363 13.9891 17.4925 14.0088 17.3498 13.9957C17.2071 13.9826 17.0689 13.9369 16.9454 13.862ZM26.1562 2H8.71875C7.94796 2 7.20875 2.31607 6.66372 2.87868C6.11869 3.44129 5.8125 4.20435 5.8125 5V5.602L17.4375 11.84L29.0625 5.604V5C29.0625 4.20435 28.7563 3.44129 28.2113 2.87868C27.6663 2.31607 26.927 2 26.1562 2ZM22.2812 28C23.8661 28 25.2728 27.214 26.1562 26H8.71875C6.92025 26 5.19541 25.2625 3.92368 23.9497C2.65195 22.637 1.9375 20.8565 1.9375 19V5C0.761438 5.912 0 7.364 0 9V19C0 21.3869 0.91858 23.6761 2.55366 25.364C4.18875 27.0518 6.40639 28 8.71875 28H22.2812Z"
                                    fill="#423D55" />
                            </svg>  
