
<svg width="56" height="57" viewBox="0 0 64 63" fill="none" xmlns="http://www.w3.org/2000/svg">
<g filter="url(#filter0_d_1459_842)">
<g clip-path="url(#clip0_1459_842)">
<path d="M2 9C2 4.58172 5.58172 1 10 1H54C58.4183 1 62 4.58172 62 9V52C62 56.4183 58.4183 60 54 60H2V9Z" fill="#FF3B30"/>
<path d="M22.1826 17.5098L32.0009 12L41.821 17.5098L38.2213 19.5492L32.0009 16.0698L25.7913 19.5492L22.1826 17.5098ZM41.8192 24.4704L38.2195 22.4292L32.0009 25.9104L25.7913 22.4292L22.1826 24.4704V28.5384L28.3814 32.0196V38.9694L32.0009 41.0106L35.6115 38.9694V32.0214L41.821 28.5402L41.8192 24.4704ZM41.8192 35.5008V31.4202L38.2195 33.4596V37.5294L41.8192 35.5008ZM44.3913 36.9408L38.1817 40.4094V44.49L48 38.9694V27.9498L44.3913 29.9802V36.9408ZM40.7807 20.9892L44.3805 23.0304V27.0984L48 25.0698V20.9892L44.3913 18.9498L40.7807 21V20.9892ZM28.3814 41.8908V45.9588L32.0009 48L35.6115 45.9606V41.898L32.0009 43.932L28.3921 41.8908H28.3814ZM22.1826 35.49L25.7823 37.5294V33.4614L22.1826 31.4202V35.5008V35.49ZM28.3814 20.9892L32.0009 23.0304L35.6115 20.9892L32.0009 18.9498L28.3921 21L28.3814 20.9892ZM19.6124 23.0304L23.2211 20.9892L19.6214 18.9498L16.0036 21V25.0806L19.6124 27.111V23.0304ZM19.6124 29.9802L16 27.9498V38.9694L25.8201 44.49V40.4004L19.6214 36.93V29.9694L19.6124 29.9802Z" fill="white"/>
</g>
</g>
<defs>
<filter id="filter0_d_1459_842" x="0" y="0" width="64" height="63" filterUnits="userSpaceOnUse" color-interpolation-filters="sRGB">
<feFlood flood-opacity="0" result="BackgroundImageFix"/>
<feColorMatrix in="SourceAlpha" type="matrix" values="0 0 0 0 0 0 0 0 0 0 0 0 0 0 0 0 0 0 127 0" result="hardAlpha"/>
<feOffset dy="1"/>
<feGaussianBlur stdDeviation="1"/>
<feComposite in2="hardAlpha" operator="out"/>
<feColorMatrix type="matrix" values="0 0 0 0 0 0 0 0 0 0 0 0 0 0 0 0 0 0 0.2 0"/>
<feBlend mode="normal" in2="BackgroundImageFix" result="effect1_dropShadow_1459_842"/>
<feBlend mode="normal" in="SourceGraphic" in2="effect1_dropShadow_1459_842" result="shape"/>
</filter>
<clipPath id="clip0_1459_842">
<path d="M2 9C2 4.58172 5.58172 1 10 1H54C58.4183 1 62 4.58172 62 9V52C62 56.4183 58.4183 60 54 60H2V9Z" fill="white"/>
</clipPath>
</defs>
</svg>
