
<svg width="56" height="57" viewBox="0 0 64 63" fill="none" xmlns="http://www.w3.org/2000/svg">
<g filter="url(#filter0_d_1459_832)">
<g clip-path="url(#clip0_1459_832)">
<path d="M2 9C2 4.58172 5.58172 1 10 1H54C58.4183 1 62 4.58172 62 9V52C62 56.4183 58.4183 60 54 60H2V9Z" fill="#FF9500"/>
<g clip-path="url(#clip1_1459_832)">
<path d="M36.9341 23.8751C38.1849 23.6033 39.488 23.7303 40.665 24.2388C41.842 24.7473 42.8355 25.6123 43.5096 26.7157C44.012 27.5412 44.3187 28.4739 44.4053 29.4402C44.4919 30.4065 44.3562 31.38 44.0088 32.284C43.6614 33.188 43.1118 33.9977 42.4034 34.6493C41.695 35.3009 40.8472 35.7765 39.9267 36.0387C38.6949 36.391 37.3859 36.3482 36.179 35.9163C34.972 35.4844 33.9261 34.6845 33.1844 33.626C32.4454 32.5673 32.0486 31.3018 32.0487 30.0043H26.5713C26.5704 32.5883 27.4028 35.1015 28.9413 37.1604C30.0949 38.6976 31.6004 39.9261 33.3274 40.7393C35.0544 41.5526 36.9508 41.9261 38.8522 41.8274C40.7536 41.7287 42.6025 41.1609 44.2388 40.1732C45.8751 39.1854 47.2494 37.8075 48.2424 36.1589C49.5667 33.9511 50.1413 31.3636 49.8782 28.7927C49.6151 26.2218 48.5287 23.8093 46.7856 21.9249C45.0401 20.0375 42.7346 18.7808 40.2203 18.3462C37.7059 17.9117 35.1205 18.3231 32.8579 19.5177C34.5606 20.5929 35.9634 22.0931 36.9323 23.8751" fill="white"/>
<path d="M27.066 36.155C25.8149 36.4272 24.5114 36.3004 23.3341 35.7919C22.1567 35.2834 21.1629 34.4181 20.4887 33.3144C19.8173 32.2101 19.5004 30.9215 19.5817 29.6266C19.663 28.3316 20.1386 27.0943 20.9426 26.0854C21.7472 25.0752 22.8405 24.343 24.072 23.9895C25.3036 23.636 26.6128 23.6787 27.8195 24.1116C29.0253 24.5434 30.0698 25.3437 30.8093 26.4024C31.5489 27.4611 31.9472 28.7263 31.9496 30.024H37.427C37.4273 27.4398 36.5943 24.9265 35.0552 22.8679C33.5112 20.8089 31.3472 19.3178 28.8919 18.621C26.4367 17.9243 23.8245 18.06 21.4522 19.0076C19.0802 19.9534 17.0788 21.6617 15.754 23.8712C14.43 26.0792 13.8557 28.6669 14.1191 31.2378C14.3826 33.8087 15.4693 36.221 17.2127 38.1052C18.9582 39.9926 21.2637 41.2493 23.778 41.6839C26.2924 42.1185 28.8777 41.7071 31.1404 40.5124C29.4377 39.4372 28.0349 37.937 27.066 36.155Z" fill="white"/>
</g>
</g>
</g>
<defs>
<filter id="filter0_d_1459_832" x="0" y="0" width="64" height="63" filterUnits="userSpaceOnUse" color-interpolation-filters="sRGB">
<feFlood flood-opacity="0" result="BackgroundImageFix"/>
<feColorMatrix in="SourceAlpha" type="matrix" values="0 0 0 0 0 0 0 0 0 0 0 0 0 0 0 0 0 0 127 0" result="hardAlpha"/>
<feOffset dy="1"/>
<feGaussianBlur stdDeviation="1"/>
<feComposite in2="hardAlpha" operator="out"/>
<feColorMatrix type="matrix" values="0 0 0 0 0 0 0 0 0 0 0 0 0 0 0 0 0 0 0.2 0"/>
<feBlend mode="normal" in2="BackgroundImageFix" result="effect1_dropShadow_1459_832"/>
<feBlend mode="normal" in="SourceGraphic" in2="effect1_dropShadow_1459_832" result="shape"/>
</filter>
<clipPath id="clip0_1459_832">
<path d="M2 9C2 4.58172 5.58172 1 10 1H54C58.4183 1 62 4.58172 62 9V52C62 56.4183 58.4183 60 54 60H2V9Z" fill="white"/>
</clipPath>
<clipPath id="clip1_1459_832">
<rect width="36" height="24" fill="white" transform="translate(14 18)"/>
</clipPath>
</defs>
</svg>
