
<svg width="56" height="57" viewBox="0 0 64 63" fill="none" xmlns="http://www.w3.org/2000/svg">
<g filter="url(#filter0_d_1459_819)">
<g clip-path="url(#clip0_1459_819)">
<path d="M2 9C2 4.58172 5.58172 1 10 1H54C58.4183 1 62 4.58172 62 9V52C62 56.4183 58.4183 60 54 60H2V9Z" fill="#34C759"/>
<g clip-path="url(#clip1_1459_819)">
<path d="M32.2844 15C29.9021 15.0008 27.5541 15.5693 25.4347 16.6585C23.3153 17.7477 21.4854 19.3263 20.0962 21.2638C16.4589 26.3575 16.5013 33.4813 20.1811 38.5401C20.2985 38.7026 20.4259 38.8576 20.5457 38.9988C20.8829 39.3813 21.2238 39.7363 21.5222 40.0238C21.7469 40.2301 22.0042 40.4551 22.2901 40.6701C22.8112 41.0926 23.3702 41.4563 23.9671 41.7613C23.4314 41.5113 22.9257 41.2601 22.4974 41.0363C22.4037 40.9913 22.3238 40.9401 22.2389 40.8963C21.9642 40.7588 21.712 40.6113 21.4697 40.4726C21.1411 40.2793 20.8291 40.0589 20.537 39.8138C20.346 41.1188 19.5955 42.1826 18.2994 42.3138C17.0819 42.4338 17.1082 44.0426 18.2994 44.1888C21.6046 44.6013 25.1046 44.9988 28.5634 44.9988C30.6611 45.0163 32.7576 44.8388 34.8229 44.4663C35.2974 44.3438 35.7694 44.2388 36.1702 44.1288C43.0529 42.2163 47.4769 35.5588 46.9587 28.52C46.9612 28.4742 46.9612 28.4283 46.9587 28.3825C46.197 22.32 42.0939 17.1325 36.0991 15.5063C34.855 15.1698 33.5719 14.9995 32.2832 15H32.2844ZM32.1496 18.7813C32.3284 18.7875 32.501 18.8486 32.644 18.9563C33.4954 19.5642 34.2746 20.2675 34.9665 21.0525C36.1517 20.8466 37.3523 20.7437 38.5552 20.745H39.0946C40.2808 20.7788 40.2958 22.62 39.1283 22.62H38.5752C37.8027 22.62 37.0339 22.6688 36.2689 22.7663C37.1713 24.1274 37.911 25.59 38.4728 27.1238C39.6553 26.8813 40.8577 26.745 42.0652 26.7163H42.0901C43.2764 26.7163 43.2576 28.5688 42.0652 28.5925C41.0621 28.6209 40.0686 28.7309 39.0846 28.9225C39.5995 30.6479 39.9724 32.4125 40.1997 34.1988C40.2708 34.7975 39.8438 35.0925 39.3756 35.0925C39.1204 35.0999 38.8716 35.0128 38.6767 34.8479C38.4817 34.683 38.3544 34.4518 38.3192 34.1988C38.2375 33.6087 38.1417 33.0206 38.032 32.435C37.8222 31.3955 37.5576 30.3678 37.2391 29.3563C37.0512 28.7577 36.8409 28.1665 36.6085 27.5838C36.0021 25.9951 35.192 24.4921 34.1986 23.1125C33.8702 23.1988 33.5505 23.2688 33.2222 23.3625C32.4553 23.5711 31.7025 23.8283 30.9683 24.1325C31.8766 25.6311 32.6289 27.219 33.2134 28.8713C33.9959 28.4955 34.7992 28.1696 35.6233 27.8938L36.5136 29.5813C35.58 29.8752 34.6701 30.2396 33.7915 30.6713C34.397 32.8078 34.7252 35.0134 34.768 37.2338C34.7727 37.3557 34.7519 37.4773 34.7069 37.5907C34.6619 37.7042 34.5937 37.8069 34.5067 37.8924C34.4197 37.9778 34.3158 38.0441 34.2016 38.087C34.0875 38.1299 33.9657 38.1484 33.844 38.1413C33.7212 38.1476 33.5984 38.1287 33.4831 38.0858C33.3679 38.0429 33.2626 37.9769 33.1737 37.8918C33.0849 37.8067 33.0143 37.7043 32.9664 37.591C32.9184 37.4776 32.8942 37.3556 32.895 37.2326V36.9476C32.836 35.13 32.5687 33.3253 32.0984 31.5688C31.9411 30.9464 31.754 30.3319 31.5377 29.7275C30.9695 28.0521 30.216 26.4454 29.2914 24.9375C29.0284 25.076 28.7718 25.2261 28.5222 25.3875C27.3734 26.0725 26.322 26.9125 25.398 27.8813C25.3186 27.9699 25.2219 28.0413 25.1139 28.0911C25.0059 28.141 24.8889 28.1683 24.77 28.1713C24.067 28.1713 23.4301 27.2288 24.067 26.5588C25.1772 25.3962 26.4489 24.3997 27.8429 23.6C27.9645 23.5242 28.091 23.4521 28.2225 23.3838C27.9453 22.9938 27.649 22.6192 27.3335 22.26C27.3065 22.2209 27.2773 22.1833 27.2461 22.1475C26.6405 21.455 27.2748 20.515 27.9578 20.515C28.0775 20.5178 28.1951 20.547 28.3021 20.6006C28.4092 20.6542 28.5031 20.7308 28.5771 20.825C29.0516 21.3767 29.5007 21.95 29.9244 22.545L29.9407 22.5538C30.7202 22.2077 31.5225 21.9154 32.3418 21.6788C32.5042 21.6246 32.669 21.5792 32.8363 21.5425C32.5073 21.2117 32.1524 20.9079 31.775 20.6338C31.7508 20.6112 31.7244 20.5911 31.6963 20.5738C30.8897 19.995 31.3929 18.7813 32.1496 18.7813ZM30.4189 30.405L31.1057 32.205C29.9093 32.9856 28.7978 33.8892 27.7892 34.9013C27.5907 35.0638 27.3672 35.1738 27.1649 35.17C26.4469 35.17 25.8063 34.23 26.4656 33.57C27.6629 32.3725 28.9887 31.3111 30.4189 30.405Z" fill="white"/>
</g>
</g>
</g>
<defs>
<filter id="filter0_d_1459_819" x="0" y="0" width="64" height="63" filterUnits="userSpaceOnUse" color-interpolation-filters="sRGB">
<feFlood flood-opacity="0" result="BackgroundImageFix"/>
<feColorMatrix in="SourceAlpha" type="matrix" values="0 0 0 0 0 0 0 0 0 0 0 0 0 0 0 0 0 0 127 0" result="hardAlpha"/>
<feOffset dy="1"/>
<feGaussianBlur stdDeviation="1"/>
<feComposite in2="hardAlpha" operator="out"/>
<feColorMatrix type="matrix" values="0 0 0 0 0 0 0 0 0 0 0 0 0 0 0 0 0 0 0.2 0"/>
<feBlend mode="normal" in2="BackgroundImageFix" result="effect1_dropShadow_1459_819"/>
<feBlend mode="normal" in="SourceGraphic" in2="effect1_dropShadow_1459_819" result="shape"/>
</filter>
<clipPath id="clip0_1459_819">
<path d="M2 9C2 4.58172 5.58172 1 10 1H54C58.4183 1 62 4.58172 62 9V52C62 56.4183 58.4183 60 54 60H2V9Z" fill="white"/>
</clipPath>
<clipPath id="clip1_1459_819">
<rect width="30" height="30" fill="white" transform="translate(17 15)"/>
</clipPath>
</defs>
</svg>
