<svg width="23" height="23" viewBox="0 0 32 31" fill="none"
                                xmlns="http://www.w3.org/2000/svg">
                                <path
                                    d="M4.64535 7.49144C5.39822 7.49144 6.12026 7.19205 6.65262 6.65913C7.18498 6.12622 7.48406 5.40343 7.48406 4.64977C7.48406 3.89612 7.18498 3.17333 6.65262 2.64041C6.12026 2.10749 5.39822 1.80811 4.64535 1.80811C3.89248 1.80811 3.17044 2.10749 2.63808 2.64041C2.10572 3.17333 1.80664 3.89612 1.80664 4.64977C1.80664 5.40343 2.10572 6.12622 2.63808 6.65913C3.17044 7.19205 3.89248 7.49144 4.64535 7.49144ZM6.06471 28.8039C7.19401 28.8039 8.27707 28.3549 9.07561 27.5555C9.87415 26.7561 10.3228 25.6719 10.3228 24.5414C10.3228 23.411 9.87415 22.3268 9.07561 21.5274C8.27707 20.728 7.19401 20.2789 6.06471 20.2789C4.9354 20.2789 3.85234 20.728 3.0538 21.5274C2.25526 22.3268 1.80664 23.411 1.80664 24.5414C1.80664 25.6719 2.25526 26.7561 3.0538 27.5555C3.85234 28.3549 4.9354 28.8039 6.06471 28.8039ZM25.9357 30.2248C27.065 30.2248 28.148 29.7757 28.9466 28.9763C29.7451 28.1769 30.1937 27.0928 30.1937 25.9623C30.1937 24.8318 29.7451 23.7476 28.9466 22.9482C28.148 22.1489 27.065 21.6998 25.9357 21.6998C24.8064 21.6998 23.7233 22.1489 22.9248 22.9482C22.1262 23.7476 21.6776 24.8318 21.6776 25.9623C21.6776 27.0928 22.1262 28.1769 22.9248 28.9763C23.7233 29.7757 24.8064 30.2248 25.9357 30.2248ZM14.5808 18.8581C16.0866 18.8581 17.5307 18.2593 18.5954 17.1935C19.6601 16.1277 20.2583 14.6821 20.2583 13.1748C20.2583 11.6675 19.6601 10.2219 18.5954 9.15605C17.5307 8.09022 16.0866 7.49144 14.5808 7.49144C13.0751 7.49144 11.631 8.09022 10.5663 9.15605C9.50157 10.2219 8.90341 11.6675 8.90341 13.1748C8.90341 14.6821 9.50157 16.1277 10.5663 17.1935C11.631 18.2593 13.0751 18.8581 14.5808 18.8581ZM23.097 7.49144C23.8498 7.49144 24.5719 7.19205 25.1042 6.65913C25.6366 6.12622 25.9357 5.40343 25.9357 4.64977C25.9357 3.89612 25.6366 3.17333 25.1042 2.64041C24.5719 2.10749 23.8498 1.80811 23.097 1.80811C22.3441 1.80811 21.6221 2.10749 21.0897 2.64041C20.5573 3.17333 20.2583 3.89612 20.2583 4.64977C20.2583 5.40343 20.5573 6.12622 21.0897 6.65913C21.6221 7.19205 22.3441 7.49144 23.097 7.49144Z"
                                    stroke="#423D55" stroke-width="2" stroke-linecap="round" stroke-linejoin="round" />
                                <path
                                    d="M6.77441 6.78125L9.61312 9.62292M20.2583 7.49167L18.8389 8.9125M23.097 22.7656L18.8389 17.4375M8.90345 20.9896L11.7422 18.1479"
                                    stroke="#423D55" stroke-width="2" stroke-linecap="round" stroke-linejoin="round" />
                            </svg>
