<svg width="28" height="24" viewBox="0 0 30 32" fill="none"
                                xmlns="http://www.w3.org/2000/svg">
                                <g clip-path="url(#clip0_1459_641)">
                                    <path
                                        d="M13.8722 0.311798C14.5064 0.0755611 15.1994 0.0447635 15.8522 0.223798L16.1286 0.311798L27.3786 4.5118C27.9491 4.72474 28.4469 5.09469 28.8143 5.57852C29.1816 6.06236 29.4033 6.64016 29.4535 7.2446L29.4647 7.5086V16.0894C29.4646 18.6821 28.7615 21.2266 27.4294 23.4545C26.0974 25.6824 24.1859 27.5109 21.8967 28.747L21.4692 28.9694L16.0788 31.6526C15.782 31.8001 15.4578 31.8851 15.1265 31.9022C14.7952 31.9192 14.464 31.868 14.1535 31.7518L13.922 31.6526L8.53167 28.9694C6.20229 27.8099 4.23059 26.0457 2.82471 23.8632C1.41883 21.6807 0.630923 19.1607 0.544169 16.5694L0.536133 16.0894V7.5086C0.536142 6.90241 0.709104 6.30868 1.03488 5.79655C1.36066 5.28442 1.82586 4.87495 2.37631 4.6158L2.6222 4.5118L13.8722 0.311798ZM15.0004 3.3086L3.75042 7.5086V16.0894C3.75046 18.0974 4.29275 20.0685 5.32053 21.7962C6.3483 23.524 7.82374 24.9449 9.59238 25.9102L9.97006 26.107L15.0004 28.611L20.0308 26.107C21.8352 25.209 23.3638 23.8445 24.4566 22.1564C25.5495 20.4683 26.1662 18.5187 26.2424 16.5118L26.2504 16.0894V7.5086L15.0004 3.3086ZM20.5177 10.6062C20.807 10.3192 21.195 10.1526 21.6032 10.1402C22.0113 10.1278 22.4089 10.2705 22.7151 10.5394C23.0214 10.8083 23.2134 11.1831 23.2521 11.5878C23.2909 11.9924 23.1734 12.3966 22.9236 12.7182L22.7902 12.8686L14.3785 21.2446C14.072 21.5496 13.6638 21.732 13.2312 21.757C12.7987 21.7821 12.3719 21.6481 12.032 21.3806L11.8777 21.2446L8.01417 17.3982C7.72287 17.1109 7.55287 16.7237 7.53896 16.3157C7.52506 15.9078 7.66831 15.5099 7.93938 15.2037C8.21046 14.8974 8.58886 14.7059 8.99714 14.6683C9.40541 14.6307 9.81269 14.7498 10.1356 15.0014L10.2867 15.1342L13.1281 17.963L20.5177 10.6062Z"
                                        fill="#423D55" />
                                </g>
                                <defs>
                                    <clipPath id="clip0_1459_641">
                                        <rect width="30" height="32" fill="white" />
                                    </clipPath>
                                </defs>
                            </svg>
