<svg width="22" height="23" viewBox="0 0 28 32" fill="none"
                                xmlns="http://www.w3.org/2000/svg">
                                <path
                                    d="M14.0003 20.3263C8.50911 20.3263 4.03711 15.8543 4.03711 10.3631C4.03711 4.8719 8.50911 0.399902 14.0003 0.399902C19.4915 0.399902 23.9635 4.8719 23.9635 10.3631C23.9635 15.8543 19.4915 20.3263 14.0003 20.3263ZM14.0003 3.2391C10.0795 3.2391 6.88671 6.4319 6.88671 10.3527C6.88671 14.2735 10.0795 17.4663 14.0003 17.4663C17.9211 17.4663 21.1139 14.2735 21.1139 10.3527C21.1139 6.4319 17.9211 3.2391 14.0003 3.2391Z"
                                    fill="#423D55" />
                                <path
                                    d="M28.2379 31.7142H25.3883C25.3883 25.4326 20.2819 20.3262 14.0003 20.3262C7.71869 20.3262 2.6123 25.4326 2.6123 31.7142H-0.237305C-0.237305 23.8622 6.14829 17.4766 14.0003 17.4766C21.8523 17.4766 28.2379 23.8622 28.2379 31.7142Z"
                                    fill="#423D55" />
                            </svg>
