 <svg width="25" height="25" viewBox="0 0 34 34" fill="none"
                                                xmlns="http://www.w3.org/2000/svg">
                                                <path
                                                    d="M15.9375 11.1167C14.6115 11.4794 13.8125 12.4979 13.8125 13.4584C13.8125 14.4189 14.6115 15.4375 15.9375 15.7988V11.1167ZM18.0625 18.2014V22.8821C19.3885 22.5209 20.1875 21.5023 20.1875 20.5418C20.1875 19.5813 19.3885 18.5627 18.0625 18.2014Z"
                                                    fill="#423D55" />
                                                <path fill-rule="evenodd" clip-rule="evenodd"
                                                    d="M31.1667 16.9999C31.1667 24.8242 24.8242 31.1666 17 31.1666C9.17575 31.1666 2.83333 24.8242 2.83333 16.9999C2.83333 9.17567 9.17575 2.83325 17 2.83325C24.8242 2.83325 31.1667 9.17567 31.1667 16.9999ZM17 7.43742C17.2818 7.43742 17.552 7.54936 17.7513 7.74862C17.9506 7.94788 18.0625 8.21813 18.0625 8.49992V8.949C20.3717 9.36267 22.3125 11.0981 22.3125 13.4583C22.3125 13.74 22.2006 14.0103 22.0013 14.2096C21.802 14.4088 21.5318 14.5208 21.25 14.5208C20.9682 14.5208 20.698 14.4088 20.4987 14.2096C20.2994 14.0103 20.1875 13.74 20.1875 13.4583C20.1875 12.4978 19.3885 11.4792 18.0625 11.1165V16.0323C20.3717 16.446 22.3125 18.1814 22.3125 20.5416C22.3125 22.9018 20.3717 24.6372 18.0625 25.0508V25.4999C18.0625 25.7817 17.9506 26.052 17.7513 26.2512C17.552 26.4505 17.2818 26.5624 17 26.5624C16.7182 26.5624 16.448 26.4505 16.2487 26.2512C16.0494 26.052 15.9375 25.7817 15.9375 25.4999V25.0508C13.6283 24.6372 11.6875 22.9018 11.6875 20.5416C11.6875 20.2598 11.7994 19.9895 11.9987 19.7903C12.198 19.591 12.4682 19.4791 12.75 19.4791C13.0318 19.4791 13.302 19.591 13.5013 19.7903C13.7006 19.9895 13.8125 20.2598 13.8125 20.5416C13.8125 21.5021 14.6115 22.5207 15.9375 22.8819V17.9675C13.6283 17.5538 11.6875 15.8184 11.6875 13.4583C11.6875 11.0981 13.6283 9.36267 15.9375 8.949V8.49992C15.9375 8.21813 16.0494 7.94788 16.2487 7.74862C16.448 7.54936 16.7182 7.43742 17 7.43742Z"
                                                    fill="#423D55" />
                                            </svg>
