<svg width="20" height="20" viewBox="0 0 28 28" fill="none"
                                                xmlns="http://www.w3.org/2000/svg">
                                                <path
                                                    d="M27.9964 13.6992C27.9952 13.6612 27.9946 13.6238 27.9934 13.5864C27.9916 13.5249 27.9892 13.4629 27.9867 13.4014C27.9819 13.2983 27.9771 13.1952 27.9699 13.0927C27.9687 13.0704 27.9675 13.0493 27.9662 13.027C27.9614 12.9546 27.9554 12.8817 27.9494 12.8094L27.9457 12.7678C27.6572 9.50735 26.2356 6.45103 23.9278 4.12979C21.6201 1.80856 18.5721 0.369095 15.3133 0.0614905C15.3007 0.0602839 15.288 0.0596796 15.2754 0.0584775C15.1572 0.0476277 15.0378 0.0385821 14.9185 0.0313496C14.8847 0.0283367 14.8516 0.0265257 14.8184 0.0247193C14.7159 0.019291 14.6122 0.0138695 14.5097 0.0102522C14.4736 0.00904562 14.438 0.00783908 14.4024 0.00663479C14.2686 0.00301744 14.1348 0 14.0003 0C13.8948 0 13.7893 0.00181092 13.6844 0.00421949C13.6314 0.00542603 13.5777 0.00783683 13.524 0.00904337C13.4782 0.0108408 13.433 0.0120563 13.3884 0.0138673C13.3082 0.0180868 13.228 0.022304 13.1485 0.0265257C13.14 0.0271301 13.1328 0.0277323 13.1244 0.0277323C9.78369 0.237414 6.62868 1.63688 4.23106 3.9725C1.83345 6.30813 0.351884 9.42538 0.0548591 12.7593C0.017485 13.165 0 13.5539 0 14C0 14.1091 0.00120656 14.2182 0.00421959 14.3267L0.007837 14.4437C0.00964797 14.5124 0.0120596 14.5811 0.0150719 14.6499C0.0180849 14.6987 0.0205003 14.7469 0.0229089 14.7957C0.0259219 14.853 0.0301438 14.9103 0.0337589 14.9682C0.0373764 15.023 0.0409938 15.0785 0.0458178 15.1333C0.0494353 15.1816 0.0536548 15.2304 0.0584788 15.2786C0.0639027 15.3401 0.0693289 15.4016 0.0759616 15.4631C0.0801812 15.5065 0.0856096 15.5499 0.0898269 15.5939C0.0940465 15.6391 0.0982683 15.6837 0.104299 15.7283L0.115149 15.8019C0.237234 16.7628 0.459701 17.7082 0.778903 18.6226C0.779626 18.6261 0.780634 18.6296 0.781916 18.6329C0.808442 18.7089 0.836171 18.7854 0.864508 18.862C0.874151 18.8873 0.883799 18.9126 0.892841 18.9379C0.916358 19.0012 0.940474 19.0639 0.965189 19.126C0.982672 19.1718 1.00076 19.2165 1.01945 19.2611C1.03753 19.3069 1.05562 19.3527 1.07491 19.3973C2.35937 22.4859 4.71094 25.01 7.70098 26.5097C7.70977 26.5148 7.71883 26.5195 7.72811 26.5236C7.79864 26.5592 7.87038 26.5941 7.94212 26.6279C7.98915 26.6508 8.03678 26.6737 8.0838 26.6954C8.10672 26.7063 8.12962 26.7165 8.15192 26.7274C9.9865 27.5692 11.9818 28.0034 14.0003 28H14.0081C14.1245 28 14.2415 27.9982 14.3572 27.9952C14.3759 27.9946 14.3934 27.9934 14.4109 27.9934C14.5139 27.9903 14.6164 27.9867 14.7177 27.9813C14.7225 27.9813 14.7274 27.9807 14.7322 27.9807C18.1875 27.7997 21.4535 26.3455 23.9 23.8988C26.3464 21.452 27.8002 18.186 27.9807 14.7306C27.9813 14.7264 27.9813 14.7222 27.9819 14.718C27.9873 14.6155 27.991 14.5124 27.9934 14.4087L27.9952 14.3575C27.9988 14.2393 28 14.12 28 14.0006C28 13.9005 27.9988 13.7992 27.9964 13.6992ZM14.0003 26.1522C13.9491 26.1522 13.8984 26.1504 13.8478 26.1498C13.7869 26.1492 13.6519 26.0184 13.6 25.9828C13.5035 25.9165 13.4079 25.8494 13.313 25.7815C13.134 25.6525 12.958 25.5187 12.7867 25.3794C12.3643 25.052 11.9939 24.6626 11.6879 24.2244C11.0395 23.2419 11.1588 22.1044 11.7511 21.1263C12.1741 20.428 12.8338 19.8779 13.3339 19.2315C13.904 18.5304 14.3361 17.7276 14.6074 16.8655C14.7276 16.4813 14.7551 16.0741 14.6876 15.6773C14.6201 15.2804 14.4596 14.9051 14.2193 14.5822C13.6364 13.8649 12.5652 13.4804 11.7016 13.2549C11.5931 13.2265 11.4827 13.2036 11.3718 13.1849C11.1265 13.1468 10.8794 13.1217 10.6315 13.1096C9.73673 13.0587 8.83935 13.0779 7.94756 13.1668C7.16504 13.2428 6.34273 13.4858 5.60181 13.1072C4.96278 12.7816 4.38765 12.3427 3.6835 12.1595C3.13675 12.0349 2.57732 11.9746 2.01658 11.9798C2.29038 10.358 2.8905 8.80864 3.78059 7.42552C4.67069 6.0424 5.83224 4.85431 7.19491 3.9332C8.55759 3.01209 10.093 2.37711 11.7083 2.06673C13.3235 1.75634 14.985 1.777 16.592 2.12746C16.6469 3.05404 17.4885 3.61891 17.055 4.60337C16.4702 5.93084 14.8226 6.32511 14.1486 7.58205C13.9932 7.85144 13.9174 8.15943 13.9301 8.47019C13.9428 8.78096 14.0434 9.08173 14.2204 9.33755C14.4645 9.72034 14.6875 10.1162 14.8883 10.5234C15.1819 11.0912 15.4984 11.8333 16.0796 12.1679C17.7797 13.1482 17.9171 10.0959 19.0861 9.90302C19.7167 9.79873 20.073 10.1556 20.3702 10.659C20.7246 11.2582 21.0086 11.7827 21.7574 11.9292C22.2294 11.9967 22.7087 11.9967 23.1807 11.9292C23.4134 11.9069 25.8966 11.5144 25.8671 11.3812C26.2586 13.1567 26.2468 14.9974 25.8325 16.7677C25.4182 18.538 24.612 20.1929 23.4733 21.6103C22.3346 23.0277 20.8924 24.1715 19.2529 24.9576C17.6134 25.7437 15.8185 26.1519 14.0003 26.1522Z"
                                                    fill="#423D55" />
                                            </svg>
