<svg width="20" height="20" viewBox="0 0 29 29" fill="none"
                                                xmlns="http://www.w3.org/2000/svg">
                                                <path
                                                    d="M28.2368 27.4737H25.9474V6.86842C25.9587 6.7015 25.9137 6.5356 25.8196 6.39725C25.7256 6.25891 25.5878 6.1561 25.4284 6.10526L19.8421 3.77V27.4737H18.3158V0.763158C18.3158 0.560756 18.2354 0.366644 18.0923 0.223524C17.9491 0.0804041 17.755 0 17.5526 0H3.81579C3.61339 0 3.41928 0.0804041 3.27616 0.223524C3.13304 0.366644 3.05263 0.560756 3.05263 0.763158V27.4737H0.763158C0.560756 27.4737 0.366644 27.5541 0.223524 27.6972C0.0804041 27.8403 0 28.0344 0 28.2368C0 28.4392 0.0804041 28.6334 0.223524 28.7765C0.366644 28.9196 0.560756 29 0.763158 29H28.2368C28.4392 29 28.6334 28.9196 28.7765 28.7765C28.9196 28.6334 29 28.4392 29 28.2368C29 28.0344 28.9196 27.8403 28.7765 27.6972C28.6334 27.5541 28.4392 27.4737 28.2368 27.4737ZM22.1316 9.1579H23.6579C23.8603 9.1579 24.0544 9.2383 24.1975 9.38142C24.3407 9.52454 24.4211 9.71865 24.4211 9.92105C24.4171 10.1222 24.3355 10.3141 24.1932 10.4564C24.0509 10.5986 23.8591 10.6803 23.6579 10.6842H22.1316C21.9304 10.6803 21.7386 10.5986 21.5963 10.4564C21.454 10.3141 21.3723 10.1222 21.3684 9.92105C21.3684 9.71865 21.4488 9.52454 21.5919 9.38142C21.7351 9.2383 21.9292 9.1579 22.1316 9.1579ZM22.1316 13.7368H23.6579C23.8603 13.7368 24.0544 13.8172 24.1975 13.9604C24.3407 14.1035 24.4211 14.2976 24.4211 14.5C24.4211 14.7024 24.3407 14.8965 24.1975 15.0396C24.0544 15.1828 23.8603 15.2632 23.6579 15.2632H22.1316C21.9292 15.2632 21.7351 15.1828 21.5919 15.0396C21.4488 14.8965 21.3684 14.7024 21.3684 14.5C21.3684 14.2976 21.4488 14.1035 21.5919 13.9604C21.7351 13.8172 21.9292 13.7368 22.1316 13.7368ZM22.1316 18.3158H23.6579C23.8591 18.3197 24.0509 18.4014 24.1932 18.5436C24.3355 18.6859 24.4171 18.8778 24.4211 19.0789C24.4211 19.2814 24.3407 19.4755 24.1975 19.6186C24.0544 19.7617 23.8603 19.8421 23.6579 19.8421H22.1316C21.9292 19.8421 21.7351 19.7617 21.5919 19.6186C21.4488 19.4755 21.3684 19.2814 21.3684 19.0789C21.3723 18.8778 21.454 18.6859 21.5963 18.5436C21.7386 18.4014 21.9304 18.3197 22.1316 18.3158ZM22.1316 22.8947H23.6579C23.8603 22.8947 24.0544 22.9751 24.1975 23.1183C24.3407 23.2614 24.4211 23.4555 24.4211 23.6579C24.4211 23.8603 24.3407 24.0544 24.1975 24.1975C24.0544 24.3407 23.8603 24.4211 23.6579 24.4211H22.1316C21.9292 24.4211 21.7351 24.3407 21.5919 24.1975C21.4488 24.0544 21.3684 23.8603 21.3684 23.6579C21.3684 23.4555 21.4488 23.2614 21.5919 23.1183C21.7351 22.9751 21.9292 22.8947 22.1316 22.8947ZM12.2105 4.57895H13.7368C13.9392 4.57895 14.1334 4.65935 14.2765 4.80247C14.4196 4.94559 14.5 5.1397 14.5 5.34211C14.5 5.54451 14.4196 5.73862 14.2765 5.88174C14.1334 6.02486 13.9392 6.10526 13.7368 6.10526H12.2105C12.0081 6.10526 11.814 6.02486 11.6709 5.88174C11.5278 5.73862 11.4474 5.54451 11.4474 5.34211C11.4474 5.1397 11.5278 4.94559 11.6709 4.80247C11.814 4.65935 12.0081 4.57895 12.2105 4.57895ZM12.2105 9.1579H13.7368C13.9392 9.1579 14.1334 9.2383 14.2765 9.38142C14.4196 9.52454 14.5 9.71865 14.5 9.92105C14.5 10.1235 14.4196 10.3176 14.2765 10.4607C14.1334 10.6038 13.9392 10.6842 13.7368 10.6842H12.2105C12.0081 10.6842 11.814 10.6038 11.6709 10.4607C11.5278 10.3176 11.4474 10.1235 11.4474 9.92105C11.4474 9.71865 11.5278 9.52454 11.6709 9.38142C11.814 9.2383 12.0081 9.1579 12.2105 9.1579ZM12.2105 13.7368H13.7368C13.9392 13.7368 14.1334 13.8172 14.2765 13.9604C14.4196 14.1035 14.5 14.2976 14.5 14.5C14.5 14.7024 14.4196 14.8965 14.2765 15.0396C14.1334 15.1828 13.9392 15.2632 13.7368 15.2632H12.2105C12.0081 15.2632 11.814 15.1828 11.6709 15.0396C11.5278 14.8965 11.4474 14.7024 11.4474 14.5C11.4474 14.2976 11.5278 14.1035 11.6709 13.9604C11.814 13.8172 12.0081 13.7368 12.2105 13.7368ZM12.2105 18.3158H13.7368C13.9392 18.3158 14.1334 18.3962 14.2765 18.5393C14.4196 18.6824 14.5 18.8765 14.5 19.0789C14.5 19.2814 14.4196 19.4755 14.2765 19.6186C14.1334 19.7617 13.9392 19.8421 13.7368 19.8421H12.2105C12.0081 19.8421 11.814 19.7617 11.6709 19.6186C11.5278 19.4755 11.4474 19.2814 11.4474 19.0789C11.4474 18.8765 11.5278 18.6824 11.6709 18.5393C11.814 18.3962 12.0081 18.3158 12.2105 18.3158ZM7.54 4.57895H9.1579C9.3603 4.57895 9.55441 4.65935 9.69753 4.80247C9.84065 4.94559 9.92105 5.1397 9.92105 5.34211C9.92105 5.54451 9.84065 5.73862 9.69753 5.88174C9.55441 6.02486 9.3603 6.10526 9.1579 6.10526H7.63158C7.42918 6.10526 7.23506 6.02486 7.09195 5.88174C6.94883 5.73862 6.86842 5.54451 6.86842 5.34211C6.86842 5.1397 6.94883 4.94559 7.09195 4.80247C7.23506 4.65935 7.42918 4.57895 7.63158 4.57895H7.54ZM7.54 9.1579H9.1579C9.3603 9.1579 9.55441 9.2383 9.69753 9.38142C9.84065 9.52454 9.92105 9.71865 9.92105 9.92105C9.92105 10.1235 9.84065 10.3176 9.69753 10.4607C9.55441 10.6038 9.3603 10.6842 9.1579 10.6842H7.63158C7.42918 10.6842 7.23506 10.6038 7.09195 10.4607C6.94883 10.3176 6.86842 10.1235 6.86842 9.92105C6.86842 9.71865 6.94883 9.52454 7.09195 9.38142C7.23506 9.2383 7.42918 9.1579 7.63158 9.1579H7.54ZM7.54 13.7368H9.1579C9.3603 13.7368 9.55441 13.8172 9.69753 13.9604C9.84065 14.1035 9.92105 14.2976 9.92105 14.5C9.92105 14.7024 9.84065 14.8965 9.69753 15.0396C9.55441 15.1828 9.3603 15.2632 9.1579 15.2632H7.63158C7.42918 15.2632 7.23506 15.1828 7.09195 15.0396C6.94883 14.8965 6.86842 14.7024 6.86842 14.5C6.86842 14.2976 6.94883 14.1035 7.09195 13.9604C7.23506 13.8172 7.42918 13.7368 7.63158 13.7368H7.54ZM7.54 18.3158H9.1579C9.3603 18.3158 9.55441 18.3962 9.69753 18.5393C9.84065 18.6824 9.92105 18.8765 9.92105 19.0789C9.92105 19.2814 9.84065 19.4755 9.69753 19.6186C9.55441 19.7617 9.3603 19.8421 9.1579 19.8421H7.63158C7.42918 19.8421 7.23506 19.7617 7.09195 19.6186C6.94883 19.4755 6.86842 19.2814 6.86842 19.0789C6.86842 18.8765 6.94883 18.6824 7.09195 18.5393C7.23506 18.3962 7.42918 18.3158 7.63158 18.3158H7.54ZM11.4474 27.4737V24.4211H9.92105V27.4737H8.39474V23.6121C8.40642 23.4177 8.49195 23.2352 8.63383 23.1018C8.7757 22.9685 8.96318 22.8944 9.1579 22.8947H12.2105C12.4129 22.8947 12.607 22.9751 12.7502 23.1183C12.8933 23.2614 12.9737 23.4555 12.9737 23.6579V27.4737H11.4474Z"
                                                    fill="#423D55" />
                                            </svg>
